<svg width="37" height="38" viewBox="0 0 37 38" fill="none" xmlns="http://www.w3.org/2000/svg">
<path fill-rule="evenodd" clip-rule="evenodd" d="M18.6067 37.1003C28.6502 37.1003 36.7921 28.9585 36.7921 18.915C36.7921 8.87152 28.6502 0.72966 18.6067 0.72966C8.56324 0.72966 0.421387 8.87152 0.421387 18.915C0.421387 28.9585 8.56324 37.1003 18.6067 37.1003Z" fill="#F7931A"/>
<path fill-rule="evenodd" clip-rule="evenodd" d="M26.6253 16.8924C26.9867 14.4727 25.1443 13.1718 22.6251 12.3041L23.4423 9.02615L21.4464 8.52889L20.6508 11.7204C20.1268 11.5897 19.5881 11.4664 19.0528 11.3442L19.8541 8.13165L17.8599 7.6344L17.0421 10.9112C16.608 10.8123 16.1818 10.7145 15.768 10.6117L15.7703 10.6015L13.0186 9.91439L12.4879 12.0455C12.4879 12.0455 13.9683 12.3848 13.937 12.4058C14.7451 12.6075 14.8917 13.1423 14.8667 13.5662L13.9359 17.3005C13.9916 17.3147 14.0637 17.3351 14.1433 17.367L13.933 17.3147L12.6277 22.5458C12.5288 22.7913 12.2782 23.1596 11.7133 23.0198C11.7332 23.0488 10.263 22.6578 10.263 22.6578L9.27246 24.9423L11.8696 25.5896C12.1627 25.6631 12.4524 25.7386 12.7388 25.8133C12.9243 25.8617 13.1085 25.9098 13.2914 25.9567L12.4657 29.2727L14.4587 29.7699L15.277 26.4898C15.8209 26.6375 16.3494 26.7739 16.8665 26.9023L16.0516 30.1672L18.0469 30.6644L18.8726 27.3553C22.275 27.9991 24.834 27.7394 25.9098 24.6627C26.7776 22.1849 25.8672 20.7557 24.077 19.8231C25.3807 19.5214 26.3633 18.6638 26.6253 16.8924ZM22.0658 23.2852C21.4994 25.5593 17.9391 24.6183 16.3115 24.1882C16.1658 24.1497 16.0355 24.1152 15.9243 24.0876L17.02 19.6953C17.1559 19.7292 17.322 19.7665 17.5101 19.8087C19.1939 20.1865 22.644 20.9608 22.0658 23.2852ZM17.8485 17.7705C19.2066 18.1328 22.1668 18.9225 22.6824 16.8566C23.2096 14.7432 20.3312 14.1062 18.9254 13.7951C18.7673 13.7601 18.6279 13.7293 18.514 13.7009L17.5206 17.6846C17.6146 17.7081 17.725 17.7375 17.8485 17.7705Z" fill="white"/>
</svg>
