<svg width="83" height="84" viewBox="0 0 83 84" fill="none" xmlns="http://www.w3.org/2000/svg">
<path d="M75.6481 21.1859C75.5575 20.1196 75.0751 19.1265 74.2961 18.4027C73.5172 17.6789 72.4983 17.2771 71.4408 17.2766H66.6624V10.7621C66.6635 10.0376 66.5235 9.31988 66.2502 8.65013C65.977 7.98039 65.576 7.37174 65.0702 6.85899C64.5643 6.34624 63.9635 5.93946 63.3022 5.66192C62.6408 5.38437 61.9319 5.24152 61.2159 5.24152C60.5 5.24152 59.791 5.38437 59.1297 5.66192C58.4684 5.93946 57.8676 6.34624 57.3617 6.85899C56.8558 7.37174 56.4548 7.98039 56.1816 8.65013C55.9084 9.31988 55.7683 10.0376 55.7694 10.7621V17.2766H36.2403V10.7621C36.227 9.30908 35.6473 7.92011 34.6273 6.89737C33.6073 5.87463 32.2296 5.30087 30.7938 5.30089C29.3579 5.3009 27.9802 5.8747 26.9602 6.89746C25.9403 7.92022 25.3606 9.30921 25.3473 10.7623V17.2766H19.9129C19.3327 17.2794 18.7593 17.4026 18.2281 17.6387C17.6969 17.8748 17.2192 18.2187 16.8246 18.6491C16.43 19.0795 16.1269 19.5873 15.934 20.1411C15.7411 20.6948 15.6625 21.2827 15.7031 21.8684C15.8481 23.7421 15.9784 26.3297 15.9789 29.2346C15.9824 39.0007 14.5109 53.2063 7.03784 62.8103C6.53861 63.443 6.22716 64.2062 6.13972 65.011C6.05228 65.8159 6.19245 66.6293 6.54391 67.3567C6.8861 68.0772 7.42341 68.6846 8.09334 69.1083C8.76326 69.5319 9.53826 69.7543 10.3282 69.7497H15.579V74.4767C15.5803 75.6096 16.0256 76.6958 16.8172 77.4969C17.6087 78.298 18.682 78.7487 19.8014 78.75H71.608C72.7275 78.7487 73.8007 78.298 74.5923 77.4969C75.3839 76.6958 75.8292 75.6096 75.8305 74.4767C75.8984 70.5963 75.9122 24.005 75.6481 21.1859ZM58.3632 10.7621C58.3715 10.002 58.6757 9.2758 59.2098 8.74124C59.7439 8.20668 60.4648 7.90687 61.216 7.90688C61.9671 7.90689 62.688 8.20672 63.2221 8.74129C63.7561 9.27587 64.0604 10.002 64.0687 10.7622V17.2766H58.3632V10.7621ZM27.9411 10.7621C27.9496 10.0021 28.2539 9.27605 28.788 8.74161C29.322 8.20717 30.0428 7.90744 30.7939 7.90745C31.5449 7.90746 32.2657 8.20721 32.7998 8.74167C33.3338 9.27612 33.6381 10.0021 33.6466 10.7622V17.2766H27.9411L27.9411 10.7621ZM18.2893 21.662C18.2735 21.4366 18.3039 21.2104 18.3784 20.9974C18.4529 20.7843 18.57 20.5892 18.7223 20.424C18.8747 20.2588 19.059 20.1272 19.2639 20.0373C19.4687 19.9474 19.6897 19.9012 19.9129 19.9016H25.3474V23.6417C25.3538 23.9855 25.4933 24.313 25.7358 24.5538C25.9783 24.7946 26.3045 24.9295 26.6443 24.9295C26.9841 24.9295 27.3102 24.7945 27.5527 24.5537C27.7952 24.3129 27.9347 23.9854 27.9411 23.6416V19.9016H55.7695V23.6417C55.7745 23.9864 55.9134 24.3153 56.156 24.5573C56.3987 24.7992 56.7257 24.9349 57.0663 24.9349C57.407 24.9349 57.734 24.7992 57.9767 24.5573C58.2193 24.3153 58.3582 23.9864 58.3632 23.6417V19.9016H71.4409C71.8521 19.9049 72.2471 20.064 72.5481 20.3476C72.8492 20.6311 73.0343 21.0184 73.0671 21.4333C73.2777 23.6787 73.3856 25.8281 73.4182 27.8984H18.5649C18.5327 25.4445 18.4169 23.3091 18.2893 21.662ZM8.87677 66.2108C8.73787 65.9267 8.68265 65.6081 8.71768 65.2932C8.75271 64.9782 8.87651 64.68 9.07433 64.4343C16.6738 54.6698 18.4267 40.6157 18.5623 30.5233H73.4184C73.2817 50.0969 63.3533 66.819 58.8814 67.125L10.3282 67.1247C10.0251 67.1294 9.72707 67.0457 9.4697 66.8837C9.21234 66.7216 9.0065 66.488 8.87677 66.2108ZM73.2368 74.4767C73.2363 74.9137 73.0645 75.3327 72.7591 75.6417C72.4538 75.9507 72.0398 76.1245 71.608 76.125H19.8014C19.3696 76.1245 18.9557 75.9506 18.6503 75.6416C18.345 75.3326 18.1733 74.9137 18.1727 74.4767V69.7497H58.8812C59.6627 69.7483 60.4356 69.5846 61.152 69.2688C61.8685 68.953 62.5134 68.4917 63.0466 67.9136C67.7813 62.5471 71.2637 56.1725 73.2367 49.2608L73.2368 74.4767ZM54.921 43.3189L47.521 43.2497L45.2642 36.2175C45.0883 35.6703 44.7458 35.1935 44.2858 34.8554C43.8258 34.5173 43.2719 34.3352 42.7034 34.3352C42.1348 34.3352 41.5809 34.5173 41.1209 34.8554C40.6609 35.1935 40.3184 35.6703 40.1425 36.2175L37.7907 43.3189H30.4842C29.9155 43.3191 29.3616 43.5013 28.9016 43.8396C28.4416 44.1779 28.0992 44.6549 27.9234 45.2022C27.7477 45.7495 27.7476 46.339 27.9233 46.8864C28.0989 47.4337 28.4412 47.9107 28.9011 48.2491L34.8485 52.707L32.5903 59.7393C32.4237 60.2853 32.4301 60.8705 32.6086 61.4127C32.787 61.9548 33.1286 62.427 33.5855 62.7628C34.0423 63.0987 34.5916 63.2815 35.1562 63.2856C35.7209 63.2898 36.2727 63.115 36.7343 62.7858L42.7602 58.4396L48.6721 62.7853C49.1302 63.1278 49.6843 63.3137 50.2539 63.3159C50.6782 63.3114 51.0956 63.2063 51.4725 63.0091C51.8494 62.8119 52.1754 62.528 52.4244 62.1803C52.6734 61.8325 52.8384 61.4306 52.9061 61.0067C52.9739 60.5828 52.9426 60.1487 52.8147 59.7392L50.5933 52.5948L56.504 48.2491C56.9558 47.9064 57.2904 47.4292 57.4609 46.8844C57.6314 46.3396 57.6292 45.7545 57.4547 45.211C57.2802 44.6675 56.9421 44.1929 56.4877 43.8536C56.0333 43.5143 55.4856 43.3274 54.921 43.3189ZM49.0673 50.4717C48.6068 50.8095 48.2641 51.2865 48.0887 51.834C47.9132 52.3816 47.9139 52.9713 48.0908 53.5184L50.3477 60.5506L50.197 60.6622C41.1096 54.1648 44.2639 54.206 35.2095 60.6623L35.9719 61.7241L35.0575 60.5507C38.3557 49.7996 39.2893 52.8433 30.4259 46.1254L30.4842 45.944H37.7906C38.3594 45.9449 38.9138 45.7631 39.374 45.4247C39.8342 45.0863 40.1764 44.6089 40.3514 44.0611L42.7032 36.9597C42.7754 36.9597 42.7843 36.9904 42.797 37.0289L45.0538 44.0618C45.2291 44.6096 45.5715 45.087 46.032 45.4252C46.4924 45.7635 47.047 45.9451 47.6159 45.944H54.921L54.9792 46.1254L49.0673 50.4717Z" fill="url(#paint0_linear_118_775)"/>
<defs>
<linearGradient id="paint0_linear_118_775" x1="6.11348" y1="42" x2="75.8724" y2="42" gradientUnits="userSpaceOnUse">
<stop stop-color="#FF81FF"/>
<stop offset="1" stop-color="#A93AFF"/>
</linearGradient>
</defs>
</svg>
