<svg width="84" height="85" viewBox="0 0 84 85" fill="none" xmlns="http://www.w3.org/2000/svg">
<path d="M76.1481 21.4857C76.0575 20.4194 75.5751 19.4263 74.7961 18.7025C74.0172 17.9787 72.9983 17.5769 71.9408 17.5764H67.1624V11.0619C67.1635 10.3374 67.0235 9.61968 66.7502 8.94994C66.477 8.2802 66.076 7.67154 65.5702 7.15879C65.0643 6.64604 64.4635 6.23926 63.8022 5.96172C63.1408 5.68418 62.4319 5.54132 61.7159 5.54132C61 5.54132 60.291 5.68418 59.6297 5.96172C58.9684 6.23926 58.3676 6.64604 57.8617 7.15879C57.3558 7.67154 56.9548 8.2802 56.6816 8.94994C56.4084 9.61968 56.2683 10.3374 56.2694 11.0619V17.5764H36.7403V11.0619C36.727 9.60888 36.1473 8.21991 35.1273 7.19717C34.1073 6.17444 32.7296 5.60067 31.2938 5.60069C29.8579 5.60071 28.4802 6.17451 27.4602 7.19727C26.4403 8.22003 25.8606 9.60901 25.8473 11.0621V17.5764H20.4129C19.8327 17.5792 19.2593 17.7024 18.7281 17.9385C18.1969 18.1746 17.7192 18.5185 17.3246 18.9489C16.93 19.3793 16.6269 19.8871 16.434 20.4409C16.2411 20.9946 16.1625 21.5825 16.2031 22.1683C16.3481 24.0419 16.4784 26.6295 16.4789 29.5344C16.4824 39.3005 15.0109 53.5061 7.53784 63.1101C7.03861 63.7428 6.72716 64.506 6.63972 65.3108C6.55228 66.1157 6.69245 66.9291 7.04391 67.6565C7.3861 68.377 7.92341 68.9844 8.59334 69.4081C9.26326 69.8317 10.0383 70.0541 10.8282 70.0495H16.079V74.7765C16.0803 75.9095 16.5256 76.9956 17.3172 77.7967C18.1087 78.5978 19.182 79.0485 20.3014 79.0498H72.108C73.2275 79.0485 74.3007 78.5978 75.0923 77.7967C75.8839 76.9956 76.3292 75.9095 76.3305 74.7765C76.3984 70.8961 76.4122 24.3048 76.1481 21.4857ZM58.8632 11.0619C58.8715 10.3018 59.1757 9.5756 59.7098 9.04104C60.2439 8.50648 60.9648 8.20667 61.716 8.20668C62.4671 8.20669 63.188 8.50652 63.7221 9.0411C64.2561 9.57568 64.5604 10.3019 64.5687 11.062V17.5764H58.8632V11.0619ZM28.4411 11.0619C28.4496 10.3019 28.7539 9.57585 29.288 9.04142C29.822 8.50698 30.5428 8.20725 31.2939 8.20726C32.0449 8.20727 32.7657 8.50702 33.2998 9.04147C33.8338 9.57592 34.1381 10.302 34.1466 11.062V17.5764H28.4411L28.4411 11.0619ZM18.7893 21.9618C18.7735 21.7364 18.8039 21.5102 18.8784 21.2972C18.9529 21.0841 19.07 20.889 19.2223 20.7238C19.3747 20.5586 19.559 20.427 19.7639 20.3371C19.9687 20.2472 20.1897 20.201 20.4129 20.2014H25.8474V23.9415C25.8538 24.2853 25.9933 24.6128 26.2358 24.8536C26.4783 25.0944 26.8045 25.2293 27.1443 25.2293C27.4841 25.2293 27.8102 25.0943 28.0527 24.8535C28.2952 24.6127 28.4347 24.2852 28.4411 23.9414V20.2014H56.2695V23.9415C56.2745 24.2862 56.4134 24.6151 56.656 24.8571C56.8987 25.099 57.2257 25.2347 57.5663 25.2347C57.907 25.2347 58.234 25.099 58.4767 24.8571C58.7193 24.6151 58.8582 24.2862 58.8632 23.9415V20.2014H71.9409C72.3521 20.2047 72.7471 20.3638 73.0481 20.6474C73.3492 20.9309 73.5343 21.3182 73.5671 21.7331C73.7777 23.9785 73.8856 26.1279 73.9182 28.1982H19.0649C19.0327 25.7443 18.9169 23.6089 18.7893 21.9618ZM9.37677 66.5106C9.23787 66.2265 9.18265 65.9079 9.21768 65.593C9.25271 65.278 9.37651 64.9798 9.57433 64.7341C17.1738 54.9697 18.9267 40.9155 19.0623 30.8231H73.9184C73.7817 50.3967 63.8533 67.1188 59.3814 67.4248L10.8282 67.4245C10.5251 67.4292 10.2271 67.3455 9.9697 67.1835C9.71234 67.0214 9.5065 66.7878 9.37677 66.5106ZM73.7368 74.7765C73.7363 75.2135 73.5645 75.6325 73.2591 75.9415C72.9538 76.2505 72.5398 76.4243 72.108 76.4248H20.3014C19.8696 76.4243 19.4557 76.2505 19.1503 75.9414C18.845 75.6324 18.6733 75.2135 18.6727 74.7765V70.0495H59.3812C60.1627 70.0481 60.9356 69.8844 61.652 69.5686C62.3685 69.2528 63.0134 68.7915 63.5466 68.2134C68.2813 62.8469 71.7637 56.4723 73.7367 49.5606L73.7368 74.7765ZM55.421 43.6187L48.021 43.5495L45.7642 36.5173C45.5883 35.9701 45.2458 35.4933 44.7858 35.1552C44.3258 34.8171 43.7719 34.635 43.2034 34.635C42.6348 34.635 42.0809 34.8171 41.6209 35.1552C41.1609 35.4933 40.8184 35.9701 40.6425 36.5173L38.2907 43.6187H30.9842C30.4155 43.6189 29.8616 43.8011 29.4016 44.1394C28.9416 44.4777 28.5992 44.9547 28.4234 45.502C28.2477 46.0493 28.2476 46.6388 28.4233 47.1862C28.5989 47.7335 28.9412 48.2105 29.4011 48.5489L35.3485 53.0068L33.0903 60.0391C32.9237 60.5851 32.9301 61.1703 33.1086 61.7125C33.287 62.2547 33.6286 62.7268 34.0855 63.0626C34.5423 63.3985 35.0916 63.5813 35.6562 63.5854C36.2209 63.5896 36.7727 63.4148 37.2343 63.0857L43.2602 58.7394L49.1721 63.0851C49.6302 63.4276 50.1843 63.6135 50.7539 63.6157C51.1782 63.6112 51.5956 63.5061 51.9725 63.3089C52.3494 63.1117 52.6754 62.8278 52.9244 62.4801C53.1734 62.1323 53.3384 61.7304 53.4061 61.3065C53.4739 60.8826 53.4426 60.4485 53.3147 60.039L51.0933 52.8946L57.004 48.5489C57.4558 48.2062 57.7904 47.729 57.9609 47.1842C58.1314 46.6394 58.1292 46.0543 57.9547 45.5108C57.7802 44.9673 57.4421 44.4927 56.9877 44.1534C56.5333 43.8141 55.9856 43.6272 55.421 43.6187ZM49.5673 50.7715C49.1068 51.1093 48.7641 51.5863 48.5887 52.1338C48.4132 52.6814 48.4139 53.2711 48.5908 53.8182L50.8477 60.8504L50.697 60.962C41.6096 54.4646 44.7639 54.5058 35.7095 60.9621L36.4719 62.0239L35.5575 60.8505C38.8557 50.0994 39.7893 53.1432 30.9259 46.4252L30.9842 46.2438H38.2906C38.8594 46.2447 39.4138 46.0629 39.874 45.7245C40.3342 45.3861 40.6764 44.9087 40.8514 44.3609L43.2032 37.2595C43.2754 37.2595 43.2843 37.2902 43.297 37.3287L45.5538 44.3616C45.7291 44.9094 46.0715 45.3868 46.532 45.725C46.9924 46.0633 47.547 46.2449 48.1159 46.2438H55.421L55.4792 46.4252L49.5673 50.7715Z" fill="url(#paint0_linear_118_775)"/>
<defs>
<linearGradient id="paint0_linear_118_775" x1="6.61348" y1="42.2998" x2="76.3724" y2="42.2998" gradientUnits="userSpaceOnUse">
<stop stop-color="#FF81FF"/>
<stop offset="1" stop-color="#A93AFF"/>
</linearGradient>
</defs>
</svg>
