<svg width="33" height="32" viewBox="0 0 33 32" fill="none" xmlns="http://www.w3.org/2000/svg">
<path d="M24.9167 7H23.9167V6C23.9167 5.73478 23.8114 5.48043 23.6239 5.29289C23.4363 5.10536 23.182 5 22.9167 5C22.6515 5 22.3972 5.10536 22.2096 5.29289C22.0221 5.48043 21.9167 5.73478 21.9167 6V7H11.9167V6C11.9167 5.73478 11.8114 5.48043 11.6239 5.29289C11.4363 5.10536 11.182 5 10.9167 5C10.6515 5 10.3972 5.10536 10.2096 5.29289C10.0221 5.48043 9.91675 5.73478 9.91675 6V7H8.91675C8.1211 7 7.35804 7.31607 6.79543 7.87868C6.23282 8.44129 5.91675 9.20435 5.91675 10V24C5.91675 24.7956 6.23282 25.5587 6.79543 26.1213C7.35804 26.6839 8.1211 27 8.91675 27H20.9167C21.0484 27.0008 21.1788 26.9755 21.3007 26.9258C21.4225 26.876 21.5333 26.8027 21.6267 26.71L27.6267 20.71C27.7055 20.6281 27.7698 20.5334 27.8167 20.43V20.34C27.8458 20.2527 27.8626 20.1619 27.8667 20.07C27.8667 20.07 27.8667 20.07 27.8667 20.01V10C27.8669 9.21294 27.5577 8.45736 27.0058 7.89616C26.454 7.33497 25.7037 7.01312 24.9167 7ZM8.91675 9H9.91675V10C9.91675 10.2652 10.0221 10.5196 10.2096 10.7071C10.3972 10.8946 10.6515 11 10.9167 11C11.182 11 11.4363 10.8946 11.6239 10.7071C11.8114 10.5196 11.9167 10.2652 11.9167 10V9H21.9167V10C21.9167 10.2652 22.0221 10.5196 22.2096 10.7071C22.3972 10.8946 22.6515 11 22.9167 11C23.182 11 23.4363 10.8946 23.6239 10.7071C23.8114 10.5196 23.9167 10.2652 23.9167 10V9H24.9167C25.182 9 25.4363 9.10536 25.6239 9.29289C25.8114 9.48043 25.9167 9.73478 25.9167 10V13H7.91675V10C7.91675 9.73478 8.0221 9.48043 8.20964 9.29289C8.39718 9.10536 8.65153 9 8.91675 9ZM7.91675 24V15H25.9167V19H22.9167C22.1211 19 21.358 19.3161 20.7954 19.8787C20.2328 20.4413 19.9167 21.2044 19.9167 22V25H8.91675C8.65153 25 8.39718 24.8946 8.20964 24.7071C8.0221 24.5196 7.91675 24.2652 7.91675 24ZM21.9167 23.59V22C21.9167 21.7348 22.0221 21.4804 22.2096 21.2929C22.3972 21.1054 22.6515 21 22.9167 21H24.5067L21.9167 23.59Z" fill="white"/>
<path d="M19.9168 18.0001C19.9153 17.8694 19.8881 17.7403 19.8368 17.6201C19.76 17.4397 19.6318 17.2858 19.4682 17.1777C19.3047 17.0696 19.1129 17.012 18.9168 17.012C18.7208 17.012 18.529 17.0696 18.3654 17.1777C18.2019 17.2858 18.0737 17.4397 17.9968 17.6201C17.9456 17.7403 17.9184 17.8694 17.9168 18.0001C17.9168 18.2653 18.0222 18.5196 18.2097 18.7072C18.3973 18.8947 18.6516 19.0001 18.9168 19.0001C19.0475 18.9985 19.1766 18.9713 19.2968 18.9201C19.4209 18.8751 19.5336 18.8035 19.627 18.7102C19.7203 18.6168 19.7919 18.5041 19.8368 18.3801C19.8881 18.2598 19.9153 18.1307 19.9168 18.0001ZM15.6268 17.2901C15.5777 17.2448 15.5241 17.2046 15.4668 17.1701C15.4159 17.1303 15.3584 17.0998 15.2968 17.0801C15.2372 17.0499 15.173 17.0297 15.1068 17.0201C14.9153 16.9795 14.7158 17.0005 14.5368 17.0801C14.4127 17.125 14.3 17.1966 14.2067 17.2899C14.1134 17.3833 14.0418 17.496 13.9968 17.6201C13.9405 17.7386 13.9131 17.8688 13.9168 18.0001C13.9179 18.2624 14.0221 18.5138 14.2068 18.7001C14.2995 18.7945 14.4099 18.8697 14.5318 18.9212C14.6537 18.9727 14.7845 18.9995 14.9168 19.0001C15.1821 19.0001 15.4364 18.8947 15.624 18.7072C15.8115 18.5196 15.9168 18.2653 15.9168 18.0001C15.9153 17.8694 15.8881 17.7403 15.8368 17.6201C15.7892 17.4973 15.7179 17.3852 15.6268 17.2901ZM11.6268 17.2901C11.5114 17.1696 11.3676 17.08 11.2087 17.0294C11.0498 16.9787 10.8807 16.9687 10.7168 17.0001C10.6542 17.0111 10.5936 17.0314 10.5368 17.0601C10.473 17.0817 10.4125 17.112 10.3568 17.1501L10.2068 17.2701C10.1158 17.3652 10.0444 17.4773 9.99684 17.6001C9.94298 17.7265 9.91574 17.8626 9.91684 18.0001C9.91795 18.2624 10.0221 18.5138 10.2068 18.7001C10.3461 18.8405 10.5239 18.9364 10.7177 18.9758C10.9115 19.0152 11.1127 18.9962 11.2957 18.9213C11.4787 18.8464 11.6354 18.7189 11.746 18.5549C11.8566 18.3909 11.916 18.1978 11.9168 18.0001C11.9153 17.8694 11.8881 17.7403 11.8368 17.6201C11.7892 17.4973 11.7179 17.3852 11.6268 17.2901ZM15.6268 21.2901C15.5777 21.2448 15.5241 21.2046 15.4668 21.1701C15.4159 21.1303 15.3584 21.0998 15.2968 21.0801C15.2372 21.0499 15.173 21.0297 15.1068 21.0201C14.9462 20.9879 14.7801 20.9957 14.6232 21.0428C14.4662 21.0898 14.3233 21.1748 14.2068 21.2901C14.1185 21.3873 14.0475 21.4989 13.9968 21.6201C13.9405 21.7386 13.9131 21.8688 13.9168 22.0001C13.9153 22.1301 13.939 22.2591 13.9868 22.3801C14.0452 22.4993 14.1192 22.6103 14.2068 22.7101C14.3706 22.8731 14.5857 22.9744 14.8157 22.9967C15.0456 23.0191 15.2762 22.9611 15.4683 22.8327C15.6604 22.7042 15.802 22.5133 15.8692 22.2922C15.9364 22.0711 15.925 21.8336 15.8368 21.6201C15.7862 21.4989 15.7152 21.3873 15.6268 21.2901ZM11.6268 21.2901C11.5339 21.1963 11.4233 21.1219 11.3014 21.0712C11.1796 21.0204 11.0489 20.9943 10.9168 20.9943C10.7848 20.9943 10.6541 21.0204 10.5323 21.0712C10.4104 21.1219 10.2998 21.1963 10.2068 21.2901C10.1158 21.3852 10.0444 21.4973 9.99684 21.6201C9.9456 21.7403 9.91842 21.8694 9.91684 22.0001C9.91309 22.1313 9.9405 22.2615 9.99684 22.3801C10.0477 22.5011 10.1187 22.6127 10.2068 22.7101C10.2998 22.8038 10.4104 22.8782 10.5323 22.9289C10.6541 22.9797 10.7848 23.0058 10.9168 23.0058C11.0489 23.0058 11.1796 22.9797 11.3014 22.9289C11.4233 22.8782 11.5339 22.8038 11.6268 22.7101C11.715 22.6127 11.786 22.5011 11.8368 22.3801C11.8897 22.2604 11.9171 22.1309 11.9171 22.0001C11.9171 21.8692 11.8897 21.7398 11.8368 21.6201C11.7892 21.4973 11.7179 21.3852 11.6268 21.2901Z" fill="white"/>
</svg>
