<svg width="33" height="32" viewBox="0 0 33 32" fill="none" xmlns="http://www.w3.org/2000/svg">
<path d="M24.2197 7H23.2197V6C23.2197 5.73478 23.1144 5.48043 22.9268 5.29289C22.7393 5.10536 22.4849 5 22.2197 5C21.9545 5 21.7002 5.10536 21.5126 5.29289C21.3251 5.48043 21.2197 5.73478 21.2197 6V7H11.2197V6C11.2197 5.73478 11.1144 5.48043 10.9268 5.29289C10.7393 5.10536 10.4849 5 10.2197 5C9.95451 5 9.70016 5.10536 9.51262 5.29289C9.32508 5.48043 9.21973 5.73478 9.21973 6V7H8.21973C7.42408 7 6.66102 7.31607 6.09841 7.87868C5.5358 8.44129 5.21973 9.20435 5.21973 10V24C5.21973 24.7956 5.5358 25.5587 6.09841 26.1213C6.66102 26.6839 7.42408 27 8.21973 27H20.2197C20.3513 27.0008 20.4818 26.9755 20.6036 26.9258C20.7255 26.876 20.8363 26.8027 20.9297 26.71L26.9297 20.71C27.0085 20.6281 27.0728 20.5334 27.1197 20.43V20.34C27.1487 20.2527 27.1656 20.1619 27.1697 20.07C27.1697 20.07 27.1697 20.07 27.1697 20.01V10C27.1698 9.21294 26.8606 8.45736 26.3088 7.89616C25.757 7.33497 25.0067 7.01312 24.2197 7ZM8.21973 9H9.21973V10C9.21973 10.2652 9.32508 10.5196 9.51262 10.7071C9.70016 10.8946 9.95451 11 10.2197 11C10.4849 11 10.7393 10.8946 10.9268 10.7071C11.1144 10.5196 11.2197 10.2652 11.2197 10V9H21.2197V10C21.2197 10.2652 21.3251 10.5196 21.5126 10.7071C21.7002 10.8946 21.9545 11 22.2197 11C22.4849 11 22.7393 10.8946 22.9268 10.7071C23.1144 10.5196 23.2197 10.2652 23.2197 10V9H24.2197C24.4849 9 24.7393 9.10536 24.9268 9.29289C25.1144 9.48043 25.2197 9.73478 25.2197 10V13H7.21973V10C7.21973 9.73478 7.32508 9.48043 7.51262 9.29289C7.70016 9.10536 7.95451 9 8.21973 9ZM7.21973 24V15H25.2197V19H22.2197C21.4241 19 20.661 19.3161 20.0984 19.8787C19.5358 20.4413 19.2197 21.2044 19.2197 22V25H8.21973C7.95451 25 7.70016 24.8946 7.51262 24.7071C7.32508 24.5196 7.21973 24.2652 7.21973 24ZM21.2197 23.59V22C21.2197 21.7348 21.3251 21.4804 21.5126 21.2929C21.7002 21.1054 21.9545 21 22.2197 21H23.8097L21.2197 23.59Z" fill="white"/>
<path d="M19.2198 18.0001C19.2182 17.8694 19.1911 17.7403 19.1398 17.6201C19.063 17.4397 18.9348 17.2858 18.7712 17.1777C18.6076 17.0696 18.4159 17.012 18.2198 17.012C18.0237 17.012 17.832 17.0696 17.6684 17.1777C17.5048 17.2858 17.3767 17.4397 17.2998 17.6201C17.2486 17.7403 17.2214 17.8694 17.2198 18.0001C17.2198 18.2653 17.3252 18.5196 17.5127 18.7072C17.7003 18.8947 17.9546 19.0001 18.2198 19.0001C18.3505 18.9985 18.4796 18.9713 18.5998 18.9201C18.7239 18.8751 18.8366 18.8035 18.9299 18.7102C19.0233 18.6168 19.0949 18.5041 19.1398 18.3801C19.1911 18.2598 19.2182 18.1307 19.2198 18.0001ZM14.9298 17.2901C14.8806 17.2448 14.827 17.2046 14.7698 17.1701C14.7189 17.1303 14.6613 17.0998 14.5998 17.0801C14.5401 17.0499 14.476 17.0297 14.4098 17.0201C14.2182 16.9795 14.0188 17.0005 13.8398 17.0801C13.7157 17.125 13.603 17.1966 13.5097 17.2899C13.4164 17.3833 13.3447 17.496 13.2998 17.6201C13.2435 17.7386 13.2161 17.8688 13.2198 18.0001C13.2209 18.2624 13.3251 18.5138 13.5098 18.7001C13.6024 18.7945 13.7129 18.8697 13.8348 18.9212C13.9566 18.9727 14.0875 18.9995 14.2198 19.0001C14.485 19.0001 14.7394 18.8947 14.9269 18.7072C15.1145 18.5196 15.2198 18.2653 15.2198 18.0001C15.2182 17.8694 15.1911 17.7403 15.1398 17.6201C15.0922 17.4973 15.0209 17.3852 14.9298 17.2901ZM10.9298 17.2901C10.8144 17.1696 10.6706 17.08 10.5117 17.0294C10.3527 16.9787 10.1837 16.9687 10.0198 17.0001C9.95721 17.0111 9.89656 17.0314 9.83982 17.0601C9.776 17.0817 9.71544 17.112 9.65982 17.1501L9.50982 17.2701C9.41878 17.3652 9.34742 17.4773 9.29982 17.6001C9.24596 17.7265 9.21872 17.8626 9.21982 18.0001C9.22093 18.2624 9.32508 18.5138 9.50982 18.7001C9.64909 18.8405 9.82688 18.9364 10.0207 18.9758C10.2145 19.0152 10.4156 18.9962 10.5987 18.9213C10.7817 18.8464 10.9384 18.7189 11.049 18.5549C11.1595 18.3909 11.219 18.1978 11.2198 18.0001C11.2182 17.8694 11.1911 17.7403 11.1398 17.6201C11.0922 17.4973 11.0209 17.3852 10.9298 17.2901ZM14.9298 21.2901C14.8806 21.2448 14.827 21.2046 14.7698 21.1701C14.7189 21.1303 14.6613 21.0998 14.5998 21.0801C14.5401 21.0499 14.476 21.0297 14.4098 21.0201C14.2492 20.9879 14.0831 20.9957 13.9261 21.0428C13.7692 21.0898 13.6262 21.1748 13.5098 21.2901C13.4215 21.3873 13.3505 21.4989 13.2998 21.6201C13.2435 21.7386 13.2161 21.8688 13.2198 22.0001C13.2182 22.1301 13.242 22.2591 13.2898 22.3801C13.3482 22.4993 13.4222 22.6103 13.5098 22.7101C13.6736 22.8731 13.8887 22.9744 14.1186 22.9967C14.3486 23.0191 14.5792 22.9611 14.7713 22.8327C14.9633 22.7042 15.105 22.5133 15.1722 22.2922C15.2394 22.0711 15.2279 21.8336 15.1398 21.6201C15.0892 21.4989 15.0182 21.3873 14.9298 21.2901ZM10.9298 21.2901C10.8369 21.1963 10.7263 21.1219 10.6044 21.0712C10.4825 21.0204 10.3518 20.9943 10.2198 20.9943C10.0878 20.9943 9.9571 21.0204 9.83525 21.0712C9.71339 21.1219 9.60279 21.1963 9.50982 21.2901C9.41878 21.3852 9.34742 21.4973 9.29982 21.6201C9.24858 21.7403 9.2214 21.8694 9.21982 22.0001C9.21607 22.1313 9.24348 22.2615 9.29982 22.3801C9.35064 22.5011 9.42165 22.6127 9.50982 22.7101C9.60279 22.8038 9.71339 22.8782 9.83525 22.9289C9.9571 22.9797 10.0878 23.0058 10.2198 23.0058C10.3518 23.0058 10.4825 22.9797 10.6044 22.9289C10.7263 22.8782 10.8369 22.8038 10.9298 22.7101C11.018 22.6127 11.089 22.5011 11.1398 22.3801C11.1927 22.2604 11.2201 22.1309 11.2201 22.0001C11.2201 21.8692 11.1927 21.7398 11.1398 21.6201C11.0922 21.4973 11.0209 21.3852 10.9298 21.2901Z" fill="white"/>
</svg>
