<svg width="33" height="33" viewBox="0 0 33 33" fill="none" xmlns="http://www.w3.org/2000/svg">
<path d="M24.1051 7.2915H23.1051V6.2915C23.1051 6.02629 22.9997 5.77193 22.8122 5.5844C22.6247 5.39686 22.3703 5.2915 22.1051 5.2915C21.8399 5.2915 21.5855 5.39686 21.398 5.5844C21.2105 5.77193 21.1051 6.02629 21.1051 6.2915V7.2915H11.1051V6.2915C11.1051 6.02629 10.9997 5.77193 10.8122 5.5844C10.6247 5.39686 10.3703 5.2915 10.1051 5.2915C9.83989 5.2915 9.58553 5.39686 9.398 5.5844C9.21046 5.77193 9.1051 6.02629 9.1051 6.2915V7.2915H8.1051C7.30945 7.2915 6.54639 7.60757 5.98378 8.17018C5.42117 8.73279 5.1051 9.49585 5.1051 10.2915V24.2915C5.1051 25.0872 5.42117 25.8502 5.98378 26.4128C6.54639 26.9754 7.30945 27.2915 8.1051 27.2915H20.1051C20.2367 27.2923 20.3672 27.267 20.489 27.2173C20.6108 27.1675 20.7217 27.0942 20.8151 27.0015L26.8151 21.0015C26.8939 20.9196 26.9581 20.825 27.0051 20.7215V20.6315C27.0341 20.5442 27.0509 20.4534 27.0551 20.3615C27.0551 20.3615 27.0551 20.3615 27.0551 20.3015V10.2915C27.0552 9.50444 26.746 8.74886 26.1942 8.18767C25.6423 7.62647 24.8921 7.30462 24.1051 7.2915ZM8.1051 9.2915H9.1051V10.2915C9.1051 10.5567 9.21046 10.8111 9.398 10.9986C9.58553 11.1861 9.83989 11.2915 10.1051 11.2915C10.3703 11.2915 10.6247 11.1861 10.8122 10.9986C10.9997 10.8111 11.1051 10.5567 11.1051 10.2915V9.2915H21.1051V10.2915C21.1051 10.5567 21.2105 10.8111 21.398 10.9986C21.5855 11.1861 21.8399 11.2915 22.1051 11.2915C22.3703 11.2915 22.6247 11.1861 22.8122 10.9986C22.9997 10.8111 23.1051 10.5567 23.1051 10.2915V9.2915H24.1051C24.3703 9.2915 24.6247 9.39686 24.8122 9.5844C24.9997 9.77193 25.1051 10.0263 25.1051 10.2915V13.2915H7.1051V10.2915C7.1051 10.0263 7.21046 9.77193 7.398 9.5844C7.58553 9.39686 7.83989 9.2915 8.1051 9.2915ZM7.1051 24.2915V15.2915H25.1051V19.2915H22.1051C21.3095 19.2915 20.5464 19.6076 19.9838 20.1702C19.4212 20.7328 19.1051 21.4959 19.1051 22.2915V25.2915H8.1051C7.83989 25.2915 7.58553 25.1861 7.398 24.9986C7.21046 24.8111 7.1051 24.5567 7.1051 24.2915ZM21.1051 23.8815V22.2915C21.1051 22.0263 21.2105 21.7719 21.398 21.5844C21.5855 21.3969 21.8399 21.2915 22.1051 21.2915H23.6951L21.1051 23.8815Z" fill="#A7A6B7"/>
<path d="M19.1051 18.2916C19.1035 18.1609 19.0763 18.0318 19.0251 17.9116C18.9482 17.7312 18.8201 17.5773 18.6565 17.4692C18.4929 17.3611 18.3012 17.3035 18.1051 17.3035C17.909 17.3035 17.7173 17.3611 17.5537 17.4692C17.3901 17.5773 17.2619 17.7312 17.1851 17.9116C17.1338 18.0318 17.1067 18.1609 17.1051 18.2916C17.1051 18.5568 17.2104 18.8111 17.398 18.9987C17.5855 19.1862 17.8399 19.2916 18.1051 19.2916C18.2358 19.29 18.3649 19.2628 18.4851 19.2116C18.6092 19.1666 18.7219 19.095 18.8152 19.0017C18.9085 18.9084 18.9802 18.7957 19.0251 18.6716C19.0763 18.5513 19.1035 18.4222 19.1051 18.2916ZM14.8151 17.5816C14.7659 17.5363 14.7123 17.4961 14.6551 17.4616C14.6041 17.4218 14.5466 17.3913 14.4851 17.3716C14.4254 17.3414 14.3612 17.3212 14.2951 17.3116C14.1035 17.271 13.904 17.292 13.7251 17.3716C13.601 17.4165 13.4883 17.4881 13.395 17.5814C13.3016 17.6748 13.23 17.7875 13.1851 17.9116C13.1287 18.0301 13.1013 18.1603 13.1051 18.2916C13.1062 18.5539 13.2103 18.8053 13.3951 18.9916C13.4877 19.086 13.5981 19.1612 13.72 19.2127C13.8419 19.2642 13.9728 19.291 14.1051 19.2916C14.3703 19.2916 14.6246 19.1862 14.8122 18.9987C14.9997 18.8111 15.1051 18.5568 15.1051 18.2916C15.1035 18.1609 15.0763 18.0318 15.0251 17.9116C14.9775 17.7888 14.9061 17.6767 14.8151 17.5816ZM10.8151 17.5816C10.6996 17.4612 10.5559 17.3715 10.3969 17.3209C10.238 17.2702 10.0689 17.2602 9.90508 17.2916C9.84246 17.3026 9.78182 17.3229 9.72508 17.3516C9.66126 17.3732 9.6007 17.4035 9.54508 17.4416L9.39508 17.5616C9.30404 17.6567 9.23267 17.7688 9.18508 17.8916C9.13121 18.018 9.10398 18.1541 9.10508 18.2916C9.10618 18.5539 9.21033 18.8053 9.39508 18.9916C9.53435 19.132 9.71213 19.2279 9.90594 19.2673C10.0998 19.3067 10.3009 19.2877 10.4839 19.2128C10.667 19.1379 10.8237 19.0104 10.9342 18.8464C11.0448 18.6824 11.1042 18.4893 11.1051 18.2916C11.1035 18.1609 11.0763 18.0318 11.0251 17.9116C10.9775 17.7888 10.9061 17.6767 10.8151 17.5816ZM14.8151 21.5816C14.7659 21.5363 14.7123 21.4961 14.6551 21.4616C14.6041 21.4218 14.5466 21.3913 14.4851 21.3716C14.4254 21.3414 14.3612 21.3212 14.2951 21.3116C14.1344 21.2794 13.9683 21.2872 13.8114 21.3343C13.6545 21.3813 13.5115 21.4663 13.3951 21.5816C13.3067 21.6788 13.2357 21.7904 13.1851 21.9116C13.1287 22.0301 13.1013 22.1603 13.1051 22.2916C13.1035 22.4216 13.1273 22.5506 13.1751 22.6716C13.2335 22.7908 13.3075 22.9018 13.3951 23.0016C13.5588 23.1646 13.7739 23.2659 14.0039 23.2882C14.2339 23.3106 14.4645 23.2526 14.6565 23.1242C14.8486 22.9958 14.9903 22.8048 15.0574 22.5837C15.1246 22.3626 15.1132 22.1251 15.0251 21.9116C14.9744 21.7904 14.9034 21.6788 14.8151 21.5816ZM10.8151 21.5816C10.7221 21.4878 10.6115 21.4134 10.4897 21.3627C10.3678 21.3119 10.2371 21.2858 10.1051 21.2858C9.97306 21.2858 9.84236 21.3119 9.7205 21.3627C9.59864 21.4134 9.48804 21.4878 9.39508 21.5816C9.30404 21.6767 9.23267 21.7888 9.18508 21.9116C9.13384 22.0318 9.10666 22.1609 9.10508 22.2916C9.10132 22.4228 9.12874 22.553 9.18508 22.6716C9.23589 22.7926 9.3069 22.9042 9.39508 23.0016C9.48804 23.0953 9.59864 23.1697 9.7205 23.2204C9.84236 23.2712 9.97306 23.2974 10.1051 23.2974C10.2371 23.2974 10.3678 23.2712 10.4897 23.2204C10.6115 23.1697 10.7221 23.0953 10.8151 23.0016C10.9033 22.9042 10.9743 22.7926 11.0251 22.6716C11.078 22.5519 11.1053 22.4224 11.1053 22.2916C11.1053 22.1607 11.078 22.0313 11.0251 21.9116C10.9775 21.7888 10.9061 21.6767 10.8151 21.5816Z" fill="#A7A6B7"/>
</svg>
