<svg width="33" height="33" viewBox="0 0 33 33" fill="none" xmlns="http://www.w3.org/2000/svg">
<path d="M24.5 7.43604H23.5V6.43604C23.5 6.17082 23.3946 5.91646 23.2071 5.72893C23.0196 5.54139 22.7652 5.43604 22.5 5.43604C22.2348 5.43604 21.9804 5.54139 21.7929 5.72893C21.6054 5.91646 21.5 6.17082 21.5 6.43604V7.43604H11.5V6.43604C11.5 6.17082 11.3946 5.91646 11.2071 5.72893C11.0196 5.54139 10.7652 5.43604 10.5 5.43604C10.2348 5.43604 9.98043 5.54139 9.79289 5.72893C9.60536 5.91646 9.5 6.17082 9.5 6.43604V7.43604H8.5C7.70435 7.43604 6.94129 7.75211 6.37868 8.31471C5.81607 8.87732 5.5 9.64039 5.5 10.436V24.436C5.5 25.2317 5.81607 25.9947 6.37868 26.5574C6.94129 27.12 7.70435 27.436 8.5 27.436H20.5C20.6316 27.4368 20.7621 27.4116 20.8839 27.3618C21.0057 27.312 21.1166 27.2387 21.21 27.146L27.21 21.146C27.2888 21.0642 27.353 20.9695 27.4 20.866V20.776C27.429 20.6888 27.4458 20.5979 27.45 20.506C27.45 20.506 27.45 20.506 27.45 20.446V10.436C27.4501 9.64897 27.1409 8.89339 26.5891 8.3322C26.0372 7.771 25.287 7.44915 24.5 7.43604ZM8.5 9.43604H9.5V10.436C9.5 10.7013 9.60536 10.9556 9.79289 11.1431C9.98043 11.3307 10.2348 11.436 10.5 11.436C10.7652 11.436 11.0196 11.3307 11.2071 11.1431C11.3946 10.9556 11.5 10.7013 11.5 10.436V9.43604H21.5V10.436C21.5 10.7013 21.6054 10.9556 21.7929 11.1431C21.9804 11.3307 22.2348 11.436 22.5 11.436C22.7652 11.436 23.0196 11.3307 23.2071 11.1431C23.3946 10.9556 23.5 10.7013 23.5 10.436V9.43604H24.5C24.7652 9.43604 25.0196 9.54139 25.2071 9.72893C25.3946 9.91646 25.5 10.1708 25.5 10.436V13.436H7.5V10.436C7.5 10.1708 7.60536 9.91646 7.79289 9.72893C7.98043 9.54139 8.23478 9.43604 8.5 9.43604ZM7.5 24.436V15.436H25.5V19.436H22.5C21.7044 19.436 20.9413 19.7521 20.3787 20.3147C19.8161 20.8773 19.5 21.6404 19.5 22.436V25.436H8.5C8.23478 25.436 7.98043 25.3307 7.79289 25.1431C7.60536 24.9556 7.5 24.7013 7.5 24.436ZM21.5 24.026V22.436C21.5 22.1708 21.6054 21.9165 21.7929 21.7289C21.9804 21.5414 22.2348 21.436 22.5 21.436H24.09L21.5 24.026Z" fill="#A7A6B7"/>
<path d="M19.5 18.4361C19.4984 18.3054 19.4712 18.1763 19.42 18.0561C19.3431 17.8757 19.2149 17.7219 19.0514 17.6138C18.8878 17.5056 18.696 17.448 18.5 17.448C18.3039 17.448 18.1121 17.5056 17.9486 17.6138C17.785 17.7219 17.6568 17.8757 17.58 18.0561C17.5287 18.1763 17.5016 18.3054 17.5 18.4361C17.5 18.7013 17.6053 18.9557 17.7929 19.1432C17.9804 19.3307 18.2348 19.4361 18.5 19.4361C18.6307 19.4345 18.7598 19.4073 18.88 19.3561C19.0041 19.3112 19.1168 19.2395 19.2101 19.1462C19.3034 19.0529 19.3751 18.9402 19.42 18.8161C19.4712 18.6959 19.4984 18.5668 19.5 18.4361ZM15.21 17.7261C15.1608 17.6808 15.1072 17.6406 15.05 17.6061C14.999 17.5663 14.9415 17.5359 14.88 17.5161C14.8203 17.486 14.7561 17.4657 14.69 17.4561C14.4984 17.4156 14.2989 17.4366 14.12 17.5161C13.9959 17.561 13.8832 17.6327 13.7899 17.726C13.6965 17.8193 13.6249 17.932 13.58 18.0561C13.5236 18.1746 13.4962 18.3049 13.5 18.4361C13.5011 18.6984 13.6052 18.9498 13.79 19.1361C13.8826 19.2306 13.993 19.3057 14.1149 19.3572C14.2368 19.4087 14.3677 19.4355 14.5 19.4361C14.7652 19.4361 15.0195 19.3307 15.2071 19.1432C15.3946 18.9557 15.5 18.7013 15.5 18.4361C15.4984 18.3054 15.4712 18.1763 15.42 18.0561C15.3724 17.9333 15.301 17.8212 15.21 17.7261ZM11.21 17.7261C11.0945 17.6057 10.9508 17.5161 10.7918 17.4654C10.6329 17.4148 10.4638 17.4047 10.3 17.4361C10.2374 17.4472 10.1767 17.4674 10.12 17.4961C10.0562 17.5177 9.9956 17.548 9.93997 17.5861L9.78997 17.7061C9.69893 17.8012 9.62757 17.9133 9.57997 18.0361C9.52611 18.1625 9.49887 18.2987 9.49997 18.4361C9.50108 18.6984 9.60523 18.9498 9.78997 19.1361C9.92925 19.2765 10.107 19.3725 10.3008 19.4119C10.4947 19.4513 10.6958 19.4323 10.8788 19.3574C11.0619 19.2824 11.2186 19.1549 11.3291 18.9909C11.4397 18.8269 11.4991 18.6339 11.5 18.4361C11.4984 18.3054 11.4712 18.1763 11.42 18.0561C11.3724 17.9333 11.301 17.8212 11.21 17.7261ZM15.21 21.7261C15.1608 21.6808 15.1072 21.6406 15.05 21.6061C14.999 21.5663 14.9415 21.5359 14.88 21.5161C14.8203 21.486 14.7561 21.4657 14.69 21.4561C14.5293 21.4239 14.3632 21.4317 14.2063 21.4788C14.0494 21.5259 13.9064 21.6108 13.79 21.7261C13.7016 21.8233 13.6306 21.9349 13.58 22.0561C13.5236 22.1746 13.4962 22.3049 13.5 22.4361C13.4984 22.5661 13.5222 22.6952 13.57 22.8161C13.6284 22.9353 13.7024 23.0463 13.79 23.1461C13.9537 23.3091 14.1688 23.4104 14.3988 23.4328C14.6288 23.4551 14.8594 23.3972 15.0514 23.2687C15.2435 23.1403 15.3851 22.9493 15.4523 22.7282C15.5195 22.5072 15.5081 22.2697 15.42 22.0561C15.3693 21.9349 15.2983 21.8233 15.21 21.7261ZM11.21 21.7261C11.117 21.6324 11.0064 21.558 10.8846 21.5072C10.7627 21.4564 10.632 21.4303 10.5 21.4303C10.368 21.4303 10.2373 21.4564 10.1154 21.5072C9.99354 21.558 9.88294 21.6324 9.78997 21.7261C9.69893 21.8212 9.62757 21.9333 9.57997 22.0561C9.52873 22.1763 9.50155 22.3054 9.49997 22.4361C9.49622 22.5673 9.52363 22.6975 9.57997 22.8161C9.63079 22.9372 9.7018 23.0488 9.78997 23.1461C9.88294 23.2398 9.99354 23.3142 10.1154 23.365C10.2373 23.4157 10.368 23.4419 10.5 23.4419C10.632 23.4419 10.7627 23.4157 10.8846 23.365C11.0064 23.3142 11.117 23.2398 11.21 23.1461C11.2981 23.0488 11.3692 22.9372 11.42 22.8161C11.4729 22.6964 11.5002 22.567 11.5002 22.4361C11.5002 22.3052 11.4729 22.1758 11.42 22.0561C11.3724 21.9333 11.301 21.8212 11.21 21.7261Z" fill="#A7A6B7"/>
</svg>
