<svg width="33" height="33" viewBox="0 0 33 33" fill="none" xmlns="http://www.w3.org/2000/svg">
<path d="M24.469 7.2915H23.469V6.2915C23.469 6.02629 23.3636 5.77193 23.1761 5.5844C22.9886 5.39686 22.7342 5.2915 22.469 5.2915C22.2038 5.2915 21.9494 5.39686 21.7619 5.5844C21.5744 5.77193 21.469 6.02629 21.469 6.2915V7.2915H11.469V6.2915C11.469 6.02629 11.3636 5.77193 11.1761 5.5844C10.9886 5.39686 10.7342 5.2915 10.469 5.2915C10.2038 5.2915 9.94942 5.39686 9.76189 5.5844C9.57435 5.77193 9.46899 6.02629 9.46899 6.2915V7.2915H8.46899C7.67334 7.2915 6.91028 7.60757 6.34767 8.17018C5.78506 8.73279 5.46899 9.49585 5.46899 10.2915V24.2915C5.46899 25.0872 5.78506 25.8502 6.34767 26.4128C6.91028 26.9754 7.67334 27.2915 8.46899 27.2915H20.469C20.6006 27.2923 20.7311 27.267 20.8529 27.2173C20.9747 27.1675 21.0856 27.0942 21.179 27.0015L27.179 21.0015C27.2578 20.9196 27.322 20.825 27.369 20.7215V20.6315C27.398 20.5442 27.4148 20.4534 27.419 20.3615C27.419 20.3615 27.419 20.3615 27.419 20.3015V10.2915C27.4191 9.50444 27.1099 8.74886 26.5581 8.18767C26.0062 7.62647 25.2559 7.30462 24.469 7.2915ZM8.46899 9.2915H9.46899V10.2915C9.46899 10.5567 9.57435 10.8111 9.76189 10.9986C9.94942 11.1861 10.2038 11.2915 10.469 11.2915C10.7342 11.2915 10.9886 11.1861 11.1761 10.9986C11.3636 10.8111 11.469 10.5567 11.469 10.2915V9.2915H21.469V10.2915C21.469 10.5567 21.5744 10.8111 21.7619 10.9986C21.9494 11.1861 22.2038 11.2915 22.469 11.2915C22.7342 11.2915 22.9886 11.1861 23.1761 10.9986C23.3636 10.8111 23.469 10.5567 23.469 10.2915V9.2915H24.469C24.7342 9.2915 24.9886 9.39686 25.1761 9.5844C25.3636 9.77193 25.469 10.0263 25.469 10.2915V13.2915H7.46899V10.2915C7.46899 10.0263 7.57435 9.77193 7.76189 9.5844C7.94942 9.39686 8.20378 9.2915 8.46899 9.2915ZM7.46899 24.2915V15.2915H25.469V19.2915H22.469C21.6733 19.2915 20.9103 19.6076 20.3477 20.1702C19.7851 20.7328 19.469 21.4959 19.469 22.2915V25.2915H8.46899C8.20378 25.2915 7.94942 25.1861 7.76189 24.9986C7.57435 24.8111 7.46899 24.5567 7.46899 24.2915ZM21.469 23.8815V22.2915C21.469 22.0263 21.5744 21.7719 21.7619 21.5844C21.9494 21.3969 22.2038 21.2915 22.469 21.2915H24.059L21.469 23.8815Z" fill="#A7A6B7"/>
<path d="M19.469 18.2916C19.4674 18.1609 19.4402 18.0318 19.389 17.9116C19.3121 17.7312 19.1839 17.5773 19.0204 17.4692C18.8568 17.3611 18.665 17.3035 18.469 17.3035C18.2729 17.3035 18.0811 17.3611 17.9176 17.4692C17.754 17.5773 17.6258 17.7312 17.549 17.9116C17.4977 18.0318 17.4705 18.1609 17.469 18.2916C17.469 18.5568 17.5743 18.8111 17.7619 18.9987C17.9494 19.1862 18.2038 19.2916 18.469 19.2916C18.5996 19.29 18.7287 19.2628 18.849 19.2116C18.9731 19.1666 19.0858 19.095 19.1791 19.0017C19.2724 18.9084 19.3441 18.7957 19.389 18.6716C19.4402 18.5513 19.4674 18.4222 19.469 18.2916ZM15.179 17.5816C15.1298 17.5363 15.0762 17.4961 15.019 17.4616C14.968 17.4218 14.9105 17.3913 14.849 17.3716C14.7893 17.3414 14.7251 17.3212 14.659 17.3116C14.4674 17.271 14.2679 17.292 14.089 17.3716C13.9649 17.4165 13.8522 17.4881 13.7589 17.5814C13.6655 17.6748 13.5939 17.7875 13.549 17.9116C13.4926 18.0301 13.4652 18.1603 13.469 18.2916C13.4701 18.5539 13.5742 18.8053 13.759 18.9916C13.8516 19.086 13.962 19.1612 14.0839 19.2127C14.2058 19.2642 14.3367 19.291 14.469 19.2916C14.7342 19.2916 14.9885 19.1862 15.1761 18.9987C15.3636 18.8111 15.469 18.5568 15.469 18.2916C15.4674 18.1609 15.4402 18.0318 15.389 17.9116C15.3414 17.7888 15.27 17.6767 15.179 17.5816ZM11.179 17.5816C11.0635 17.4612 10.9198 17.3715 10.7608 17.3209C10.6019 17.2702 10.4328 17.2602 10.269 17.2916C10.2064 17.3026 10.1457 17.3229 10.089 17.3516C10.0251 17.3732 9.96459 17.4035 9.90897 17.4416L9.75897 17.5616C9.66793 17.6567 9.59656 17.7688 9.54897 17.8916C9.4951 18.018 9.46787 18.1541 9.46897 18.2916C9.47007 18.5539 9.57422 18.8053 9.75897 18.9916C9.89824 19.132 10.076 19.2279 10.2698 19.2673C10.4636 19.3067 10.6648 19.2877 10.8478 19.2128C11.0309 19.1379 11.1876 19.0104 11.2981 18.8464C11.4087 18.6824 11.4681 18.4893 11.469 18.2916C11.4674 18.1609 11.4402 18.0318 11.389 17.9116C11.3414 17.7888 11.27 17.6767 11.179 17.5816ZM15.179 21.5816C15.1298 21.5363 15.0762 21.4961 15.019 21.4616C14.968 21.4218 14.9105 21.3913 14.849 21.3716C14.7893 21.3414 14.7251 21.3212 14.659 21.3116C14.4983 21.2794 14.3322 21.2872 14.1753 21.3343C14.0183 21.3813 13.8754 21.4663 13.759 21.5816C13.6706 21.6788 13.5996 21.7904 13.549 21.9116C13.4926 22.0301 13.4652 22.1603 13.469 22.2916C13.4674 22.4216 13.4912 22.5506 13.539 22.6716C13.5974 22.7908 13.6714 22.9018 13.759 23.0016C13.9227 23.1646 14.1378 23.2659 14.3678 23.2882C14.5977 23.3106 14.8284 23.2526 15.0204 23.1242C15.2125 22.9958 15.3541 22.8048 15.4213 22.5837C15.4885 22.3626 15.4771 22.1251 15.389 21.9116C15.3383 21.7904 15.2673 21.6788 15.179 21.5816ZM11.179 21.5816C11.086 21.4878 10.9754 21.4134 10.8535 21.3627C10.7317 21.3119 10.601 21.2858 10.469 21.2858C10.337 21.2858 10.2063 21.3119 10.0844 21.3627C9.96253 21.4134 9.85193 21.4878 9.75897 21.5816C9.66793 21.6767 9.59656 21.7888 9.54897 21.9116C9.49773 22.0318 9.47055 22.1609 9.46897 22.2916C9.46521 22.4228 9.49263 22.553 9.54897 22.6716C9.59978 22.7926 9.67079 22.9042 9.75897 23.0016C9.85193 23.0953 9.96253 23.1697 10.0844 23.2204C10.2063 23.2712 10.337 23.2974 10.469 23.2974C10.601 23.2974 10.7317 23.2712 10.8535 23.2204C10.9754 23.1697 11.086 23.0953 11.179 23.0016C11.2671 22.9042 11.3382 22.7926 11.389 22.6716C11.4419 22.5519 11.4692 22.4224 11.4692 22.2916C11.4692 22.1607 11.4419 22.0313 11.389 21.9116C11.3414 21.7888 11.27 21.6767 11.179 21.5816Z" fill="#A7A6B7"/>
</svg>
