<svg width="18" height="11" viewBox="0 0 18 11" fill="none" xmlns="http://www.w3.org/2000/svg">
<path fill-rule="evenodd" clip-rule="evenodd" d="M16.9255 0.230774H15.9282C15.3774 0.230774 14.9308 0.678489 14.9308 1.23077V9.89744C14.9308 10.4497 15.3774 10.8974 15.9282 10.8974H16.9255C17.4763 10.8974 17.9229 10.4497 17.9229 9.89744V1.23077C17.9229 0.678489 17.4763 0.230774 16.9255 0.230774ZM11.274 2.56411H12.2713C12.8221 2.56411 13.2686 3.01182 13.2686 3.56411V9.89744C13.2686 10.4497 12.8221 10.8974 12.2713 10.8974H11.274C10.7231 10.8974 10.2766 10.4497 10.2766 9.89744V3.56411C10.2766 3.01182 10.7231 2.56411 11.274 2.56411ZM7.61701 4.89744H6.61968C6.06887 4.89744 5.62234 5.34516 5.62234 5.89744V9.89744C5.62234 10.4497 6.06887 10.8974 6.61968 10.8974H7.61701C8.16783 10.8974 8.61435 10.4497 8.61435 9.89744V5.89744C8.61435 5.34516 8.16783 4.89744 7.61701 4.89744ZM2.96277 6.89744H1.96542C1.41461 6.89744 0.968079 7.34516 0.968079 7.89744V9.89744C0.968079 10.4497 1.41461 10.8974 1.96542 10.8974H2.96277C3.51359 10.8974 3.96011 10.4497 3.96011 9.89744V7.89744C3.96011 7.34516 3.51359 6.89744 2.96277 6.89744Z" fill="#1C233D"/>
</svg>
