<svg width="18" height="12" viewBox="0 0 18 12" fill="none" xmlns="http://www.w3.org/2000/svg">
<path fill-rule="evenodd" clip-rule="evenodd" d="M16.0946 0.666626H15.0972C14.5464 0.666626 14.0999 1.11434 14.0999 1.66663V10.3333C14.0999 10.8856 14.5464 11.3333 15.0972 11.3333H16.0946C16.6454 11.3333 17.0919 10.8856 17.0919 10.3333V1.66663C17.0919 1.11434 16.6454 0.666626 16.0946 0.666626ZM10.443 2.99996H11.4404C11.9912 2.99996 12.4377 3.44768 12.4377 3.99996V10.3333C12.4377 10.8856 11.9912 11.3333 11.4404 11.3333H10.443C9.89221 11.3333 9.44568 10.8856 9.44568 10.3333V3.99996C9.44568 3.44768 9.89221 2.99996 10.443 2.99996ZM6.78608 5.33329H5.78875C5.23793 5.33329 4.79141 5.78101 4.79141 6.33329V10.3333C4.79141 10.8856 5.23793 11.3333 5.78875 11.3333H6.78608C7.33689 11.3333 7.78342 10.8856 7.78342 10.3333V6.33329C7.78342 5.78101 7.33689 5.33329 6.78608 5.33329ZM2.13184 7.33329H1.13449C0.583673 7.33329 0.137146 7.78101 0.137146 8.33329V10.3333C0.137146 10.8856 0.583673 11.3333 1.13449 11.3333H2.13184C2.68265 11.3333 3.12918 10.8856 3.12918 10.3333V8.33329C3.12918 7.78101 2.68265 7.33329 2.13184 7.33329Z" fill="#1C233D"/>
</svg>
