<svg width="19" height="18" viewBox="0 0 19 18" fill="none" xmlns="http://www.w3.org/2000/svg">
<path d="M11.4395 13.8956H3.43945C2.71011 13.8956 2.01063 13.6059 1.49491 13.0902C0.979184 12.5744 0.689453 11.875 0.689453 11.1456V3.14563C0.689453 2.41628 0.979184 1.71681 1.49491 1.20109C2.01063 0.685361 2.71011 0.39563 3.43945 0.39563H11.4395C12.1688 0.39563 12.8683 0.685361 13.384 1.20109C13.8997 1.71681 14.1895 2.41628 14.1895 3.14563V11.1456C14.1895 11.875 13.8997 12.5744 13.384 13.0902C12.8683 13.6059 12.1688 13.8956 11.4395 13.8956ZM3.43945 1.89563C3.10793 1.89563 2.78999 2.02733 2.55557 2.26175C2.32115 2.49617 2.18945 2.81411 2.18945 3.14563V11.1456C2.18945 11.4772 2.32115 11.7951 2.55557 12.0295C2.78999 12.2639 3.10793 12.3956 3.43945 12.3956H11.4395C11.771 12.3956 12.0889 12.2639 12.3233 12.0295C12.5578 11.7951 12.6895 11.4772 12.6895 11.1456V3.14563C12.6895 2.81411 12.5578 2.49617 12.3233 2.26175C12.0889 2.02733 11.771 1.89563 11.4395 1.89563H3.43945Z" fill="white"/>
<path d="M15.4395 17.8956H7.43945C6.71011 17.8956 6.01063 17.6059 5.49491 17.0902C4.97918 16.5744 4.68945 15.875 4.68945 15.1456V13.1456H6.18945V15.1456C6.18945 15.4772 6.32115 15.7951 6.55557 16.0295C6.78999 16.2639 7.10793 16.3956 7.43945 16.3956H15.4395C15.771 16.3956 16.0889 16.2639 16.3233 16.0295C16.5578 15.7951 16.6895 15.4772 16.6895 15.1456V7.14563C16.6895 6.81411 16.5578 6.49617 16.3233 6.26175C16.0889 6.02733 15.771 5.89563 15.4395 5.89563H13.4395V4.39563H15.4395C16.1688 4.39563 16.8683 4.68536 17.384 5.20109C17.8997 5.71681 18.1895 6.41628 18.1895 7.14563V15.1456C18.1895 15.875 17.8997 16.5744 17.384 17.0902C16.8683 17.6059 16.1688 17.8956 15.4395 17.8956Z" fill="white"/>
</svg>
