<svg width="37" height="37" viewBox="0 0 37 37" fill="none" xmlns="http://www.w3.org/2000/svg">
<path fill-rule="evenodd" clip-rule="evenodd" d="M18.6067 36.7182C28.6502 36.7182 36.7921 28.5763 36.7921 18.5328C36.7921 8.48933 28.6502 0.347473 18.6067 0.347473C8.56324 0.347473 0.421387 8.48933 0.421387 18.5328C0.421387 28.5763 8.56324 36.7182 18.6067 36.7182Z" fill="#3F82D3"/>
<path d="M18.6067 6.89421V23.261L25.8808 18.7147L18.6067 6.89421Z" fill="#E6E6E6"/>
<path d="M18.6067 6.89421L11.3325 18.7147L18.6067 23.261V6.89421Z" fill="white"/>
<path d="M18.6067 24.6249L18.6067 30.5352L25.8808 20.5332L18.6067 24.6249Z" fill="#E6E6E6"/>
<path d="M18.6067 30.5352V24.6249L11.3325 20.5332L18.6067 30.5352Z" fill="white"/>
<path opacity="0.1" d="M18.6067 23.261L25.8808 18.7147L18.6067 15.9869V23.261Z" fill="#141414"/>
<path opacity="0.1" d="M11.3325 18.7147L18.6067 23.261V15.9869L11.3325 18.7147Z" fill="#393939"/>
</svg>
