<svg width="65" height="64" viewBox="0 0 65 64" fill="none" xmlns="http://www.w3.org/2000/svg">
<circle cx="32.4279" cy="31.6474" r="31.2139" fill="#C367E6" stroke="white" stroke-width="0.867052"/>
<g clip-path="url(#clip0_162_220)">
<path d="M27.1252 22.0147V36.7577C26.1866 35.9036 24.94 35.3825 23.5742 35.3825C20.6618 35.3825 18.2924 37.752 18.2924 40.6644C18.2924 43.5768 20.6618 45.9463 23.5742 45.9463C26.4831 45.9463 28.8498 43.5827 28.8559 40.6754H28.8561V30.1405L44.0245 25.5823V33.2043C43.0859 32.3504 41.8394 31.8291 40.4736 31.8291C37.5612 31.8291 35.1917 34.1986 35.1917 37.111C35.1917 40.0234 37.5612 42.3929 40.4736 42.3929C43.3761 42.3929 45.7391 40.0394 45.755 37.1405H45.7555V16.416L27.1252 22.0147Z" fill="white"/>
</g>
<defs>
<clipPath id="clip0_162_220">
<rect width="29.5302" height="29.5302" fill="white" transform="translate(17.2543 16.474)"/>
</clipPath>
</defs>
</svg>
