<svg width="72" height="46" viewBox="0 0 72 46" fill="none" xmlns="http://www.w3.org/2000/svg">
<path d="M14.6608 9.24148C26.2318 -2.43268 44.992 -2.43268 56.563 9.24148L57.9556 10.6465C58.5342 11.2302 58.5342 12.1766 57.9556 12.7603L53.1919 17.5665C52.9026 17.8584 52.4336 17.8584 52.1443 17.5665L50.2279 15.6331C42.1557 7.48888 29.0681 7.48888 20.9959 15.6331L18.9436 17.7036C18.6543 17.9955 18.1853 17.9955 17.8961 17.7036L13.1323 12.8974C12.5537 12.3137 12.5537 11.3673 13.1323 10.7836L14.6608 9.24148ZM66.4149 19.1813L70.6547 23.4589C71.2332 24.0426 71.2332 24.989 70.6547 25.5727L51.5373 44.8608C50.9588 45.4445 50.0208 45.4445 49.4422 44.8608C49.4422 44.8608 49.4422 44.8608 49.4422 44.8608L35.8739 31.1715C35.7292 31.0255 35.4947 31.0255 35.3501 31.1715C35.3501 31.1715 35.3501 31.1715 35.3501 31.1715L21.7821 44.8608C21.2035 45.4445 20.2655 45.4445 19.6869 44.8608C19.6869 44.8608 19.6869 44.8608 19.6869 44.8608L0.569044 25.5724C-0.00950545 24.9887 -0.00950545 24.0423 0.569044 23.4586L4.80881 19.1811C5.38736 18.5973 6.32537 18.5973 6.90392 19.1811L20.4725 32.8706C20.6171 33.0165 20.8516 33.0165 20.9962 32.8706C20.9962 32.8706 20.9962 32.8706 20.9962 32.8706L34.5641 19.1811C35.1426 18.5973 36.0806 18.5973 36.6592 19.181C36.6592 19.181 36.6592 19.181 36.6592 19.181L50.2277 32.8706C50.3724 33.0165 50.6069 33.0165 50.7515 32.8706L64.3198 19.1813C64.8984 18.5976 65.8364 18.5976 66.4149 19.1813Z" fill="#3B99FC"/>
</svg>
