<svg width="46" height="45" viewBox="0 0 46 45" fill="none" xmlns="http://www.w3.org/2000/svg">
<rect opacity="0.15" x="0.878662" width="45" height="45" rx="11.8868" fill="#5669FF"/>
<rect x="7.98413" y="7.1051" width="30.7895" height="30.7895" rx="10.1887" fill="white"/>
<g clip-path="url(#clip0_162_175)">
<path d="M29.0035 21.2507C29.0035 25.6257 23.3785 29.3757 23.3785 29.3757C23.3785 29.3757 17.7535 25.6257 17.7535 21.2507C17.7535 19.7589 18.3462 18.3281 19.4011 17.2733C20.456 16.2184 21.8867 15.6257 23.3785 15.6257C24.8704 15.6257 26.3011 16.2184 27.356 17.2733C28.4109 18.3281 29.0035 19.7589 29.0035 21.2507Z" stroke="#C367E6" stroke-width="1.69811" stroke-linecap="round" stroke-linejoin="round"/>
<path d="M23.3784 23.1251C24.414 23.1251 25.2534 22.2857 25.2534 21.2501C25.2534 20.2146 24.414 19.3751 23.3784 19.3751C22.3429 19.3751 21.5034 20.2146 21.5034 21.2501C21.5034 22.2857 22.3429 23.1251 23.3784 23.1251Z" stroke="#C367E6" stroke-width="1.69811" stroke-linecap="round" stroke-linejoin="round"/>
</g>
<defs>
<clipPath id="clip0_162_175">
<rect width="15" height="15" fill="white" transform="translate(15.8785 15.0002)"/>
</clipPath>
</defs>
</svg>
