<svg width="182" height="40" viewBox="0 0 182 40" fill="none" xmlns="http://www.w3.org/2000/svg">
<g filter="url(#filter0_d_329_14)">
<path d="M36 16.1541C36 24.4235 29.0755 31.1541 20.5 31.1541C11.9245 31.1541 5 24.4235 5 16.1541C5 7.88463 11.9245 1.15405 20.5 1.15405C29.0755 1.15405 36 7.88463 36 16.1541Z" stroke="#B6B6B6" shape-rendering="crispEdges"/>
</g>
<g filter="url(#filter1_d_329_14)">
<path d="M83 16.1541C83 24.4235 76.0755 31.1541 67.5 31.1541C58.9245 31.1541 52 24.4235 52 16.1541C52 7.88463 58.9245 1.15405 67.5 1.15405C76.0755 1.15405 83 7.88463 83 16.1541Z" stroke="#B6B6B6" shape-rendering="crispEdges"/>
</g>
<g filter="url(#filter2_d_329_14)">
<path d="M130 16.1541C130 24.4235 123.075 31.1541 114.5 31.1541C105.925 31.1541 99 24.4235 99 16.1541C99 7.88463 105.925 1.15405 114.5 1.15405C123.075 1.15405 130 7.88463 130 16.1541Z" stroke="#B6B6B6" shape-rendering="crispEdges"/>
</g>
<g filter="url(#filter3_d_329_14)">
<path d="M177 16.1541C177 24.4235 170.075 31.1541 161.5 31.1541C152.925 31.1541 146 24.4235 146 16.1541C146 7.88463 152.925 1.15405 161.5 1.15405C170.075 1.15405 177 7.88463 177 16.1541Z" stroke="#B6B6B6" shape-rendering="crispEdges"/>
</g>
<g filter="url(#filter4_d_329_14)">
<path d="M13.5116 23.654L14.458 19.928C13.8344 18.7827 13.5068 17.48 13.5088 16.154C13.5088 12.0118 16.6427 8.65405 20.5088 8.65405C24.3749 8.65405 27.5088 12.0118 27.5088 16.154C27.5088 20.2963 24.3749 23.654 20.5088 23.654C19.2717 23.6562 18.0565 23.3054 16.9878 22.6378L13.5116 23.654ZM17.9825 12.6351C17.8921 12.6411 17.8038 12.6666 17.7228 12.7101C17.6469 12.7561 17.5775 12.8137 17.517 12.8811C17.433 12.9658 17.3854 13.0393 17.3343 13.1105C17.0756 13.4713 16.9364 13.9141 16.9388 14.369C16.9402 14.7365 17.0298 15.0943 17.1698 15.4288C17.4561 16.1053 17.9272 16.8215 18.5495 17.4853C18.6993 17.645 18.8456 17.8055 19.0031 17.9548C19.7755 18.6834 20.6959 19.2088 21.6911 19.4893L22.0894 19.5545C22.2189 19.562 22.3484 19.5515 22.4786 19.5448C22.6825 19.5335 22.8815 19.4744 23.0617 19.3715C23.1534 19.321 23.2428 19.2659 23.3298 19.2065C23.3298 19.2065 23.3599 19.1855 23.4173 19.139C23.5118 19.064 23.5699 19.0108 23.6483 18.923C23.7064 18.8585 23.7568 18.7828 23.7953 18.6965C23.8499 18.5743 23.9045 18.341 23.9269 18.1468C23.9437 17.9983 23.9388 17.9173 23.9367 17.867C23.9339 17.7868 23.8716 17.7035 23.8037 17.6683L23.3963 17.4725C23.3963 17.4725 22.7873 17.1883 22.4156 17.0068C22.3764 16.9885 22.3344 16.9781 22.2917 16.976C22.2438 16.9708 22.1954 16.9766 22.1498 16.993C22.1041 17.0094 22.0623 17.0361 22.0271 17.0713V17.0698C22.0236 17.0698 21.9767 17.1125 21.4706 17.7695C21.4415 17.8114 21.4015 17.843 21.3557 17.8603C21.3098 17.8777 21.2601 17.88 21.213 17.867C21.1674 17.854 21.1227 17.8374 21.0793 17.8175C20.9925 17.7785 20.9624 17.7635 20.9029 17.7358L20.8994 17.7343C20.4989 17.547 20.1282 17.2939 19.8004 16.9843C19.7122 16.9018 19.6303 16.8118 19.5463 16.7248C19.2709 16.4422 19.0309 16.1226 18.8323 15.7738L18.791 15.7025C18.7613 15.6547 18.7373 15.603 18.7196 15.5488C18.693 15.4385 18.7623 15.35 18.7623 15.35C18.7623 15.35 18.9324 15.1505 19.0115 15.0425C19.0774 14.9528 19.1388 14.8594 19.1956 14.7628C19.2782 14.6203 19.3041 14.474 19.2607 14.3608C19.0647 13.8478 18.8617 13.337 18.6531 12.83C18.6118 12.7295 18.4893 12.6575 18.378 12.6433C18.3402 12.6388 18.3024 12.6343 18.2646 12.6313C18.1706 12.6263 18.0764 12.6273 17.9825 12.6343V12.6351Z" fill="#B6B6B6"/>
</g>
<g filter="url(#filter5_d_329_14)">
<path d="M70.9724 17.0734L71.387 14.4102H68.7955V12.6819C68.7955 11.9535 69.1574 11.243 70.3181 11.243H71.4961V8.97571C71.4961 8.97571 70.4272 8.7959 69.405 8.7959C67.271 8.7959 65.8762 10.0716 65.8762 12.3807V14.4107H63.5039V17.0739H65.8762V23.5123H68.7955V17.0739L70.9724 17.0734Z" fill="#B6B6B6"/>
</g>
<g filter="url(#filter6_d_329_14)">
<path d="M114.498 13.8839C113.214 13.8839 112.166 14.9173 112.166 16.1836C112.166 17.4499 113.214 18.4833 114.498 18.4833C115.782 18.4833 116.83 17.4499 116.83 16.1836C116.83 14.9173 115.782 13.8839 114.498 13.8839ZM121.492 16.1836C121.492 15.2313 121.501 14.2876 121.447 13.337C121.393 12.2328 121.137 11.2529 120.319 10.4455C119.498 9.63636 118.506 9.3862 117.386 9.33272C116.421 9.27924 115.464 9.28787 114.5 9.28787C113.534 9.28787 112.577 9.27924 111.613 9.33272C110.494 9.3862 109.5 9.63809 108.681 10.4455C107.861 11.2546 107.607 12.2328 107.553 13.337C107.499 14.2893 107.507 15.233 107.507 16.1836C107.507 17.1342 107.499 18.0796 107.553 19.0302C107.607 20.1343 107.862 21.1143 108.681 21.9217C109.502 22.7308 110.494 22.9809 111.613 23.0344C112.579 23.0879 113.536 23.0793 114.5 23.0793C115.466 23.0793 116.423 23.0879 117.386 23.0344C118.506 22.9809 119.5 22.7291 120.319 21.9217C121.139 21.1125 121.393 20.1343 121.447 19.0302C121.503 18.0796 121.492 17.1359 121.492 16.1836ZM114.498 19.722C112.513 19.722 110.91 18.1417 110.91 16.1836C110.91 14.2254 112.513 12.6451 114.498 12.6451C116.484 12.6451 118.086 14.2254 118.086 16.1836C118.086 18.1417 116.484 19.722 114.498 19.722ZM118.233 13.3266C117.77 13.3266 117.395 12.9574 117.395 12.5002C117.395 12.043 117.77 11.6738 118.233 11.6738C118.697 11.6738 119.071 12.043 119.071 12.5002C119.071 12.6088 119.05 12.7163 119.008 12.8166C118.966 12.917 118.904 13.0081 118.826 13.0849C118.748 13.1616 118.656 13.2225 118.554 13.264C118.452 13.3055 118.343 13.3267 118.233 13.3266Z" fill="#B6B6B6"/>
</g>
<g filter="url(#filter7_d_329_14)">
<path d="M169.637 11.1748C169.541 10.8197 169.351 10.4959 169.088 10.2357C168.824 9.97561 168.496 9.78827 168.136 9.69248C166.811 9.34106 161.5 9.34106 161.5 9.34106C161.5 9.34106 156.189 9.34106 154.864 9.69061C154.504 9.78609 154.176 9.97332 153.912 10.2335C153.649 10.4937 153.459 10.8177 153.363 11.1729C153.008 12.4814 153.008 15.2104 153.008 15.2104C153.008 15.2104 153.008 17.9395 153.363 19.2461C153.558 19.9676 154.134 20.5359 154.864 20.7284C156.189 21.0798 161.5 21.0798 161.5 21.0798C161.5 21.0798 166.811 21.0798 168.136 20.7284C168.868 20.5359 169.442 19.9676 169.637 19.2461C169.992 17.9395 169.992 15.2104 169.992 15.2104C169.992 15.2104 169.992 12.4814 169.637 11.1748ZM159.813 17.7152V12.7057L164.211 15.1917L159.813 17.7152Z" fill="#B6B6B6"/>
</g>
<defs>
<filter id="filter0_d_329_14" x="0.5" y="0.654053" width="40" height="39" filterUnits="userSpaceOnUse" color-interpolation-filters="sRGB">
<feFlood flood-opacity="0" result="BackgroundImageFix"/>
<feColorMatrix in="SourceAlpha" type="matrix" values="0 0 0 0 0 0 0 0 0 0 0 0 0 0 0 0 0 0 127 0" result="hardAlpha"/>
<feOffset dy="4"/>
<feGaussianBlur stdDeviation="2"/>
<feComposite in2="hardAlpha" operator="out"/>
<feColorMatrix type="matrix" values="0 0 0 0 0 0 0 0 0 0 0 0 0 0 0 0 0 0 0.25 0"/>
<feBlend mode="normal" in2="BackgroundImageFix" result="effect1_dropShadow_329_14"/>
<feBlend mode="normal" in="SourceGraphic" in2="effect1_dropShadow_329_14" result="shape"/>
</filter>
<filter id="filter1_d_329_14" x="47.5" y="0.654053" width="40" height="39" filterUnits="userSpaceOnUse" color-interpolation-filters="sRGB">
<feFlood flood-opacity="0" result="BackgroundImageFix"/>
<feColorMatrix in="SourceAlpha" type="matrix" values="0 0 0 0 0 0 0 0 0 0 0 0 0 0 0 0 0 0 127 0" result="hardAlpha"/>
<feOffset dy="4"/>
<feGaussianBlur stdDeviation="2"/>
<feComposite in2="hardAlpha" operator="out"/>
<feColorMatrix type="matrix" values="0 0 0 0 0 0 0 0 0 0 0 0 0 0 0 0 0 0 0.25 0"/>
<feBlend mode="normal" in2="BackgroundImageFix" result="effect1_dropShadow_329_14"/>
<feBlend mode="normal" in="SourceGraphic" in2="effect1_dropShadow_329_14" result="shape"/>
</filter>
<filter id="filter2_d_329_14" x="94.5" y="0.654053" width="40" height="39" filterUnits="userSpaceOnUse" color-interpolation-filters="sRGB">
<feFlood flood-opacity="0" result="BackgroundImageFix"/>
<feColorMatrix in="SourceAlpha" type="matrix" values="0 0 0 0 0 0 0 0 0 0 0 0 0 0 0 0 0 0 127 0" result="hardAlpha"/>
<feOffset dy="4"/>
<feGaussianBlur stdDeviation="2"/>
<feComposite in2="hardAlpha" operator="out"/>
<feColorMatrix type="matrix" values="0 0 0 0 0 0 0 0 0 0 0 0 0 0 0 0 0 0 0.25 0"/>
<feBlend mode="normal" in2="BackgroundImageFix" result="effect1_dropShadow_329_14"/>
<feBlend mode="normal" in="SourceGraphic" in2="effect1_dropShadow_329_14" result="shape"/>
</filter>
<filter id="filter3_d_329_14" x="141.5" y="0.654053" width="40" height="39" filterUnits="userSpaceOnUse" color-interpolation-filters="sRGB">
<feFlood flood-opacity="0" result="BackgroundImageFix"/>
<feColorMatrix in="SourceAlpha" type="matrix" values="0 0 0 0 0 0 0 0 0 0 0 0 0 0 0 0 0 0 127 0" result="hardAlpha"/>
<feOffset dy="4"/>
<feGaussianBlur stdDeviation="2"/>
<feComposite in2="hardAlpha" operator="out"/>
<feColorMatrix type="matrix" values="0 0 0 0 0 0 0 0 0 0 0 0 0 0 0 0 0 0 0.25 0"/>
<feBlend mode="normal" in2="BackgroundImageFix" result="effect1_dropShadow_329_14"/>
<feBlend mode="normal" in="SourceGraphic" in2="effect1_dropShadow_329_14" result="shape"/>
</filter>
<filter id="filter4_d_329_14" x="9.50879" y="8.65405" width="22" height="23" filterUnits="userSpaceOnUse" color-interpolation-filters="sRGB">
<feFlood flood-opacity="0" result="BackgroundImageFix"/>
<feColorMatrix in="SourceAlpha" type="matrix" values="0 0 0 0 0 0 0 0 0 0 0 0 0 0 0 0 0 0 127 0" result="hardAlpha"/>
<feOffset dy="4"/>
<feGaussianBlur stdDeviation="2"/>
<feComposite in2="hardAlpha" operator="out"/>
<feColorMatrix type="matrix" values="0 0 0 0 0 0 0 0 0 0 0 0 0 0 0 0 0 0 0.25 0"/>
<feBlend mode="normal" in2="BackgroundImageFix" result="effect1_dropShadow_329_14"/>
<feBlend mode="normal" in="SourceGraphic" in2="effect1_dropShadow_329_14" result="shape"/>
</filter>
<filter id="filter5_d_329_14" x="59.5039" y="8.7959" width="15.9922" height="22.7164" filterUnits="userSpaceOnUse" color-interpolation-filters="sRGB">
<feFlood flood-opacity="0" result="BackgroundImageFix"/>
<feColorMatrix in="SourceAlpha" type="matrix" values="0 0 0 0 0 0 0 0 0 0 0 0 0 0 0 0 0 0 127 0" result="hardAlpha"/>
<feOffset dy="4"/>
<feGaussianBlur stdDeviation="2"/>
<feComposite in2="hardAlpha" operator="out"/>
<feColorMatrix type="matrix" values="0 0 0 0 0 0 0 0 0 0 0 0 0 0 0 0 0 0 0.25 0"/>
<feBlend mode="normal" in2="BackgroundImageFix" result="effect1_dropShadow_329_14"/>
<feBlend mode="normal" in="SourceGraphic" in2="effect1_dropShadow_329_14" result="shape"/>
</filter>
<filter id="filter6_d_329_14" x="103.507" y="9.28735" width="21.9863" height="21.7924" filterUnits="userSpaceOnUse" color-interpolation-filters="sRGB">
<feFlood flood-opacity="0" result="BackgroundImageFix"/>
<feColorMatrix in="SourceAlpha" type="matrix" values="0 0 0 0 0 0 0 0 0 0 0 0 0 0 0 0 0 0 127 0" result="hardAlpha"/>
<feOffset dy="4"/>
<feGaussianBlur stdDeviation="2"/>
<feComposite in2="hardAlpha" operator="out"/>
<feColorMatrix type="matrix" values="0 0 0 0 0 0 0 0 0 0 0 0 0 0 0 0 0 0 0.25 0"/>
<feBlend mode="normal" in2="BackgroundImageFix" result="effect1_dropShadow_329_14"/>
<feBlend mode="normal" in="SourceGraphic" in2="effect1_dropShadow_329_14" result="shape"/>
</filter>
<filter id="filter7_d_329_14" x="149.008" y="9.34106" width="24.9834" height="19.7388" filterUnits="userSpaceOnUse" color-interpolation-filters="sRGB">
<feFlood flood-opacity="0" result="BackgroundImageFix"/>
<feColorMatrix in="SourceAlpha" type="matrix" values="0 0 0 0 0 0 0 0 0 0 0 0 0 0 0 0 0 0 127 0" result="hardAlpha"/>
<feOffset dy="4"/>
<feGaussianBlur stdDeviation="2"/>
<feComposite in2="hardAlpha" operator="out"/>
<feColorMatrix type="matrix" values="0 0 0 0 0 0 0 0 0 0 0 0 0 0 0 0 0 0 0.25 0"/>
<feBlend mode="normal" in2="BackgroundImageFix" result="effect1_dropShadow_329_14"/>
<feBlend mode="normal" in="SourceGraphic" in2="effect1_dropShadow_329_14" result="shape"/>
</filter>
</defs>
</svg>
