<svg width="17" height="16" viewBox="0 0 17 16" fill="none" xmlns="http://www.w3.org/2000/svg">
<g clip-path="url(#clip0_155_839)">
<path d="M14.9191 6.66675C14.9191 11.3334 8.91907 15.3334 8.91907 15.3334C8.91907 15.3334 2.91907 11.3334 2.91907 6.66675C2.91907 5.07545 3.55121 3.54933 4.67643 2.42411C5.80164 1.29889 7.32777 0.666748 8.91907 0.666748C10.5104 0.666748 12.0365 1.29889 13.1617 2.42411C14.2869 3.54933 14.9191 5.07545 14.9191 6.66675Z" fill="#B8B6C7" stroke="#B8B6C7" stroke-width="1.5" stroke-linecap="round" stroke-linejoin="round"/>
<path d="M8.91907 8.66675C10.0236 8.66675 10.9191 7.77132 10.9191 6.66675C10.9191 5.56218 10.0236 4.66675 8.91907 4.66675C7.8145 4.66675 6.91907 5.56218 6.91907 6.66675C6.91907 7.77132 7.8145 8.66675 8.91907 8.66675Z" fill="#30384D" stroke="#30384D" stroke-linecap="round" stroke-linejoin="round"/>
</g>
<defs>
<clipPath id="clip0_155_839">
<rect width="16" height="16" fill="white" transform="translate(0.919067)"/>
</clipPath>
</defs>
</svg>
