<svg width="334" height="67" viewBox="0 0 334 67" fill="none" xmlns="http://www.w3.org/2000/svg">
<path d="M84.375 39.5641C84.375 35.6981 87.509 32.5641 91.375 32.5641C95.241 32.5641 98.375 35.6981 98.375 39.5641V51.5641H84.375V39.5641Z" fill="#E7E7E7"/>
<path d="M98.375 7.56409C98.375 3.69809 101.509 0.564087 105.375 0.564087C109.241 0.564087 112.375 3.69809 112.375 7.56409V51.5641H98.375V7.56409Z" fill="#E7E7E7"/>
<path d="M112.375 21.0641C112.375 16.922 115.733 13.5641 119.875 13.5641C124.017 13.5641 127.375 16.922 127.375 21.0641V51.5641H112.375V21.0641Z" fill="#E7E7E7"/>
<path d="M169.375 21.0641C169.375 16.922 172.733 13.5641 176.875 13.5641C181.017 13.5641 184.375 16.922 184.375 21.0641V51.5641H169.375V21.0641Z" fill="#E7E7E7"/>
<path d="M127.375 29.5641C127.375 25.6981 130.509 22.5641 134.375 22.5641C138.241 22.5641 141.375 25.6981 141.375 29.5641V51.5641H127.375V29.5641Z" fill="#E7E7E7"/>
<path d="M155.375 29.5641C155.375 25.6981 158.509 22.5641 162.375 22.5641C166.241 22.5641 169.375 25.6981 169.375 29.5641V51.5641H155.375V29.5641Z" fill="#E7E7E7"/>
<path d="M141.375 33.5641C141.375 29.6981 144.509 26.5641 148.375 26.5641C152.241 26.5641 155.375 29.6981 155.375 33.5641V51.5641H141.375V33.5641Z" fill="#E7E7E7"/>
<path d="M226.375 21.0641C226.375 16.922 229.733 13.5641 233.875 13.5641C238.017 13.5641 241.375 16.922 241.375 21.0641V51.5641H226.375V21.0641Z" fill="#E7E7E7"/>
<path d="M184.375 29.5641C184.375 25.6981 187.509 22.5641 191.375 22.5641C195.241 22.5641 198.375 25.6981 198.375 29.5641V51.5641H184.375V29.5641Z" fill="#E7E7E7"/>
<path d="M212.375 29.5641C212.375 25.6981 215.509 22.5641 219.375 22.5641C223.241 22.5641 226.375 25.6981 226.375 29.5641V51.5641H212.375V29.5641Z" fill="#E7E7E7"/>
<path d="M198.375 33.5641C198.375 29.6981 201.509 26.5641 205.375 26.5641C209.241 26.5641 212.375 29.6981 212.375 33.5641V51.5641H198.375V33.5641Z" fill="#E7E7E7"/>
<line opacity="0.2" x1="1.875" y1="50.0641" x2="331.875" y2="50.0641" stroke="#C367E6" stroke-width="3" stroke-linecap="round"/>
<line x1="80.875" y1="50.0641" x2="241.875" y2="50.0641" stroke="#C367E6" stroke-width="3" stroke-linecap="round"/>
<rect x="224.375" y="31.5641" width="35" height="35" rx="9" fill="white"/>
<rect x="224.875" y="32.0641" width="34" height="34" rx="8.5" stroke="#BFC4EE" stroke-opacity="0.0945738"/>
<path d="M250.375 49.5641L244.375 45.5641L244.375 53.5641L250.375 49.5641Z" fill="#5E5F65"/>
<path d="M234.375 49.5641L240.375 53.5641L240.375 45.5641L234.375 49.5641Z" fill="#5E5F65"/>
<rect x="61.375" y="31.5641" width="35" height="35" rx="9" fill="white"/>
<rect x="61.875" y="32.0641" width="34" height="34" rx="8.5" stroke="#BFC4EE" stroke-opacity="0.0945738"/>
<path d="M87.375 49.5641L81.375 45.5641L81.375 53.5641L87.375 49.5641Z" fill="#5E5F65"/>
<path d="M71.375 49.5641L77.375 53.5641L77.375 45.5641L71.375 49.5641Z" fill="#5E5F65"/>
</svg>
