<svg width="64" height="64" viewBox="0 0 64 64" fill="none" xmlns="http://www.w3.org/2000/svg">
<circle cx="31.9242" cy="32.2115" r="31.2139" fill="#C367E6" stroke="white" stroke-width="0.867052"/>
<g clip-path="url(#clip0_162_220)">
<path d="M26.6215 22.5788V37.3218C25.6829 36.4677 24.4363 35.9466 23.0706 35.9466C20.1582 35.9466 17.7887 38.316 17.7887 41.2285C17.7887 44.1409 20.1582 46.5104 23.0706 46.5104C25.9794 46.5104 28.3462 44.1468 28.3522 41.2395H28.3525V30.7046L43.5209 26.1463V33.7684C42.5823 32.9145 41.3357 32.3932 39.97 32.3932C37.0575 32.3932 34.6881 34.7626 34.6881 37.6751C34.6881 40.5875 37.0575 42.957 39.97 42.957C42.8725 42.957 45.2354 40.6035 45.2514 37.7046H45.2518V16.9801L26.6215 22.5788Z" fill="white"/>
</g>
<defs>
<clipPath id="clip0_162_220">
<rect width="29.5302" height="29.5302" fill="white" transform="translate(16.7506 17.0381)"/>
</clipPath>
</defs>
</svg>
