<svg width="107" height="107" viewBox="0 0 107 107" fill="none" xmlns="http://www.w3.org/2000/svg">
<g filter="url(#filter0_d_162_227)">
<circle cx="53.3295" cy="44.6474" r="31.6474" fill="white"/>
<g clip-path="url(#clip0_162_227)">
<path d="M58.4408 47.8176C61.2541 47.7679 61.8732 43.8978 59.2185 42.9761L56.1533 46.3003C56.5358 47.2009 57.4376 47.8176 58.4408 47.8176Z" fill="#C4C4C4"/>
<path d="M67.5199 42.7949C67.1258 40.4307 66.0181 38.6059 64.2983 37.4665C63.4972 38.3359 61.2902 40.7287 60.4571 41.6324C61.7973 42.3588 62.6552 43.7653 62.6552 45.3346C62.6646 48.9716 58.2757 50.9031 55.6011 48.4471C55.3461 49.0113 54.9885 49.5306 54.5379 49.9811C52.752 51.9173 47.2201 52.3853 44.8588 52.3165C44.7898 49.9493 45.2597 44.4201 47.1942 42.6374C48.1813 41.6509 49.469 41.1449 50.7654 41.1201C52.184 39.8076 54.1513 37.9871 55.5642 36.6795C53.6017 37.1967 50.7271 38.5659 49.8503 37.2732C49.44 36.3048 51.3054 34.0546 49.8336 32.1662C48.6274 30.6518 45.9279 30.9362 44.4024 32.0122C36.9749 37.1404 35.9817 48.4076 42.4659 54.6756C50.4037 62.6744 64.2505 59.0506 67.2926 48.2111C67.4577 47.5289 67.9305 45.2925 67.5199 42.7949Z" fill="#C4C4C4"/>
<path d="M54.5378 42.6376C55.0201 43.1199 55.3957 43.6801 55.653 44.2899C56.6355 43.2259 61.8227 37.598 62.684 36.6647L67.2896 31.6697C67.7927 31.1239 67.806 30.3162 67.3202 29.8299C66.8333 29.3435 66.0244 29.3574 65.4786 29.8622L58.743 36.0958C57.2805 37.4489 54.3715 40.142 52.8792 41.523C53.4826 41.7757 54.0474 42.1472 54.5378 42.6376Z" fill="#C4C4C4"/>
<path d="M52.3905 43.2001C51.0764 42.5606 49.484 42.7981 48.4183 43.8601C47.3177 44.8332 46.6927 48.5368 46.6293 50.5455C48.6438 50.48 52.3384 49.8587 53.3141 48.7564C53.9683 48.1022 54.3284 47.2328 54.3284 46.3086C54.3282 45.383 53.9678 44.5136 53.3141 43.8607V43.8601C53.0372 43.5826 52.7245 43.3628 52.3905 43.2001Z" fill="#C4C4C4"/>
</g>
</g>
<defs>
<filter id="filter0_d_162_227" x="0.00582886" y="-0.00578022" width="106.647" height="106.647" filterUnits="userSpaceOnUse" color-interpolation-filters="sRGB">
<feFlood flood-opacity="0" result="BackgroundImageFix"/>
<feColorMatrix in="SourceAlpha" type="matrix" values="0 0 0 0 0 0 0 0 0 0 0 0 0 0 0 0 0 0 127 0" result="hardAlpha"/>
<feOffset dy="8.67052"/>
<feGaussianBlur stdDeviation="10.8382"/>
<feColorMatrix type="matrix" values="0 0 0 0 0.337255 0 0 0 0 0.411765 0 0 0 0 1 0 0 0 0.25 0"/>
<feBlend mode="normal" in2="BackgroundImageFix" result="effect1_dropShadow_162_227"/>
<feBlend mode="normal" in="SourceGraphic" in2="effect1_dropShadow_162_227" result="shape"/>
</filter>
<clipPath id="clip0_162_227">
<rect width="29.5302" height="29.5302" fill="white" transform="translate(38.1561 29.474)"/>
</clipPath>
</defs>
</svg>
