<svg width="64" height="64" viewBox="0 0 64 64" fill="none" xmlns="http://www.w3.org/2000/svg">
<circle cx="31.7276" cy="32.2115" r="31.2139" fill="white" stroke="#E5E5E5" stroke-width="0.867052"/>
<g clip-path="url(#clip0_162_253)">
<path d="M45.3186 42.1466L33.7386 30.5666L20.2094 17.0374H19.152L18.9361 17.5859C18.3663 19.0339 18.1229 20.5149 18.2322 21.8686C18.3568 23.4116 18.9429 24.7475 19.9275 25.732L30.4891 36.2937L31.8822 34.9006L41.6464 45.8189C42.6178 46.7902 44.2896 46.8479 45.3186 45.8189C46.3311 44.8064 46.3311 43.1591 45.3186 42.1466Z" fill="#B6B6B6"/>
<path d="M25.5942 33.8492L17.3224 42.1211C16.31 43.1335 16.31 44.7809 17.3224 45.7932C18.2841 46.755 19.9479 46.8399 20.9946 45.7932L29.2665 37.5213L25.5942 33.8492Z" fill="#B6B6B6"/>
<path d="M44.8323 21.954L40.14 26.6462L38.9159 25.4222L43.6082 20.7299L42.3841 19.5058L37.6919 24.198L36.4678 22.974L41.1601 18.2818L39.9361 17.0577L33.8157 23.1781C33.067 23.9268 32.6199 24.921 32.5567 25.9776C32.5407 26.2452 32.48 26.5085 32.3794 26.759L36.3552 30.7348C36.6056 30.634 36.869 30.5734 37.1366 30.5574C38.1932 30.4944 39.1873 30.0472 39.9361 29.2984L46.0564 23.1781L44.8323 21.954Z" fill="#B6B6B6"/>
</g>
<defs>
<clipPath id="clip0_162_253">
<rect width="29.5318" height="29.5318" fill="white" transform="translate(16.5542 17.0381)"/>
</clipPath>
</defs>
</svg>
