<svg width="106" height="108" viewBox="0 0 106 108" fill="none" xmlns="http://www.w3.org/2000/svg">
<g filter="url(#filter0_d_162_238)">
<circle cx="52.0224" cy="45.2115" r="31.6474" fill="white"/>
<g clip-path="url(#clip0_162_238)">
<path d="M50.6896 33.9918C50.497 32.723 50.1073 31.4385 49.5397 30.1835C46.5922 30.5979 43.9244 31.8823 41.8038 33.7691L49.1298 41.0952C50.5611 39.2749 51.1144 36.7886 50.6896 33.9918Z" fill="#C4C4C4"/>
<path d="M49.1375 43.55C47.3879 44.9947 45.1368 45.7495 42.6076 45.7495C41.9375 45.7495 41.2482 45.6966 40.5433 45.5896C39.3118 45.4026 38.0704 45.0517 36.8522 44.5511C36.8508 44.6351 36.8491 44.7189 36.8491 44.8032C36.8491 48.5691 38.2598 52.0051 40.5805 54.6134L50.3907 44.8032L49.1375 43.55Z" fill="#C4C4C4"/>
<path d="M47.9069 42.3176L40.5808 34.9916C38.694 37.1122 37.4096 39.78 36.9951 42.7274C38.2502 43.295 39.5347 43.6848 40.8034 43.8775C43.6004 44.3023 46.0866 43.749 47.9069 42.3176Z" fill="#C4C4C4"/>
<path d="M62.4256 45.7266C59.6288 45.3017 57.1425 45.8551 55.3222 47.2864L62.6482 54.6125C64.535 52.4919 65.8194 49.8241 66.234 46.8766C64.979 46.3091 63.6945 45.9193 62.4256 45.7266Z" fill="#C4C4C4"/>
<path d="M52.8668 47.279L51.614 46.0262L41.8038 55.8364C44.4121 58.1572 47.848 59.5678 51.614 59.5678C51.6982 59.5678 51.7821 59.566 51.866 59.5646C51.3655 58.3464 51.0146 57.105 50.8276 55.8735C50.3165 52.5081 51.0394 49.4922 52.8668 47.279Z" fill="#C4C4C4"/>
<path d="M50.361 42.3262L51.6139 43.579L61.4241 33.7688C58.8158 31.4481 55.3798 30.0374 51.6139 30.0374C51.5296 30.0374 51.4457 30.0392 51.3618 30.0406C51.8623 31.2588 52.2132 32.5 52.4003 33.7317C52.9113 37.0971 52.1884 40.113 50.361 42.3262Z" fill="#C4C4C4"/>
<path d="M52.5381 55.6132C52.7307 56.8819 53.1205 58.1665 53.6881 59.4216C56.6356 59.0071 59.3034 57.7227 61.4239 55.8359L54.0979 48.5098C52.6666 50.3301 52.1133 52.8164 52.5381 55.6132Z" fill="#C4C4C4"/>
<path d="M54.0906 46.0547C56.3038 44.2272 59.3196 43.5044 62.6851 44.0154C63.9168 44.2025 65.1581 44.5534 66.3762 45.0539C66.3776 44.97 66.3794 44.8861 66.3794 44.8018C66.3794 41.0358 64.9687 37.5999 62.648 34.9916L52.8378 44.8018L54.0906 46.0547Z" fill="#C4C4C4"/>
</g>
</g>
<defs>
<filter id="filter0_d_162_238" x="-1.3013" y="0.558307" width="106.647" height="106.647" filterUnits="userSpaceOnUse" color-interpolation-filters="sRGB">
<feFlood flood-opacity="0" result="BackgroundImageFix"/>
<feColorMatrix in="SourceAlpha" type="matrix" values="0 0 0 0 0 0 0 0 0 0 0 0 0 0 0 0 0 0 127 0" result="hardAlpha"/>
<feOffset dy="8.67052"/>
<feGaussianBlur stdDeviation="10.8382"/>
<feColorMatrix type="matrix" values="0 0 0 0 0.337255 0 0 0 0 0.411765 0 0 0 0 1 0 0 0 0.25 0"/>
<feBlend mode="normal" in2="BackgroundImageFix" result="effect1_dropShadow_162_238"/>
<feBlend mode="normal" in="SourceGraphic" in2="effect1_dropShadow_162_238" result="shape"/>
</filter>
<clipPath id="clip0_162_238">
<rect width="29.5302" height="29.5302" fill="white" transform="translate(36.849 30.0381)"/>
</clipPath>
</defs>
</svg>
