<svg width="182" height="39" viewBox="0 0 182 39" fill="none" xmlns="http://www.w3.org/2000/svg">
<g filter="url(#filter0_d_317_6090)">
<path d="M36 15.5C36 23.7694 29.0755 30.5 20.5 30.5C11.9245 30.5 5 23.7694 5 15.5C5 7.23057 11.9245 0.5 20.5 0.5C29.0755 0.5 36 7.23057 36 15.5Z" stroke="#B6B6B6" shape-rendering="crispEdges"/>
</g>
<g filter="url(#filter1_d_317_6090)">
<path d="M83 15.5C83 23.7694 76.0755 30.5 67.5 30.5C58.9245 30.5 52 23.7694 52 15.5C52 7.23057 58.9245 0.5 67.5 0.5C76.0755 0.5 83 7.23057 83 15.5Z" stroke="#B6B6B6" shape-rendering="crispEdges"/>
</g>
<g filter="url(#filter2_d_317_6090)">
<path d="M130 15.5C130 23.7694 123.075 30.5 114.5 30.5C105.925 30.5 99 23.7694 99 15.5C99 7.23057 105.925 0.5 114.5 0.5C123.075 0.5 130 7.23057 130 15.5Z" stroke="#B6B6B6" shape-rendering="crispEdges"/>
</g>
<g filter="url(#filter3_d_317_6090)">
<path d="M177 15.5C177 23.7694 170.075 30.5 161.5 30.5C152.925 30.5 146 23.7694 146 15.5C146 7.23057 152.925 0.5 161.5 0.5C170.075 0.5 177 7.23057 177 15.5Z" stroke="#B6B6B6" shape-rendering="crispEdges"/>
</g>
<g filter="url(#filter4_d_317_6090)">
<path d="M13.5116 23L14.458 19.274C13.8344 18.1286 13.5068 16.826 13.5088 15.5C13.5088 11.3577 16.6427 8 20.5088 8C24.3749 8 27.5088 11.3577 27.5088 15.5C27.5088 19.6422 24.3749 23 20.5088 23C19.2717 23.0021 18.0565 22.6514 16.9878 21.9837L13.5116 23ZM17.9825 11.981C17.8921 11.987 17.8038 12.0125 17.7228 12.056C17.6469 12.1021 17.5775 12.1597 17.517 12.227C17.433 12.3117 17.3854 12.3852 17.3343 12.4565C17.0756 12.8172 16.9364 13.2601 16.9388 13.715C16.9402 14.0825 17.0298 14.4402 17.1698 14.7747C17.4561 15.4512 17.9272 16.1675 18.5495 16.8312C18.6993 16.991 18.8456 17.1515 19.0031 17.3007C19.7755 18.0293 20.6959 18.5548 21.6911 18.8352L22.0894 18.9005C22.2189 18.908 22.3484 18.8975 22.4786 18.8907C22.6825 18.8795 22.8815 18.8203 23.0617 18.7175C23.1534 18.6669 23.2428 18.6118 23.3298 18.5525C23.3298 18.5525 23.3599 18.5315 23.4173 18.485C23.5118 18.41 23.5699 18.3567 23.6483 18.269C23.7064 18.2045 23.7568 18.1287 23.7953 18.0425C23.8499 17.9202 23.9045 17.687 23.9269 17.4927C23.9437 17.3442 23.9388 17.2632 23.9367 17.213C23.9339 17.1327 23.8716 17.0495 23.8037 17.0142L23.3963 16.8185C23.3963 16.8185 22.7873 16.5342 22.4156 16.3527C22.3764 16.3344 22.3344 16.324 22.2917 16.322C22.2438 16.3167 22.1954 16.3225 22.1498 16.3389C22.1041 16.3554 22.0623 16.3821 22.0271 16.4172V16.4157C22.0236 16.4157 21.9767 16.4585 21.4706 17.1155C21.4415 17.1573 21.4015 17.1889 21.3557 17.2063C21.3098 17.2236 21.2601 17.226 21.213 17.213C21.1674 17.1999 21.1227 17.1834 21.0793 17.1635C20.9925 17.1245 20.9624 17.1095 20.9029 17.0817L20.8994 17.0802C20.4989 16.8929 20.1282 16.6399 19.8004 16.3302C19.7122 16.2477 19.6303 16.1577 19.5463 16.0707C19.2709 15.7882 19.0309 15.4685 18.8323 15.1197L18.791 15.0485C18.7613 15.0006 18.7373 14.949 18.7196 14.8947C18.693 14.7845 18.7623 14.696 18.7623 14.696C18.7623 14.696 18.9324 14.4965 19.0115 14.3885C19.0774 14.2987 19.1388 14.2054 19.1956 14.1087C19.2782 13.9662 19.3041 13.82 19.2607 13.7067C19.0647 13.1937 18.8617 12.683 18.6531 12.176C18.6118 12.0755 18.4893 12.0035 18.378 11.9892C18.3402 11.9847 18.3024 11.9802 18.2646 11.9772C18.1706 11.9722 18.0764 11.9732 17.9825 11.9802V11.981Z" fill="#B6B6B6"/>
</g>
<g filter="url(#filter5_d_317_6090)">
<path d="M70.9724 16.4194L71.387 13.7561H68.7955V12.0279C68.7955 11.2994 69.1574 10.5889 70.3181 10.5889H71.4961V8.32166C71.4961 8.32166 70.4272 8.14185 69.405 8.14185C67.271 8.14185 65.8762 9.41757 65.8762 11.7267V13.7566H63.5039V16.4198H65.8762V22.8582H68.7955V16.4198L70.9724 16.4194Z" fill="#B6B6B6"/>
</g>
<g filter="url(#filter6_d_317_6090)">
<path d="M114.498 13.2298C113.214 13.2298 112.166 14.2632 112.166 15.5295C112.166 16.7958 113.214 17.8292 114.498 17.8292C115.782 17.8292 116.83 16.7958 116.83 15.5295C116.83 14.2632 115.782 13.2298 114.498 13.2298ZM121.492 15.5295C121.492 14.5772 121.501 13.6335 121.447 12.6829C121.393 11.5788 121.137 10.5988 120.319 9.79144C119.498 8.98231 118.506 8.73215 117.386 8.67867C116.421 8.62519 115.464 8.63381 114.5 8.63381C113.534 8.63381 112.577 8.62519 111.613 8.67867C110.494 8.73215 109.5 8.98403 108.681 9.79144C107.861 10.6006 107.607 11.5788 107.553 12.6829C107.499 13.6352 107.507 14.5789 107.507 15.5295C107.507 16.4801 107.499 17.4255 107.553 18.3761C107.607 19.4803 107.862 20.4602 108.681 21.2676C109.502 22.0767 110.494 22.3269 111.613 22.3804C112.579 22.4339 113.536 22.4252 114.5 22.4252C115.466 22.4252 116.423 22.4339 117.386 22.3804C118.506 22.3269 119.5 22.075 120.319 21.2676C121.139 20.4585 121.393 19.4803 121.447 18.3761C121.503 17.4255 121.492 16.4818 121.492 15.5295ZM114.498 19.068C112.513 19.068 110.91 17.4876 110.91 15.5295C110.91 13.5714 112.513 11.9911 114.498 11.9911C116.484 11.9911 118.086 13.5714 118.086 15.5295C118.086 17.4876 116.484 19.068 114.498 19.068ZM118.233 12.6726C117.77 12.6726 117.395 12.3034 117.395 11.8462C117.395 11.389 117.77 11.0198 118.233 11.0198C118.697 11.0198 119.071 11.389 119.071 11.8462C119.071 11.9547 119.05 12.0623 119.008 12.1626C118.966 12.2629 118.904 12.3541 118.826 12.4308C118.748 12.5076 118.656 12.5684 118.554 12.6099C118.452 12.6514 118.343 12.6727 118.233 12.6726Z" fill="#B6B6B6"/>
</g>
<g filter="url(#filter7_d_317_6090)">
<path d="M169.637 10.5207C169.541 10.1656 169.351 9.84183 169.088 9.58169C168.824 9.32155 168.496 9.13422 168.136 9.03843C166.811 8.68701 161.5 8.68701 161.5 8.68701C161.5 8.68701 156.189 8.68701 154.864 9.03656C154.504 9.13204 154.176 9.31927 153.912 9.57946C153.649 9.83964 153.459 10.1636 153.363 10.5189C153.008 11.8273 153.008 14.5564 153.008 14.5564C153.008 14.5564 153.008 17.2855 153.363 18.592C153.558 19.3136 154.134 19.8818 154.864 20.0743C156.189 20.4258 161.5 20.4258 161.5 20.4258C161.5 20.4258 166.811 20.4258 168.136 20.0743C168.868 19.8818 169.442 19.3136 169.637 18.592C169.992 17.2855 169.992 14.5564 169.992 14.5564C169.992 14.5564 169.992 11.8273 169.637 10.5207ZM159.813 17.0612V12.0516L164.211 14.5377L159.813 17.0612Z" fill="#B6B6B6"/>
</g>
<defs>
<filter id="filter0_d_317_6090" x="0.5" y="0" width="40" height="39" filterUnits="userSpaceOnUse" color-interpolation-filters="sRGB">
<feFlood flood-opacity="0" result="BackgroundImageFix"/>
<feColorMatrix in="SourceAlpha" type="matrix" values="0 0 0 0 0 0 0 0 0 0 0 0 0 0 0 0 0 0 127 0" result="hardAlpha"/>
<feOffset dy="4"/>
<feGaussianBlur stdDeviation="2"/>
<feComposite in2="hardAlpha" operator="out"/>
<feColorMatrix type="matrix" values="0 0 0 0 0 0 0 0 0 0 0 0 0 0 0 0 0 0 0.25 0"/>
<feBlend mode="normal" in2="BackgroundImageFix" result="effect1_dropShadow_317_6090"/>
<feBlend mode="normal" in="SourceGraphic" in2="effect1_dropShadow_317_6090" result="shape"/>
</filter>
<filter id="filter1_d_317_6090" x="47.5" y="0" width="40" height="39" filterUnits="userSpaceOnUse" color-interpolation-filters="sRGB">
<feFlood flood-opacity="0" result="BackgroundImageFix"/>
<feColorMatrix in="SourceAlpha" type="matrix" values="0 0 0 0 0 0 0 0 0 0 0 0 0 0 0 0 0 0 127 0" result="hardAlpha"/>
<feOffset dy="4"/>
<feGaussianBlur stdDeviation="2"/>
<feComposite in2="hardAlpha" operator="out"/>
<feColorMatrix type="matrix" values="0 0 0 0 0 0 0 0 0 0 0 0 0 0 0 0 0 0 0.25 0"/>
<feBlend mode="normal" in2="BackgroundImageFix" result="effect1_dropShadow_317_6090"/>
<feBlend mode="normal" in="SourceGraphic" in2="effect1_dropShadow_317_6090" result="shape"/>
</filter>
<filter id="filter2_d_317_6090" x="94.5" y="0" width="40" height="39" filterUnits="userSpaceOnUse" color-interpolation-filters="sRGB">
<feFlood flood-opacity="0" result="BackgroundImageFix"/>
<feColorMatrix in="SourceAlpha" type="matrix" values="0 0 0 0 0 0 0 0 0 0 0 0 0 0 0 0 0 0 127 0" result="hardAlpha"/>
<feOffset dy="4"/>
<feGaussianBlur stdDeviation="2"/>
<feComposite in2="hardAlpha" operator="out"/>
<feColorMatrix type="matrix" values="0 0 0 0 0 0 0 0 0 0 0 0 0 0 0 0 0 0 0.25 0"/>
<feBlend mode="normal" in2="BackgroundImageFix" result="effect1_dropShadow_317_6090"/>
<feBlend mode="normal" in="SourceGraphic" in2="effect1_dropShadow_317_6090" result="shape"/>
</filter>
<filter id="filter3_d_317_6090" x="141.5" y="0" width="40" height="39" filterUnits="userSpaceOnUse" color-interpolation-filters="sRGB">
<feFlood flood-opacity="0" result="BackgroundImageFix"/>
<feColorMatrix in="SourceAlpha" type="matrix" values="0 0 0 0 0 0 0 0 0 0 0 0 0 0 0 0 0 0 127 0" result="hardAlpha"/>
<feOffset dy="4"/>
<feGaussianBlur stdDeviation="2"/>
<feComposite in2="hardAlpha" operator="out"/>
<feColorMatrix type="matrix" values="0 0 0 0 0 0 0 0 0 0 0 0 0 0 0 0 0 0 0.25 0"/>
<feBlend mode="normal" in2="BackgroundImageFix" result="effect1_dropShadow_317_6090"/>
<feBlend mode="normal" in="SourceGraphic" in2="effect1_dropShadow_317_6090" result="shape"/>
</filter>
<filter id="filter4_d_317_6090" x="9.50879" y="8" width="22" height="23" filterUnits="userSpaceOnUse" color-interpolation-filters="sRGB">
<feFlood flood-opacity="0" result="BackgroundImageFix"/>
<feColorMatrix in="SourceAlpha" type="matrix" values="0 0 0 0 0 0 0 0 0 0 0 0 0 0 0 0 0 0 127 0" result="hardAlpha"/>
<feOffset dy="4"/>
<feGaussianBlur stdDeviation="2"/>
<feComposite in2="hardAlpha" operator="out"/>
<feColorMatrix type="matrix" values="0 0 0 0 0 0 0 0 0 0 0 0 0 0 0 0 0 0 0.25 0"/>
<feBlend mode="normal" in2="BackgroundImageFix" result="effect1_dropShadow_317_6090"/>
<feBlend mode="normal" in="SourceGraphic" in2="effect1_dropShadow_317_6090" result="shape"/>
</filter>
<filter id="filter5_d_317_6090" x="59.5039" y="8.14185" width="15.9922" height="22.7164" filterUnits="userSpaceOnUse" color-interpolation-filters="sRGB">
<feFlood flood-opacity="0" result="BackgroundImageFix"/>
<feColorMatrix in="SourceAlpha" type="matrix" values="0 0 0 0 0 0 0 0 0 0 0 0 0 0 0 0 0 0 127 0" result="hardAlpha"/>
<feOffset dy="4"/>
<feGaussianBlur stdDeviation="2"/>
<feComposite in2="hardAlpha" operator="out"/>
<feColorMatrix type="matrix" values="0 0 0 0 0 0 0 0 0 0 0 0 0 0 0 0 0 0 0.25 0"/>
<feBlend mode="normal" in2="BackgroundImageFix" result="effect1_dropShadow_317_6090"/>
<feBlend mode="normal" in="SourceGraphic" in2="effect1_dropShadow_317_6090" result="shape"/>
</filter>
<filter id="filter6_d_317_6090" x="103.507" y="8.6333" width="21.9863" height="21.7924" filterUnits="userSpaceOnUse" color-interpolation-filters="sRGB">
<feFlood flood-opacity="0" result="BackgroundImageFix"/>
<feColorMatrix in="SourceAlpha" type="matrix" values="0 0 0 0 0 0 0 0 0 0 0 0 0 0 0 0 0 0 127 0" result="hardAlpha"/>
<feOffset dy="4"/>
<feGaussianBlur stdDeviation="2"/>
<feComposite in2="hardAlpha" operator="out"/>
<feColorMatrix type="matrix" values="0 0 0 0 0 0 0 0 0 0 0 0 0 0 0 0 0 0 0.25 0"/>
<feBlend mode="normal" in2="BackgroundImageFix" result="effect1_dropShadow_317_6090"/>
<feBlend mode="normal" in="SourceGraphic" in2="effect1_dropShadow_317_6090" result="shape"/>
</filter>
<filter id="filter7_d_317_6090" x="149.008" y="8.68701" width="24.9834" height="19.7387" filterUnits="userSpaceOnUse" color-interpolation-filters="sRGB">
<feFlood flood-opacity="0" result="BackgroundImageFix"/>
<feColorMatrix in="SourceAlpha" type="matrix" values="0 0 0 0 0 0 0 0 0 0 0 0 0 0 0 0 0 0 127 0" result="hardAlpha"/>
<feOffset dy="4"/>
<feGaussianBlur stdDeviation="2"/>
<feComposite in2="hardAlpha" operator="out"/>
<feColorMatrix type="matrix" values="0 0 0 0 0 0 0 0 0 0 0 0 0 0 0 0 0 0 0.25 0"/>
<feBlend mode="normal" in2="BackgroundImageFix" result="effect1_dropShadow_317_6090"/>
<feBlend mode="normal" in="SourceGraphic" in2="effect1_dropShadow_317_6090" result="shape"/>
</filter>
</defs>
</svg>
