<svg width="40" height="64" viewBox="0 0 40 64" fill="none" xmlns="http://www.w3.org/2000/svg">
<circle cx="32.0224" cy="32.2115" r="31.2139" fill="white" stroke="#E5E5E5" stroke-width="0.867052"/>
<g clip-path="url(#clip0_162_268)">
<path d="M45.6134 42.1466L34.0334 30.5666L20.5042 17.0374H19.4468L19.2309 17.5859C18.6611 19.0339 18.4177 20.5149 18.527 21.8686C18.6516 23.4116 19.2377 24.7475 20.2223 25.732L30.7839 36.2937L32.177 34.9006L41.9412 45.8189C42.9126 46.7902 44.5844 46.8479 45.6134 45.8189C46.6259 44.8064 46.6259 43.1591 45.6134 42.1466Z" fill="#B6B6B6"/>
<path d="M25.889 33.8492L17.6172 42.1211C16.6048 43.1335 16.6048 44.7809 17.6172 45.7932C18.5789 46.755 20.2427 46.8399 21.2894 45.7932L29.5613 37.5213L25.889 33.8492Z" fill="#B6B6B6"/>
<path d="M45.1271 21.954L40.4348 26.6462L39.2107 25.4222L43.903 20.7299L42.6789 19.5058L37.9867 24.198L36.7626 22.974L41.4549 18.2818L40.2309 17.0577L34.1105 23.1781C33.3618 23.9268 32.9147 24.921 32.8515 25.9776C32.8355 26.2452 32.7748 26.5085 32.6742 26.759L36.65 30.7348C36.9004 30.634 37.1638 30.5734 37.4314 30.5574C38.488 30.4944 39.4821 30.0472 40.2309 29.2984L46.3512 23.1781L45.1271 21.954Z" fill="#B6B6B6"/>
</g>
<defs>
<clipPath id="clip0_162_268">
<rect width="29.5318" height="29.5318" fill="white" transform="translate(16.849 17.0381)"/>
</clipPath>
</defs>
</svg>
