<svg width="108" height="108" viewBox="0 0 108 108" fill="none" xmlns="http://www.w3.org/2000/svg">
<g filter="url(#filter0_d_162_227)">
<circle cx="53.8259" cy="45.2115" r="31.6474" fill="white"/>
<g clip-path="url(#clip0_162_227)">
<path d="M58.9372 48.3817C61.7504 48.332 62.3695 44.4619 59.7149 43.5402L56.6497 46.8644C57.0322 47.765 57.9339 48.3817 58.9372 48.3817Z" fill="#C4C4C4"/>
<path d="M68.0162 43.3589C67.6222 40.9947 66.5145 39.1699 64.7946 38.0304C63.9936 38.8999 61.7865 41.2927 60.9535 42.1964C62.2937 42.9228 63.1516 44.3293 63.1516 45.8985C63.161 49.5355 58.7721 51.467 56.0975 49.0111C55.8425 49.5753 55.4848 50.0945 55.0342 50.5451C53.2483 52.4813 47.7165 52.9493 45.3551 52.8805C45.2861 50.5133 45.7561 44.9841 47.6906 43.2014C48.6776 42.2149 49.9653 41.7089 51.2617 41.6841C52.6804 40.3715 54.6477 38.551 56.0606 37.2435C54.098 37.7607 51.2234 39.1298 50.3467 37.8372C49.9364 36.8688 51.8018 34.6186 50.33 32.7302C49.1238 31.2157 46.4243 31.5002 44.8988 32.5762C37.4712 37.7044 36.478 48.9716 42.9622 55.2396C50.9 63.2384 64.7468 59.6146 67.7889 48.7751C67.9541 48.0929 68.4269 45.8564 68.0162 43.3589Z" fill="#C4C4C4"/>
<path d="M55.0342 43.2016C55.5165 43.684 55.892 44.2441 56.1493 44.854C57.1318 43.7899 62.3191 38.1621 63.1803 37.2287L67.7859 32.2337C68.289 31.6879 68.3023 30.8802 67.8165 30.3939C67.3296 29.9075 66.5207 29.9214 65.975 30.4262L59.2394 36.6599C57.7769 38.0129 54.8679 40.706 53.3755 42.087C53.979 42.3397 54.5438 42.7113 55.0342 43.2016Z" fill="#C4C4C4"/>
<path d="M52.8868 43.764C51.5727 43.1246 49.9803 43.3621 48.9147 44.424C47.814 45.3972 47.1891 49.1008 47.1256 51.1095C49.1401 51.044 52.8348 50.4227 53.8105 49.3204C54.4647 48.6662 54.8247 47.7968 54.8247 46.8725C54.8245 45.947 54.4641 45.0775 53.8105 44.4246V44.424C53.5335 44.1465 53.2208 43.9267 52.8868 43.764Z" fill="#C4C4C4"/>
</g>
</g>
<defs>
<filter id="filter0_d_162_227" x="0.502167" y="0.558307" width="106.647" height="106.647" filterUnits="userSpaceOnUse" color-interpolation-filters="sRGB">
<feFlood flood-opacity="0" result="BackgroundImageFix"/>
<feColorMatrix in="SourceAlpha" type="matrix" values="0 0 0 0 0 0 0 0 0 0 0 0 0 0 0 0 0 0 127 0" result="hardAlpha"/>
<feOffset dy="8.67052"/>
<feGaussianBlur stdDeviation="10.8382"/>
<feColorMatrix type="matrix" values="0 0 0 0 0.337255 0 0 0 0 0.411765 0 0 0 0 1 0 0 0 0.25 0"/>
<feBlend mode="normal" in2="BackgroundImageFix" result="effect1_dropShadow_162_227"/>
<feBlend mode="normal" in="SourceGraphic" in2="effect1_dropShadow_162_227" result="shape"/>
</filter>
<clipPath id="clip0_162_227">
<rect width="29.5302" height="29.5302" fill="white" transform="translate(38.6525 30.0381)"/>
</clipPath>
</defs>
</svg>
