<svg width="106" height="107" viewBox="0 0 106 107" fill="none" xmlns="http://www.w3.org/2000/svg">
<g filter="url(#filter0_d_162_238)">
<circle cx="52.5261" cy="44.6474" r="31.6474" fill="white"/>
<g clip-path="url(#clip0_162_238)">
<path d="M51.1933 33.4277C51.0006 32.1589 50.611 30.8744 50.0434 29.6194C47.0959 30.0338 44.428 31.3182 42.3074 33.2051L49.6335 40.5311C51.0648 38.7108 51.618 36.2245 51.1933 33.4277Z" fill="#C4C4C4"/>
<path d="M49.6412 42.986C47.8915 44.4306 45.6404 45.1854 43.1113 45.1854C42.4412 45.1854 41.7519 45.1325 41.0469 45.0255C39.8154 44.8385 38.5741 44.4876 37.3558 43.987C37.3545 44.071 37.3527 44.1548 37.3527 44.2391C37.3527 48.0051 38.7634 51.441 41.0841 54.0493L50.8943 44.2391L49.6412 42.986Z" fill="#C4C4C4"/>
<path d="M48.4105 41.7535L41.0844 34.4275C39.1976 36.5481 37.9132 39.2159 37.4988 42.1634C38.7539 42.731 40.0384 43.1207 41.3071 43.3134C44.104 43.7382 46.5903 43.1849 48.4105 41.7535Z" fill="#C4C4C4"/>
<path d="M62.9293 45.1625C60.1325 44.7377 57.6461 45.291 55.8259 46.7224L63.1519 54.0484C65.0387 51.9278 66.3231 49.26 66.7376 46.3125C65.4826 45.745 64.1982 45.3553 62.9293 45.1625Z" fill="#C4C4C4"/>
<path d="M53.3705 46.7149L52.1176 45.462L42.3074 55.2722C44.9157 57.593 48.3517 59.0036 52.1176 59.0036C52.2019 59.0036 52.2858 59.0019 52.3697 59.0005C51.8692 57.7822 51.5183 56.5409 51.3312 55.3094C50.8202 51.9439 51.5431 48.928 53.3705 46.7149Z" fill="#C4C4C4"/>
<path d="M50.8647 41.7622L52.1175 43.015L61.9277 33.2048C59.3194 30.884 55.8835 29.4734 52.1175 29.4734C52.0333 29.4734 51.9494 29.4752 51.8655 29.4766C52.366 30.6947 52.7169 31.936 52.9039 33.1677C53.415 36.5331 52.6921 39.549 50.8647 41.7622Z" fill="#C4C4C4"/>
<path d="M53.0417 55.0491C53.2344 56.3178 53.6242 57.6023 54.1917 58.8574C57.1392 58.443 59.807 57.1586 61.9276 55.2718L54.6015 47.9457C53.1702 49.766 52.617 52.2523 53.0417 55.0491Z" fill="#C4C4C4"/>
<path d="M54.5943 45.4906C56.8074 43.6631 59.8233 42.9403 63.1888 43.4513C64.4204 43.6384 65.6618 43.9893 66.8799 44.4898C66.8813 44.4059 66.883 44.322 66.883 44.2377C66.883 40.4717 65.4723 37.0358 63.1516 34.4275L53.3414 44.2377L54.5943 45.4906Z" fill="#C4C4C4"/>
</g>
</g>
<defs>
<filter id="filter0_d_162_238" x="-0.797638" y="-0.00578022" width="106.647" height="106.647" filterUnits="userSpaceOnUse" color-interpolation-filters="sRGB">
<feFlood flood-opacity="0" result="BackgroundImageFix"/>
<feColorMatrix in="SourceAlpha" type="matrix" values="0 0 0 0 0 0 0 0 0 0 0 0 0 0 0 0 0 0 127 0" result="hardAlpha"/>
<feOffset dy="8.67052"/>
<feGaussianBlur stdDeviation="10.8382"/>
<feColorMatrix type="matrix" values="0 0 0 0 0.337255 0 0 0 0 0.411765 0 0 0 0 1 0 0 0 0.25 0"/>
<feBlend mode="normal" in2="BackgroundImageFix" result="effect1_dropShadow_162_238"/>
<feBlend mode="normal" in="SourceGraphic" in2="effect1_dropShadow_162_238" result="shape"/>
</filter>
<clipPath id="clip0_162_238">
<rect width="29.5302" height="29.5302" fill="white" transform="translate(37.3527 29.474)"/>
</clipPath>
</defs>
</svg>
