<svg width="64" height="64" viewBox="0 0 64 64" fill="none" xmlns="http://www.w3.org/2000/svg">
<circle cx="32.2313" cy="31.6474" r="31.2139" fill="white" stroke="#E5E5E5" stroke-width="0.867052"/>
<g clip-path="url(#clip0_162_253)">
<path d="M45.8223 41.5826L34.2423 30.0025L20.713 16.4733H19.6557L19.4398 17.0219C18.87 18.4698 18.6265 19.9508 18.7358 21.3045C18.8604 22.8475 19.4466 24.1834 20.4311 25.168L30.9928 35.7296L32.3859 34.3365L42.1501 45.2548C43.1214 46.2261 44.7933 46.2838 45.8223 45.2548C46.8348 44.2423 46.8348 42.595 45.8223 41.5826Z" fill="#B6B6B6"/>
<path d="M26.0979 33.2852L17.8261 41.557C16.8137 42.5694 16.8137 44.2168 17.8261 45.2292C18.7878 46.1909 20.4516 46.2758 21.4982 45.2292L29.7701 36.9573L26.0979 33.2852Z" fill="#B6B6B6"/>
<path d="M45.336 21.3899L40.6437 26.0821L39.4196 24.8581L44.1118 20.1658L42.8878 18.9417L38.1955 23.6339L36.9715 22.4099L41.6637 17.7177L40.4397 16.4937L34.3194 22.614C33.5707 23.3627 33.1236 24.3569 33.0604 25.4135C33.0444 25.6812 32.9837 25.9445 32.8831 26.1949L36.8588 30.1707C37.1093 30.0699 37.3726 30.0093 37.6403 29.9933C38.6968 29.9303 39.691 29.4831 40.4397 28.7343L46.5601 22.6141L45.336 21.3899Z" fill="#B6B6B6"/>
</g>
<defs>
<clipPath id="clip0_162_253">
<rect width="29.5318" height="29.5318" fill="white" transform="translate(17.0579 16.474)"/>
</clipPath>
</defs>
</svg>
