<svg width="334" height="66" viewBox="0 0 334 66" fill="none" xmlns="http://www.w3.org/2000/svg">
<path d="M84.8787 39C84.8787 35.134 88.0127 32 91.8787 32C95.7447 32 98.8787 35.134 98.8787 39V51H84.8787V39Z" fill="#E7E7E7"/>
<path d="M98.8787 7C98.8787 3.13401 102.013 0 105.879 0C109.745 0 112.879 3.13401 112.879 7V51H98.8787V7Z" fill="#E7E7E7"/>
<path d="M112.879 20.5C112.879 16.3579 116.237 13 120.379 13C124.521 13 127.879 16.3579 127.879 20.5V51H112.879V20.5Z" fill="#E7E7E7"/>
<path d="M169.879 20.5C169.879 16.3579 173.237 13 177.379 13C181.521 13 184.879 16.3579 184.879 20.5V51H169.879V20.5Z" fill="#E7E7E7"/>
<path d="M127.879 29C127.879 25.134 131.013 22 134.879 22C138.745 22 141.879 25.134 141.879 29V51H127.879V29Z" fill="#E7E7E7"/>
<path d="M155.879 29C155.879 25.134 159.013 22 162.879 22C166.745 22 169.879 25.134 169.879 29V51H155.879V29Z" fill="#E7E7E7"/>
<path d="M141.879 33C141.879 29.134 145.013 26 148.879 26C152.745 26 155.879 29.134 155.879 33V51H141.879V33Z" fill="#E7E7E7"/>
<path d="M226.879 20.5C226.879 16.3579 230.237 13 234.379 13C238.521 13 241.879 16.3579 241.879 20.5V51H226.879V20.5Z" fill="#E7E7E7"/>
<path d="M184.879 29C184.879 25.134 188.013 22 191.879 22C195.745 22 198.879 25.134 198.879 29V51H184.879V29Z" fill="#E7E7E7"/>
<path d="M212.879 29C212.879 25.134 216.013 22 219.879 22C223.745 22 226.879 25.134 226.879 29V51H212.879V29Z" fill="#E7E7E7"/>
<path d="M198.879 33C198.879 29.134 202.013 26 205.879 26C209.745 26 212.879 29.134 212.879 33V51H198.879V33Z" fill="#E7E7E7"/>
<line opacity="0.2" x1="2.37866" y1="49.5" x2="332.379" y2="49.5" stroke="#C367E6" stroke-width="3" stroke-linecap="round"/>
<line x1="81.3787" y1="49.5" x2="242.379" y2="49.5" stroke="#C367E6" stroke-width="3" stroke-linecap="round"/>
<rect x="224.879" y="31" width="35" height="35" rx="9" fill="white"/>
<rect x="225.379" y="31.5" width="34" height="34" rx="8.5" stroke="#BFC4EE" stroke-opacity="0.0945738"/>
<path d="M250.879 49L244.879 45L244.879 53L250.879 49Z" fill="#5E5F65"/>
<path d="M234.879 49L240.879 53L240.879 45L234.879 49Z" fill="#5E5F65"/>
<rect x="61.8787" y="31" width="35" height="35" rx="9" fill="white"/>
<rect x="62.3787" y="31.5" width="34" height="34" rx="8.5" stroke="#BFC4EE" stroke-opacity="0.0945738"/>
<path d="M87.8787 49L81.8787 45L81.8787 53L87.8787 49Z" fill="#5E5F65"/>
<path d="M71.8787 49L77.8787 53L77.8787 45L71.8787 49Z" fill="#5E5F65"/>
</svg>
