<svg width="40" height="64" viewBox="0 0 40 64" fill="none" xmlns="http://www.w3.org/2000/svg">
<circle cx="32.5261" cy="31.6474" r="31.2139" fill="white" stroke="#E5E5E5" stroke-width="0.867052"/>
<g clip-path="url(#clip0_162_268)">
<path d="M46.1171 41.5826L34.5371 30.0025L21.0078 16.4733H19.9505L19.7346 17.0219C19.1648 18.4698 18.9213 19.9508 19.0306 21.3045C19.1552 22.8475 19.7414 24.1834 20.7259 25.168L31.2876 35.7296L32.6807 34.3365L42.4449 45.2548C43.4162 46.2261 45.0881 46.2838 46.1171 45.2548C47.1296 44.2423 47.1296 42.595 46.1171 41.5826Z" fill="#B6B6B6"/>
<path d="M26.3927 33.2852L18.1209 41.557C17.1085 42.5694 17.1085 44.2168 18.1209 45.2292C19.0826 46.1909 20.7464 46.2758 21.793 45.2292L30.0649 36.9573L26.3927 33.2852Z" fill="#B6B6B6"/>
<path d="M45.6308 21.3899L40.9385 26.0821L39.7144 24.8581L44.4066 20.1658L43.1826 18.9417L38.4903 23.6339L37.2663 22.4099L41.9585 17.7177L40.7345 16.4937L34.6142 22.614C33.8655 23.3627 33.4184 24.3569 33.3552 25.4135C33.3392 25.6812 33.2785 25.9445 33.1779 26.1949L37.1536 30.1707C37.4041 30.0699 37.6674 30.0093 37.9351 29.9933C38.9916 29.9303 39.9858 29.4831 40.7345 28.7343L46.8549 22.6141L45.6308 21.3899Z" fill="#B6B6B6"/>
</g>
<defs>
<clipPath id="clip0_162_268">
<rect width="29.5318" height="29.5318" fill="white" transform="translate(17.3527 16.474)"/>
</clipPath>
</defs>
</svg>
