<svg width="34" height="35" viewBox="0 0 34 35" fill="none" xmlns="http://www.w3.org/2000/svg">
<path d="M16.6118 4.16628C16.419 4.16504 16.2298 4.21947 16.0656 4.32339C15.9013 4.42732 15.7687 4.57658 15.6826 4.75425L12.1403 12.0534L3.7292 13.3871C3.54093 13.417 3.3644 13.5002 3.21918 13.6272C3.07395 13.7542 2.96572 13.9202 2.90648 14.1068C2.84724 14.2933 2.83931 14.4931 2.88356 14.684C2.92781 14.8749 3.02252 15.0495 3.15718 15.1883L8.97542 21.1829L7.67964 29.8586C7.65065 30.0527 7.67444 30.2513 7.74836 30.4323C7.82228 30.6133 7.94344 30.7697 8.0984 30.884C8.25335 30.9984 8.43604 31.0663 8.62617 31.0801C8.8163 31.094 9.00644 31.0533 9.17549 30.9626L16.6051 26.9685L24.0346 30.9626C24.2037 31.0533 24.3938 31.094 24.5839 31.0801C24.7741 31.0663 24.9568 30.9984 25.1117 30.884C25.2667 30.7697 25.3878 30.6133 25.4618 30.4323C25.5357 30.2513 25.5595 30.0527 25.5305 29.8586L24.2347 21.1829L30.0529 15.1883C30.1876 15.0495 30.2823 14.8749 30.3266 14.684C30.3708 14.4931 30.3629 14.2933 30.3036 14.1068C30.2444 13.9202 30.1362 13.7542 29.9909 13.6272C29.8457 13.5002 29.6692 13.417 29.4809 13.3871L21.0698 12.0534L17.5275 4.75425C17.4425 4.57868 17.3119 4.43081 17.1502 4.32703C16.9886 4.22325 16.8022 4.16761 16.6118 4.16628Z" fill="#8A8CA1"/>
</svg>
