<svg width="33" height="33" viewBox="0 0 33 33" fill="none" xmlns="http://www.w3.org/2000/svg">
<g opacity="0.5" clip-path="url(#clip0_286_30)">
<path d="M8.03446 0.855469C3.81212 0.855469 0.367798 4.2998 0.367798 8.52214C0.367798 12.7445 3.81212 16.1888 8.03446 16.1888C12.2568 16.1888 15.7011 12.7445 15.7011 8.52214C15.7011 4.2998 12.2568 0.855469 8.03446 0.855469ZM8.03446 2.85547C11.1759 2.85547 13.7011 5.38068 13.7011 8.52214C13.7011 11.6636 11.1759 14.1888 8.03446 14.1888C4.893 14.1888 2.3678 11.6636 2.3678 8.52214C2.3678 5.38068 4.893 2.85547 8.03446 2.85547ZM8.01884 4.17448C7.75385 4.17862 7.50134 4.28777 7.31677 4.47795C7.1322 4.66814 7.03066 4.92381 7.03446 5.1888V8.52214C7.03452 8.78733 7.1399 9.04166 7.32743 9.22917L8.66077 10.5625C8.75291 10.6585 8.86328 10.7351 8.98541 10.7879C9.10754 10.8407 9.23897 10.8685 9.37201 10.8699C9.50505 10.8712 9.63702 10.846 9.7602 10.7958C9.88337 10.7455 9.99527 10.6711 10.0894 10.577C10.1834 10.4829 10.2578 10.371 10.3081 10.2479C10.3584 10.1247 10.3836 9.99272 10.3822 9.85968C10.3809 9.72664 10.353 9.59521 10.3002 9.47308C10.2474 9.35095 10.1708 9.24058 10.0748 9.14844L9.03446 8.10807V5.1888C9.03638 5.05496 9.01142 4.92209 8.96104 4.79807C8.91066 4.67406 8.8359 4.56142 8.74119 4.46683C8.64648 4.37224 8.53374 4.29762 8.40966 4.2474C8.28558 4.19719 8.15268 4.17239 8.01884 4.17448ZM16.248 4.85547C16.5307 5.48747 16.7436 6.1568 16.8743 6.85547H24.0345C25.3211 6.85547 26.3678 7.90214 26.3678 9.1888V10.1888H16.8743C16.743 10.8875 16.53 11.5568 16.248 12.1888H26.3678V24.5221C26.3678 25.8088 25.3211 26.8555 24.0345 26.8555H8.70113C7.41446 26.8555 6.3678 25.8088 6.3678 24.5221V17.362C5.66913 17.2306 4.9998 17.0177 4.3678 16.7357V24.5221C4.3678 26.9115 6.3118 28.8555 8.70113 28.8555H24.0345C26.4238 28.8555 28.3678 26.9115 28.3678 24.5221V9.1888C28.3678 6.79947 26.4238 4.85547 24.0345 4.85547H16.248ZM16.3678 14.8555C15.9258 14.8555 15.5018 15.0311 15.1893 15.3436C14.8767 15.6562 14.7011 16.0801 14.7011 16.5221C14.7011 16.9642 14.8767 17.3881 15.1893 17.7006C15.5018 18.0132 15.9258 18.1888 16.3678 18.1888C16.8098 18.1888 17.2337 18.0132 17.5463 17.7006C17.8589 17.3881 18.0345 16.9642 18.0345 16.5221C18.0345 16.0801 17.8589 15.6562 17.5463 15.3436C17.2337 15.0311 16.8098 14.8555 16.3678 14.8555ZM22.0345 14.8555C21.5924 14.8555 21.1685 15.0311 20.856 15.3436C20.5434 15.6562 20.3678 16.0801 20.3678 16.5221C20.3678 16.9642 20.5434 17.3881 20.856 17.7006C21.1685 18.0132 21.5924 18.1888 22.0345 18.1888C22.4765 18.1888 22.9004 18.0132 23.213 17.7006C23.5255 17.3881 23.7011 16.9642 23.7011 16.5221C23.7011 16.0801 23.5255 15.6562 23.213 15.3436C22.9004 15.0311 22.4765 14.8555 22.0345 14.8555ZM10.7011 20.8555C10.2591 20.8555 9.83518 21.0311 9.52262 21.3436C9.21006 21.6562 9.03446 22.0801 9.03446 22.5221C9.03446 22.9642 9.21006 23.3881 9.52262 23.7006C9.83518 24.0132 10.2591 24.1888 10.7011 24.1888C11.1432 24.1888 11.5671 24.0132 11.8796 23.7006C12.1922 23.3881 12.3678 22.9642 12.3678 22.5221C12.3678 22.0801 12.1922 21.6562 11.8796 21.3436C11.5671 21.0311 11.1432 20.8555 10.7011 20.8555ZM16.3678 20.8555C15.9258 20.8555 15.5018 21.0311 15.1893 21.3436C14.8767 21.6562 14.7011 22.0801 14.7011 22.5221C14.7011 22.9642 14.8767 23.3881 15.1893 23.7006C15.5018 24.0132 15.9258 24.1888 16.3678 24.1888C16.8098 24.1888 17.2337 24.0132 17.5463 23.7006C17.8589 23.3881 18.0345 22.9642 18.0345 22.5221C18.0345 22.0801 17.8589 21.6562 17.5463 21.3436C17.2337 21.0311 16.8098 20.8555 16.3678 20.8555Z" fill="white"/>
</g>
<defs>
<clipPath id="clip0_286_30">
<rect width="32" height="32" fill="white" transform="translate(0.367798 0.855469)"/>
</clipPath>
</defs>
</svg>
