<svg width="33" height="33" viewBox="0 0 33 33" fill="none" xmlns="http://www.w3.org/2000/svg">
<g opacity="0.5">
<path d="M16.1051 2.95825C12.4351 2.95825 9.43848 5.95487 9.43848 9.62492C9.43848 13.295 12.4351 16.2916 16.1051 16.2916C19.7752 16.2916 22.7718 13.295 22.7718 9.62492C22.7718 5.95487 19.7752 2.95825 16.1051 2.95825ZM16.1051 4.95825C18.6943 4.95825 20.7718 7.03574 20.7718 9.62492C20.7718 12.2141 18.6943 14.2916 16.1051 14.2916C13.516 14.2916 11.4385 12.2141 11.4385 9.62492C11.4385 7.03574 13.516 4.95825 16.1051 4.95825ZM8.43848 18.9583C6.79348 18.9583 5.43848 20.3133 5.43848 21.9583V22.7577C5.43848 24.7183 6.68162 26.4769 8.5778 27.6861C10.474 28.8953 13.0684 29.6249 16.1051 29.6249C19.1419 29.6249 21.7363 28.8953 23.6325 27.6861C25.5287 26.4769 26.7718 24.7183 26.7718 22.7577V21.9583C26.7718 20.3133 25.4168 18.9583 23.7718 18.9583H8.43848ZM8.43848 20.9583H23.7718C24.3361 20.9583 24.7718 21.3939 24.7718 21.9583V22.7577C24.7718 23.8678 24.0568 25.0435 22.557 25.9999C21.0571 26.9564 18.8177 27.6249 16.1051 27.6249C13.3926 27.6249 11.1531 26.9564 9.65332 25.9999C8.1535 25.0435 7.43848 23.8678 7.43848 22.7577V21.9583C7.43848 21.3939 7.87414 20.9583 8.43848 20.9583Z" fill="white"/>
</g>
</svg>
