<svg width="25" height="24" viewBox="0 0 25 24" fill="none" xmlns="http://www.w3.org/2000/svg">
<path d="M3.75 5C2.785 5 2 5.785 2 6.75V9.26465C2 9.47965 2.09291 9.68465 2.25391 9.82715C2.41491 9.96965 2.63027 10.0363 2.84277 10.0098C2.89327 10.0033 2.947 10 3 10C4.103 10 5 10.897 5 12C5 13.103 4.103 14 3 14C2.9475 14 2.89473 13.9977 2.84473 13.9912C2.63223 13.9637 2.41641 14.0294 2.25391 14.1719C2.09291 14.3139 2 14.5199 2 14.7354V17.25C2 18.215 2.785 19 3.75 19H11.6807C11.5667 18.5175 11.5 18.017 11.5 17.5H3.75C3.612 17.5 3.5 17.388 3.5 17.25V15.4648C5.194 15.2213 6.5 13.7605 6.5 12C6.5 10.2395 5.194 8.77866 3.5 8.53516V6.75C3.5 6.612 3.612 6.5 3.75 6.5H21.25C21.388 6.5 21.5 6.612 21.5 6.75V8.53516C20.129 8.73216 19.0127 9.72723 18.6367 11.0322C19.1502 11.0822 19.6442 11.1964 20.1152 11.3584C20.3842 10.5714 21.1225 10 22 10C22.053 10 22.1067 10.0028 22.1572 10.0088C22.3702 10.0353 22.5846 9.96965 22.7461 9.82715C22.9071 9.68515 23 9.47965 23 9.26465V6.75C23 5.785 22.215 5 21.25 5H3.75ZM18 12C14.9625 12 12.5 14.4625 12.5 17.5C12.5 20.5375 14.9625 23 18 23C21.0375 23 23.5 20.5375 23.5 17.5C23.5 14.4625 21.0375 12 18 12ZM18 13.5C18.276 13.5 18.5 13.724 18.5 14V17H21.5C21.776 17 22 17.224 22 17.5C22 17.776 21.776 18 21.5 18H18.5V21C18.5 21.276 18.276 21.5 18 21.5C17.724 21.5 17.5 21.276 17.5 21V18H14.5C14.224 18 14 17.776 14 17.5C14 17.224 14.224 17 14.5 17H17.5V14C17.5 13.724 17.724 13.5 18 13.5Z" fill="white"/>
</svg>
