<svg width="33" height="32" viewBox="0 0 33 32" fill="none" xmlns="http://www.w3.org/2000/svg">
<path d="M16.9233 3.33327C16.7364 3.3321 16.5529 3.38333 16.3937 3.48114C16.2344 3.57896 16.1057 3.71944 16.0223 3.88666L12.5874 10.7564L4.43112 12.0117C4.24855 12.0399 4.07736 12.1181 3.93654 12.2377C3.79572 12.3572 3.69077 12.5135 3.63332 12.689C3.57588 12.8646 3.56818 13.0527 3.6111 13.2323C3.65401 13.412 3.74585 13.5763 3.87643 13.707L9.51836 19.3489L8.26185 27.5143C8.23374 27.6969 8.2568 27.8838 8.32848 28.0542C8.40016 28.2246 8.51765 28.3717 8.66791 28.4794C8.81817 28.587 8.99532 28.6509 9.17969 28.664C9.36406 28.677 9.54844 28.6387 9.71237 28.5533L16.9168 24.7942L24.1212 28.5533C24.2851 28.6387 24.4695 28.677 24.6539 28.664C24.8383 28.6509 25.0154 28.587 25.1657 28.4794C25.3159 28.3717 25.4334 28.2246 25.5051 28.0542C25.5768 27.8838 25.5999 27.6969 25.5717 27.5143L24.3152 19.3489L29.9572 13.707C30.0877 13.5763 30.1796 13.412 30.2225 13.2323C30.2654 13.0527 30.2577 12.8646 30.2003 12.689C30.1428 12.5135 30.0379 12.3572 29.897 12.2377C29.7562 12.1181 29.585 12.0399 29.4025 12.0117L21.2462 10.7564L17.8113 3.88666C17.7288 3.72142 17.6022 3.58224 17.4455 3.48457C17.2887 3.38689 17.108 3.33452 16.9233 3.33327Z" fill="#A7A6B7"/>
</svg>
