<svg width="33" height="33" viewBox="0 0 33 33" fill="none" xmlns="http://www.w3.org/2000/svg">
<g opacity="0.5">
<path d="M16.3678 3.52209C12.6978 3.52209 9.70117 6.51871 9.70117 10.1888C9.70117 13.8588 12.6978 16.8554 16.3678 16.8554C20.0379 16.8554 23.0345 13.8588 23.0345 10.1888C23.0345 6.51871 20.0379 3.52209 16.3678 3.52209ZM16.3678 5.52209C18.957 5.52209 21.0345 7.59959 21.0345 10.1888C21.0345 12.7779 18.957 14.8554 16.3678 14.8554C13.7787 14.8554 11.7012 12.7779 11.7012 10.1888C11.7012 7.59959 13.7787 5.52209 16.3678 5.52209ZM8.70117 19.5221C7.05617 19.5221 5.70117 20.8771 5.70117 22.5221V23.3216C5.70117 25.2822 6.94431 27.0407 8.84049 28.25C10.7367 29.4592 13.3311 30.1888 16.3678 30.1888C19.4046 30.1888 21.999 29.4592 23.8952 28.25C25.7914 27.0407 27.0345 25.2822 27.0345 23.3216V22.5221C27.0345 20.8771 25.6795 19.5221 24.0345 19.5221H8.70117ZM8.70117 21.5221H24.0345C24.5988 21.5221 25.0345 21.9578 25.0345 22.5221V23.3216C25.0345 24.4317 24.3195 25.6073 22.8197 26.5638C21.3198 27.5202 19.0804 28.1888 16.3678 28.1888C13.6553 28.1888 11.4158 27.5202 9.91602 26.5638C8.4162 25.6073 7.70117 24.4317 7.70117 23.3216V22.5221C7.70117 21.9578 8.13684 21.5221 8.70117 21.5221Z" fill="white"/>
</g>
</svg>
