<svg width="24" height="25" viewBox="0 0 24 25" fill="none" xmlns="http://www.w3.org/2000/svg">
<path d="M12.0049 3.0641C11.8647 3.06323 11.7271 3.10165 11.6076 3.17501C11.4882 3.24836 11.3917 3.35373 11.3291 3.47914L8.7529 8.63148L2.63571 9.57289C2.49879 9.59405 2.3704 9.65272 2.26479 9.74239C2.15917 9.83206 2.08046 9.94924 2.03737 10.0809C1.99429 10.2126 1.98852 10.3536 2.0207 10.4884C2.05288 10.6232 2.12176 10.7464 2.2197 10.8444L6.45114 15.0758L5.50876 21.1998C5.48768 21.3369 5.50498 21.477 5.55874 21.6048C5.6125 21.7326 5.70062 21.843 5.81331 21.9237C5.92601 22.0044 6.05887 22.0523 6.19714 22.0621C6.33542 22.0719 6.47371 22.0432 6.59665 21.9791L12 19.1598L17.4033 21.9791C17.5262 22.0432 17.6645 22.0719 17.8028 22.0621C17.9411 22.0523 18.0739 22.0044 18.1866 21.9237C18.2993 21.843 18.3874 21.7326 18.4412 21.6048C18.495 21.477 18.5123 21.3369 18.4912 21.1998L17.5488 15.0758L21.7802 10.8444C21.8782 10.7464 21.9471 10.6232 21.9792 10.4884C22.0114 10.3536 22.0057 10.2126 21.9626 10.0809C21.9195 9.94924 21.8408 9.83206 21.7352 9.74239C21.6295 9.65272 21.5012 9.59405 21.3642 9.57289L15.247 8.63148L12.6709 3.47914C12.609 3.35521 12.514 3.25083 12.3965 3.17757C12.2789 3.10432 12.1434 3.06504 12.0049 3.0641Z" fill="white"/>
</svg>
