<svg width="25" height="24" viewBox="0 0 25 24" fill="none" xmlns="http://www.w3.org/2000/svg">
<path d="M12.4854 2.24998C12.2252 2.25387 11.9769 2.35896 11.793 2.54295L8.79297 5.54295C8.69699 5.6351 8.62037 5.74546 8.56758 5.86759C8.5148 5.98972 8.48691 6.12116 8.48556 6.2542C8.4842 6.38724 8.50941 6.51921 8.5597 6.64239C8.60999 6.76557 8.68435 6.87747 8.77843 6.97155C8.87251 7.06563 8.98441 7.13999 9.10759 7.19028C9.23077 7.24057 9.36274 7.26578 9.49578 7.26442C9.62883 7.26307 9.76026 7.23518 9.88239 7.1824C10.0045 7.12961 10.1149 7.05299 10.207 6.95701L11.5 5.66404V15C11.4981 15.1325 11.5226 15.2641 11.572 15.387C11.6214 15.51 11.6948 15.6219 11.7878 15.7163C11.8809 15.8107 11.9918 15.8856 12.114 15.9367C12.2363 15.9879 12.3675 16.0142 12.5 16.0142C12.6325 16.0142 12.7637 15.9879 12.886 15.9367C13.0082 15.8856 13.1191 15.8107 13.2122 15.7163C13.3052 15.6219 13.3786 15.51 13.428 15.387C13.4774 15.2641 13.5019 15.1325 13.5 15V5.66404L14.793 6.95701C14.8851 7.05299 14.9955 7.12961 15.1176 7.1824C15.2397 7.23518 15.3712 7.26307 15.5042 7.26442C15.6373 7.26578 15.7692 7.24057 15.8924 7.19028C16.0156 7.13999 16.1275 7.06563 16.2216 6.97155C16.3156 6.87747 16.39 6.76557 16.4403 6.64239C16.4906 6.51921 16.5158 6.38724 16.5144 6.2542C16.5131 6.12116 16.4852 5.98972 16.4324 5.86759C16.3796 5.74546 16.303 5.6351 16.207 5.54295L13.207 2.54295C13.1125 2.44833 12.9998 2.37365 12.8759 2.32332C12.7519 2.273 12.6191 2.24806 12.4854 2.24998ZM8.5 8.49998C6.85498 8.49998 5.5 9.85497 5.5 11.5V19C5.5 20.645 6.85498 22 8.5 22H16.5C18.145 22 19.5 20.645 19.5 19V11.5C19.5 9.85497 18.145 8.49998 16.5 8.49998H16C15.8675 8.49811 15.7359 8.52259 15.613 8.572C15.49 8.62142 15.3781 8.69478 15.2837 8.78782C15.1893 8.88087 15.1144 8.99174 15.0632 9.11399C15.0121 9.23625 14.9858 9.36746 14.9858 9.49998C14.9858 9.63251 15.0121 9.76371 15.0632 9.88597C15.1144 10.0082 15.1893 10.1191 15.2837 10.2121C15.3781 10.3052 15.49 10.3785 15.613 10.428C15.7359 10.4774 15.8675 10.5019 16 10.5H16.5C17.064 10.5 17.5 10.936 17.5 11.5V19C17.5 19.564 17.064 20 16.5 20H8.5C7.93602 20 7.5 19.564 7.5 19V11.5C7.5 10.936 7.93602 10.5 8.5 10.5H9C9.13251 10.5019 9.26407 10.4774 9.38704 10.428C9.51001 10.3785 9.62193 10.3052 9.7163 10.2121C9.81067 10.1191 9.88561 10.0082 9.93676 9.88597C9.9879 9.76371 10.0142 9.63251 10.0142 9.49998C10.0142 9.36746 9.9879 9.23625 9.93676 9.11399C9.88561 8.99174 9.81067 8.88087 9.7163 8.78782C9.62193 8.69478 9.51001 8.62142 9.38704 8.572C9.26407 8.52259 9.13251 8.49811 9 8.49998H8.5Z" fill="white" fill-opacity="0.8"/>
</svg>
