<svg width="23" height="5" viewBox="0 0 23 5" fill="none" xmlns="http://www.w3.org/2000/svg">
<path d="M11.9176 3.72958C12.6073 3.72958 13.1664 3.17823 13.1664 2.49809C13.1664 1.81796 12.6073 1.2666 11.9176 1.2666C11.2279 1.2666 10.6688 1.81796 10.6688 2.49809C10.6688 3.17823 11.2279 3.72958 11.9176 3.72958Z" stroke="white" stroke-width="2" stroke-linecap="round" stroke-linejoin="round"/>
<path d="M20.6591 3.72958C21.3487 3.72958 21.9078 3.17823 21.9078 2.49809C21.9078 1.81796 21.3487 1.2666 20.6591 1.2666C19.9694 1.2666 19.4103 1.81796 19.4103 2.49809C19.4103 3.17823 19.9694 3.72958 20.6591 3.72958Z" stroke="white" stroke-width="2" stroke-linecap="round" stroke-linejoin="round"/>
<path d="M3.17615 3.72958C3.86583 3.72958 4.42493 3.17823 4.42493 2.49809C4.42493 1.81796 3.86583 1.2666 3.17615 1.2666C2.48647 1.2666 1.92737 1.81796 1.92737 2.49809C1.92737 3.17823 2.48647 3.72958 3.17615 3.72958Z" stroke="white" stroke-width="2" stroke-linecap="round" stroke-linejoin="round"/>
</svg>
