<svg width="33" height="33" viewBox="0 0 33 33" fill="none" xmlns="http://www.w3.org/2000/svg">
<path d="M16.5065 3.76931C16.3196 3.76814 16.1361 3.81937 15.9769 3.91718C15.8176 4.01499 15.6889 4.15547 15.6055 4.32269L12.1706 11.1925L4.01431 12.4477C3.83174 12.4759 3.66056 12.5541 3.51973 12.6737C3.37891 12.7933 3.27396 12.9495 3.21652 13.1251C3.15907 13.3006 3.15138 13.4887 3.19429 13.6684C3.2372 13.8481 3.32904 14.0123 3.45962 14.143L9.10155 19.7849L7.84504 27.9503C7.81693 28.133 7.83999 28.3199 7.91167 28.4902C7.98335 28.6606 8.10084 28.8078 8.2511 28.9154C8.40136 29.0231 8.57851 29.0869 8.76288 29.1C8.94725 29.113 9.13163 29.0748 9.29556 28.9894L16.5 25.2302L23.7044 28.9894C23.8683 29.0748 24.0527 29.113 24.2371 29.1C24.4215 29.0869 24.5986 29.0231 24.7489 28.9154C24.8991 28.8078 25.0166 28.6606 25.0883 28.4902C25.16 28.3199 25.183 28.133 25.1549 27.9503L23.8984 19.7849L29.5403 14.143C29.6709 14.0123 29.7628 13.8481 29.8057 13.6684C29.8486 13.4887 29.8409 13.3006 29.7835 13.1251C29.726 12.9495 29.6211 12.7933 29.4802 12.6737C29.3394 12.5541 29.1682 12.4759 28.9857 12.4477L20.8294 11.1925L17.3945 4.32269C17.312 4.15745 17.1854 4.01828 17.0286 3.9206C16.8719 3.82293 16.6912 3.77056 16.5065 3.76931Z" fill="white"/>
</svg>
