<svg width="25" height="25" viewBox="0 0 25 25" fill="none" xmlns="http://www.w3.org/2000/svg">
<path d="M8 4.06409C4.97622 4.06409 2.5 6.54031 2.5 9.56409C2.5 11.26 3.51427 12.7833 4.81445 14.3112C6.11463 15.839 7.78085 17.3768 9.39551 18.8864C10.1652 19.6056 11.7842 21.2623 11.7842 21.2623C11.8773 21.3578 11.9887 21.4337 12.1116 21.4855C12.2345 21.5373 12.3666 21.564 12.5 21.564C12.6334 21.564 12.7655 21.5373 12.8884 21.4855C13.0113 21.4337 13.1227 21.3578 13.2158 21.2623C13.2158 21.2623 14.8348 19.6056 15.6045 18.8864C17.2191 17.3768 18.8854 15.839 20.1855 14.3112C21.4857 12.7833 22.5 11.26 22.5 9.56409C22.5 6.54031 20.0238 4.06409 17 4.06409C15.3412 4.06409 13.772 4.81955 12.5 6.36487C11.228 4.81955 9.65878 4.06409 8 4.06409ZM8 6.06409C9.38032 6.06409 10.3434 6.49173 11.4434 8.23206C11.4434 8.23238 11.4434 8.23271 11.4434 8.23303L11.6553 8.56702C11.7455 8.70939 11.8703 8.82664 12.0179 8.90788C12.1656 8.98913 12.3314 9.03173 12.5 9.03173C12.6686 9.03173 12.8344 8.98913 12.9821 8.90788C13.1297 8.82664 13.2545 8.70939 13.3447 8.56702L13.5566 8.23303C13.5566 8.23271 13.5566 8.23238 13.5566 8.23206C14.6566 6.49173 15.6197 6.06409 17 6.06409C18.9392 6.06409 20.5 7.62487 20.5 9.56409C20.5 10.3682 19.8424 11.6282 18.6621 13.0153C17.4818 14.4023 15.8586 15.9115 14.2393 17.4254C13.6284 17.9962 13.0181 18.6269 12.5 19.1539C11.9819 18.6269 11.3716 17.9962 10.7607 17.4254C9.1414 15.9115 7.51821 14.4023 6.33789 13.0153C5.15757 11.6282 4.5 10.3682 4.5 9.56409C4.5 7.62487 6.06078 6.06409 8 6.06409Z" fill="white" fill-opacity="0.8"/>
</svg>
