<svg width="24" height="24" viewBox="0 0 24 24" fill="none" xmlns="http://www.w3.org/2000/svg">
<path d="M16.25 2.5C15.0095 2.5 14 3.5095 14 4.75V5H2.75C2.65062 4.99859 2.55194 5.01696 2.45972 5.05402C2.36749 5.09108 2.28355 5.1461 2.21277 5.21588C2.142 5.28566 2.08579 5.36882 2.04743 5.46051C2.00907 5.5522 1.98932 5.65061 1.98932 5.75C1.98932 5.84939 2.00907 5.9478 2.04743 6.03949C2.08579 6.13118 2.142 6.21434 2.21277 6.28412C2.28355 6.3539 2.36749 6.40892 2.45972 6.44598C2.55194 6.48304 2.65062 6.50141 2.75 6.5H14V6.75C14 7.9905 15.0095 9 16.25 9C17.4905 9 18.5 7.9905 18.5 6.75V6.5H21.25C21.3494 6.50141 21.4481 6.48304 21.5403 6.44598C21.6325 6.40892 21.7164 6.3539 21.7872 6.28412C21.858 6.21434 21.9142 6.13118 21.9526 6.03949C21.9909 5.9478 22.0107 5.84939 22.0107 5.75C22.0107 5.65061 21.9909 5.5522 21.9526 5.46051C21.9142 5.36882 21.858 5.28566 21.7872 5.21588C21.7164 5.1461 21.6325 5.09108 21.5403 5.05402C21.4481 5.01696 21.3494 4.99859 21.25 5H18.5V4.75C18.5 3.5095 17.4905 2.5 16.25 2.5ZM7.75 8.75C6.5095 8.75 5.5 9.7595 5.5 11V11.25H2.75C2.65062 11.2486 2.55194 11.267 2.45972 11.304C2.36749 11.3411 2.28355 11.3961 2.21277 11.4659C2.142 11.5357 2.08579 11.6188 2.04743 11.7105C2.00907 11.8022 1.98932 11.9006 1.98932 12C1.98932 12.0994 2.00907 12.1978 2.04743 12.2895C2.08579 12.3812 2.142 12.4643 2.21277 12.5341C2.28355 12.6039 2.36749 12.6589 2.45972 12.696C2.55194 12.733 2.65062 12.7514 2.75 12.75H5.5V13C5.5 14.2405 6.5095 15.25 7.75 15.25C8.9905 15.25 10 14.2405 10 13V12.75H21.25C21.3494 12.7514 21.4481 12.733 21.5403 12.696C21.6325 12.6589 21.7164 12.6039 21.7872 12.5341C21.858 12.4643 21.9142 12.3812 21.9526 12.2895C21.9909 12.1978 22.0107 12.0994 22.0107 12C22.0107 11.9006 21.9909 11.8022 21.9526 11.7105C21.9142 11.6188 21.858 11.5357 21.7872 11.4659C21.7164 11.3961 21.6325 11.3411 21.5403 11.304C21.4481 11.267 21.3494 11.2486 21.25 11.25H10V11C10 9.7595 8.9905 8.75 7.75 8.75ZM15.25 15C14.0095 15 13 16.0095 13 17.25V17.5H2.75C2.65062 17.4986 2.55194 17.517 2.45972 17.554C2.36749 17.5911 2.28355 17.6461 2.21277 17.7159C2.142 17.7857 2.08579 17.8688 2.04743 17.9605C2.00907 18.0522 1.98932 18.1506 1.98932 18.25C1.98932 18.3494 2.00907 18.4478 2.04743 18.5395C2.08579 18.6312 2.142 18.7143 2.21277 18.7841C2.28355 18.8539 2.36749 18.9089 2.45972 18.946C2.55194 18.983 2.65062 19.0014 2.75 19H13V19.25C13 20.4905 14.0095 21.5 15.25 21.5C16.4905 21.5 17.5 20.4905 17.5 19.25V19H21.25C21.3494 19.0014 21.4481 18.983 21.5403 18.946C21.6325 18.9089 21.7164 18.8539 21.7872 18.7841C21.858 18.7143 21.9142 18.6312 21.9526 18.5395C21.9909 18.4478 22.0107 18.3494 22.0107 18.25C22.0107 18.1506 21.9909 18.0522 21.9526 17.9605C21.9142 17.8688 21.858 17.7857 21.7872 17.7159C21.7164 17.6461 21.6325 17.5911 21.5403 17.554C21.4481 17.517 21.3494 17.4986 21.25 17.5H17.5V17.25C17.5 16.0095 16.4905 15 15.25 15Z" fill="white"/>
</svg>
