<svg width="33" height="32" viewBox="0 0 33 32" fill="none" xmlns="http://www.w3.org/2000/svg">
<g opacity="0.5">
<path d="M16.2196 2.66675C12.5496 2.66675 9.55298 5.66336 9.55298 9.33342C9.55298 13.0035 12.5496 16.0001 16.2196 16.0001C19.8897 16.0001 22.8863 13.0035 22.8863 9.33342C22.8863 5.66336 19.8897 2.66675 16.2196 2.66675ZM16.2196 4.66675C18.8088 4.66675 20.8863 6.74424 20.8863 9.33342C20.8863 11.9226 18.8088 14.0001 16.2196 14.0001C13.6305 14.0001 11.553 11.9226 11.553 9.33342C11.553 6.74424 13.6305 4.66675 16.2196 4.66675ZM8.55298 18.6667C6.90798 18.6667 5.55298 20.0217 5.55298 21.6667V22.4662C5.55298 24.4268 6.79612 26.1854 8.6923 27.3946C10.5885 28.6038 13.1829 29.3334 16.2196 29.3334C19.2564 29.3334 21.8508 28.6038 23.747 27.3946C25.6432 26.1854 26.8863 24.4268 26.8863 22.4662V21.6667C26.8863 20.0217 25.5313 18.6667 23.8863 18.6667H8.55298ZM8.55298 20.6667H23.8863C24.4506 20.6667 24.8863 21.1024 24.8863 21.6667V22.4662C24.8863 23.5763 24.1713 24.752 22.6715 25.7084C21.1716 26.6649 18.9322 27.3334 16.2196 27.3334C13.5071 27.3334 11.2676 26.6649 9.76782 25.7084C8.268 24.752 7.55298 23.5763 7.55298 22.4662V21.6667C7.55298 21.1024 7.98865 20.6667 8.55298 20.6667Z" fill="white"/>
</g>
</svg>
