<svg width="32" height="33" viewBox="0 0 32 33" fill="none" xmlns="http://www.w3.org/2000/svg">
<g opacity="0.5">
<path d="M16 3.23071C12.3299 3.23071 9.33331 6.22733 9.33331 9.89738C9.33331 13.5674 12.3299 16.564 16 16.564C19.67 16.564 22.6666 13.5674 22.6666 9.89738C22.6666 6.22733 19.67 3.23071 16 3.23071ZM16 5.23071C18.5892 5.23071 20.6666 7.30821 20.6666 9.89738C20.6666 12.4866 18.5892 14.564 16 14.564C13.4108 14.564 11.3333 12.4866 11.3333 9.89738C11.3333 7.30821 13.4108 5.23071 16 5.23071ZM8.33331 19.2307C6.68831 19.2307 5.33331 20.5857 5.33331 22.2307V23.0302C5.33331 24.9908 6.57646 26.7494 8.47264 27.9586C10.3688 29.1678 12.9632 29.8974 16 29.8974C19.0368 29.8974 21.6311 29.1678 23.5273 27.9586C25.4235 26.7494 26.6666 24.9908 26.6666 23.0302V22.2307C26.6666 20.5857 25.3116 19.2307 23.6666 19.2307H8.33331ZM8.33331 21.2307H23.6666C24.231 21.2307 24.6666 21.6664 24.6666 22.2307V23.0302C24.6666 24.1403 23.9516 25.3159 22.4518 26.2724C20.952 27.2288 18.7125 27.8974 16 27.8974C13.2874 27.8974 11.048 27.2288 9.54816 26.2724C8.04834 25.3159 7.33331 24.1403 7.33331 23.0302V22.2307C7.33331 21.6664 7.76898 21.2307 8.33331 21.2307Z" fill="white"/>
</g>
</svg>
