<svg width="24" height="25" viewBox="0 0 24 25" fill="none" xmlns="http://www.w3.org/2000/svg">
<path d="M10.25 3.56409C6.25778 3.56409 3 6.82187 3 10.8141C3 14.8063 6.25778 18.0641 10.25 18.0641C11.8866 18.0641 13.3945 17.5106 14.6104 16.5895L19.293 21.2711C19.3851 21.3671 19.4955 21.4437 19.6176 21.4965C19.7397 21.5493 19.8712 21.5772 20.0042 21.5785C20.1373 21.5799 20.2692 21.5547 20.3924 21.5044C20.5156 21.4541 20.6275 21.3797 20.7216 21.2857C20.8157 21.1916 20.89 21.0797 20.9403 20.9565C20.9906 20.8333 21.0158 20.7013 21.0144 20.5683C21.0131 20.4353 20.9852 20.3038 20.9324 20.1817C20.8796 20.0596 20.803 19.9492 20.707 19.8571L16.0254 15.1744C16.9465 13.9585 17.5 12.4507 17.5 10.8141C17.5 6.82187 14.2422 3.56409 10.25 3.56409ZM10.25 5.56409C13.1613 5.56409 15.5 7.90275 15.5 10.8141C15.5 12.2119 14.957 13.4744 14.0742 14.4127C13.9883 14.4749 13.9128 14.5504 13.8506 14.6364C12.9121 15.5203 11.6489 16.0641 10.25 16.0641C7.33866 16.0641 5 13.7254 5 10.8141C5 7.90275 7.33866 5.56409 10.25 5.56409Z" fill="white"/>
</svg>
