<svg width="25" height="25" viewBox="0 0 25 25" fill="none" xmlns="http://www.w3.org/2000/svg">
<path d="M10.793 20.2711C10.9885 20.4666 11.244 20.5641 11.5 20.5641C11.756 20.5641 12.0115 20.4666 12.207 20.2711C12.5975 19.8806 12.5975 19.2476 12.207 18.8571L6.914 13.5641H20.5C21.052 13.5641 21.5 13.1161 21.5 12.5641C21.5 12.0121 21.052 11.5641 20.5 11.5641H6.914L12.207 6.27108C12.5975 5.88058 12.5975 5.24758 12.207 4.85708C11.8165 4.46658 11.1835 4.46658 10.793 4.85708L3.793 11.8571C3.4025 12.2476 3.4025 12.8806 3.793 13.2711L10.793 20.2711Z" fill="white" fill-opacity="0.8"/>
</svg>
