<svg width="33" height="33" viewBox="0 0 33 33" fill="none" xmlns="http://www.w3.org/2000/svg">
<g opacity="0.5">
<path d="M16.469 2.95825C12.799 2.95825 9.80237 5.95487 9.80237 9.62492C9.80237 13.295 12.799 16.2916 16.469 16.2916C20.1391 16.2916 23.1357 13.295 23.1357 9.62492C23.1357 5.95487 20.1391 2.95825 16.469 2.95825ZM16.469 4.95825C19.0582 4.95825 21.1357 7.03574 21.1357 9.62492C21.1357 12.2141 19.0582 14.2916 16.469 14.2916C13.8799 14.2916 11.8024 12.2141 11.8024 9.62492C11.8024 7.03574 13.8799 4.95825 16.469 4.95825ZM8.80237 18.9583C7.15737 18.9583 5.80237 20.3133 5.80237 21.9583V22.7577C5.80237 24.7183 7.04551 26.4769 8.94169 27.6861C10.8379 28.8953 13.4323 29.6249 16.469 29.6249C19.5058 29.6249 22.1002 28.8953 23.9964 27.6861C25.8926 26.4769 27.1357 24.7183 27.1357 22.7577V21.9583C27.1357 20.3133 25.7807 18.9583 24.1357 18.9583H8.80237ZM8.80237 20.9583H24.1357C24.7 20.9583 25.1357 21.3939 25.1357 21.9583V22.7577C25.1357 23.8678 24.4207 25.0435 22.9209 25.9999C21.421 26.9564 19.1816 27.6249 16.469 27.6249C13.7565 27.6249 11.517 26.9564 10.0172 25.9999C8.51739 25.0435 7.80237 23.8678 7.80237 22.7577V21.9583C7.80237 21.3939 8.23804 20.9583 8.80237 20.9583Z" fill="white"/>
</g>
</svg>
