<svg width="33" height="32" viewBox="0 0 33 32" fill="none" xmlns="http://www.w3.org/2000/svg">
<g opacity="0.5">
<path d="M16.9167 2.66675C13.2466 2.66675 10.25 5.66336 10.25 9.33342C10.25 13.0035 13.2466 16.0001 16.9167 16.0001C20.5867 16.0001 23.5833 13.0035 23.5833 9.33342C23.5833 5.66336 20.5867 2.66675 16.9167 2.66675ZM16.9167 4.66675C19.5058 4.66675 21.5833 6.74424 21.5833 9.33342C21.5833 11.9226 19.5058 14.0001 16.9167 14.0001C14.3275 14.0001 12.25 11.9226 12.25 9.33342C12.25 6.74424 14.3275 4.66675 16.9167 4.66675ZM9.25 18.6667C7.605 18.6667 6.25 20.0217 6.25 21.6667V22.4662C6.25 24.4268 7.49314 26.1854 9.38932 27.3946C11.2855 28.6038 13.8799 29.3334 16.9167 29.3334C19.9534 29.3334 22.5478 28.6038 24.444 27.3946C26.3402 26.1854 27.5833 24.4268 27.5833 22.4662V21.6667C27.5833 20.0217 26.2283 18.6667 24.5833 18.6667H9.25ZM9.25 20.6667H24.5833C25.1477 20.6667 25.5833 21.1024 25.5833 21.6667V22.4662C25.5833 23.5763 24.8683 24.752 23.3685 25.7084C21.8687 26.6649 19.6292 27.3334 16.9167 27.3334C14.2041 27.3334 11.9647 26.6649 10.4648 25.7084C8.96502 24.752 8.25 23.5763 8.25 22.4662V21.6667C8.25 21.1024 8.68567 20.6667 9.25 20.6667Z" fill="white"/>
</g>
</svg>
