<svg width="24" height="25" viewBox="0 0 24 25" fill="none" xmlns="http://www.w3.org/2000/svg">
<path d="M16.25 3.06409C15.0095 3.06409 14 4.07359 14 5.31409V5.56409H2.75C2.65062 5.56268 2.55194 5.58104 2.45972 5.6181C2.36749 5.65516 2.28355 5.71018 2.21277 5.77997C2.142 5.84975 2.08579 5.9329 2.04743 6.0246C2.00907 6.11629 1.98932 6.21469 1.98932 6.31409C1.98932 6.41348 2.00907 6.51188 2.04743 6.60358C2.08579 6.69527 2.142 6.77842 2.21277 6.84821C2.28355 6.91799 2.36749 6.97301 2.45972 7.01007C2.55194 7.04713 2.65062 7.06549 2.75 7.06409H14V7.31409C14 8.55459 15.0095 9.56409 16.25 9.56409C17.4905 9.56409 18.5 8.55459 18.5 7.31409V7.06409H21.25C21.3494 7.06549 21.4481 7.04713 21.5403 7.01007C21.6325 6.97301 21.7164 6.91799 21.7872 6.84821C21.858 6.77842 21.9142 6.69527 21.9526 6.60358C21.9909 6.51188 22.0107 6.41348 22.0107 6.31409C22.0107 6.21469 21.9909 6.11629 21.9526 6.0246C21.9142 5.9329 21.858 5.84975 21.7872 5.77997C21.7164 5.71018 21.6325 5.65516 21.5403 5.6181C21.4481 5.58104 21.3494 5.56268 21.25 5.56409H18.5V5.31409C18.5 4.07359 17.4905 3.06409 16.25 3.06409ZM7.75 9.31409C6.5095 9.31409 5.5 10.3236 5.5 11.5641V11.8141H2.75C2.65062 11.8127 2.55194 11.831 2.45972 11.8681C2.36749 11.9052 2.28355 11.9602 2.21277 12.03C2.142 12.0998 2.08579 12.1829 2.04743 12.2746C2.00907 12.3663 1.98932 12.4647 1.98932 12.5641C1.98932 12.6635 2.00907 12.7619 2.04743 12.8536C2.08579 12.9453 2.142 13.0284 2.21277 13.0982C2.28355 13.168 2.36749 13.223 2.45972 13.2601C2.55194 13.2971 2.65062 13.3155 2.75 13.3141H5.5V13.5641C5.5 14.8046 6.5095 15.8141 7.75 15.8141C8.9905 15.8141 10 14.8046 10 13.5641V13.3141H21.25C21.3494 13.3155 21.4481 13.2971 21.5403 13.2601C21.6325 13.223 21.7164 13.168 21.7872 13.0982C21.858 13.0284 21.9142 12.9453 21.9526 12.8536C21.9909 12.7619 22.0107 12.6635 22.0107 12.5641C22.0107 12.4647 21.9909 12.3663 21.9526 12.2746C21.9142 12.1829 21.858 12.0998 21.7872 12.03C21.7164 11.9602 21.6325 11.9052 21.5403 11.8681C21.4481 11.831 21.3494 11.8127 21.25 11.8141H10V11.5641C10 10.3236 8.9905 9.31409 7.75 9.31409ZM15.25 15.5641C14.0095 15.5641 13 16.5736 13 17.8141V18.0641H2.75C2.65062 18.0627 2.55194 18.081 2.45972 18.1181C2.36749 18.1552 2.28355 18.2102 2.21277 18.28C2.142 18.3497 2.08579 18.4329 2.04743 18.5246C2.00907 18.6163 1.98932 18.7147 1.98932 18.8141C1.98932 18.9135 2.00907 19.0119 2.04743 19.1036C2.08579 19.1953 2.142 19.2784 2.21277 19.3482C2.28355 19.418 2.36749 19.473 2.45972 19.5101C2.55194 19.5471 2.65062 19.5655 2.75 19.5641H13V19.8141C13 21.0546 14.0095 22.0641 15.25 22.0641C16.4905 22.0641 17.5 21.0546 17.5 19.8141V19.5641H21.25C21.3494 19.5655 21.4481 19.5471 21.5403 19.5101C21.6325 19.473 21.7164 19.418 21.7872 19.3482C21.858 19.2784 21.9142 19.1953 21.9526 19.1036C21.9909 19.0119 22.0107 18.9135 22.0107 18.8141C22.0107 18.7147 21.9909 18.6163 21.9526 18.5246C21.9142 18.4329 21.858 18.3497 21.7872 18.28C21.7164 18.2102 21.6325 18.1552 21.5403 18.1181C21.4481 18.081 21.3494 18.0627 21.25 18.0641H17.5V17.8141C17.5 16.5736 16.4905 15.5641 15.25 15.5641Z" fill="white"/>
</svg>
