<svg width="25" height="25" viewBox="0 0 25 25" fill="none" xmlns="http://www.w3.org/2000/svg">
<path d="M3.75 5.56409C2.785 5.56409 2 6.34909 2 7.31409V9.82874C2 10.0437 2.09291 10.2487 2.25391 10.3912C2.41491 10.5337 2.63027 10.6004 2.84277 10.5739C2.89327 10.5674 2.947 10.5641 3 10.5641C4.103 10.5641 5 11.4611 5 12.5641C5 13.6671 4.103 14.5641 3 14.5641C2.9475 14.5641 2.89473 14.5618 2.84473 14.5553C2.63223 14.5278 2.41641 14.5935 2.25391 14.736C2.09291 14.878 2 15.0839 2 15.2994V17.8141C2 18.7791 2.785 19.5641 3.75 19.5641H11.6807C11.5667 19.0816 11.5 18.5811 11.5 18.0641H3.75C3.612 18.0641 3.5 17.9521 3.5 17.8141V16.0289C5.194 15.7854 6.5 14.3246 6.5 12.5641C6.5 10.8036 5.194 9.34274 3.5 9.09924V7.31409C3.5 7.17609 3.612 7.06409 3.75 7.06409H21.25C21.388 7.06409 21.5 7.17609 21.5 7.31409V9.09924C20.129 9.29624 19.0127 10.2913 18.6367 11.5963C19.1502 11.6463 19.6442 11.7605 20.1152 11.9225C20.3842 11.1355 21.1225 10.5641 22 10.5641C22.053 10.5641 22.1067 10.5669 22.1572 10.5729C22.3702 10.5994 22.5846 10.5337 22.7461 10.3912C22.9071 10.2492 23 10.0437 23 9.82874V7.31409C23 6.34909 22.215 5.56409 21.25 5.56409H3.75ZM18 12.5641C14.9625 12.5641 12.5 15.0266 12.5 18.0641C12.5 21.1016 14.9625 23.5641 18 23.5641C21.0375 23.5641 23.5 21.1016 23.5 18.0641C23.5 15.0266 21.0375 12.5641 18 12.5641ZM18 14.0641C18.276 14.0641 18.5 14.2881 18.5 14.5641V17.5641H21.5C21.776 17.5641 22 17.7881 22 18.0641C22 18.3401 21.776 18.5641 21.5 18.5641H18.5V21.5641C18.5 21.8401 18.276 22.0641 18 22.0641C17.724 22.0641 17.5 21.8401 17.5 21.5641V18.5641H14.5C14.224 18.5641 14 18.3401 14 18.0641C14 17.7881 14.224 17.5641 14.5 17.5641H17.5V14.5641C17.5 14.2881 17.724 14.0641 18 14.0641Z" fill="white"/>
</svg>
