<svg width="23" height="6" viewBox="0 0 23 6" fill="none" xmlns="http://www.w3.org/2000/svg">
<path d="M11.5265 4.45447C12.2168 4.45447 12.7765 3.89482 12.7765 3.20447C12.7765 2.51411 12.2168 1.95447 11.5265 1.95447C10.8361 1.95447 10.2765 2.51411 10.2765 3.20447C10.2765 3.89482 10.8361 4.45447 11.5265 4.45447Z" stroke="white" stroke-width="2" stroke-linecap="round" stroke-linejoin="round"/>
<path d="M20.2765 4.45447C20.9668 4.45447 21.5265 3.89482 21.5265 3.20447C21.5265 2.51411 20.9668 1.95447 20.2765 1.95447C19.5861 1.95447 19.0265 2.51411 19.0265 3.20447C19.0265 3.89482 19.5861 4.45447 20.2765 4.45447Z" stroke="white" stroke-width="2" stroke-linecap="round" stroke-linejoin="round"/>
<path d="M2.77649 4.45447C3.46685 4.45447 4.02649 3.89482 4.02649 3.20447C4.02649 2.51411 3.46685 1.95447 2.77649 1.95447C2.08613 1.95447 1.52649 2.51411 1.52649 3.20447C1.52649 3.89482 2.08613 4.45447 2.77649 4.45447Z" stroke="white" stroke-width="2" stroke-linecap="round" stroke-linejoin="round"/>
</svg>
