<svg width="25" height="24" viewBox="0 0 25 24" fill="none" xmlns="http://www.w3.org/2000/svg">
<path d="M8 3.5C4.97622 3.5 2.5 5.97622 2.5 9C2.5 10.6959 3.51427 12.2192 4.81445 13.7471C6.11463 15.2749 7.78085 16.8127 9.39551 18.3223C10.1652 19.0415 11.7842 20.6982 11.7842 20.6982C11.8773 20.7937 11.9887 20.8696 12.1116 20.9214C12.2345 20.9732 12.3666 20.9999 12.5 20.9999C12.6334 20.9999 12.7655 20.9732 12.8884 20.9214C13.0113 20.8696 13.1227 20.7937 13.2158 20.6982C13.2158 20.6982 14.8348 19.0415 15.6045 18.3223C17.2191 16.8127 18.8854 15.2749 20.1855 13.7471C21.4857 12.2192 22.5 10.6959 22.5 9C22.5 5.97622 20.0238 3.5 17 3.5C15.3412 3.5 13.772 4.25546 12.5 5.80078C11.228 4.25546 9.65878 3.5 8 3.5ZM8 5.5C9.38032 5.5 10.3434 5.92765 11.4434 7.66797C11.4434 7.66829 11.4434 7.66862 11.4434 7.66895L11.6553 8.00293C11.7455 8.1453 11.8703 8.26255 12.0179 8.3438C12.1656 8.42504 12.3314 8.46764 12.5 8.46764C12.6686 8.46764 12.8344 8.42504 12.9821 8.3438C13.1297 8.26255 13.2545 8.1453 13.3447 8.00293L13.5566 7.66895C13.5566 7.66862 13.5566 7.66829 13.5566 7.66797C14.6566 5.92765 15.6197 5.5 17 5.5C18.9392 5.5 20.5 7.06078 20.5 9C20.5 9.80413 19.8424 11.0642 18.6621 12.4512C17.4818 13.8382 15.8586 15.3474 14.2393 16.8613C13.6284 17.4321 13.0181 18.0628 12.5 18.5898C11.9819 18.0628 11.3716 17.4321 10.7607 16.8613C9.1414 15.3474 7.51821 13.8382 6.33789 12.4512C5.15757 11.0642 4.5 9.80413 4.5 9C4.5 7.06078 6.06078 5.5 8 5.5Z" fill="white" fill-opacity="0.8"/>
</svg>
