<svg width="32" height="33" viewBox="0 0 32 33" fill="none" xmlns="http://www.w3.org/2000/svg">
<g opacity="0.5" clip-path="url(#clip0_152_356)">
<path d="M7.66667 0.564087C3.44433 0.564087 0 4.00842 0 8.23075C0 12.4531 3.44433 15.8974 7.66667 15.8974C11.889 15.8974 15.3333 12.4531 15.3333 8.23075C15.3333 4.00842 11.889 0.564087 7.66667 0.564087ZM7.66667 2.56409C10.8081 2.56409 13.3333 5.08929 13.3333 8.23075C13.3333 11.3722 10.8081 13.8974 7.66667 13.8974C4.52521 13.8974 2 11.3722 2 8.23075C2 5.08929 4.52521 2.56409 7.66667 2.56409ZM7.65104 3.8831C7.38605 3.88724 7.13354 3.99639 6.94897 4.18657C6.7644 4.37676 6.66287 4.63243 6.66667 4.89742V8.23075C6.66672 8.49595 6.7721 8.75027 6.95964 8.93779L8.29297 10.2711C8.38511 10.3671 8.49548 10.4437 8.61761 10.4965C8.73974 10.5493 8.87117 10.5772 9.00421 10.5785C9.13725 10.5799 9.26922 10.5547 9.3924 10.5044C9.51557 10.4541 9.62748 10.3797 9.72155 10.2856C9.81563 10.1916 9.88999 10.0797 9.94028 9.95648C9.99057 9.83331 10.0158 9.70134 10.0144 9.5683C10.0131 9.43526 9.98519 9.30383 9.93241 9.1817C9.87962 9.05957 9.803 8.9492 9.70703 8.85706L8.66667 7.81669V4.89742C8.66859 4.76358 8.64362 4.63071 8.59324 4.50669C8.54287 4.38268 8.46811 4.27004 8.37339 4.17544C8.27868 4.08085 8.16594 4.00624 8.04186 3.95602C7.91778 3.9058 7.78488 3.88101 7.65104 3.8831ZM15.8802 4.56409C16.1629 5.19609 16.3758 5.86542 16.5065 6.56409H23.6667C24.9533 6.56409 26 7.61075 26 8.89742V9.89742H16.5065C16.3752 10.5961 16.1622 11.2654 15.8802 11.8974H26V24.2308C26 25.5174 24.9533 26.5641 23.6667 26.5641H8.33333C7.04667 26.5641 6 25.5174 6 24.2308V17.0706C5.30133 16.9393 4.632 16.7263 4 16.4443V24.2308C4 26.6201 5.944 28.5641 8.33333 28.5641H23.6667C26.056 28.5641 28 26.6201 28 24.2308V8.89742C28 6.50809 26.056 4.56409 23.6667 4.56409H15.8802ZM16 14.5641C15.558 14.5641 15.134 14.7397 14.8215 15.0522C14.5089 15.3648 14.3333 15.7887 14.3333 16.2308C14.3333 16.6728 14.5089 17.0967 14.8215 17.4093C15.134 17.7218 15.558 17.8974 16 17.8974C16.442 17.8974 16.866 17.7218 17.1785 17.4093C17.4911 17.0967 17.6667 16.6728 17.6667 16.2308C17.6667 15.7887 17.4911 15.3648 17.1785 15.0522C16.866 14.7397 16.442 14.5641 16 14.5641ZM21.6667 14.5641C21.2246 14.5641 20.8007 14.7397 20.4882 15.0522C20.1756 15.3648 20 15.7887 20 16.2308C20 16.6728 20.1756 17.0967 20.4882 17.4093C20.8007 17.7218 21.2246 17.8974 21.6667 17.8974C22.1087 17.8974 22.5326 17.7218 22.8452 17.4093C23.1577 17.0967 23.3333 16.6728 23.3333 16.2308C23.3333 15.7887 23.1577 15.3648 22.8452 15.0522C22.5326 14.7397 22.1087 14.5641 21.6667 14.5641ZM10.3333 20.5641C9.89131 20.5641 9.46738 20.7397 9.15482 21.0522C8.84226 21.3648 8.66667 21.7887 8.66667 22.2308C8.66667 22.6728 8.84226 23.0967 9.15482 23.4093C9.46738 23.7218 9.89131 23.8974 10.3333 23.8974C10.7754 23.8974 11.1993 23.7218 11.5118 23.4093C11.8244 23.0967 12 22.6728 12 22.2308C12 21.7887 11.8244 21.3648 11.5118 21.0522C11.1993 20.7397 10.7754 20.5641 10.3333 20.5641ZM16 20.5641C15.558 20.5641 15.134 20.7397 14.8215 21.0522C14.5089 21.3648 14.3333 21.7887 14.3333 22.2308C14.3333 22.6728 14.5089 23.0967 14.8215 23.4093C15.134 23.7218 15.558 23.8974 16 23.8974C16.442 23.8974 16.866 23.7218 17.1785 23.4093C17.4911 23.0967 17.6667 22.6728 17.6667 22.2308C17.6667 21.7887 17.4911 21.3648 17.1785 21.0522C16.866 20.7397 16.442 20.5641 16 20.5641Z" fill="white"/>
</g>
<defs>
<clipPath id="clip0_152_356">
<rect width="32" height="32" fill="white" transform="translate(0 0.564087)"/>
</clipPath>
</defs>
</svg>
