<svg width="23" height="5" viewBox="0 0 23 5" fill="none" xmlns="http://www.w3.org/2000/svg">
<path d="M11.9176 3.47958C12.6073 3.47958 13.1664 2.92823 13.1664 2.24809C13.1664 1.56796 12.6073 1.0166 11.9176 1.0166C11.2279 1.0166 10.6688 1.56796 10.6688 2.24809C10.6688 2.92823 11.2279 3.47958 11.9176 3.47958Z" stroke="white" stroke-width="2" stroke-linecap="round" stroke-linejoin="round"/>
<path d="M20.6591 3.47958C21.3487 3.47958 21.9078 2.92823 21.9078 2.24809C21.9078 1.56796 21.3487 1.0166 20.6591 1.0166C19.9694 1.0166 19.4103 1.56796 19.4103 2.24809C19.4103 2.92823 19.9694 3.47958 20.6591 3.47958Z" stroke="white" stroke-width="2" stroke-linecap="round" stroke-linejoin="round"/>
<path d="M3.17615 3.47958C3.86583 3.47958 4.42493 2.92823 4.42493 2.24809C4.42493 1.56796 3.86583 1.0166 3.17615 1.0166C2.48647 1.0166 1.92737 1.56796 1.92737 2.24809C1.92737 2.92823 2.48647 3.47958 3.17615 3.47958Z" stroke="white" stroke-width="2" stroke-linecap="round" stroke-linejoin="round"/>
</svg>
