<svg width="33" height="32" viewBox="0 0 33 32" fill="none" xmlns="http://www.w3.org/2000/svg">
<path d="M16.2263 3.33327C16.0394 3.3321 15.8559 3.38333 15.6966 3.48114C15.5374 3.57896 15.4087 3.71944 15.3252 3.88666L11.8903 10.7564L3.73409 12.0117C3.55153 12.0399 3.38034 12.1181 3.23952 12.2377C3.0987 12.3572 2.99375 12.5135 2.9363 12.689C2.87886 12.8646 2.87116 13.0527 2.91407 13.2323C2.95699 13.412 3.04882 13.5763 3.17941 13.707L8.82133 19.3489L7.56482 27.5143C7.53671 27.6969 7.55978 27.8838 7.63146 28.0542C7.70314 28.2246 7.82063 28.3717 7.97089 28.4794C8.12115 28.587 8.2983 28.6509 8.48267 28.664C8.66704 28.677 8.85142 28.6387 9.01534 28.5533L16.2198 24.7942L23.4242 28.5533C23.5881 28.6387 23.7725 28.677 23.9569 28.664C24.1412 28.6509 24.3184 28.587 24.4687 28.4794C24.6189 28.3717 24.7364 28.2246 24.8081 28.0542C24.8798 27.8838 24.9028 27.6969 24.8747 27.5143L23.6182 19.3489L29.2601 13.707C29.3907 13.5763 29.4826 13.412 29.5255 13.2323C29.5684 13.0527 29.5607 12.8646 29.5032 12.689C29.4458 12.5135 29.3408 12.3572 29.2 12.2377C29.0592 12.1181 28.888 12.0399 28.7055 12.0117L20.5492 10.7564L17.1143 3.88666C17.0318 3.72142 16.9052 3.58224 16.7484 3.48457C16.5917 3.38689 16.411 3.33452 16.2263 3.33327Z" fill="#A7A6B7"/>
</svg>
