<svg width="34" height="35" viewBox="0 0 34 35" fill="none" xmlns="http://www.w3.org/2000/svg">
<path d="M17.3745 3.73037C17.1817 3.72913 16.9925 3.78356 16.8283 3.88748C16.664 3.99141 16.5314 4.14067 16.4453 4.31834L12.903 11.6175L4.4919 12.9512C4.30363 12.9811 4.12709 13.0642 3.98187 13.1913C3.83665 13.3183 3.72842 13.4843 3.66918 13.6709C3.60993 13.8574 3.602 14.0572 3.64625 14.2481C3.6905 14.439 3.78521 14.6136 3.91988 14.7524L9.73811 20.747L8.44234 29.4227C8.41335 29.6168 8.43714 29.8153 8.51106 29.9964C8.58498 30.1774 8.70614 30.3337 8.86109 30.4481C9.01605 30.5625 9.19873 30.6304 9.38886 30.6442C9.579 30.6581 9.76914 30.6174 9.93819 30.5267L17.3678 26.5326L24.7973 30.5267C24.9664 30.6174 25.1565 30.6581 25.3466 30.6442C25.5368 30.6304 25.7195 30.5625 25.8744 30.4481C26.0294 30.3337 26.1505 30.1774 26.2245 29.9964C26.2984 29.8153 26.3222 29.6168 26.2932 29.4227L24.9974 20.747L30.8156 14.7524C30.9503 14.6136 31.045 14.439 31.0893 14.2481C31.1335 14.0572 31.1256 13.8574 31.0663 13.6709C31.0071 13.4843 30.8989 13.3183 30.7536 13.1913C30.6084 13.0642 30.4319 12.9811 30.2436 12.9512L21.8325 11.6175L18.2902 4.31834C18.2052 4.14277 18.0746 3.9949 17.9129 3.89112C17.7513 3.78734 17.5649 3.7317 17.3745 3.73037Z" fill="#8A8CA1"/>
</svg>
