<svg width="33" height="33" viewBox="0 0 33 33" fill="none" xmlns="http://www.w3.org/2000/svg">
<g opacity="0.5">
<path d="M16.5 3.10278C12.8299 3.10278 9.83331 6.0994 9.83331 9.76945C9.83331 13.4395 12.8299 16.4361 16.5 16.4361C20.17 16.4361 23.1666 13.4395 23.1666 9.76945C23.1666 6.0994 20.17 3.10278 16.5 3.10278ZM16.5 5.10278C19.0892 5.10278 21.1666 7.18028 21.1666 9.76945C21.1666 12.3586 19.0892 14.4361 16.5 14.4361C13.9108 14.4361 11.8333 12.3586 11.8333 9.76945C11.8333 7.18028 13.9108 5.10278 16.5 5.10278ZM8.83331 19.1028C7.18831 19.1028 5.83331 20.4578 5.83331 22.1028V22.9023C5.83331 24.8628 7.07646 26.6214 8.97264 27.8306C10.8688 29.0399 13.4632 29.7695 16.5 29.7695C19.5368 29.7695 22.1311 29.0399 24.0273 27.8306C25.9235 26.6214 27.1666 24.8628 27.1666 22.9023V22.1028C27.1666 20.4578 25.8116 19.1028 24.1666 19.1028H8.83331ZM8.83331 21.1028H24.1666C24.731 21.1028 25.1666 21.5385 25.1666 22.1028V22.9023C25.1666 24.0124 24.4516 25.188 22.9518 26.1445C21.452 27.1009 19.2125 27.7695 16.5 27.7695C13.7874 27.7695 11.548 27.1009 10.0482 26.1445C8.54834 25.188 7.83331 24.0124 7.83331 22.9023V22.1028C7.83331 21.5385 8.26898 21.1028 8.83331 21.1028Z" fill="white"/>
</g>
</svg>
