<svg width="25" height="24" viewBox="0 0 25 24" fill="none" xmlns="http://www.w3.org/2000/svg">
<path d="M10.793 19.707C10.9885 19.9025 11.244 20 11.5 20C11.756 20 12.0115 19.9025 12.207 19.707C12.5975 19.3165 12.5975 18.6835 12.207 18.293L6.914 13H20.5C21.052 13 21.5 12.552 21.5 12C21.5 11.448 21.052 11 20.5 11H6.914L12.207 5.707C12.5975 5.3165 12.5975 4.6835 12.207 4.293C11.8165 3.9025 11.1835 3.9025 10.793 4.293L3.793 11.293C3.4025 11.6835 3.4025 12.3165 3.793 12.707L10.793 19.707Z" fill="white" fill-opacity="0.8"/>
</svg>
