<svg width="23" height="6" viewBox="0 0 23 6" fill="none" xmlns="http://www.w3.org/2000/svg">
<path d="M11.2086 4.4393C11.8983 4.4393 12.4574 3.88794 12.4574 3.20781C12.4574 2.52768 11.8983 1.97632 11.2086 1.97632C10.5189 1.97632 9.95984 2.52768 9.95984 3.20781C9.95984 3.88794 10.5189 4.4393 11.2086 4.4393Z" stroke="white" stroke-width="2" stroke-linecap="round" stroke-linejoin="round"/>
<path d="M19.9501 4.4393C20.6398 4.4393 21.1989 3.88794 21.1989 3.20781C21.1989 2.52768 20.6398 1.97632 19.9501 1.97632C19.2604 1.97632 18.7013 2.52768 18.7013 3.20781C18.7013 3.88794 19.2604 4.4393 19.9501 4.4393Z" stroke="white" stroke-width="2" stroke-linecap="round" stroke-linejoin="round"/>
<path d="M2.46716 4.4393C3.15684 4.4393 3.71594 3.88794 3.71594 3.20781C3.71594 2.52768 3.15684 1.97632 2.46716 1.97632C1.77748 1.97632 1.21838 2.52768 1.21838 3.20781C1.21838 3.88794 1.77748 4.4393 2.46716 4.4393Z" stroke="white" stroke-width="2" stroke-linecap="round" stroke-linejoin="round"/>
</svg>
