<svg width="34" height="35" viewBox="0 0 34 35" fill="none" xmlns="http://www.w3.org/2000/svg">
<path d="M16.9757 4.16628C16.7829 4.16504 16.5937 4.21947 16.4295 4.32339C16.2652 4.42732 16.1326 4.57658 16.0465 4.75425L12.5042 12.0534L4.09309 13.3871C3.90482 13.417 3.72829 13.5002 3.58307 13.6272C3.43785 13.7542 3.32961 13.9202 3.27037 14.1068C3.21113 14.2933 3.2032 14.4931 3.24745 14.684C3.2917 14.8749 3.38641 15.0495 3.52107 15.1883L9.33931 21.1829L8.04353 29.8586C8.01455 30.0527 8.03833 30.2513 8.11225 30.4323C8.18617 30.6133 8.30734 30.7697 8.46229 30.884C8.61724 30.9984 8.79993 31.0663 8.99006 31.0801C9.18019 31.094 9.37034 31.0533 9.53938 30.9626L16.9689 26.9685L24.3985 30.9626C24.5676 31.0533 24.7577 31.094 24.9478 31.0801C25.138 31.0663 25.3207 30.9984 25.4756 30.884C25.6306 30.7697 25.7517 30.6133 25.8256 30.4323C25.8996 30.2513 25.9234 30.0527 25.8944 29.8586L24.5986 21.1829L30.4168 15.1883C30.5515 15.0495 30.6462 14.8749 30.6905 14.684C30.7347 14.4931 30.7268 14.2933 30.6675 14.1068C30.6083 13.9202 30.5001 13.7542 30.3548 13.6272C30.2096 13.5002 30.0331 13.417 29.8448 13.3871L21.4337 12.0534L17.8914 4.75425C17.8064 4.57868 17.6758 4.43081 17.5141 4.32703C17.3525 4.22325 17.1661 4.16761 16.9757 4.16628Z" fill="#8A8CA1"/>
</svg>
