<svg width="25" height="25" viewBox="0 0 25 25" fill="none" xmlns="http://www.w3.org/2000/svg">
<path d="M12.4854 2.81407C12.2252 2.81796 11.9769 2.92305 11.793 3.10704L8.79297 6.10704C8.69699 6.19918 8.62037 6.30955 8.56758 6.43168C8.5148 6.55381 8.48691 6.68524 8.48556 6.81828C8.4842 6.95132 8.50941 7.0833 8.5597 7.20648C8.60999 7.32965 8.68435 7.44156 8.77843 7.53564C8.87251 7.62972 8.98441 7.70408 9.10759 7.75437C9.23077 7.80466 9.36274 7.82986 9.49578 7.82851C9.62883 7.82716 9.76026 7.79927 9.88239 7.74648C10.0045 7.6937 10.1149 7.61707 10.207 7.5211L11.5 6.22813V15.5641C11.4981 15.6966 11.5226 15.8281 11.572 15.9511C11.6214 16.0741 11.6948 16.186 11.7878 16.2804C11.8809 16.3747 11.9918 16.4497 12.114 16.5008C12.2363 16.552 12.3675 16.5783 12.5 16.5783C12.6325 16.5783 12.7637 16.552 12.886 16.5008C13.0082 16.4497 13.1191 16.3747 13.2122 16.2804C13.3052 16.186 13.3786 16.0741 13.428 15.9511C13.4774 15.8281 13.5019 15.6966 13.5 15.5641V6.22813L14.793 7.5211C14.8851 7.61707 14.9955 7.6937 15.1176 7.74648C15.2397 7.79927 15.3712 7.82716 15.5042 7.82851C15.6373 7.82986 15.7692 7.80466 15.8924 7.75437C16.0156 7.70408 16.1275 7.62972 16.2216 7.53564C16.3156 7.44156 16.39 7.32965 16.4403 7.20648C16.4906 7.0833 16.5158 6.95132 16.5144 6.81828C16.5131 6.68524 16.4852 6.55381 16.4324 6.43168C16.3796 6.30955 16.303 6.19918 16.207 6.10704L13.207 3.10704C13.1125 3.01242 12.9998 2.93773 12.8759 2.88741C12.7519 2.83709 12.6191 2.81215 12.4854 2.81407ZM8.5 9.06407C6.85498 9.06407 5.5 10.4191 5.5 12.0641V19.5641C5.5 21.2091 6.85498 22.5641 8.5 22.5641H16.5C18.145 22.5641 19.5 21.2091 19.5 19.5641V12.0641C19.5 10.4191 18.145 9.06407 16.5 9.06407H16C15.8675 9.06219 15.7359 9.08667 15.613 9.13609C15.49 9.1855 15.3781 9.25886 15.2837 9.35191C15.1893 9.44495 15.1144 9.55582 15.0632 9.67808C15.0121 9.80034 14.9858 9.93154 14.9858 10.0641C14.9858 10.1966 15.0121 10.3278 15.0632 10.4501C15.1144 10.5723 15.1893 10.6832 15.2837 10.7762C15.3781 10.8693 15.49 10.9426 15.613 10.992C15.7359 11.0415 15.8675 11.0659 16 11.0641H16.5C17.064 11.0641 17.5 11.5001 17.5 12.0641V19.5641C17.5 20.1281 17.064 20.5641 16.5 20.5641H8.5C7.93602 20.5641 7.5 20.1281 7.5 19.5641V12.0641C7.5 11.5001 7.93602 11.0641 8.5 11.0641H9C9.13251 11.0659 9.26407 11.0415 9.38704 10.992C9.51001 10.9426 9.62193 10.8693 9.7163 10.7762C9.81067 10.6832 9.88561 10.5723 9.93676 10.4501C9.9879 10.3278 10.0142 10.1966 10.0142 10.0641C10.0142 9.93154 9.9879 9.80034 9.93676 9.67808C9.88561 9.55582 9.81067 9.44495 9.7163 9.35191C9.62193 9.25886 9.51001 9.1855 9.38704 9.13609C9.26407 9.08667 9.13251 9.06219 9 9.06407H8.5Z" fill="white" fill-opacity="0.8"/>
</svg>
