<svg width="23" height="6" viewBox="0 0 23 6" fill="none" xmlns="http://www.w3.org/2000/svg">
<path d="M11.2086 4.1893C11.8983 4.1893 12.4574 3.63794 12.4574 2.95781C12.4574 2.27768 11.8983 1.72632 11.2086 1.72632C10.5189 1.72632 9.95984 2.27768 9.95984 2.95781C9.95984 3.63794 10.5189 4.1893 11.2086 4.1893Z" stroke="white" stroke-width="2" stroke-linecap="round" stroke-linejoin="round"/>
<path d="M19.9501 4.1893C20.6398 4.1893 21.1989 3.63794 21.1989 2.95781C21.1989 2.27768 20.6398 1.72632 19.9501 1.72632C19.2604 1.72632 18.7013 2.27768 18.7013 2.95781C18.7013 3.63794 19.2604 4.1893 19.9501 4.1893Z" stroke="white" stroke-width="2" stroke-linecap="round" stroke-linejoin="round"/>
<path d="M2.46716 4.1893C3.15684 4.1893 3.71594 3.63794 3.71594 2.95781C3.71594 2.27768 3.15684 1.72632 2.46716 1.72632C1.77748 1.72632 1.21838 2.27768 1.21838 2.95781C1.21838 3.63794 1.77748 4.1893 2.46716 4.1893Z" stroke="white" stroke-width="2" stroke-linecap="round" stroke-linejoin="round"/>
</svg>
