<svg width="23" height="6" viewBox="0 0 23 6" fill="none" xmlns="http://www.w3.org/2000/svg">
<path d="M11.5265 4.20447C12.2168 4.20447 12.7765 3.64482 12.7765 2.95447C12.7765 2.26411 12.2168 1.70447 11.5265 1.70447C10.8361 1.70447 10.2765 2.26411 10.2765 2.95447C10.2765 3.64482 10.8361 4.20447 11.5265 4.20447Z" stroke="white" stroke-width="2" stroke-linecap="round" stroke-linejoin="round"/>
<path d="M20.2765 4.20447C20.9668 4.20447 21.5265 3.64482 21.5265 2.95447C21.5265 2.26411 20.9668 1.70447 20.2765 1.70447C19.5861 1.70447 19.0265 2.26411 19.0265 2.95447C19.0265 3.64482 19.5861 4.20447 20.2765 4.20447Z" stroke="white" stroke-width="2" stroke-linecap="round" stroke-linejoin="round"/>
<path d="M2.77649 4.20447C3.46685 4.20447 4.02649 3.64482 4.02649 2.95447C4.02649 2.26411 3.46685 1.70447 2.77649 1.70447C2.08613 1.70447 1.52649 2.26411 1.52649 2.95447C1.52649 3.64482 2.08613 4.20447 2.77649 4.20447Z" stroke="white" stroke-width="2" stroke-linecap="round" stroke-linejoin="round"/>
</svg>
