<svg width="31" height="31" viewBox="0 0 31 31" fill="none" xmlns="http://www.w3.org/2000/svg">
<path fill-rule="evenodd" clip-rule="evenodd" d="M27.3269 15.1181C27.3269 21.7179 21.9767 27.0681 15.3768 27.0681C8.77698 27.0681 3.42676 21.7179 3.42676 15.1181C3.42676 8.51823 8.77698 3.16801 15.3768 3.16801C21.9767 3.16801 27.3269 8.51823 27.3269 15.1181ZM16.8706 9.14304C16.8706 9.96802 16.2018 10.6368 15.3768 10.6368C14.5518 10.6368 13.8831 9.96802 13.8831 9.14304C13.8831 8.31806 14.5518 7.64928 15.3768 7.64928C16.2018 7.64928 16.8706 8.31806 16.8706 9.14304ZM13.8831 13.6243C13.0581 13.6243 12.3893 14.2931 12.3893 15.1181C12.3893 15.943 13.0581 16.6118 13.8831 16.6118V21.0931C13.8831 21.9181 14.5518 22.5869 15.3768 22.5869H16.8706C17.6956 22.5869 18.3643 21.9181 18.3643 21.0931C18.3643 20.2681 17.6956 19.5993 16.8706 19.5993V15.1181C16.8706 14.2931 16.2018 13.6243 15.3768 13.6243H13.8831Z" fill="#ADB3C4"/>
</svg>
