<svg width="55" height="22" viewBox="0 0 55 22" fill="none" xmlns="http://www.w3.org/2000/svg">
<path d="M16.7671 17.1783C19.4551 17.1783 21.0518 15.0763 21.0518 11.5167C21.0518 10.1764 20.7954 9.04846 20.3047 8.17688C19.5942 6.8219 18.3711 6.08948 16.8257 6.08948C14.5259 6.08948 12.8999 7.63489 12.8999 9.80286C12.8999 11.839 14.3647 13.3185 16.3789 13.3185C17.6167 13.3185 18.6201 12.7399 19.1182 11.7365H19.1401C19.1401 11.7365 19.1694 11.7365 19.1768 11.7365C19.1914 11.7365 19.2427 11.7365 19.2427 11.7365C19.2427 14.1534 18.3271 15.5963 16.7817 15.5963C15.8735 15.5963 15.1704 15.0983 14.9287 14.2999H13.0464C13.3613 16.0358 14.8335 17.1783 16.7671 17.1783ZM16.833 11.817C15.6172 11.817 14.7529 10.9528 14.7529 9.74426C14.7529 8.56506 15.6611 7.66418 16.8403 7.66418C18.0195 7.66418 18.9277 8.57971 18.9277 9.77356C18.9277 10.9528 18.0415 11.817 16.833 11.817Z" fill="white"/>
<path d="M24.1429 17.0758C24.8387 17.0758 25.3147 16.5778 25.3147 15.9186C25.3147 15.2521 24.8387 14.7614 24.1429 14.7614C23.4544 14.7614 22.971 15.2521 22.971 15.9186C22.971 16.5778 23.4544 17.0758 24.1429 17.0758ZM24.1429 11.5826C24.8387 11.5826 25.3147 11.0919 25.3147 10.4327C25.3147 9.76624 24.8387 9.27551 24.1429 9.27551C23.4544 9.27551 22.971 9.76624 22.971 10.4327C22.971 11.0919 23.4544 11.5826 24.1429 11.5826Z" fill="white"/>
<path d="M32.1705 16.922H33.9796V14.9518H35.4078V13.3551H33.9796V6.35315H31.3136C29.4459 9.16565 27.9591 11.5167 27.0069 13.2672V14.9518H32.1705V16.922ZM28.7574 13.2892C29.9879 11.1212 31.0865 9.38538 32.0973 7.89124H32.1998V13.399H28.7574V13.2892Z" fill="white"/>
<path d="M39.4364 16.922H41.3261V6.35315H39.4437L36.6825 8.28674V10.1031L39.3119 8.25745H39.4364V16.922Z" fill="white"/>
</svg>
