<svg width="55" height="22" viewBox="0 0 55 22" fill="none" xmlns="http://www.w3.org/2000/svg">
<path d="M16.6588 17.2086C19.3468 17.2086 20.9435 15.1065 20.9435 11.5469C20.9435 10.2066 20.6871 9.07867 20.1964 8.20709C19.486 6.85211 18.2628 6.11969 16.7174 6.11969C14.4176 6.11969 12.7916 7.6651 12.7916 9.83307C12.7916 11.8692 14.2565 13.3487 16.2706 13.3487C17.5084 13.3487 18.5118 12.7701 19.0099 11.7667H19.0319C19.0319 11.7667 19.0612 11.7667 19.0685 11.7667C19.0831 11.7667 19.1344 11.7667 19.1344 11.7667C19.1344 14.1837 18.2189 15.6265 16.6735 15.6265C15.7653 15.6265 15.0621 15.1285 14.8204 14.3301H12.9381C13.2531 16.066 14.7252 17.2086 16.6588 17.2086ZM16.7247 11.8472C15.5089 11.8472 14.6447 10.983 14.6447 9.77448C14.6447 8.59528 15.5529 7.6944 16.7321 7.6944C17.9113 7.6944 18.8195 8.60992 18.8195 9.80377C18.8195 10.983 17.9332 11.8472 16.7247 11.8472Z" fill="white"/>
<path d="M24.0346 17.106C24.7304 17.106 25.2065 16.608 25.2065 15.9488C25.2065 15.2823 24.7304 14.7916 24.0346 14.7916C23.3461 14.7916 22.8627 15.2823 22.8627 15.9488C22.8627 16.608 23.3461 17.106 24.0346 17.106ZM24.0346 11.6129C24.7304 11.6129 25.2065 11.1221 25.2065 10.463C25.2065 9.79645 24.7304 9.30573 24.0346 9.30573C23.3461 9.30573 22.8627 9.79645 22.8627 10.463C22.8627 11.1221 23.3461 11.6129 24.0346 11.6129Z" fill="white"/>
<path d="M32.0622 16.9522H33.8713V14.982H35.2995V13.3853H33.8713V6.38336H31.2053C29.3376 9.19586 27.8508 11.5469 26.8987 13.2974V14.982H32.0622V16.9522ZM28.6491 13.3194C29.8796 11.1514 30.9782 9.41559 31.989 7.92145H32.0915V13.4293H28.6491V13.3194Z" fill="white"/>
<path d="M39.3281 16.9522H41.2178V6.38336H39.3355L36.5742 8.31696V10.1334L39.2036 8.28766H39.3281V16.9522Z" fill="white"/>
</svg>
