<svg width="55" height="22" viewBox="0 0 55 22" fill="none" xmlns="http://www.w3.org/2000/svg">
<path d="M17.0707 16.8204C19.7587 16.8204 21.3554 14.7184 21.3554 11.1588C21.3554 9.81848 21.099 8.69055 20.6083 7.81897C19.8979 6.46399 18.6747 5.73157 17.1293 5.73157C14.8295 5.73157 13.2035 7.27698 13.2035 9.44495C13.2035 11.4811 14.6684 12.9606 16.6825 12.9606C17.9203 12.9606 18.9237 12.382 19.4218 11.3785H19.4438C19.4438 11.3785 19.4731 11.3785 19.4804 11.3785C19.495 11.3785 19.5463 11.3785 19.5463 11.3785C19.5463 13.7955 18.6308 15.2384 17.0854 15.2384C16.1772 15.2384 15.474 14.7404 15.2323 13.942H13.35C13.6649 15.6779 15.1371 16.8204 17.0707 16.8204ZM17.1366 11.4591C15.9208 11.4591 15.0565 10.5948 15.0565 9.38635C15.0565 8.20715 15.9648 7.30627 17.144 7.30627C18.3232 7.30627 19.2314 8.2218 19.2314 9.41565C19.2314 10.5948 18.3451 11.4591 17.1366 11.4591Z" fill="white"/>
<path d="M24.4465 16.7179C25.1423 16.7179 25.6184 16.2198 25.6184 15.5607C25.6184 14.8942 25.1423 14.4034 24.4465 14.4034C23.758 14.4034 23.2746 14.8942 23.2746 15.5607C23.2746 16.2198 23.758 16.7179 24.4465 16.7179ZM24.4465 11.2247C25.1423 11.2247 25.6184 10.734 25.6184 10.0748C25.6184 9.40833 25.1423 8.9176 24.4465 8.9176C23.758 8.9176 23.2746 9.40833 23.2746 10.0748C23.2746 10.734 23.758 11.2247 24.4465 11.2247Z" fill="white"/>
<path d="M32.4741 16.5641H34.2832V14.5939H35.7114V12.9972H34.2832V5.99524H31.6172C29.7495 8.80774 28.2627 11.1588 27.3106 12.9093V14.5939H32.4741V16.5641ZM29.061 12.9313C30.2915 10.7633 31.3901 9.02747 32.4009 7.53333H32.5034V13.0411H29.061V12.9313Z" fill="white"/>
<path d="M39.74 16.5641H41.6297V5.99524H39.7474L36.9861 7.92883V9.74524L39.6155 7.89954H39.74V16.5641Z" fill="white"/>
</svg>
