<svg width="55" height="22" viewBox="0 0 55 22" fill="none" xmlns="http://www.w3.org/2000/svg">
<path d="M16.8961 16.6445C19.5841 16.6445 21.1808 14.5425 21.1808 10.9829C21.1808 9.64258 20.9244 8.51465 20.4337 7.64307C19.7233 6.28809 18.5001 5.55566 16.9547 5.55566C14.6549 5.55566 13.0289 7.10107 13.0289 9.26904C13.0289 11.3052 14.4938 12.7847 16.5079 12.7847C17.7457 12.7847 18.7491 12.2061 19.2472 11.2026H19.2692C19.2692 11.2026 19.2985 11.2026 19.3058 11.2026C19.3204 11.2026 19.3717 11.2026 19.3717 11.2026C19.3717 13.6196 18.4562 15.0625 16.9108 15.0625C16.0026 15.0625 15.2994 14.5645 15.0577 13.7661H13.1754C13.4904 15.502 14.9625 16.6445 16.8961 16.6445ZM16.962 11.2832C15.7462 11.2832 14.882 10.4189 14.882 9.21045C14.882 8.03125 15.7902 7.13037 16.9694 7.13037C18.1486 7.13037 19.0568 8.0459 19.0568 9.23975C19.0568 10.4189 18.1705 11.2832 16.962 11.2832Z" fill="white"/>
<path d="M24.2719 16.542C24.9677 16.542 25.4438 16.0439 25.4438 15.3848C25.4438 14.7183 24.9677 14.2275 24.2719 14.2275C23.5834 14.2275 23.1 14.7183 23.1 15.3848C23.1 16.0439 23.5834 16.542 24.2719 16.542ZM24.2719 11.0488C24.9677 11.0488 25.4438 10.5581 25.4438 9.89893C25.4438 9.23242 24.9677 8.7417 24.2719 8.7417C23.5834 8.7417 23.1 9.23242 23.1 9.89893C23.1 10.5581 23.5834 11.0488 24.2719 11.0488Z" fill="white"/>
<path d="M32.2995 16.3882H34.1086V14.418H35.5368V12.8213H34.1086V5.81934H31.4426C29.5749 8.63184 28.0881 10.9829 27.136 12.7334V14.418H32.2995V16.3882ZM28.8864 12.7554C30.1169 10.5874 31.2156 8.85156 32.2263 7.35742H32.3288V12.8652H28.8864V12.7554Z" fill="white"/>
<path d="M39.5655 16.3882H41.4551V5.81934H39.5728L36.8115 7.75293V9.56934L39.4409 7.72363H39.5655V16.3882Z" fill="white"/>
</svg>
