<svg width="55" height="22" viewBox="0 0 55 22" fill="none" xmlns="http://www.w3.org/2000/svg">
<path d="M16.8207 16.8204C19.5087 16.8204 21.1054 14.7184 21.1054 11.1588C21.1054 9.81848 20.849 8.69055 20.3583 7.81897C19.6479 6.46399 18.4247 5.73157 16.8793 5.73157C14.5795 5.73157 12.9535 7.27698 12.9535 9.44495C12.9535 11.4811 14.4184 12.9606 16.4325 12.9606C17.6703 12.9606 18.6737 12.382 19.1718 11.3785H19.1937C19.1937 11.3785 19.223 11.3785 19.2304 11.3785C19.245 11.3785 19.2963 11.3785 19.2963 11.3785C19.2963 13.7955 18.3808 15.2384 16.8354 15.2384C15.9271 15.2384 15.224 14.7404 14.9823 13.942H13.1C13.4149 15.6779 14.8871 16.8204 16.8207 16.8204ZM16.8866 11.4591C15.6708 11.4591 14.8065 10.5948 14.8065 9.38635C14.8065 8.20715 15.7147 7.30627 16.8939 7.30627C18.0731 7.30627 18.9813 8.2218 18.9813 9.41565C18.9813 10.5948 18.0951 11.4591 16.8866 11.4591Z" fill="white"/>
<path d="M24.1965 16.7179C24.8923 16.7179 25.3684 16.2198 25.3684 15.5607C25.3684 14.8942 24.8923 14.4034 24.1965 14.4034C23.508 14.4034 23.0246 14.8942 23.0246 15.5607C23.0246 16.2198 23.508 16.7179 24.1965 16.7179ZM24.1965 11.2247C24.8923 11.2247 25.3684 10.734 25.3684 10.0748C25.3684 9.40833 24.8923 8.9176 24.1965 8.9176C23.508 8.9176 23.0246 9.40833 23.0246 10.0748C23.0246 10.734 23.508 11.2247 24.1965 11.2247Z" fill="white"/>
<path d="M32.2241 16.5641H34.0332V14.5939H35.4614V12.9972H34.0332V5.99524H31.3672C29.4995 8.80774 28.0127 11.1588 27.0605 12.9093V14.5939H32.2241V16.5641ZM28.811 12.9313C30.0415 10.7633 31.1401 9.02747 32.1509 7.53333H32.2534V13.0411H28.811V12.9313Z" fill="white"/>
<path d="M39.49 16.5641H41.3797V5.99524H39.4974L36.7361 7.92883V9.74524L39.3655 7.89954H39.49V16.5641Z" fill="white"/>
</svg>
