<svg width="54" height="22" viewBox="0 0 54 22" fill="none" xmlns="http://www.w3.org/2000/svg">
<path d="M16.3207 16.8204C19.0087 16.8204 20.6053 14.7184 20.6053 11.1588C20.6053 9.81848 20.349 8.69055 19.8583 7.81897C19.1478 6.46399 17.9247 5.73157 16.3793 5.73157C14.0795 5.73157 12.4535 7.27698 12.4535 9.44495C12.4535 11.4811 13.9183 12.9606 15.9325 12.9606C17.1703 12.9606 18.1737 12.382 18.6718 11.3785H18.6937C18.6937 11.3785 18.723 11.3785 18.7303 11.3785C18.745 11.3785 18.7963 11.3785 18.7963 11.3785C18.7963 13.7955 17.8807 15.2384 16.3353 15.2384C15.4271 15.2384 14.724 14.7404 14.4823 13.942H12.6C12.9149 15.6779 14.3871 16.8204 16.3207 16.8204ZM16.3866 11.4591C15.1708 11.4591 14.3065 10.5948 14.3065 9.38635C14.3065 8.20715 15.2147 7.30627 16.3939 7.30627C17.5731 7.30627 18.4813 8.2218 18.4813 9.41565C18.4813 10.5948 17.5951 11.4591 16.3866 11.4591Z" fill="white"/>
<path d="M23.6965 16.7179C24.3923 16.7179 24.8683 16.2198 24.8683 15.5607C24.8683 14.8942 24.3923 14.4034 23.6965 14.4034C23.008 14.4034 22.5246 14.8942 22.5246 15.5607C22.5246 16.2198 23.008 16.7179 23.6965 16.7179ZM23.6965 11.2247C24.3923 11.2247 24.8683 10.734 24.8683 10.0748C24.8683 9.40833 24.3923 8.9176 23.6965 8.9176C23.008 8.9176 22.5246 9.40833 22.5246 10.0748C22.5246 10.734 23.008 11.2247 23.6965 11.2247Z" fill="white"/>
<path d="M31.7241 16.5641H33.5332V14.5939H34.9614V12.9972H33.5332V5.99524H30.8672C28.9995 8.80774 27.5127 11.1588 26.5605 12.9093V14.5939H31.7241V16.5641ZM28.311 12.9313C29.5415 10.7633 30.6401 9.02747 31.6509 7.53333H31.7534V13.0411H28.311V12.9313Z" fill="white"/>
<path d="M38.99 16.5641H40.8797V5.99524H38.9973L36.2361 7.92883V9.74524L38.8655 7.89954H38.99V16.5641Z" fill="white"/>
</svg>
