<svg width="55" height="21" viewBox="0 0 55 21" fill="none" xmlns="http://www.w3.org/2000/svg">
<path d="M16.8207 16.2563C19.5087 16.2563 21.1054 14.1543 21.1054 10.5947C21.1054 9.25439 20.849 8.12646 20.3583 7.25488C19.6479 5.8999 18.4247 5.16748 16.8793 5.16748C14.5795 5.16748 12.9535 6.71289 12.9535 8.88086C12.9535 10.917 14.4184 12.3965 16.4325 12.3965C17.6703 12.3965 18.6737 11.8179 19.1718 10.8145H19.1938C19.1938 10.8145 19.2231 10.8145 19.2304 10.8145C19.245 10.8145 19.2963 10.8145 19.2963 10.8145C19.2963 13.2314 18.3808 14.6743 16.8354 14.6743C15.9272 14.6743 15.224 14.1763 14.9823 13.3779H13.1C13.4149 15.1138 14.8871 16.2563 16.8207 16.2563ZM16.8866 10.895C15.6708 10.895 14.8065 10.0308 14.8065 8.82227C14.8065 7.64307 15.7148 6.74219 16.894 6.74219C18.0732 6.74219 18.9814 7.65771 18.9814 8.85156C18.9814 10.0308 18.0951 10.895 16.8866 10.895Z" fill="white"/>
<path d="M24.1965 16.1538C24.8923 16.1538 25.3684 15.6558 25.3684 14.9966C25.3684 14.3301 24.8923 13.8394 24.1965 13.8394C23.508 13.8394 23.0246 14.3301 23.0246 14.9966C23.0246 15.6558 23.508 16.1538 24.1965 16.1538ZM24.1965 10.6606C24.8923 10.6606 25.3684 10.1699 25.3684 9.51074C25.3684 8.84424 24.8923 8.35352 24.1965 8.35352C23.508 8.35352 23.0246 8.84424 23.0246 9.51074C23.0246 10.1699 23.508 10.6606 24.1965 10.6606Z" fill="white"/>
<path d="M32.2241 16H34.0332V14.0298H35.4614V12.4331H34.0332V5.43115H31.3672C29.4995 8.24365 28.0127 10.5947 27.0606 12.3452V14.0298H32.2241V16ZM28.811 12.3672C30.0415 10.1992 31.1401 8.46338 32.1509 6.96924H32.2534V12.4771H28.811V12.3672Z" fill="white"/>
<path d="M39.49 16H41.3797V5.43115H39.4974L36.7361 7.36475V9.18115L39.3655 7.33545H39.49V16Z" fill="white"/>
</svg>
