<svg width="55" height="21" viewBox="0 0 55 21" fill="none" xmlns="http://www.w3.org/2000/svg">
<path d="M17.2398 16.2563C19.9278 16.2563 21.5244 14.1543 21.5244 10.5947C21.5244 9.25439 21.2681 8.12646 20.7774 7.25488C20.0669 5.8999 18.8438 5.16748 17.2984 5.16748C14.9986 5.16748 13.3726 6.71289 13.3726 8.88086C13.3726 10.917 14.8374 12.3965 16.8516 12.3965C18.0894 12.3965 19.0928 11.8179 19.5909 10.8145H19.6128C19.6128 10.8145 19.6421 10.8145 19.6494 10.8145C19.6641 10.8145 19.7154 10.8145 19.7154 10.8145C19.7154 13.2314 18.7998 14.6743 17.2544 14.6743C16.3462 14.6743 15.6431 14.1763 15.4014 13.3779H13.5191C13.834 15.1138 15.3062 16.2563 17.2398 16.2563ZM17.3057 10.895C16.0899 10.895 15.2256 10.0308 15.2256 8.82227C15.2256 7.64307 16.1338 6.74219 17.313 6.74219C18.4922 6.74219 19.4004 7.65771 19.4004 8.85156C19.4004 10.0308 18.5142 10.895 17.3057 10.895Z" fill="white"/>
<path d="M24.6156 16.1538C25.3114 16.1538 25.7874 15.6558 25.7874 14.9966C25.7874 14.3301 25.3114 13.8394 24.6156 13.8394C23.9271 13.8394 23.4437 14.3301 23.4437 14.9966C23.4437 15.6558 23.9271 16.1538 24.6156 16.1538ZM24.6156 10.6606C25.3114 10.6606 25.7874 10.1699 25.7874 9.51074C25.7874 8.84424 25.3114 8.35352 24.6156 8.35352C23.9271 8.35352 23.4437 8.84424 23.4437 9.51074C23.4437 10.1699 23.9271 10.6606 24.6156 10.6606Z" fill="white"/>
<path d="M32.6432 16H34.4523V14.0298H35.8805V12.4331H34.4523V5.43115H31.7863C29.9186 8.24365 28.4318 10.5947 27.4796 12.3452V14.0298H32.6432V16ZM29.2301 12.3672C30.4606 10.1992 31.5592 8.46338 32.57 6.96924H32.6725V12.4771H29.2301V12.3672Z" fill="white"/>
<path d="M39.9091 16H41.7988V5.43115H39.9164L37.1552 7.36475V9.18115L39.7846 7.33545H39.9091V16Z" fill="white"/>
</svg>
