<svg width="55" height="22" viewBox="0 0 55 22" fill="none" xmlns="http://www.w3.org/2000/svg">
<path d="M17.2897 17.1783C19.9777 17.1783 21.5743 15.0763 21.5743 11.5167C21.5743 10.1764 21.318 9.04846 20.8273 8.17688C20.1168 6.8219 18.8937 6.08948 17.3483 6.08948C15.0485 6.08948 13.4225 7.63489 13.4225 9.80286C13.4225 11.839 14.8873 13.3185 16.9015 13.3185C18.1393 13.3185 19.1427 12.7399 19.6407 11.7365H19.6627C19.6627 11.7365 19.692 11.7365 19.6993 11.7365C19.714 11.7365 19.7653 11.7365 19.7653 11.7365C19.7653 14.1534 18.8497 15.5963 17.3043 15.5963C16.3961 15.5963 15.693 15.0983 15.4513 14.2999H13.569C13.8839 16.0358 15.3561 17.1783 17.2897 17.1783ZM17.3556 11.817C16.1398 11.817 15.2755 10.9528 15.2755 9.74426C15.2755 8.56506 16.1837 7.66418 17.3629 7.66418C18.5421 7.66418 19.4503 8.57971 19.4503 9.77356C19.4503 10.9528 18.5641 11.817 17.3556 11.817Z" fill="white"/>
<path d="M24.6655 17.0758C25.3613 17.0758 25.8373 16.5778 25.8373 15.9186C25.8373 15.2521 25.3613 14.7614 24.6655 14.7614C23.977 14.7614 23.4936 15.2521 23.4936 15.9186C23.4936 16.5778 23.977 17.0758 24.6655 17.0758ZM24.6655 11.5826C25.3613 11.5826 25.8373 11.0919 25.8373 10.4327C25.8373 9.76624 25.3613 9.27551 24.6655 9.27551C23.977 9.27551 23.4936 9.76624 23.4936 10.4327C23.4936 11.0919 23.977 11.5826 24.6655 11.5826Z" fill="white"/>
<path d="M32.6931 16.922H34.5022V14.9518H35.9304V13.3551H34.5022V6.35315H31.8362C29.9685 9.16565 28.4817 11.5167 27.5295 13.2672V14.9518H32.6931V16.922ZM29.28 13.2892C30.5105 11.1212 31.6091 9.38538 32.6198 7.89124H32.7224V13.399H29.28V13.2892Z" fill="white"/>
<path d="M39.959 16.922H41.8487V6.35315H39.9663L37.2051 8.28674V10.1031L39.8345 8.25745H39.959V16.922Z" fill="white"/>
</svg>
