<svg width="55" height="22" viewBox="0 0 55 22" fill="none" xmlns="http://www.w3.org/2000/svg">
<path d="M16.6885 16.7424C19.3765 16.7424 20.9731 14.6404 20.9731 11.0808C20.9731 9.74048 20.7168 8.61255 20.2261 7.74097C19.5156 6.38599 18.2925 5.65356 16.7471 5.65356C14.4473 5.65356 12.8213 7.19897 12.8213 9.36694C12.8213 11.4031 14.2861 12.8826 16.3003 12.8826C17.5381 12.8826 18.5415 12.304 19.0396 11.3005H19.0615C19.0615 11.3005 19.0908 11.3005 19.0981 11.3005C19.1128 11.3005 19.1641 11.3005 19.1641 11.3005C19.1641 13.7175 18.2485 15.1604 16.7031 15.1604C15.7949 15.1604 15.0918 14.6624 14.8501 13.864H12.9678C13.2827 15.5999 14.7549 16.7424 16.6885 16.7424ZM16.7544 11.3811C15.5386 11.3811 14.6743 10.5168 14.6743 9.30835C14.6743 8.12915 15.5825 7.22827 16.7617 7.22827C17.9409 7.22827 18.8491 8.1438 18.8491 9.33765C18.8491 10.5168 17.9629 11.3811 16.7544 11.3811Z" fill="white"/>
<path d="M24.0643 16.6399C24.7601 16.6399 25.2361 16.1418 25.2361 15.4827C25.2361 14.8162 24.7601 14.3254 24.0643 14.3254C23.3758 14.3254 22.8924 14.8162 22.8924 15.4827C22.8924 16.1418 23.3758 16.6399 24.0643 16.6399ZM24.0643 11.1467C24.7601 11.1467 25.2361 10.656 25.2361 9.99683C25.2361 9.33032 24.7601 8.8396 24.0643 8.8396C23.3758 8.8396 22.8924 9.33032 22.8924 9.99683C22.8924 10.656 23.3758 11.1467 24.0643 11.1467Z" fill="white"/>
<path d="M32.0919 16.4861H33.901V14.5159H35.3292V12.9192H33.901V5.91724H31.235C29.3673 8.72974 27.8805 11.0808 26.9283 12.8313V14.5159H32.0919V16.4861ZM28.6788 12.8533C29.9093 10.6853 31.0079 8.94946 32.0187 7.45532H32.1212V12.9631H28.6788V12.8533Z" fill="white"/>
<path d="M39.3578 16.4861H41.2475V5.91724H39.3651L36.6039 7.85083V9.66724L39.2333 7.82153H39.3578V16.4861Z" fill="white"/>
</svg>
