<svg width="113" height="113" viewBox="0 0 113 113" fill="none" xmlns="http://www.w3.org/2000/svg">
<path d="M83.2979 28.2429L59.2721 46.0203L63.7399 35.5435L83.2979 28.2429Z" fill="#E17726" stroke="#E17726" stroke-width="0.466799" stroke-linecap="round" stroke-linejoin="round"/>
<path d="M27.8793 28.2429L51.6912 46.1863L47.4374 35.5435L27.8793 28.2429Z" fill="#E27625" stroke="#E27625" stroke-width="0.466799" stroke-linecap="round" stroke-linejoin="round"/>
<path d="M74.647 69.4599L68.2544 79.2257L81.9427 82.9945L85.8639 69.6734L74.647 69.4599Z" fill="#E27625" stroke="#E27625" stroke-width="0.466799" stroke-linecap="round" stroke-linejoin="round"/>
<path d="M25.3359 69.6734L29.2333 82.9945L42.8979 79.2257L36.5289 69.4599L25.3359 69.6734Z" fill="#E27625" stroke="#E27625" stroke-width="0.466799" stroke-linecap="round" stroke-linejoin="round"/>
<path d="M42.1614 52.9694L38.3591 58.7056L51.9048 59.3219L51.4533 44.7444L42.1614 52.9694Z" fill="#E27625" stroke="#E27625" stroke-width="0.466799" stroke-linecap="round" stroke-linejoin="round"/>
<path d="M69.0147 52.9635L59.5805 44.5726L59.2715 59.316L72.8171 58.6997L69.0147 52.9635Z" fill="#E27625" stroke="#E27625" stroke-width="0.466799" stroke-linecap="round" stroke-linejoin="round"/>
<path d="M42.8982 79.2244L51.0968 75.266L44.0389 69.7668L42.8982 79.2244Z" fill="#E27625" stroke="#E27625" stroke-width="0.466799" stroke-linecap="round" stroke-linejoin="round"/>
<path d="M60.0795 75.266L68.2543 79.2244L67.1373 69.7668L60.0795 75.266Z" fill="#E27625" stroke="#E27625" stroke-width="0.466799" stroke-linecap="round" stroke-linejoin="round"/>
<path d="M68.2543 79.2319L60.0795 75.2735L60.7448 80.583L60.6734 82.8348L68.2543 79.2319Z" fill="#D5BFB2" stroke="#D5BFB2" stroke-width="0.466799" stroke-linecap="round" stroke-linejoin="round"/>
<path d="M42.8982 79.2319L50.5028 82.8348L50.4553 80.583L51.0968 75.2735L42.8982 79.2319Z" fill="#D5BFB2" stroke="#D5BFB2" stroke-width="0.466799" stroke-linecap="round" stroke-linejoin="round"/>
<path d="M50.6455 66.264L43.8489 64.2731L48.6493 62.0686L50.6455 66.264Z" fill="#233447" stroke="#233447" stroke-width="0.466799" stroke-linecap="round" stroke-linejoin="round"/>
<path d="M60.5315 66.264L62.5278 62.0686L67.3519 64.2731L60.5315 66.264Z" fill="#233447" stroke="#233447" stroke-width="0.466799" stroke-linecap="round" stroke-linejoin="round"/>
<path d="M42.8977 79.2257L44.086 69.4599L36.5289 69.6734L42.8977 79.2257Z" fill="#CC6228" stroke="#CC6228" stroke-width="0.466799" stroke-linecap="round" stroke-linejoin="round"/>
<path d="M67.0901 69.4599L68.2546 79.2257L74.6472 69.6734L67.0901 69.4599Z" fill="#CC6228" stroke="#CC6228" stroke-width="0.466799" stroke-linecap="round" stroke-linejoin="round"/>
<path d="M72.8171 58.6983L59.2715 59.3146L60.5309 66.2598L62.5272 62.0642L67.3514 64.2686L72.8171 58.6983Z" fill="#CC6228" stroke="#CC6228" stroke-width="0.466799" stroke-linecap="round" stroke-linejoin="round"/>
<path d="M43.8487 64.2686L48.6491 62.0642L50.6454 66.2598L51.9048 59.3146L38.3591 58.6983L43.8487 64.2686Z" fill="#CC6228" stroke="#CC6228" stroke-width="0.466799" stroke-linecap="round" stroke-linejoin="round"/>
<path d="M38.3591 58.6983L44.0389 69.7678L43.8486 64.2686L38.3591 58.6983Z" fill="#E27525" stroke="#E27525" stroke-width="0.466799" stroke-linecap="round" stroke-linejoin="round"/>
<path d="M67.3517 64.2686L67.1378 69.7678L72.8175 58.6983L67.3517 64.2686Z" fill="#E27525" stroke="#E27525" stroke-width="0.466799" stroke-linecap="round" stroke-linejoin="round"/>
<path d="M51.9051 59.3183L50.6455 66.2635L52.2377 74.4647L52.5942 63.6561L51.9051 59.3183Z" fill="#E27525" stroke="#E27525" stroke-width="0.466799" stroke-linecap="round" stroke-linejoin="round"/>
<path d="M59.2717 59.3183L58.6062 63.6325L58.9389 74.4647L60.5311 66.2635L59.2717 59.3183Z" fill="#E27525" stroke="#E27525" stroke-width="0.466799" stroke-linecap="round" stroke-linejoin="round"/>
<path d="M60.5314 66.2636L58.9392 74.4648L60.0799 75.2708L67.138 69.7716L67.3519 64.2725L60.5314 66.2636Z" fill="#F5841F" stroke="#F5841F" stroke-width="0.466799" stroke-linecap="round" stroke-linejoin="round"/>
<path d="M43.8489 64.2725L44.0391 69.7716L51.097 75.2708L52.2377 74.4648L50.6455 66.2636L43.8489 64.2725Z" fill="#F5841F" stroke="#F5841F" stroke-width="0.466799" stroke-linecap="round" stroke-linejoin="round"/>
<path d="M60.674 82.8361L60.7451 80.5842L60.1274 80.0627H51.0494L50.4553 80.5842L50.5028 82.8361L42.8982 79.2331L45.5598 81.4138L50.9543 85.1353H60.1985L65.6168 81.4138L68.2547 79.2331L60.674 82.8361Z" fill="#C0AC9D" stroke="#C0AC9D" stroke-width="0.466799" stroke-linecap="round" stroke-linejoin="round"/>
<path d="M60.0797 75.269L58.939 74.4632H52.2375L51.0969 75.269L50.4552 80.5786L51.0493 80.0571H60.1273L60.7452 80.5786L60.0797 75.269Z" fill="#161616" stroke="#161616" stroke-width="0.466799" stroke-linecap="round" stroke-linejoin="round"/>
<path d="M84.319 47.1817L86.339 37.3687L83.2971 28.2429L60.0795 45.4278L69.0147 52.9654L81.6336 56.6395L84.4141 53.3921L83.2022 52.515L85.127 50.7611L83.6537 49.6233L85.5786 48.1536L84.319 47.1817Z" fill="#763E1A" stroke="#763E1A" stroke-width="0.466799" stroke-linecap="round" stroke-linejoin="round"/>
<path d="M24.8373 37.3687L26.881 47.1817L25.574 48.1536L27.5227 49.6233L26.0493 50.7611L27.9742 52.515L26.7622 53.3921L29.5426 56.6395L42.1616 52.9654L51.0969 45.4278L27.8791 28.2429L24.8373 37.3687Z" fill="#763E1A" stroke="#763E1A" stroke-width="0.466799" stroke-linecap="round" stroke-linejoin="round"/>
<path d="M81.6341 56.6384L69.0152 52.9645L72.8175 58.7007L67.1378 69.77L74.6473 69.6753H85.8641L81.6341 56.6384Z" fill="#F5841F" stroke="#F5841F" stroke-width="0.466799" stroke-linecap="round" stroke-linejoin="round"/>
<path d="M42.161 52.9645L29.5422 56.6384L25.3359 69.6753H36.5289L44.0384 69.77L38.3588 58.7007L42.161 52.9645Z" fill="#F5841F" stroke="#F5841F" stroke-width="0.466799" stroke-linecap="round" stroke-linejoin="round"/>
<path d="M59.2718 59.3165L60.0798 45.4263L63.7394 35.5421H47.4371L51.0968 45.4263L51.9048 59.3165L52.2137 63.6779L52.2375 74.4629H58.9391L58.9628 63.6779L59.2718 59.3165Z" fill="#F5841F" stroke="#F5841F" stroke-width="0.466799" stroke-linecap="round" stroke-linejoin="round"/>
</svg>
