<svg width="18" height="11" viewBox="0 0 18 11" fill="none" xmlns="http://www.w3.org/2000/svg">
<path fill-rule="evenodd" clip-rule="evenodd" d="M16.0344 0.15271H15.0344C14.4821 0.15271 14.0344 0.600425 14.0344 1.15271V9.81938C14.0344 10.3717 14.4821 10.8194 15.0344 10.8194H16.0344C16.5867 10.8194 17.0344 10.3717 17.0344 9.81938V1.15271C17.0344 0.600425 16.5867 0.15271 16.0344 0.15271ZM10.3678 2.48604H11.3678C11.92 2.48604 12.3678 2.93376 12.3678 3.48604V9.81938C12.3678 10.3717 11.92 10.8194 11.3678 10.8194H10.3678C9.81547 10.8194 9.36776 10.3717 9.36776 9.81938V3.48604C9.36776 2.93376 9.81547 2.48604 10.3678 2.48604ZM6.70109 4.81938H5.70109C5.14881 4.81938 4.70109 5.26709 4.70109 5.81938V9.81938C4.70109 10.3717 5.14881 10.8194 5.70109 10.8194H6.70109C7.25338 10.8194 7.70109 10.3717 7.70109 9.81938V5.81938C7.70109 5.26709 7.25338 4.81938 6.70109 4.81938ZM2.03442 6.81938H1.03442C0.482139 6.81938 0.0344238 7.26709 0.0344238 7.81938V9.81938C0.0344238 10.3717 0.482139 10.8194 1.03442 10.8194H2.03442C2.58671 10.8194 3.03442 10.3717 3.03442 9.81938V7.81938C3.03442 7.26709 2.58671 6.81938 2.03442 6.81938Z" fill="white"/>
</svg>
