<svg width="18" height="11" viewBox="0 0 18 11" fill="none" xmlns="http://www.w3.org/2000/svg">
<path fill-rule="evenodd" clip-rule="evenodd" d="M16.1667 0.230713H15.1667C14.6144 0.230713 14.1667 0.678428 14.1667 1.23071V9.89738C14.1667 10.4497 14.6144 10.8974 15.1667 10.8974H16.1667C16.7189 10.8974 17.1667 10.4497 17.1667 9.89738V1.23071C17.1667 0.678428 16.7189 0.230713 16.1667 0.230713ZM10.5 2.56405H11.5C12.0523 2.56405 12.5 3.01176 12.5 3.56405V9.89738C12.5 10.4497 12.0523 10.8974 11.5 10.8974H10.5C9.9477 10.8974 9.49999 10.4497 9.49999 9.89738V3.56405C9.49999 3.01176 9.9477 2.56405 10.5 2.56405ZM6.83332 4.89738H5.83332C5.28104 4.89738 4.83332 5.34509 4.83332 5.89738V9.89738C4.83332 10.4497 5.28104 10.8974 5.83332 10.8974H6.83332C7.38561 10.8974 7.83332 10.4497 7.83332 9.89738V5.89738C7.83332 5.34509 7.38561 4.89738 6.83332 4.89738ZM2.16666 6.89738H1.16666C0.614372 6.89738 0.166656 7.34509 0.166656 7.89738V9.89738C0.166656 10.4497 0.614372 10.8974 1.16666 10.8974H2.16666C2.71894 10.8974 3.16666 10.4497 3.16666 9.89738V7.89738C3.16666 7.34509 2.71894 6.89738 2.16666 6.89738Z" fill="white"/>
</svg>
