<svg width="18" height="12" viewBox="0 0 18 12" fill="none" xmlns="http://www.w3.org/2000/svg">
<path fill-rule="evenodd" clip-rule="evenodd" d="M16.5857 0.666626H15.5857C15.0334 0.666626 14.5857 1.11434 14.5857 1.66663V10.3333C14.5857 10.8856 15.0334 11.3333 15.5857 11.3333H16.5857C17.138 11.3333 17.5857 10.8856 17.5857 10.3333V1.66663C17.5857 1.11434 17.138 0.666626 16.5857 0.666626ZM10.919 2.99996H11.919C12.4713 2.99996 12.919 3.44767 12.919 3.99996V10.3333C12.919 10.8856 12.4713 11.3333 11.919 11.3333H10.919C10.3667 11.3333 9.91903 10.8856 9.91903 10.3333V3.99996C9.91903 3.44767 10.3667 2.99996 10.919 2.99996ZM7.25236 5.33329H6.25236C5.70008 5.33329 5.25236 5.78101 5.25236 6.33329V10.3333C5.25236 10.8856 5.70008 11.3333 6.25236 11.3333H7.25236C7.80464 11.3333 8.25236 10.8856 8.25236 10.3333V6.33329C8.25236 5.78101 7.80464 5.33329 7.25236 5.33329ZM2.58569 7.33329H1.58569C1.03341 7.33329 0.585693 7.78101 0.585693 8.33329V10.3333C0.585693 10.8856 1.03341 11.3333 1.58569 11.3333H2.58569C3.13798 11.3333 3.58569 10.8856 3.58569 10.3333V8.33329C3.58569 7.78101 3.13798 7.33329 2.58569 7.33329Z" fill="white"/>
</svg>
