<svg width="18" height="12" viewBox="0 0 18 12" fill="none" xmlns="http://www.w3.org/2000/svg">
<path fill-rule="evenodd" clip-rule="evenodd" d="M16.1667 0.666626H15.1667C14.6144 0.666626 14.1667 1.11434 14.1667 1.66663V10.3333C14.1667 10.8856 14.6144 11.3333 15.1667 11.3333H16.1667C16.7189 11.3333 17.1667 10.8856 17.1667 10.3333V1.66663C17.1667 1.11434 16.7189 0.666626 16.1667 0.666626ZM10.5 2.99996H11.5C12.0523 2.99996 12.5 3.44767 12.5 3.99996V10.3333C12.5 10.8856 12.0523 11.3333 11.5 11.3333H10.5C9.9477 11.3333 9.49999 10.8856 9.49999 10.3333V3.99996C9.49999 3.44767 9.9477 2.99996 10.5 2.99996ZM6.83332 5.33329H5.83332C5.28104 5.33329 4.83332 5.78101 4.83332 6.33329V10.3333C4.83332 10.8856 5.28104 11.3333 5.83332 11.3333H6.83332C7.38561 11.3333 7.83332 10.8856 7.83332 10.3333V6.33329C7.83332 5.78101 7.38561 5.33329 6.83332 5.33329ZM2.16666 7.33329H1.16666C0.614372 7.33329 0.166656 7.78101 0.166656 8.33329V10.3333C0.166656 10.8856 0.614372 11.3333 1.16666 11.3333H2.16666C2.71894 11.3333 3.16666 10.8856 3.16666 10.3333V8.33329C3.16666 7.78101 2.71894 7.33329 2.16666 7.33329Z" fill="white"/>
</svg>
