<svg width="18" height="11" viewBox="0 0 18 11" fill="none" xmlns="http://www.w3.org/2000/svg">
<path fill-rule="evenodd" clip-rule="evenodd" d="M16.6666 0.230713H15.6666C15.1143 0.230713 14.6666 0.678428 14.6666 1.23071V9.89738C14.6666 10.4497 15.1143 10.8974 15.6666 10.8974H16.6666C17.2189 10.8974 17.6666 10.4497 17.6666 9.89738V1.23071C17.6666 0.678428 17.2189 0.230713 16.6666 0.230713ZM11 2.56405H12C12.5522 2.56405 13 3.01176 13 3.56405V9.89738C13 10.4497 12.5522 10.8974 12 10.8974H11C10.4477 10.8974 9.99996 10.4497 9.99996 9.89738V3.56405C9.99996 3.01176 10.4477 2.56405 11 2.56405ZM7.33329 4.89738H6.33329C5.78101 4.89738 5.33329 5.34509 5.33329 5.89738V9.89738C5.33329 10.4497 5.78101 10.8974 6.33329 10.8974H7.33329C7.88558 10.8974 8.33329 10.4497 8.33329 9.89738V5.89738C8.33329 5.34509 7.88558 4.89738 7.33329 4.89738ZM2.66663 6.89738H1.66663C1.11434 6.89738 0.666626 7.34509 0.666626 7.89738V9.89738C0.666626 10.4497 1.11434 10.8974 1.66663 10.8974H2.66663C3.21891 10.8974 3.66663 10.4497 3.66663 9.89738V7.89738C3.66663 7.34509 3.21891 6.89738 2.66663 6.89738Z" fill="white"/>
</svg>
