<svg width="18" height="12" viewBox="0 0 18 12" fill="none" xmlns="http://www.w3.org/2000/svg">
<path fill-rule="evenodd" clip-rule="evenodd" d="M16.6356 0.588623H15.6356C15.0833 0.588623 14.6356 1.03634 14.6356 1.58862V10.2553C14.6356 10.8076 15.0833 11.2553 15.6356 11.2553H16.6356C17.1879 11.2553 17.6356 10.8076 17.6356 10.2553V1.58862C17.6356 1.03634 17.1879 0.588623 16.6356 0.588623ZM10.969 2.92196H11.969C12.5212 2.92196 12.969 3.36967 12.969 3.92196V10.2553C12.969 10.8076 12.5212 11.2553 11.969 11.2553H10.969C10.4167 11.2553 9.96895 10.8076 9.96895 10.2553V3.92196C9.96895 3.36967 10.4167 2.92196 10.969 2.92196ZM7.30229 5.25529H6.30229C5.75 5.25529 5.30229 5.703 5.30229 6.25529V10.2553C5.30229 10.8076 5.75 11.2553 6.30229 11.2553H7.30229C7.85457 11.2553 8.30229 10.8076 8.30229 10.2553V6.25529C8.30229 5.703 7.85457 5.25529 7.30229 5.25529ZM2.63562 7.25529H1.63562C1.08334 7.25529 0.63562 7.703 0.63562 8.25529V10.2553C0.63562 10.8076 1.08334 11.2553 1.63562 11.2553H2.63562C3.1879 11.2553 3.63562 10.8076 3.63562 10.2553V8.25529C3.63562 7.703 3.1879 7.25529 2.63562 7.25529Z" fill="white"/>
</svg>
