<svg width="18" height="12" viewBox="0 0 18 12" fill="none" xmlns="http://www.w3.org/2000/svg">
<path fill-rule="evenodd" clip-rule="evenodd" d="M16.113 0.588623H15.113C14.5608 0.588623 14.113 1.03634 14.113 1.58862V10.2553C14.113 10.8076 14.5608 11.2553 15.113 11.2553H16.113C16.6653 11.2553 17.113 10.8076 17.113 10.2553V1.58862C17.113 1.03634 16.6653 0.588623 16.113 0.588623ZM10.4464 2.92196H11.4464C11.9987 2.92196 12.4464 3.36967 12.4464 3.92196V10.2553C12.4464 10.8076 11.9987 11.2553 11.4464 11.2553H10.4464C9.89408 11.2553 9.44637 10.8076 9.44637 10.2553V3.92196C9.44637 3.36967 9.89408 2.92196 10.4464 2.92196ZM6.7797 5.25529H5.7797C5.22742 5.25529 4.7797 5.703 4.7797 6.25529V10.2553C4.7797 10.8076 5.22742 11.2553 5.7797 11.2553H6.7797C7.33199 11.2553 7.7797 10.8076 7.7797 10.2553V6.25529C7.7797 5.703 7.33199 5.25529 6.7797 5.25529ZM2.11304 7.25529H1.11304C0.560752 7.25529 0.113037 7.703 0.113037 8.25529V10.2553C0.113037 10.8076 0.560752 11.2553 1.11304 11.2553H2.11304C2.66532 11.2553 3.11304 10.8076 3.11304 10.2553V8.25529C3.11304 7.703 2.66532 7.25529 2.11304 7.25529Z" fill="white"/>
</svg>
