<svg width="17" height="12" viewBox="0 0 17 12" fill="none" xmlns="http://www.w3.org/2000/svg">
<path fill-rule="evenodd" clip-rule="evenodd" d="M16.0048 0.618835H15.0048C14.4525 0.618835 14.0048 1.06655 14.0048 1.61884V10.2855C14.0048 10.8378 14.4525 11.2855 15.0048 11.2855H16.0048C16.557 11.2855 17.0048 10.8378 17.0048 10.2855V1.61884C17.0048 1.06655 16.557 0.618835 16.0048 0.618835ZM10.3381 2.95217H11.3381C11.8904 2.95217 12.3381 3.39988 12.3381 3.95217V10.2855C12.3381 10.8378 11.8904 11.2855 11.3381 11.2855H10.3381C9.78581 11.2855 9.33809 10.8378 9.33809 10.2855V3.95217C9.33809 3.39988 9.78581 2.95217 10.3381 2.95217ZM6.67143 5.2855H5.67143C5.11914 5.2855 4.67143 5.73322 4.67143 6.2855V10.2855C4.67143 10.8378 5.11914 11.2855 5.67143 11.2855H6.67143C7.22371 11.2855 7.67143 10.8378 7.67143 10.2855V6.2855C7.67143 5.73322 7.22371 5.2855 6.67143 5.2855ZM2.00476 7.2855H1.00476C0.452476 7.2855 0.00476074 7.73322 0.00476074 8.2855V10.2855C0.00476074 10.8378 0.452476 11.2855 1.00476 11.2855H2.00476C2.55705 11.2855 3.00476 10.8378 3.00476 10.2855V8.2855C3.00476 7.73322 2.55705 7.2855 2.00476 7.2855Z" fill="white"/>
</svg>
