<svg width="18" height="12" viewBox="0 0 18 12" fill="none" xmlns="http://www.w3.org/2000/svg">
<path fill-rule="evenodd" clip-rule="evenodd" d="M16.9163 0.588623H15.9163C15.364 0.588623 14.9163 1.03634 14.9163 1.58862V10.2553C14.9163 10.8076 15.364 11.2553 15.9163 11.2553H16.9163C17.4685 11.2553 17.9163 10.8076 17.9163 10.2553V1.58862C17.9163 1.03634 17.4685 0.588623 16.9163 0.588623ZM11.2496 2.92196H12.2496C12.8019 2.92196 13.2496 3.36967 13.2496 3.92196V10.2553C13.2496 10.8076 12.8019 11.2553 12.2496 11.2553H11.2496C10.6973 11.2553 10.2496 10.8076 10.2496 10.2553V3.92196C10.2496 3.36967 10.6973 2.92196 11.2496 2.92196ZM7.58293 5.25529H6.58293C6.03064 5.25529 5.58293 5.703 5.58293 6.25529V10.2553C5.58293 10.8076 6.03064 11.2553 6.58293 11.2553H7.58293C8.13521 11.2553 8.58293 10.8076 8.58293 10.2553V6.25529C8.58293 5.703 8.13521 5.25529 7.58293 5.25529ZM2.91626 7.25529H1.91626C1.36397 7.25529 0.91626 7.703 0.91626 8.25529V10.2553C0.91626 10.8076 1.36397 11.2553 1.91626 11.2553H2.91626C3.46854 11.2553 3.91626 10.8076 3.91626 10.2553V8.25529C3.91626 7.703 3.46854 7.25529 2.91626 7.25529Z" fill="white"/>
</svg>
