<svg width="18" height="11" viewBox="0 0 18 11" fill="none" xmlns="http://www.w3.org/2000/svg">
<path fill-rule="evenodd" clip-rule="evenodd" d="M16.4166 0.230713H15.4166C14.8643 0.230713 14.4166 0.678428 14.4166 1.23071V9.89738C14.4166 10.4497 14.8643 10.8974 15.4166 10.8974H16.4166C16.9689 10.8974 17.4166 10.4497 17.4166 9.89738V1.23071C17.4166 0.678428 16.9689 0.230713 16.4166 0.230713ZM10.75 2.56405H11.75C12.3022 2.56405 12.75 3.01176 12.75 3.56405V9.89738C12.75 10.4497 12.3022 10.8974 11.75 10.8974H10.75C10.1977 10.8974 9.74996 10.4497 9.74996 9.89738V3.56405C9.74996 3.01176 10.1977 2.56405 10.75 2.56405ZM7.08329 4.89738H6.08329C5.53101 4.89738 5.08329 5.34509 5.08329 5.89738V9.89738C5.08329 10.4497 5.53101 10.8974 6.08329 10.8974H7.08329C7.63558 10.8974 8.08329 10.4497 8.08329 9.89738V5.89738C8.08329 5.34509 7.63558 4.89738 7.08329 4.89738ZM2.41663 6.89738H1.41663C0.864341 6.89738 0.416626 7.34509 0.416626 7.89738V9.89738C0.416626 10.4497 0.864341 10.8974 1.41663 10.8974H2.41663C2.96891 10.8974 3.41663 10.4497 3.41663 9.89738V7.89738C3.41663 7.34509 2.96891 6.89738 2.41663 6.89738Z" fill="white"/>
</svg>
