<svg width="18" height="11" viewBox="0 0 18 11" fill="none" xmlns="http://www.w3.org/2000/svg">
<path fill-rule="evenodd" clip-rule="evenodd" d="M16.2421 0.0548096H15.2421C14.6898 0.0548096 14.2421 0.502525 14.2421 1.05481V9.72148C14.2421 10.2738 14.6898 10.7215 15.2421 10.7215H16.2421C16.7943 10.7215 17.2421 10.2738 17.2421 9.72148V1.05481C17.2421 0.502525 16.7943 0.0548096 16.2421 0.0548096ZM10.5754 2.38814H11.5754C12.1277 2.38814 12.5754 2.83586 12.5754 3.38814V9.72148C12.5754 10.2738 12.1277 10.7215 11.5754 10.7215H10.5754C10.0231 10.7215 9.5754 10.2738 9.5754 9.72148V3.38814C9.5754 2.83586 10.0231 2.38814 10.5754 2.38814ZM6.90873 4.72148H5.90873C5.35645 4.72148 4.90873 5.16919 4.90873 5.72148V9.72148C4.90873 10.2738 5.35645 10.7215 5.90873 10.7215H6.90873C7.46102 10.7215 7.90873 10.2738 7.90873 9.72148V5.72148C7.90873 5.16919 7.46102 4.72148 6.90873 4.72148ZM2.24207 6.72148H1.24207C0.689781 6.72148 0.242065 7.16919 0.242065 7.72148V9.72148C0.242065 10.2738 0.689781 10.7215 1.24207 10.7215H2.24207C2.79435 10.7215 3.24207 10.2738 3.24207 9.72148V7.72148C3.24207 7.16919 2.79435 6.72148 2.24207 6.72148Z" fill="white"/>
</svg>
