<svg width="23" height="23" viewBox="0 0 23 23" fill="none" xmlns="http://www.w3.org/2000/svg">
<path d="M11.4462 12.4221C11.9525 12.4221 12.3629 12.0117 12.3629 11.5054C12.3629 10.9992 11.9525 10.5887 11.4462 10.5887C10.9399 10.5887 10.5295 10.9992 10.5295 11.5054C10.5295 12.0117 10.9399 12.4221 11.4462 12.4221Z" fill="white" stroke="white" stroke-width="2" stroke-linecap="round" stroke-linejoin="round"/>
<path d="M11.4462 6.00533C11.9525 6.00533 12.3629 5.59492 12.3629 5.08866C12.3629 4.5824 11.9525 4.172 11.4462 4.172C10.9399 4.172 10.5295 4.5824 10.5295 5.08866C10.5295 5.59492 10.9399 6.00533 11.4462 6.00533Z" fill="white" stroke="white" stroke-width="2" stroke-linecap="round" stroke-linejoin="round"/>
<path d="M11.4462 18.8387C11.9525 18.8387 12.3629 18.4283 12.3629 17.922C12.3629 17.4158 11.9525 17.0054 11.4462 17.0054C10.9399 17.0054 10.5295 17.4158 10.5295 17.922C10.5295 18.4283 10.9399 18.8387 11.4462 18.8387Z" fill="white" stroke="white" stroke-width="2" stroke-linecap="round" stroke-linejoin="round"/>
</svg>
