<svg width="23" height="23" viewBox="0 0 23 23" fill="none" xmlns="http://www.w3.org/2000/svg">
<path d="M11.969 12.4221C12.4753 12.4221 12.8857 12.0117 12.8857 11.5054C12.8857 10.9992 12.4753 10.5887 11.969 10.5887C11.4628 10.5887 11.0524 10.9992 11.0524 11.5054C11.0524 12.0117 11.4628 12.4221 11.969 12.4221Z" fill="white" stroke="white" stroke-width="2" stroke-linecap="round" stroke-linejoin="round"/>
<path d="M11.969 6.00533C12.4753 6.00533 12.8857 5.59492 12.8857 5.08866C12.8857 4.5824 12.4753 4.172 11.969 4.172C11.4628 4.172 11.0524 4.5824 11.0524 5.08866C11.0524 5.59492 11.4628 6.00533 11.969 6.00533Z" fill="white" stroke="white" stroke-width="2" stroke-linecap="round" stroke-linejoin="round"/>
<path d="M11.969 18.8387C12.4753 18.8387 12.8857 18.4283 12.8857 17.922C12.8857 17.4158 12.4753 17.0054 11.969 17.0054C11.4628 17.0054 11.0524 17.4158 11.0524 17.922C11.0524 18.4283 11.4628 18.8387 11.969 18.8387Z" fill="white" stroke="white" stroke-width="2" stroke-linecap="round" stroke-linejoin="round"/>
</svg>
