<svg width="23" height="23" viewBox="0 0 23 23" fill="none" xmlns="http://www.w3.org/2000/svg">
<path d="M11.2494 12.4221C11.7557 12.4221 12.1661 12.0117 12.1661 11.5054C12.1661 10.9992 11.7557 10.5887 11.2494 10.5887C10.7432 10.5887 10.3328 10.9992 10.3328 11.5054C10.3328 12.0117 10.7432 12.4221 11.2494 12.4221Z" fill="white" stroke="white" stroke-width="2" stroke-linecap="round" stroke-linejoin="round"/>
<path d="M11.2494 6.00533C11.7557 6.00533 12.1661 5.59492 12.1661 5.08866C12.1661 4.5824 11.7557 4.172 11.2494 4.172C10.7432 4.172 10.3328 4.5824 10.3328 5.08866C10.3328 5.59492 10.7432 6.00533 11.2494 6.00533Z" fill="white" stroke="white" stroke-width="2" stroke-linecap="round" stroke-linejoin="round"/>
<path d="M11.2494 18.8387C11.7557 18.8387 12.1661 18.4283 12.1661 17.922C12.1661 17.4158 11.7557 17.0054 11.2494 17.0054C10.7432 17.0054 10.3328 17.4158 10.3328 17.922C10.3328 18.4283 10.7432 18.8387 11.2494 18.8387Z" fill="white" stroke="white" stroke-width="2" stroke-linecap="round" stroke-linejoin="round"/>
</svg>
