<svg width="23" height="23" viewBox="0 0 23 23" fill="none" xmlns="http://www.w3.org/2000/svg">
<path d="M11.3382 12.4522C11.8444 12.4522 12.2548 12.0418 12.2548 11.5355C12.2548 11.0292 11.8444 10.6188 11.3382 10.6188C10.8319 10.6188 10.4215 11.0292 10.4215 11.5355C10.4215 12.0418 10.8319 12.4522 11.3382 12.4522Z" fill="white" stroke="white" stroke-width="2" stroke-linecap="round" stroke-linejoin="round"/>
<path d="M11.3382 6.03554C11.8444 6.03554 12.2548 5.62514 12.2548 5.11888C12.2548 4.61262 11.8444 4.20221 11.3382 4.20221C10.8319 4.20221 10.4215 4.61262 10.4215 5.11888C10.4215 5.62514 10.8319 6.03554 11.3382 6.03554Z" fill="white" stroke="white" stroke-width="2" stroke-linecap="round" stroke-linejoin="round"/>
<path d="M11.3382 18.8689C11.8444 18.8689 12.2548 18.4584 12.2548 17.9522C12.2548 17.4459 11.8444 17.0355 11.3382 17.0355C10.8319 17.0355 10.4215 17.4459 10.4215 17.9522C10.4215 18.4584 10.8319 18.8689 11.3382 18.8689Z" fill="white" stroke="white" stroke-width="2" stroke-linecap="round" stroke-linejoin="round"/>
</svg>
