<svg width="23" height="23" viewBox="0 0 23 23" fill="none" xmlns="http://www.w3.org/2000/svg">
<path d="M11.5755 12.8881C12.0817 12.8881 12.4921 12.4777 12.4921 11.9715C12.4921 11.4652 12.0817 11.0548 11.5755 11.0548C11.0692 11.0548 10.6588 11.4652 10.6588 11.9715C10.6588 12.4777 11.0692 12.8881 11.5755 12.8881Z" fill="white" stroke="white" stroke-width="2" stroke-linecap="round" stroke-linejoin="round"/>
<path d="M11.5755 6.47139C12.0817 6.47139 12.4921 6.06099 12.4921 5.55473C12.4921 5.04847 12.0817 4.63806 11.5755 4.63806C11.0692 4.63806 10.6588 5.04847 10.6588 5.55473C10.6588 6.06099 11.0692 6.47139 11.5755 6.47139Z" fill="white" stroke="white" stroke-width="2" stroke-linecap="round" stroke-linejoin="round"/>
<path d="M11.5755 19.3048C12.0817 19.3048 12.4921 18.8944 12.4921 18.3881C12.4921 17.8818 12.0817 17.4714 11.5755 17.4714C11.0692 17.4714 10.6588 17.8818 10.6588 18.3881C10.6588 18.8944 11.0692 19.3048 11.5755 19.3048Z" fill="white" stroke="white" stroke-width="2" stroke-linecap="round" stroke-linejoin="round"/>
</svg>
