<svg width="23" height="23" viewBox="0 0 23 23" fill="none" xmlns="http://www.w3.org/2000/svg">
<path d="M11.75 12.4807C12.2562 12.4807 12.6666 12.0703 12.6666 11.5641C12.6666 11.0578 12.2562 10.6474 11.75 10.6474C11.2437 10.6474 10.8333 11.0578 10.8333 11.5641C10.8333 12.0703 11.2437 12.4807 11.75 12.4807Z" fill="white" stroke="white" stroke-width="2" stroke-linecap="round" stroke-linejoin="round"/>
<path d="M11.75 6.06411C12.2562 6.06411 12.6666 5.6537 12.6666 5.14744C12.6666 4.64118 12.2562 4.23077 11.75 4.23077C11.2437 4.23077 10.8333 4.64118 10.8333 5.14744C10.8333 5.6537 11.2437 6.06411 11.75 6.06411Z" fill="white" stroke="white" stroke-width="2" stroke-linecap="round" stroke-linejoin="round"/>
<path d="M11.75 18.8974C12.2562 18.8974 12.6666 18.487 12.6666 17.9808C12.6666 17.4745 12.2562 17.0641 11.75 17.0641C11.2437 17.0641 10.8333 17.4745 10.8333 17.9808C10.8333 18.487 11.2437 18.8974 11.75 18.8974Z" fill="white" stroke="white" stroke-width="2" stroke-linecap="round" stroke-linejoin="round"/>
</svg>
