<svg width="23" height="22" viewBox="0 0 23 22" fill="none" xmlns="http://www.w3.org/2000/svg">
<path d="M11.919 11.9167C12.4253 11.9167 12.8357 11.5063 12.8357 11C12.8357 10.4938 12.4253 10.0834 11.919 10.0834C11.4128 10.0834 11.0024 10.4938 11.0024 11C11.0024 11.5063 11.4128 11.9167 11.919 11.9167Z" fill="white" stroke="white" stroke-width="2" stroke-linecap="round" stroke-linejoin="round"/>
<path d="M11.919 5.49996C12.4253 5.49996 12.8357 5.08955 12.8357 4.58329C12.8357 4.07703 12.4253 3.66663 11.919 3.66663C11.4128 3.66663 11.0024 4.07703 11.0024 4.58329C11.0024 5.08955 11.4128 5.49996 11.919 5.49996Z" fill="white" stroke="white" stroke-width="2" stroke-linecap="round" stroke-linejoin="round"/>
<path d="M11.919 18.3333C12.4253 18.3333 12.8357 17.9229 12.8357 17.4167C12.8357 16.9104 12.4253 16.5 11.919 16.5C11.4128 16.5 11.0024 16.9104 11.0024 17.4167C11.0024 17.9229 11.4128 18.3333 11.919 18.3333Z" fill="white" stroke="white" stroke-width="2" stroke-linecap="round" stroke-linejoin="round"/>
</svg>
