<svg width="23" height="23" viewBox="0 0 23 23" fill="none" xmlns="http://www.w3.org/2000/svg">
<path d="M11.3676 11.986C11.8739 11.986 12.2843 11.5756 12.2843 11.0694C12.2843 10.5631 11.8739 10.1527 11.3676 10.1527C10.8613 10.1527 10.4509 10.5631 10.4509 11.0694C10.4509 11.5756 10.8613 11.986 11.3676 11.986Z" fill="white" stroke="white" stroke-width="2" stroke-linecap="round" stroke-linejoin="round"/>
<path d="M11.3676 5.56942C11.8739 5.56942 12.2843 5.15901 12.2843 4.65275C12.2843 4.14649 11.8739 3.73608 11.3676 3.73608C10.8613 3.73608 10.4509 4.14649 10.4509 4.65275C10.4509 5.15901 10.8613 5.56942 11.3676 5.56942Z" fill="white" stroke="white" stroke-width="2" stroke-linecap="round" stroke-linejoin="round"/>
<path d="M11.3676 18.4027C11.8739 18.4027 12.2843 17.9923 12.2843 17.4861C12.2843 16.9798 11.8739 16.5694 11.3676 16.5694C10.8613 16.5694 10.4509 16.9798 10.4509 17.4861C10.4509 17.9923 10.8613 18.4027 11.3676 18.4027Z" fill="white" stroke="white" stroke-width="2" stroke-linecap="round" stroke-linejoin="round"/>
</svg>
