<svg width="40" height="40" viewBox="0 0 40 40" fill="none" xmlns="http://www.w3.org/2000/svg">
<path d="M31.7428 12.1367H31.3366V8.4805C31.3323 7.7276 31.0313 7.00676 30.4989 6.47437C29.9666 5.94199 29.2457 5.64101 28.4928 5.63675C28.3639 5.61327 28.2318 5.61327 28.1028 5.63675L8.76533 12.1367H8.58658H8.32658L8.05033 12.2342H7.82283L7.56283 12.3805L7.36783 12.6567L7.14033 12.8517L6.96158 13.0142L6.76658 13.258C6.71459 13.3046 6.67066 13.3595 6.63658 13.4205C6.57626 13.5145 6.52199 13.6121 6.47408 13.713L6.37658 13.8917C6.33133 14.0085 6.29334 14.1278 6.26283 14.2492C6.27014 14.3086 6.27014 14.3686 6.26283 14.428C6.24605 14.6118 6.24605 14.7967 6.26283 14.9805V31.2305C6.26624 31.9642 6.5515 32.6685 7.05963 33.1978C7.56775 33.7271 8.25987 34.0409 8.99283 34.0742H31.7428C32.4957 34.07 33.2166 33.769 33.749 33.2366C34.2813 32.7042 34.5823 31.9834 34.5866 31.2305V14.9805C34.5823 14.2276 34.2813 13.5068 33.749 12.9744C33.2166 12.442 32.4957 12.141 31.7428 12.1367ZM28.6228 8.0905C28.7029 8.12002 28.7721 8.17307 28.8214 8.24268C28.8707 8.31229 28.8978 8.3952 28.8991 8.4805V12.1367H16.5003L28.6228 8.0905ZM32.1491 31.2305C32.1491 31.3382 32.1063 31.4416 32.0301 31.5178C31.9539 31.5939 31.8506 31.6367 31.7428 31.6367H8.99283C8.88508 31.6367 8.78175 31.5939 8.70556 31.5178C8.62938 31.4416 8.58658 31.3382 8.58658 31.2305V14.9805C8.58658 14.8728 8.62938 14.7694 8.70556 14.6932C8.78175 14.617 8.88508 14.5742 8.99283 14.5742H31.7428C31.8506 14.5742 31.9539 14.617 32.0301 14.6932C32.1063 14.7694 32.1491 14.8728 32.1491 14.9805V31.2305Z" fill="white"/>
<path d="M27.6803 25.1367C28.8021 25.1367 29.7115 24.2273 29.7115 23.1055C29.7115 21.9836 28.8021 21.0742 27.6803 21.0742C26.5585 21.0742 25.649 21.9836 25.649 23.1055C25.649 24.2273 26.5585 25.1367 27.6803 25.1367Z" fill="white"/>
</svg>
