<svg width="42" height="42" viewBox="0 0 42 42" fill="none" xmlns="http://www.w3.org/2000/svg">
<path d="M32.9583 12.8854H32.5313V9.04166C32.5268 8.25016 32.2104 7.49235 31.6507 6.93266C31.091 6.37297 30.3332 6.05656 29.5417 6.05208C29.4061 6.0274 29.2672 6.0274 29.1317 6.05208L8.80251 12.8854H8.61459H8.34126L8.05084 12.9879H7.81168L7.53834 13.1417L7.33334 13.4321L7.09418 13.6371L6.90626 13.8079L6.70126 14.0642C6.6466 14.1132 6.60042 14.1709 6.56459 14.235C6.50118 14.3338 6.44412 14.4365 6.39376 14.5425L6.29126 14.7304C6.2437 14.8531 6.20376 14.9786 6.17168 15.1062C6.17936 15.1686 6.17936 15.2318 6.17168 15.2942C6.15404 15.4874 6.15404 15.6818 6.17168 15.875V32.9583C6.17526 33.7297 6.47516 34.4701 7.00934 35.0266C7.54352 35.583 8.27113 35.9129 9.04168 35.9479H32.9583C33.7498 35.9434 34.5077 35.627 35.0673 35.0673C35.627 34.5076 35.9434 33.7498 35.9479 32.9583V15.875C35.9434 15.0835 35.627 14.3257 35.0673 13.766C34.5077 13.2063 33.7498 12.8899 32.9583 12.8854ZM29.6783 8.63166C29.7625 8.66269 29.8353 8.71847 29.8871 8.79165C29.9389 8.86483 29.9674 8.95199 29.9688 9.04166V12.8854H16.9342L29.6783 8.63166ZM33.3854 32.9583C33.3854 33.0716 33.3404 33.1802 33.2603 33.2603C33.1802 33.3404 33.0716 33.3854 32.9583 33.3854H9.04168C8.92841 33.3854 8.81978 33.3404 8.73968 33.2603C8.65959 33.1802 8.61459 33.0716 8.61459 32.9583V15.875C8.61459 15.7617 8.65959 15.6531 8.73968 15.573C8.81978 15.4929 8.92841 15.4479 9.04168 15.4479H32.9583C33.0716 15.4479 33.1802 15.4929 33.2603 15.573C33.3404 15.6531 33.3854 15.7617 33.3854 15.875V32.9583Z" fill="#B769DA"/>
<path d="M28.6875 26.5521C29.8668 26.5521 30.8229 25.596 30.8229 24.4167C30.8229 23.2373 29.8668 22.2812 28.6875 22.2812C27.5081 22.2812 26.5521 23.2373 26.5521 24.4167C26.5521 25.596 27.5081 26.5521 28.6875 26.5521Z" fill="#B769DA"/>
</svg>
