<svg width="33" height="33" viewBox="0 0 33 33" fill="none" xmlns="http://www.w3.org/2000/svg">
<path d="M25.4385 9.95813H25.1051V6.95813C25.1016 6.34037 24.8547 5.74891 24.4179 5.31208C23.981 4.87525 23.3896 4.6283 22.7718 4.6248C22.666 4.60554 22.5576 4.60554 22.4518 4.6248L6.58514 9.95813H6.43848H6.22514L5.99848 10.0381H5.81181L5.59848 10.1581L5.43848 10.3848L5.25181 10.5448L5.10514 10.6781L4.94514 10.8781C4.90248 10.9164 4.86644 10.9614 4.83848 11.0115C4.78899 11.0886 4.74445 11.1687 4.70514 11.2515L4.62514 11.3981C4.58802 11.4939 4.55685 11.5919 4.53181 11.6915C4.53781 11.7402 4.53781 11.7894 4.53181 11.8381C4.51804 11.9889 4.51804 12.1407 4.53181 12.2915V25.6248C4.53461 26.2268 4.76867 26.8047 5.18559 27.239C5.60252 27.6733 6.1704 27.9308 6.77181 27.9581H25.4385C26.0562 27.9546 26.6477 27.7077 27.0845 27.2708C27.5214 26.834 27.7683 26.2426 27.7718 25.6248V12.2915C27.7683 11.6737 27.5214 11.0822 27.0845 10.6454C26.6477 10.2086 26.0562 9.96163 25.4385 9.95813ZM22.8785 6.63813C22.9441 6.66235 23.0009 6.70588 23.0414 6.763C23.0819 6.82012 23.1041 6.88814 23.1051 6.95813V9.95813H12.9318L22.8785 6.63813ZM25.7718 25.6248C25.7718 25.7132 25.7367 25.798 25.6742 25.8605C25.6117 25.923 25.5269 25.9581 25.4385 25.9581H6.77181C6.6834 25.9581 6.59862 25.923 6.53611 25.8605C6.47359 25.798 6.43848 25.7132 6.43848 25.6248V12.2915C6.43848 12.2031 6.47359 12.1183 6.53611 12.0558C6.59862 11.9932 6.6834 11.9581 6.77181 11.9581H25.4385C25.5269 11.9581 25.6117 11.9932 25.6742 12.0558C25.7367 12.1183 25.7718 12.2031 25.7718 12.2915V25.6248Z" fill="white"/>
<path d="M22.1051 20.6248C23.0256 20.6248 23.7718 19.8786 23.7718 18.9582C23.7718 18.0377 23.0256 17.2915 22.1051 17.2915C21.1847 17.2915 20.4385 18.0377 20.4385 18.9582C20.4385 19.8786 21.1847 20.6248 22.1051 20.6248Z" fill="white"/>
</svg>
