<svg width="33" height="33" viewBox="0 0 33 33" fill="none" xmlns="http://www.w3.org/2000/svg">
<path d="M25.8333 10.1027H25.5V7.10266C25.4965 6.4849 25.2495 5.89344 24.8127 5.45661C24.3759 5.01978 23.7844 4.77283 23.1666 4.76933C23.0608 4.75007 22.9524 4.75007 22.8466 4.76933L6.97998 10.1027H6.83331H6.61998L6.39331 10.1827H6.20665L5.99331 10.3027L5.83331 10.5293L5.64665 10.6893L5.49998 10.8227L5.33998 11.0227C5.29732 11.0609 5.26128 11.106 5.23331 11.156C5.18382 11.2331 5.13929 11.3132 5.09998 11.396L5.01998 11.5427C4.98286 11.6384 4.95169 11.7364 4.92665 11.836C4.93264 11.8847 4.93264 11.934 4.92665 11.9827C4.91288 12.1335 4.91288 12.2852 4.92665 12.436V25.7693C4.92944 26.3713 5.16351 26.9493 5.58043 27.3836C5.99735 27.8179 6.56524 28.0753 7.16665 28.1027H25.8333C26.4511 28.0992 27.0425 27.8522 27.4794 27.4154C27.9162 26.9785 28.1631 26.3871 28.1666 25.7693V12.436C28.1631 11.8182 27.9162 11.2268 27.4794 10.7899C27.0425 10.3531 26.4511 10.1062 25.8333 10.1027ZM23.2733 6.78266C23.339 6.80688 23.3958 6.85041 23.4362 6.90753C23.4767 6.96465 23.4989 7.03268 23.5 7.10266V10.1027H13.3266L23.2733 6.78266ZM26.1666 25.7693C26.1666 25.8577 26.1315 25.9425 26.069 26.005C26.0065 26.0675 25.9217 26.1027 25.8333 26.1027H7.16665C7.07824 26.1027 6.99345 26.0675 6.93094 26.005C6.86843 25.9425 6.83331 25.8577 6.83331 25.7693V12.436C6.83331 12.3476 6.86843 12.2628 6.93094 12.2003C6.99345 12.1378 7.07824 12.1027 7.16665 12.1027H25.8333C25.9217 12.1027 26.0065 12.1378 26.069 12.2003C26.1315 12.2628 26.1666 12.3476 26.1666 12.436V25.7693Z" fill="#A7A6B7"/>
<path d="M22.5 20.7694C23.4205 20.7694 24.1666 20.0232 24.1666 19.1027C24.1666 18.1822 23.4205 17.436 22.5 17.436C21.5795 17.436 20.8333 18.1822 20.8333 19.1027C20.8333 20.0232 21.5795 20.7694 22.5 20.7694Z" fill="#A7A6B7"/>
</svg>
