<svg width="33" height="33" viewBox="0 0 33 33" fill="none" xmlns="http://www.w3.org/2000/svg">
<path d="M25.8024 9.95813H25.469V6.95813C25.4655 6.34037 25.2186 5.74891 24.7817 5.31208C24.3449 4.87525 23.7535 4.6283 23.1357 4.6248C23.0299 4.60554 22.9215 4.60554 22.8157 4.6248L6.94903 9.95813H6.80237H6.58903L6.36237 10.0381H6.1757L5.96237 10.1581L5.80237 10.3848L5.6157 10.5448L5.46903 10.6781L5.30903 10.8781C5.26637 10.9164 5.23033 10.9614 5.20237 11.0115C5.15288 11.0886 5.10834 11.1687 5.06903 11.2515L4.98903 11.3981C4.95191 11.4939 4.92074 11.5919 4.8957 11.6915C4.9017 11.7402 4.9017 11.7894 4.8957 11.8381C4.88193 11.9889 4.88193 12.1407 4.8957 12.2915V25.6248C4.8985 26.2268 5.13256 26.8047 5.54949 27.239C5.96641 27.6733 6.5343 27.9308 7.1357 27.9581H25.8024C26.4201 27.9546 27.0116 27.7077 27.4484 27.2708C27.8852 26.834 28.1322 26.2426 28.1357 25.6248V12.2915C28.1322 11.6737 27.8852 11.0822 27.4484 10.6454C27.0116 10.2086 26.4201 9.96163 25.8024 9.95813ZM23.2424 6.63813C23.308 6.66235 23.3648 6.70588 23.4053 6.763C23.4458 6.82012 23.468 6.88814 23.469 6.95813V9.95813H13.2957L23.2424 6.63813ZM26.1357 25.6248C26.1357 25.7132 26.1006 25.798 26.0381 25.8605C25.9756 25.923 25.8908 25.9581 25.8024 25.9581H7.1357C7.0473 25.9581 6.96251 25.923 6.9 25.8605C6.83749 25.798 6.80237 25.7132 6.80237 25.6248V12.2915C6.80237 12.2031 6.83749 12.1183 6.9 12.0558C6.96251 11.9932 7.0473 11.9581 7.1357 11.9581H25.8024C25.8908 11.9581 25.9756 11.9932 26.0381 12.0558C26.1006 12.1183 26.1357 12.2031 26.1357 12.2915V25.6248Z" fill="white"/>
<path d="M22.469 20.6248C23.3895 20.6248 24.1357 19.8786 24.1357 18.9582C24.1357 18.0377 23.3895 17.2915 22.469 17.2915C21.5486 17.2915 20.8024 18.0377 20.8024 18.9582C20.8024 19.8786 21.5486 20.6248 22.469 20.6248Z" fill="white"/>
</svg>
