<svg width="33" height="32" viewBox="0 0 33 32" fill="none" xmlns="http://www.w3.org/2000/svg">
<path d="M25.553 9.66663H25.2196V6.66663C25.2161 6.04887 24.9692 5.45741 24.5324 5.02058C24.0955 4.58375 23.5041 4.33679 22.8863 4.33329C22.7805 4.31403 22.6721 4.31403 22.5663 4.33329L6.69964 9.66663H6.55298H6.33964L6.11298 9.74663H5.92631L5.71298 9.86663L5.55298 10.0933L5.36631 10.2533L5.21964 10.3866L5.05964 10.5866C5.01698 10.6249 4.98094 10.6699 4.95298 10.72C4.90349 10.7971 4.85895 10.8772 4.81964 10.96L4.73964 11.1066C4.70252 11.2024 4.67135 11.3004 4.64631 11.4C4.65231 11.4487 4.65231 11.4979 4.64631 11.5466C4.63254 11.6974 4.63254 11.8492 4.64631 12V25.3333C4.64911 25.9353 4.88317 26.5132 5.3001 26.9475C5.71702 27.3818 6.28491 27.6393 6.88631 27.6666H25.553C26.1707 27.6631 26.7622 27.4162 27.199 26.9793C27.6359 26.5425 27.8828 25.9511 27.8863 25.3333V12C27.8828 11.3822 27.6359 10.7907 27.199 10.3539C26.7622 9.91708 26.1707 9.67013 25.553 9.66663ZM22.993 6.34663C23.0586 6.37085 23.1154 6.41438 23.1559 6.4715C23.1964 6.52861 23.2186 6.59664 23.2196 6.66663V9.66663H13.0463L22.993 6.34663ZM25.8863 25.3333C25.8863 25.4217 25.8512 25.5065 25.7887 25.569C25.7262 25.6315 25.6414 25.6666 25.553 25.6666H6.88631C6.79791 25.6666 6.71312 25.6315 6.65061 25.569C6.5881 25.5065 6.55298 25.4217 6.55298 25.3333V12C6.55298 11.9116 6.5881 11.8268 6.65061 11.7643C6.71312 11.7017 6.79791 11.6666 6.88631 11.6666H25.553C25.6414 11.6666 25.7262 11.7017 25.7887 11.7643C25.8512 11.8268 25.8863 11.9116 25.8863 12V25.3333Z" fill="#A7A6B7"/>
<path d="M22.2196 20.3333C23.1401 20.3333 23.8863 19.5871 23.8863 18.6667C23.8863 17.7462 23.1401 17 22.2196 17C21.2992 17 20.553 17.7462 20.553 18.6667C20.553 19.5871 21.2992 20.3333 22.2196 20.3333Z" fill="#A7A6B7"/>
</svg>
