<svg width="40" height="40" viewBox="0 0 40 40" fill="none" xmlns="http://www.w3.org/2000/svg">
<path d="M31.375 11.8454H30.9688V8.18911C30.9645 7.43622 30.6635 6.71538 30.1312 6.18299C29.5988 5.65061 28.8779 5.34963 28.125 5.34536C27.9961 5.32189 27.864 5.32189 27.735 5.34536L8.39753 11.8454H8.21878H7.95878L7.68253 11.9429H7.45503L7.19503 12.0891L7.00003 12.3654L6.77253 12.5604L6.59378 12.7229L6.39878 12.9666C6.34679 13.0132 6.30286 13.0682 6.26878 13.1291C6.20846 13.2231 6.15419 13.3208 6.10628 13.4216L6.00878 13.6004C5.96354 13.7171 5.92555 13.8365 5.89503 13.9579C5.90234 14.0172 5.90234 14.0773 5.89503 14.1366C5.87825 14.3204 5.87825 14.5053 5.89503 14.6891V30.9391C5.89844 31.6728 6.18371 32.3772 6.69183 32.9065C7.19995 33.4358 7.89207 33.7495 8.62503 33.7829H31.375C32.1279 33.7786 32.8488 33.4776 33.3812 32.9452C33.9135 32.4129 34.2145 31.692 34.2188 30.9391V14.6891C34.2145 13.9362 33.9135 13.2154 33.3812 12.683C32.8488 12.1506 32.1279 11.8496 31.375 11.8454ZM28.255 7.79911C28.3351 7.82863 28.4043 7.88169 28.4536 7.9513C28.5029 8.02091 28.53 8.10382 28.5313 8.18911V11.8454H16.1325L28.255 7.79911ZM31.7813 30.9391C31.7813 31.0469 31.7385 31.1502 31.6623 31.2264C31.5861 31.3026 31.4828 31.3454 31.375 31.3454H8.62503C8.51729 31.3454 8.41395 31.3026 8.33777 31.2264C8.26158 31.1502 8.21878 31.0469 8.21878 30.9391V14.6891C8.21878 14.5814 8.26158 14.478 8.33777 14.4019C8.41395 14.3257 8.51729 14.2829 8.62503 14.2829H31.375C31.4828 14.2829 31.5861 14.3257 31.6623 14.4019C31.7385 14.478 31.7813 14.5814 31.7813 14.6891V30.9391Z" fill="#A7A6B7"/>
<path d="M27.3125 24.8453C28.4343 24.8453 29.3438 23.9359 29.3438 22.8141C29.3438 21.6923 28.4343 20.7828 27.3125 20.7828C26.1907 20.7828 25.2812 21.6923 25.2812 22.8141C25.2812 23.9359 26.1907 24.8453 27.3125 24.8453Z" fill="#A7A6B7"/>
</svg>
