<svg width="42" height="42" viewBox="0 0 42 42" fill="none" xmlns="http://www.w3.org/2000/svg">
<path d="M32.9583 12.4495H32.5313V8.60575C32.5268 7.81424 32.2104 7.05643 31.6507 6.49675C31.091 5.93706 30.3332 5.62065 29.5417 5.61616C29.4061 5.59149 29.2672 5.59149 29.1317 5.61616L8.80251 12.4495H8.61459H8.34126L8.05084 12.552H7.81168L7.53834 12.7057L7.33334 12.9962L7.09418 13.2012L6.90626 13.372L6.70126 13.6282C6.6466 13.6773 6.60042 13.735 6.56459 13.7991C6.50118 13.8979 6.44412 14.0006 6.39376 14.1066L6.29126 14.2945C6.2437 14.4172 6.20376 14.5427 6.17168 14.6703C6.17936 14.7327 6.17936 14.7958 6.17168 14.8582C6.15404 15.0515 6.15404 15.2459 6.17168 15.4391V32.5224C6.17526 33.2938 6.47516 34.0342 7.00934 34.5907C7.54352 35.1471 8.27113 35.4769 9.04168 35.512H32.9583C33.7498 35.5075 34.5077 35.1911 35.0673 34.6314C35.627 34.0717 35.9434 33.3139 35.9479 32.5224V15.4391C35.9434 14.6476 35.627 13.8898 35.0673 13.3301C34.5077 12.7704 33.7498 12.454 32.9583 12.4495ZM29.6783 8.19575C29.7625 8.22678 29.8353 8.28256 29.8871 8.35574C29.9389 8.42892 29.9674 8.51608 29.9688 8.60575V12.4495H16.9342L29.6783 8.19575ZM33.3854 32.5224C33.3854 32.6357 33.3404 32.7443 33.2603 32.8244C33.1802 32.9045 33.0716 32.9495 32.9583 32.9495H9.04168C8.92841 32.9495 8.81978 32.9045 8.73968 32.8244C8.65959 32.7443 8.61459 32.6357 8.61459 32.5224V15.4391C8.61459 15.3258 8.65959 15.2172 8.73968 15.1371C8.81978 15.057 8.92841 15.012 9.04168 15.012H32.9583C33.0716 15.012 33.1802 15.057 33.2603 15.1371C33.3404 15.2172 33.3854 15.3258 33.3854 15.4391V32.5224Z" fill="#B769DA"/>
<path d="M28.6875 26.1162C29.8668 26.1162 30.8229 25.1601 30.8229 23.9808C30.8229 22.8014 29.8668 21.8453 28.6875 21.8453C27.5081 21.8453 26.5521 22.8014 26.5521 23.9808C26.5521 25.1601 27.5081 26.1162 28.6875 26.1162Z" fill="#B769DA"/>
</svg>
