<svg width="33" height="32" viewBox="0 0 33 32" fill="none" xmlns="http://www.w3.org/2000/svg">
<path d="M26.25 9.66663H25.9167V6.66663C25.9132 6.04887 25.6662 5.45741 25.2294 5.02058C24.7926 4.58375 24.2011 4.33679 23.5833 4.33329C23.4775 4.31403 23.3691 4.31403 23.2633 4.33329L7.39667 9.66663H7.25H7.03667L6.81 9.74663H6.62333L6.41 9.86663L6.25 10.0933L6.06333 10.2533L5.91667 10.3866L5.75667 10.5866C5.71401 10.6249 5.67796 10.6699 5.65 10.72C5.60051 10.7971 5.55598 10.8772 5.51667 10.96L5.43667 11.1066C5.39954 11.2024 5.36837 11.3004 5.34333 11.4C5.34933 11.4487 5.34933 11.4979 5.34333 11.5466C5.32957 11.6974 5.32957 11.8492 5.34333 12V25.3333C5.34613 25.9353 5.5802 26.5132 5.99712 26.9475C6.41404 27.3818 6.98193 27.6393 7.58333 27.6666H26.25C26.8678 27.6631 27.4592 27.4162 27.896 26.9793C28.3329 26.5425 28.5798 25.9511 28.5833 25.3333V12C28.5798 11.3822 28.3329 10.7907 27.896 10.3539C27.4592 9.91708 26.8678 9.67013 26.25 9.66663ZM23.69 6.34663C23.7557 6.37085 23.8125 6.41438 23.8529 6.4715C23.8934 6.52861 23.9156 6.59664 23.9167 6.66663V9.66663H13.7433L23.69 6.34663ZM26.5833 25.3333C26.5833 25.4217 26.5482 25.5065 26.4857 25.569C26.4232 25.6315 26.3384 25.6666 26.25 25.6666H7.58333C7.49493 25.6666 7.41014 25.6315 7.34763 25.569C7.28512 25.5065 7.25 25.4217 7.25 25.3333V12C7.25 11.9116 7.28512 11.8268 7.34763 11.7643C7.41014 11.7017 7.49493 11.6666 7.58333 11.6666H26.25C26.3384 11.6666 26.4232 11.7017 26.4857 11.7643C26.5482 11.8268 26.5833 11.9116 26.5833 12V25.3333Z" fill="#A7A6B7"/>
<path d="M22.9167 20.3333C23.8371 20.3333 24.5833 19.5871 24.5833 18.6667C24.5833 17.7462 23.8371 17 22.9167 17C21.9962 17 21.25 17.7462 21.25 18.6667C21.25 19.5871 21.9962 20.3333 22.9167 20.3333Z" fill="#A7A6B7"/>
</svg>
