<svg width="186" height="58" viewBox="0 0 186 58" fill="none" xmlns="http://www.w3.org/2000/svg">
<path fill-rule="evenodd" clip-rule="evenodd" d="M0.878662 22.4C0.878662 14.5593 0.878662 10.6389 2.40457 7.64413C3.7468 5.00986 5.88853 2.86814 8.52279 1.52591C11.5176 0 15.4379 0 23.2787 0H163.479C171.319 0 175.24 0 178.235 1.52591C180.869 2.86814 183.011 5.00986 184.353 7.64413C185.879 10.6389 185.879 14.5593 185.879 22.4V35.6C185.879 43.4407 185.879 47.3611 184.353 50.3559C183.011 52.9901 180.869 55.1319 178.235 56.4741C175.24 58 171.319 58 163.479 58H23.2787C15.4379 58 11.5176 58 8.52279 56.4741C5.88853 55.1319 3.7468 52.9901 2.40457 50.3559C0.878662 47.3611 0.878662 43.4407 0.878662 35.6V22.4Z" fill="#C367E6"/>
</svg>
