<svg width="186" height="59" viewBox="0 0 186 59" fill="none" xmlns="http://www.w3.org/2000/svg">
<path fill-rule="evenodd" clip-rule="evenodd" d="M0.375 22.9641C0.375 15.1234 0.375 11.203 1.90091 8.20822C3.24314 5.57395 5.38486 3.43222 8.01913 2.09C11.0139 0.564087 14.9343 0.564087 22.775 0.564087H162.975C170.816 0.564087 174.736 0.564087 177.731 2.09C180.365 3.43222 182.507 5.57395 183.849 8.20822C185.375 11.203 185.375 15.1234 185.375 22.9641V36.1641C185.375 44.0048 185.375 47.9252 183.849 50.92C182.507 53.5542 180.365 55.6959 177.731 57.0382C174.736 58.5641 170.816 58.5641 162.975 58.5641H22.775C14.9343 58.5641 11.0139 58.5641 8.01913 57.0382C5.38486 55.6959 3.24314 53.5542 1.90091 50.92C0.375 47.9252 0.375 44.0048 0.375 36.1641V22.9641Z" fill="#C367E6"/>
</svg>
