<svg width="88" height="88" viewBox="0 0 88 88" fill="none" xmlns="http://www.w3.org/2000/svg">
<path d="M86.0102 32.1877C86.1826 32.1878 86.3533 32.1539 86.5126 32.0879C86.6718 32.022 86.8166 31.9253 86.9385 31.8035C87.0604 31.6816 87.1571 31.5369 87.2231 31.3777C87.2891 31.2184 87.3231 31.0477 87.3231 30.8754V25.6241C87.3219 24.5799 86.9065 23.5789 86.1682 22.8405C85.4298 22.1022 84.4288 21.6868 83.3846 21.6856H78.5409L77.22 16.9231C77.1264 16.5886 76.9043 16.3047 76.6022 16.1333C76.3 15.962 75.9424 15.9171 75.6072 16.0084C75.2751 16.1017 74.9278 16.1283 74.5853 16.0869C74.2428 16.0454 73.9119 15.9366 73.6116 15.7667C73.3114 15.5968 73.0476 15.3692 72.8357 15.0971C72.6237 14.8249 72.4676 14.5135 72.3765 14.1807C72.2826 13.8506 72.2558 13.5051 72.2977 13.1645C72.3395 12.8239 72.4492 12.4951 72.6202 12.1975C72.7884 11.8954 73.015 11.6297 73.2868 11.4158C73.5586 11.202 73.8702 11.0443 74.2035 10.952C74.3717 10.9054 74.529 10.8257 74.6661 10.7177C74.8033 10.6097 74.9175 10.4754 75.0022 10.3228C75.087 10.1702 75.1404 10.0022 75.1595 9.82867C75.1787 9.65515 75.163 9.47956 75.1136 9.31213L73.5961 4.20543C73.4463 3.701 73.1969 3.2317 72.8627 2.82524C72.5285 2.41878 72.1163 2.0834 71.6503 1.83889C71.1844 1.59439 70.6742 1.44571 70.1498 1.40165C69.6255 1.35759 69.0976 1.41903 68.5974 1.58235L7.03156 21.6856H4.61545C3.57126 21.6868 2.57019 22.1022 1.83184 22.8405C1.09349 23.5789 0.67815 24.5799 0.676941 25.6241V30.8754C0.676897 31.0478 0.710825 31.2185 0.776789 31.3778C0.842752 31.5371 0.939457 31.6819 1.06138 31.8038C1.1833 31.9257 1.32805 32.0224 1.48736 32.0884C1.64667 32.1544 1.81741 32.1883 1.98983 32.1882C2.68619 32.1882 3.35403 32.4649 3.84642 32.9573C4.33882 33.4497 4.61545 34.1175 4.61545 34.8139C4.61545 35.5102 4.33882 36.1781 3.84642 36.6704C3.35403 37.1628 2.68619 37.4395 1.98983 37.4395C1.81741 37.4394 1.64667 37.4734 1.48736 37.5393C1.32805 37.6053 1.1833 37.702 1.06138 37.8239C0.939457 37.9458 0.842752 38.0906 0.776789 38.2499C0.710825 38.4092 0.676897 38.5799 0.676941 38.7524V49.2548C0.676897 49.4272 0.710825 49.598 0.776789 49.7573C0.842752 49.9166 0.939457 50.0614 1.06138 50.1833C1.1833 50.3052 1.32805 50.4019 1.48736 50.4679C1.64667 50.5338 1.81741 50.5678 1.98983 50.5677C2.68619 50.5677 3.35403 50.8443 3.84642 51.3367C4.33882 51.8291 4.61545 52.497 4.61545 53.1933C4.61545 53.8897 4.33882 54.5575 3.84642 55.0499C3.35403 55.5423 2.68619 55.8189 1.98983 55.8189C1.81737 55.8189 1.64658 55.8529 1.48724 55.9188C1.3279 55.9848 1.18313 56.0816 1.0612 56.2036C0.939271 56.3255 0.842576 56.4704 0.776643 56.6297C0.710709 56.7891 0.67683 56.9599 0.676941 57.1324V62.3836C0.678285 63.4277 1.09368 64.4286 1.83202 65.1669C2.57036 65.9051 3.57135 66.3204 4.61545 66.3216H7.03156L68.5732 86.4171C69.0763 86.5813 69.6074 86.6425 70.1347 86.597C70.662 86.5514 71.1747 86.4001 71.6423 86.152C72.1098 85.904 72.5225 85.5643 72.8559 85.1532C73.1892 84.7421 73.4363 84.268 73.5824 83.7593L74.9978 78.8272C75.0457 78.6604 75.06 78.4857 75.04 78.3133C75.0199 78.1409 74.9659 77.9742 74.881 77.8228C74.7961 77.6714 74.6821 77.5383 74.5454 77.4312C74.4088 77.3242 74.2523 77.2453 74.085 77.1991C73.5881 77.0578 73.1438 76.7733 72.8077 76.381C72.4716 75.9886 72.2586 75.506 72.1953 74.9933C72.1319 74.4806 72.2211 73.9606 72.4516 73.4983C72.6821 73.036 73.0438 72.6519 73.4914 72.3939C74.1018 72.0489 74.8238 71.9588 75.5003 72.1433C75.8351 72.2359 76.1931 72.1919 76.4955 72.0209C76.7979 71.8498 77.0201 71.5658 77.1132 71.2311L78.486 66.3216H83.3849C84.4291 66.3203 85.43 65.9049 86.1683 65.1666C86.9066 64.4282 87.3219 63.4272 87.3231 62.3831V57.1324C87.3231 56.9599 87.2892 56.7892 87.2232 56.6299C87.1573 56.4706 87.0606 56.3258 86.9387 56.2039C86.8167 56.082 86.672 55.9853 86.5127 55.9193C86.3534 55.8533 86.1826 55.8194 86.0102 55.8195C85.3139 55.8195 84.646 55.5428 84.1536 55.0504C83.6612 54.558 83.3846 53.8902 83.3846 53.1938C83.3846 52.4975 83.6612 51.8296 84.1536 51.3372C84.646 50.8449 85.3139 50.5682 86.0102 50.5682C86.1827 50.5683 86.3535 50.5343 86.5128 50.4683C86.6721 50.4023 86.8169 50.3056 86.9388 50.1836C87.0608 50.0616 87.1575 49.9168 87.2234 49.7575C87.2893 49.5981 87.3232 49.4273 87.3231 49.2548V38.7524C87.3231 38.5799 87.2892 38.4092 87.2232 38.2499C87.1573 38.0906 87.0606 37.9458 86.9387 37.8239C86.8167 37.702 86.672 37.6053 86.5127 37.5393C86.3534 37.4734 86.1826 37.4394 86.0102 37.4395C85.3139 37.4395 84.646 37.1628 84.1536 36.6704C83.6612 36.1781 83.3846 35.5102 83.3846 34.8139C83.3846 34.1175 83.6612 33.4497 84.1536 32.9573C84.646 32.4649 85.3139 32.1882 86.0102 32.1882V32.1877ZM69.4129 4.0785C69.5796 4.02393 69.7555 4.00335 69.9303 4.01799C70.1051 4.03262 70.2751 4.08217 70.4304 4.1637C70.5857 4.24523 70.7231 4.35709 70.8343 4.49265C70.9456 4.62821 71.0286 4.78472 71.0783 4.95292L72.2629 8.94135C71.4597 9.41097 70.7956 10.0854 70.3384 10.8958C69.9951 11.4932 69.7745 12.1532 69.6898 12.8371C69.605 13.5209 69.6578 14.2148 69.8449 14.878C70.0275 15.5428 70.3394 16.1651 70.7628 16.7092C71.1862 17.2533 71.7128 17.7086 72.3123 18.049C73.1279 18.5166 74.0558 18.7525 74.9957 18.7312L75.8154 21.6856H15.4911L69.4129 4.0785ZM74.8923 69.4241C73.9509 69.411 73.0227 69.6465 72.2015 70.1068C71.396 70.5613 70.725 71.2208 70.2566 72.0183C69.7882 72.8158 69.539 73.723 69.5344 74.6479C69.5297 75.5727 69.7696 76.4824 70.2299 77.2846C70.6902 78.0869 71.3544 78.7531 72.1553 79.2158L71.0592 83.035C71.0105 83.2047 70.9282 83.3628 70.817 83.4999C70.7059 83.6371 70.5682 83.7504 70.4123 83.8331C70.2563 83.9158 70.0853 83.9662 69.9094 83.9813C69.7336 83.9964 69.5564 83.9758 69.3887 83.9209L15.4911 66.3216H75.759L74.8923 69.4241ZM82.2988 38.5254C82.9604 39.1908 83.789 39.6657 84.6975 39.9004V48.1068C83.5712 48.3995 82.574 49.0578 81.8622 49.9784C81.1503 50.8989 80.7642 52.0297 80.7642 53.1933C80.7642 54.357 81.1503 55.4878 81.8622 56.4083C82.574 57.3289 83.5712 57.9871 84.6975 58.2799V62.3831C84.6971 62.7312 84.5587 63.0649 84.3125 63.311C84.0664 63.5571 83.7327 63.6955 83.3846 63.6958H72.8821C72.8782 63.3502 72.7382 63.0201 72.4924 62.7771C72.2466 62.5341 71.9149 62.3978 71.5693 62.3978C71.2237 62.3978 70.892 62.5341 70.6462 62.7771C70.4005 63.0201 70.2604 63.3502 70.2565 63.6958H17.7442C17.7403 63.3502 17.6002 63.0201 17.3545 62.7771C17.1087 62.5341 16.777 62.3978 16.4314 62.3978C16.0858 62.3978 15.7541 62.5341 15.5083 62.7771C15.2626 63.0201 15.1225 63.3502 15.1186 63.6958H4.61545C4.26737 63.6955 3.93364 63.5571 3.6875 63.311C3.44136 63.0649 3.30292 62.7312 3.30256 62.3831V58.2799C4.21105 58.0452 5.0396 57.5702 5.70123 56.9049C6.18934 56.4179 6.57659 55.8394 6.84081 55.2025C7.10504 54.5656 7.24104 53.8829 7.24104 53.1933C7.24104 52.5038 7.10504 51.8211 6.84081 51.1842C6.57659 50.5473 6.18934 49.9688 5.70123 49.4818C5.03969 48.8163 4.2111 48.3413 3.30256 48.1068V39.9004C4.21105 39.6657 5.0396 39.1908 5.70123 38.5254C6.18934 38.0384 6.57659 37.4599 6.84081 36.823C7.10504 36.1861 7.24104 35.5034 7.24104 34.8139C7.24104 34.1243 7.10504 33.4416 6.84081 32.8047C6.57659 32.1678 6.18934 31.5893 5.70123 31.1023C5.03969 30.4368 4.2111 29.9619 3.30256 29.7273V25.6241C3.30287 25.276 3.44129 24.9423 3.68744 24.6961C3.93359 24.45 4.26734 24.3115 4.61545 24.3112H15.1179C15.1159 24.4849 15.1484 24.6572 15.2135 24.8182C15.2786 24.9792 15.375 25.1257 15.4971 25.2492C15.6192 25.3727 15.7646 25.4707 15.9249 25.5377C16.0851 25.6046 16.2571 25.639 16.4307 25.639C16.6044 25.639 16.7763 25.6046 16.9366 25.5377C17.0968 25.4707 17.2422 25.3727 17.3643 25.2492C17.4864 25.1257 17.5828 24.9792 17.6479 24.8182C17.713 24.6572 17.7455 24.4849 17.7435 24.3112H70.2558C70.2539 24.4849 70.2864 24.6572 70.3515 24.8182C70.4165 24.9792 70.5129 25.1257 70.635 25.2492C70.7571 25.3727 70.9025 25.4707 71.0628 25.5377C71.223 25.6046 71.395 25.639 71.5686 25.639C71.7423 25.639 71.9142 25.6046 72.0745 25.5377C72.2348 25.4707 72.3801 25.3727 72.5023 25.2492C72.6244 25.1257 72.7207 24.9792 72.7858 24.8182C72.8509 24.6572 72.8834 24.4849 72.8814 24.3112H83.3839C83.732 24.3115 84.0658 24.45 84.3119 24.6961C84.5581 24.9423 84.6965 25.276 84.6968 25.6241V29.7273C83.8002 29.9586 82.9807 30.4229 82.3214 31.0732C81.6622 31.7235 81.1867 32.5366 80.9431 33.4299C80.6995 34.3233 80.6966 35.2652 80.9346 36.1601C81.1725 37.055 81.643 37.871 82.2981 38.5254H82.2988Z" fill="url(#paint0_linear_118_803)"/>
<path d="M24.3076 36.1266C24.3076 36.4748 24.446 36.8087 24.6922 37.0549C24.9384 37.3011 25.2723 37.4395 25.6205 37.4395C25.9687 37.4395 26.3027 37.3011 26.5489 37.0549C26.7951 36.8087 26.9334 36.4748 26.9334 36.1266V30.8753H28.2461C28.4198 30.8773 28.5921 30.8448 28.7531 30.7797C28.9141 30.7146 29.0606 30.6182 29.1841 30.4961C29.3076 30.374 29.4057 30.2286 29.4726 30.0684C29.5395 29.9081 29.5739 29.7362 29.5739 29.5625C29.5739 29.3889 29.5395 29.2169 29.4726 29.0567C29.4057 28.8964 29.3076 28.751 29.1841 28.6289C29.0606 28.5068 28.9141 28.4104 28.7531 28.3453C28.5921 28.2802 28.4198 28.2477 28.2461 28.2497H22.9949C22.8213 28.2477 22.6489 28.2802 22.4879 28.3453C22.3269 28.4104 22.1804 28.5068 22.0569 28.6289C21.9334 28.751 21.8354 28.8964 21.7685 29.0567C21.7016 29.2169 21.6671 29.3889 21.6671 29.5625C21.6671 29.7362 21.7016 29.9081 21.7685 30.0684C21.8354 30.2286 21.9334 30.374 22.0569 30.4961C22.1804 30.6182 22.3269 30.7146 22.4879 30.7797C22.6489 30.8448 22.8213 30.8773 22.9949 30.8753H24.3076V36.1266Z" fill="url(#paint1_linear_118_803)"/>
<path d="M65.0051 28.2497H59.7538C59.5802 28.2477 59.4078 28.2802 59.2468 28.3453C59.0858 28.4104 58.9393 28.5068 58.8158 28.6289C58.6924 28.751 58.5943 28.8964 58.5274 29.0567C58.4605 29.2169 58.426 29.3889 58.426 29.5625C58.426 29.7362 58.4605 29.9081 58.5274 30.0684C58.5943 30.2286 58.6924 30.374 58.8158 30.4961C58.9393 30.6182 59.0858 30.7146 59.2468 30.7797C59.4078 30.8448 59.5802 30.8773 59.7538 30.8753H61.0665V36.1266C61.0665 36.4748 61.2049 36.8087 61.4511 37.0549C61.6973 37.3011 62.0312 37.4395 62.3794 37.4395C62.7276 37.4395 63.0616 37.3011 63.3078 37.0549C63.554 36.8087 63.6923 36.4748 63.6923 36.1266V30.8753H65.0051C65.1787 30.8773 65.351 30.8448 65.512 30.7797C65.673 30.7146 65.8195 30.6182 65.943 30.4961C66.0665 30.374 66.1646 30.2286 66.2315 30.0684C66.2984 29.9081 66.3328 29.7362 66.3328 29.5625C66.3328 29.3889 66.2984 29.2169 66.2315 29.0567C66.1646 28.8964 66.0665 28.751 65.943 28.6289C65.8195 28.5068 65.673 28.4104 65.512 28.3453C65.351 28.2802 65.1787 28.2477 65.0051 28.2497Z" fill="url(#paint2_linear_118_803)"/>
<path d="M32.1847 37.4394C32.3571 37.4395 32.5278 37.4056 32.6871 37.3396C32.8464 37.2736 32.9912 37.1769 33.1131 37.055C33.235 36.9331 33.3317 36.7883 33.3976 36.629C33.4636 36.4697 33.4975 36.299 33.4974 36.1266V29.5626C33.4994 29.3889 33.4669 29.2166 33.4018 29.0556C33.3367 28.8946 33.2403 28.7481 33.1182 28.6246C32.9961 28.5011 32.8507 28.4031 32.6905 28.3362C32.5302 28.2693 32.3583 28.2348 32.1846 28.2348C32.0109 28.2348 31.839 28.2693 31.6787 28.3362C31.5185 28.4031 31.3731 28.5011 31.251 28.6246C31.1289 28.7481 31.0325 28.8946 30.9674 29.0556C30.9023 29.2166 30.8698 29.3889 30.8718 29.5626V36.1266C30.8717 36.299 30.9057 36.4697 30.9716 36.629C31.0376 36.7883 31.1343 36.9331 31.2562 37.055C31.3781 37.1769 31.5229 37.2736 31.6822 37.3396C31.8415 37.4056 32.0123 37.4395 32.1847 37.4394Z" fill="url(#paint3_linear_118_803)"/>
<path d="M38.7488 37.4394H40.0615C40.2352 37.4414 40.4075 37.4089 40.5685 37.3438C40.7295 37.2787 40.876 37.1823 40.9995 37.0602C41.123 36.9381 41.221 36.7927 41.2879 36.6325C41.3549 36.4722 41.3893 36.3003 41.3893 36.1266C41.3893 35.9529 41.3549 35.781 41.2879 35.6207C41.221 35.4605 41.123 35.3151 40.9995 35.193C40.876 35.0709 40.7295 34.9745 40.5685 34.9094C40.4075 34.8443 40.2352 34.8118 40.0615 34.8138H38.7488C38.4007 34.8135 38.0669 34.6751 37.8208 34.4289C37.5746 34.1828 37.4362 33.849 37.4359 33.5009V32.1877C37.4362 31.8396 37.5746 31.5058 37.8208 31.2597C38.0669 31.0135 38.4007 30.8751 38.7488 30.8748H40.0615C40.2352 30.8768 40.4075 30.8443 40.5685 30.7792C40.7295 30.7141 40.876 30.6177 40.9995 30.4956C41.123 30.3735 41.221 30.2281 41.2879 30.0678C41.3549 29.9076 41.3893 29.7356 41.3893 29.562C41.3893 29.3883 41.3549 29.2164 41.2879 29.0561C41.221 28.8959 41.123 28.7505 40.9995 28.6284C40.876 28.5063 40.7295 28.4099 40.5685 28.3448C40.4075 28.2797 40.2352 28.2472 40.0615 28.2492H38.7488C37.7047 28.2505 36.7038 28.6659 35.9655 29.4042C35.2273 30.1426 34.812 31.1436 34.8108 32.1877V33.5004C34.8119 34.5446 35.2271 35.5457 35.9653 36.2842C36.7036 37.0226 37.7046 37.4381 38.7488 37.4394Z" fill="url(#paint4_linear_118_803)"/>
<path d="M43.9961 37.4395H44C44.3476 37.4394 44.681 37.3015 44.9272 37.056C45.1733 36.8105 45.312 36.4774 45.3129 36.1298L45.3141 35.6422L47.0961 37.1337C47.3637 37.3522 47.7066 37.4564 48.0506 37.4237C48.3945 37.391 48.7117 37.2241 48.9334 36.9591C49.1551 36.6941 49.2634 36.3524 49.2348 36.0081C49.2062 35.6638 49.0431 35.3446 48.7808 35.1198L46.0526 32.8371L48.7264 30.5628C48.8591 30.4515 48.9685 30.3152 49.0482 30.1615C49.128 30.0079 49.1765 29.8399 49.1911 29.6674C49.2057 29.4949 49.186 29.3212 49.1332 29.1564C49.0804 28.9915 48.9954 28.8387 48.8833 28.7068C48.7712 28.5749 48.6341 28.4665 48.4799 28.3878C48.3257 28.3091 48.1574 28.2617 47.9848 28.2483C47.8122 28.2349 47.6387 28.2557 47.4742 28.3097C47.3097 28.3636 47.1575 28.4496 47.0263 28.5626L45.3278 30.0068L45.329 29.5658C45.3298 29.2178 45.1923 28.8836 44.9469 28.6369C44.7014 28.3901 44.368 28.2509 44.02 28.2499H44.0169C43.6693 28.2499 43.3359 28.3878 43.0898 28.6333C42.8437 28.8789 42.705 29.2119 42.7042 29.5596L42.6873 36.1235C42.6865 36.4715 42.824 36.8056 43.0694 37.0523C43.3148 37.299 43.6481 37.4383 43.9961 37.4395Z" fill="url(#paint5_linear_118_803)"/>
<path d="M51.8768 37.4395H55.8153C55.989 37.4414 56.1613 37.4089 56.3223 37.3438C56.4833 37.2787 56.6298 37.1824 56.7533 37.0603C56.8768 36.9382 56.9748 36.7928 57.0417 36.6325C57.1087 36.4723 57.1431 36.3003 57.1431 36.1266C57.1431 35.953 57.1087 35.781 57.0417 35.6208C56.9748 35.4605 56.8768 35.3151 56.7533 35.193C56.6298 35.0709 56.4833 34.9746 56.3223 34.9095C56.1613 34.8444 55.989 34.8119 55.8153 34.8138H53.1892V34.1574H53.8456C54.1912 34.1535 54.5213 34.0134 54.7643 33.7677C55.0073 33.5219 55.1436 33.1902 55.1436 32.8446C55.1436 32.499 55.0073 32.1673 54.7643 31.9215C54.5213 31.6757 54.1912 31.5357 53.8456 31.5318H53.1892V30.8753H55.8148C55.9885 30.8773 56.1608 30.8448 56.3218 30.7797C56.4828 30.7146 56.6293 30.6182 56.7528 30.4961C56.8763 30.374 56.9743 30.2286 57.0412 30.0684C57.1082 29.9081 57.1426 29.7362 57.1426 29.5625C57.1426 29.3889 57.1082 29.2169 57.0412 29.0567C56.9743 28.8964 56.8763 28.751 56.7528 28.6289C56.6293 28.5068 56.4828 28.4104 56.3218 28.3453C56.1608 28.2802 55.9885 28.2477 55.8148 28.2497H51.8768C51.7044 28.2497 51.5337 28.2836 51.3744 28.3496C51.2151 28.4155 51.0703 28.5122 50.9484 28.6342C50.8265 28.7561 50.7298 28.9008 50.6639 29.0601C50.5979 29.2195 50.564 29.3902 50.5641 29.5626V36.1266C50.564 36.299 50.598 36.4697 50.6639 36.629C50.7299 36.7883 50.8266 36.933 50.9485 37.055C51.0704 37.1769 51.2151 37.2736 51.3744 37.3396C51.5337 37.4055 51.7044 37.4395 51.8768 37.4395Z" fill="url(#paint6_linear_118_803)"/>
<path d="M63.6924 40.0651H25.6205C25.4481 40.065 25.2773 40.0989 25.118 40.1649C24.9587 40.2309 24.814 40.3276 24.6921 40.4495C24.5701 40.5714 24.4734 40.7162 24.4075 40.8755C24.3415 41.0348 24.3076 41.2055 24.3076 41.378V47.9421C24.3076 48.1145 24.3415 48.2852 24.4075 48.4445C24.4734 48.6038 24.5701 48.7486 24.6921 48.8705C24.814 48.9924 24.9587 49.0891 25.118 49.155C25.2774 49.221 25.4481 49.2549 25.6205 49.2548H63.6924C63.8648 49.2548 64.0355 49.2209 64.1948 49.155C64.354 49.089 64.4988 48.9923 64.6207 48.8704C64.7426 48.7485 64.8393 48.6038 64.9052 48.4445C64.9712 48.2852 65.0051 48.1145 65.0051 47.9421V41.378C65.0051 41.2055 64.9712 41.0348 64.9053 40.8755C64.8393 40.7162 64.7427 40.5714 64.6208 40.4495C64.4988 40.3276 64.3541 40.2309 64.1948 40.1649C64.0355 40.0989 63.8648 40.065 63.6924 40.0651ZM62.3795 46.6292H26.9334V42.6907H62.3795V46.6292Z" fill="url(#paint7_linear_118_803)"/>
<path d="M55.8153 51.8804H32.1846C32.011 51.8784 31.8386 51.9109 31.6776 51.976C31.5166 52.0411 31.3701 52.1375 31.2466 52.2596C31.1231 52.3817 31.0251 52.5271 30.9582 52.6873C30.8913 52.8476 30.8568 53.0195 30.8568 53.1932C30.8568 53.3669 30.8913 53.5388 30.9582 53.6991C31.0251 53.8593 31.1231 54.0047 31.2466 54.1268C31.3701 54.2489 31.5166 54.3453 31.6776 54.4104C31.8386 54.4755 32.011 54.508 32.1846 54.506H55.8153C55.989 54.508 56.1613 54.4755 56.3223 54.4104C56.4833 54.3453 56.6298 54.2489 56.7533 54.1268C56.8768 54.0047 56.9748 53.8593 57.0417 53.6991C57.1087 53.5388 57.1431 53.3669 57.1431 53.1932C57.1431 53.0195 57.1087 52.8476 57.0417 52.6873C56.9748 52.5271 56.8768 52.3817 56.7533 52.2596C56.6298 52.1375 56.4833 52.0411 56.3223 51.976C56.1613 51.9109 55.989 51.8784 55.8153 51.8804Z" fill="url(#paint8_linear_118_803)"/>
<path d="M53.036 57.1323H34.9642C34.7905 57.1303 34.6182 57.1628 34.4572 57.2279C34.2962 57.293 34.1497 57.3894 34.0262 57.5115C33.9027 57.6336 33.8046 57.779 33.7377 57.9392C33.6708 58.0995 33.6364 58.2714 33.6364 58.4451C33.6364 58.6188 33.6708 58.7907 33.7377 58.951C33.8046 59.1112 33.9027 59.2566 34.0262 59.3787C34.1497 59.5008 34.2962 59.5972 34.4572 59.6623C34.6182 59.7274 34.7905 59.7599 34.9642 59.7579H53.036C53.2096 59.7599 53.3819 59.7274 53.5429 59.6623C53.704 59.5972 53.8504 59.5008 53.9739 59.3787C54.0974 59.2566 54.1955 59.1112 54.2624 58.951C54.3293 58.7907 54.3638 58.6188 54.3638 58.4451C54.3638 58.2714 54.3293 58.0995 54.2624 57.9392C54.1955 57.779 54.0974 57.6336 53.9739 57.5115C53.8504 57.3894 53.704 57.293 53.5429 57.2279C53.3819 57.1628 53.2096 57.1303 53.036 57.1323Z" fill="url(#paint9_linear_118_803)"/>
<path d="M16.4308 28.2458C16.2584 28.2457 16.0876 28.2797 15.9283 28.3456C15.769 28.4116 15.6242 28.5083 15.5023 28.6302C15.3804 28.7521 15.2837 28.8969 15.2177 29.0562C15.1518 29.2155 15.1178 29.3863 15.1179 29.5587V32.4471C15.1159 32.6208 15.1484 32.7931 15.2135 32.9541C15.2786 33.1151 15.375 33.2616 15.4971 33.3851C15.6192 33.5086 15.7646 33.6066 15.9248 33.6735C16.0851 33.7405 16.257 33.7749 16.4307 33.7749C16.6044 33.7749 16.7763 33.7405 16.9366 33.6735C17.0968 33.6066 17.2422 33.5086 17.3643 33.3851C17.4864 33.2616 17.5828 33.1151 17.6479 32.9541C17.713 32.7931 17.7455 32.6208 17.7435 32.4471V29.5587C17.7436 29.3863 17.7097 29.2155 17.6437 29.0562C17.5778 28.8969 17.4811 28.7522 17.3592 28.6302C17.2373 28.5083 17.0925 28.4116 16.9332 28.3456C16.7739 28.2797 16.6032 28.2457 16.4308 28.2458Z" fill="url(#paint10_linear_118_803)"/>
<path d="M16.4308 36.9106C16.2584 36.9105 16.0876 36.9445 15.9283 37.0104C15.769 37.0764 15.6242 37.1731 15.5023 37.295C15.3804 37.4169 15.2837 37.5617 15.2177 37.721C15.1518 37.8803 15.1178 38.0511 15.1179 38.2235V41.1112C15.1159 41.2849 15.1484 41.4572 15.2135 41.6182C15.2786 41.7792 15.375 41.9257 15.4971 42.0492C15.6192 42.1727 15.7646 42.2707 15.9248 42.3377C16.0851 42.4046 16.257 42.439 16.4307 42.439C16.6044 42.439 16.7763 42.4046 16.9366 42.3377C17.0968 42.2707 17.2422 42.1727 17.3643 42.0492C17.4864 41.9257 17.5828 41.7792 17.6479 41.6182C17.713 41.4572 17.7455 41.2849 17.7435 41.1112V38.2235C17.7436 38.0511 17.7097 37.8803 17.6437 37.721C17.5778 37.5617 17.4811 37.417 17.3592 37.295C17.2373 37.1731 17.0925 37.0764 16.9332 37.0104C16.7739 36.9445 16.6032 36.9105 16.4308 36.9106Z" fill="url(#paint11_linear_118_803)"/>
<path d="M16.4308 45.5754C16.2584 45.5753 16.0877 45.6092 15.9284 45.6752C15.769 45.7411 15.6243 45.8378 15.5024 45.9597C15.3804 46.0816 15.2837 46.2264 15.2178 46.3857C15.1518 46.545 15.1179 46.7157 15.1179 46.8881V49.776C15.1218 50.1216 15.2619 50.4517 15.5077 50.6947C15.7534 50.9377 16.0851 51.074 16.4307 51.074C16.7763 51.074 17.108 50.9377 17.3538 50.6947C17.5996 50.4517 17.7396 50.1216 17.7435 49.776V46.8881C17.7436 46.7157 17.7097 46.545 17.6437 46.3857C17.5777 46.2264 17.4811 46.0817 17.3591 45.9598C17.2372 45.8379 17.0925 45.7412 16.9332 45.6752C16.7739 45.6093 16.6032 45.5753 16.4308 45.5754Z" fill="url(#paint12_linear_118_803)"/>
<path d="M16.4308 54.2395C16.2584 54.2394 16.0876 54.2733 15.9283 54.3393C15.769 54.4052 15.6243 54.5019 15.5023 54.6238C15.3804 54.7457 15.2837 54.8905 15.2177 55.0498C15.1518 55.2091 15.1178 55.3798 15.1179 55.5522V58.4407C15.1159 58.6143 15.1484 58.7866 15.2135 58.9476C15.2786 59.1086 15.375 59.2551 15.4971 59.3786C15.6192 59.5021 15.7646 59.6002 15.9248 59.6671C16.0851 59.734 16.257 59.7684 16.4307 59.7684C16.6044 59.7684 16.7763 59.734 16.9366 59.6671C17.0968 59.6002 17.2422 59.5021 17.3643 59.3786C17.4864 59.2551 17.5828 59.1086 17.6479 58.9476C17.713 58.7866 17.7455 58.6143 17.7435 58.4407V55.5522C17.7435 55.3798 17.7096 55.2091 17.6437 55.0498C17.5777 54.8905 17.481 54.7458 17.3591 54.6239C17.2372 54.502 17.0925 54.4053 16.9332 54.3393C16.7739 54.2734 16.6032 54.2395 16.4308 54.2395Z" fill="url(#paint13_linear_118_803)"/>
<path d="M71.5693 28.2458C71.3969 28.2457 71.2261 28.2797 71.0668 28.3456C70.9075 28.4116 70.7628 28.5083 70.6409 28.6302C70.519 28.7522 70.4223 28.8969 70.3563 29.0562C70.2904 29.2155 70.2565 29.3863 70.2566 29.5587V32.4471C70.2546 32.6208 70.2871 32.7931 70.3522 32.9541C70.4173 33.1151 70.5136 33.2616 70.6357 33.3851C70.7578 33.5086 70.9032 33.6066 71.0635 33.6735C71.2238 33.7405 71.3957 33.7749 71.5694 33.7749C71.743 33.7749 71.915 33.7405 72.0752 33.6735C72.2355 33.6066 72.3809 33.5086 72.503 33.3851C72.6251 33.2616 72.7215 33.1151 72.7866 32.9541C72.8516 32.7931 72.8841 32.6208 72.8822 32.4471V29.5587C72.8822 29.3863 72.8483 29.2155 72.7823 29.0562C72.7164 28.8969 72.6197 28.7521 72.4977 28.6302C72.3758 28.5083 72.2311 28.4116 72.0718 28.3456C71.9124 28.2797 71.7417 28.2457 71.5693 28.2458Z" fill="url(#paint14_linear_118_803)"/>
<path d="M71.5693 36.9106C71.3969 36.9105 71.2261 36.9445 71.0668 37.0104C70.9075 37.0764 70.7628 37.1731 70.6409 37.295C70.519 37.417 70.4223 37.5617 70.3563 37.721C70.2904 37.8803 70.2565 38.0511 70.2566 38.2235V41.1112C70.2546 41.2849 70.2871 41.4572 70.3522 41.6182C70.4173 41.7792 70.5136 41.9257 70.6357 42.0492C70.7578 42.1727 70.9032 42.2707 71.0635 42.3377C71.2238 42.4046 71.3957 42.439 71.5694 42.439C71.743 42.439 71.915 42.4046 72.0752 42.3377C72.2355 42.2707 72.3809 42.1727 72.503 42.0492C72.6251 41.9257 72.7215 41.7792 72.7866 41.6182C72.8516 41.4572 72.8841 41.2849 72.8822 41.1112V38.2235C72.8822 38.0511 72.8483 37.8803 72.7823 37.721C72.7164 37.5617 72.6197 37.4169 72.4977 37.295C72.3758 37.1731 72.2311 37.0764 72.0718 37.0104C71.9124 36.9445 71.7417 36.9105 71.5693 36.9106Z" fill="url(#paint15_linear_118_803)"/>
<path d="M71.5692 45.5754C71.3968 45.5753 71.2261 45.6093 71.0668 45.6752C70.9075 45.7412 70.7628 45.8379 70.6409 45.9598C70.519 46.0817 70.4223 46.2264 70.3563 46.3857C70.2904 46.545 70.2564 46.7157 70.2565 46.8881V49.776C70.2604 50.1216 70.4004 50.4517 70.6462 50.6947C70.892 50.9377 71.2237 51.074 71.5693 51.074C71.9149 51.074 72.2466 50.9377 72.4923 50.6947C72.7381 50.4517 72.8782 50.1216 72.8821 49.776V46.8881C72.8821 46.7157 72.8482 46.545 72.7822 46.3857C72.7163 46.2264 72.6196 46.0816 72.4976 45.9597C72.3757 45.8378 72.231 45.7411 72.0717 45.6752C71.9123 45.6092 71.7416 45.5753 71.5692 45.5754Z" fill="url(#paint16_linear_118_803)"/>
<path d="M71.5693 54.2395C71.3969 54.2395 71.2262 54.2734 71.0669 54.3393C70.9076 54.4053 70.7629 54.502 70.6409 54.6239C70.519 54.7458 70.4223 54.8905 70.3564 55.0498C70.2904 55.2091 70.2565 55.3798 70.2566 55.5522V58.4407C70.2546 58.6143 70.2871 58.7866 70.3522 58.9476C70.4173 59.1086 70.5136 59.2551 70.6357 59.3786C70.7578 59.5021 70.9032 59.6002 71.0635 59.6671C71.2238 59.734 71.3957 59.7684 71.5694 59.7684C71.743 59.7684 71.915 59.734 72.0752 59.6671C72.2355 59.6002 72.3809 59.5021 72.503 59.3786C72.6251 59.2551 72.7215 59.1086 72.7866 58.9476C72.8516 58.7866 72.8841 58.6143 72.8822 58.4407V55.5522C72.8822 55.3798 72.8483 55.2091 72.7823 55.0498C72.7164 54.8905 72.6196 54.7457 72.4977 54.6238C72.3758 54.5019 72.231 54.4052 72.0717 54.3393C71.9124 54.2733 71.7417 54.2394 71.5693 54.2395Z" fill="url(#paint17_linear_118_803)"/>
<defs>
<linearGradient id="paint0_linear_118_803" x1="1.89862" y1="89.4586" x2="86.3999" y2="4.95749" gradientUnits="userSpaceOnUse">
<stop stop-color="#4158D0"/>
<stop offset="1" stop-color="#C850C0"/>
</linearGradient>
<linearGradient id="paint1_linear_118_803" x1="-15.2039" y1="72.3562" x2="69.2975" y2="-12.1451" gradientUnits="userSpaceOnUse">
<stop stop-color="#4158D0"/>
<stop offset="1" stop-color="#C850C0"/>
</linearGradient>
<linearGradient id="paint2_linear_118_803" x1="3.17561" y1="90.7356" x2="87.6769" y2="6.23437" gradientUnits="userSpaceOnUse">
<stop stop-color="#4158D0"/>
<stop offset="1" stop-color="#C850C0"/>
</linearGradient>
<linearGradient id="paint3_linear_118_803" x1="-11.2653" y1="76.2947" x2="73.2358" y2="-8.20665" gradientUnits="userSpaceOnUse">
<stop stop-color="#4158D0"/>
<stop offset="1" stop-color="#C850C0"/>
</linearGradient>
<linearGradient id="paint4_linear_118_803" x1="-7.92641" y1="79.6336" x2="76.5749" y2="-4.86759" gradientUnits="userSpaceOnUse">
<stop stop-color="#4158D0"/>
<stop offset="1" stop-color="#C850C0"/>
</linearGradient>
<linearGradient id="paint5_linear_118_803" x1="-4.36904" y1="83.191" x2="80.1323" y2="-1.31014" gradientUnits="userSpaceOnUse">
<stop stop-color="#4158D0"/>
<stop offset="1" stop-color="#C850C0"/>
</linearGradient>
<linearGradient id="paint6_linear_118_803" x1="-0.434644" y1="87.1254" x2="84.0665" y2="2.62409" gradientUnits="userSpaceOnUse">
<stop stop-color="#4158D0"/>
<stop offset="1" stop-color="#C850C0"/>
</linearGradient>
<linearGradient id="paint7_linear_118_803" x1="0.878127" y1="88.4381" x2="85.3794" y2="3.937" gradientUnits="userSpaceOnUse">
<stop stop-color="#4158D0"/>
<stop offset="1" stop-color="#C850C0"/>
</linearGradient>
<linearGradient id="paint8_linear_118_803" x1="4.8166" y1="92.3766" x2="89.3178" y2="7.87527" gradientUnits="userSpaceOnUse">
<stop stop-color="#4158D0"/>
<stop offset="1" stop-color="#C850C0"/>
</linearGradient>
<linearGradient id="paint9_linear_118_803" x1="7.44232" y1="95.0022" x2="91.9436" y2="10.5009" gradientUnits="userSpaceOnUse">
<stop stop-color="#4158D0"/>
<stop offset="1" stop-color="#C850C0"/>
</linearGradient>
<linearGradient id="paint10_linear_118_803" x1="-20.0632" y1="67.4968" x2="64.4381" y2="-17.0045" gradientUnits="userSpaceOnUse">
<stop stop-color="#4158D0"/>
<stop offset="1" stop-color="#C850C0"/>
</linearGradient>
<linearGradient id="paint11_linear_118_803" x1="-15.731" y1="71.829" x2="68.7703" y2="-12.6722" gradientUnits="userSpaceOnUse">
<stop stop-color="#4158D0"/>
<stop offset="1" stop-color="#C850C0"/>
</linearGradient>
<linearGradient id="paint12_linear_118_803" x1="-11.3985" y1="76.1615" x2="73.1027" y2="-8.33983" gradientUnits="userSpaceOnUse">
<stop stop-color="#4158D0"/>
<stop offset="1" stop-color="#C850C0"/>
</linearGradient>
<linearGradient id="paint13_linear_118_803" x1="-7.06641" y1="80.4936" x2="77.4348" y2="-4.00755" gradientUnits="userSpaceOnUse">
<stop stop-color="#4158D0"/>
<stop offset="1" stop-color="#C850C0"/>
</linearGradient>
<linearGradient id="paint14_linear_118_803" x1="7.50619" y1="95.066" x2="92.0075" y2="10.5648" gradientUnits="userSpaceOnUse">
<stop stop-color="#4158D0"/>
<stop offset="1" stop-color="#C850C0"/>
</linearGradient>
<linearGradient id="paint15_linear_118_803" x1="11.8383" y1="99.3982" x2="96.3396" y2="14.8971" gradientUnits="userSpaceOnUse">
<stop stop-color="#4158D0"/>
<stop offset="1" stop-color="#C850C0"/>
</linearGradient>
<linearGradient id="paint16_linear_118_803" x1="16.1707" y1="103.731" x2="100.672" y2="19.2295" gradientUnits="userSpaceOnUse">
<stop stop-color="#4158D0"/>
<stop offset="1" stop-color="#C850C0"/>
</linearGradient>
<linearGradient id="paint17_linear_118_803" x1="20.5029" y1="108.063" x2="105.004" y2="23.5617" gradientUnits="userSpaceOnUse">
<stop stop-color="#4158D0"/>
<stop offset="1" stop-color="#C850C0"/>
</linearGradient>
</defs>
</svg>
