<svg width="89" height="89" viewBox="0 0 89 89" fill="none" xmlns="http://www.w3.org/2000/svg">
<path d="M86.5102 32.4875C86.6826 32.4875 86.8533 32.4536 87.0126 32.3877C87.1718 32.3217 87.3166 32.2251 87.4385 32.1032C87.5604 31.9813 87.6571 31.8367 87.7231 31.6774C87.7891 31.5182 87.8231 31.3475 87.8231 31.1751V25.9239C87.8219 24.8797 87.4065 23.8786 86.6682 23.1403C85.9298 22.4019 84.9288 21.9866 83.8846 21.9854H79.0409L77.72 17.2229C77.6264 16.8883 77.4043 16.6044 77.1022 16.4331C76.8 16.2617 76.4424 16.2168 76.1072 16.3082C75.7751 16.4014 75.4278 16.4281 75.0853 16.3866C74.7428 16.3451 74.4119 16.2363 74.1116 16.0664C73.8114 15.8966 73.5476 15.669 73.3357 15.3968C73.1237 15.1246 72.9676 14.8132 72.8765 14.4805C72.7826 14.1504 72.7558 13.8048 72.7977 13.4642C72.8395 13.1236 72.9492 12.7948 73.1202 12.4973C73.2884 12.1951 73.515 11.9294 73.7868 11.7156C74.0586 11.5018 74.3702 11.3441 74.7035 11.2517C74.8717 11.2051 75.029 11.1255 75.1661 11.0175C75.3033 10.9094 75.4175 10.7752 75.5022 10.6226C75.587 10.4699 75.6404 10.3019 75.6595 10.1284C75.6787 9.95489 75.663 9.7793 75.6136 9.61188L74.0961 4.50517C73.9463 4.00074 73.6969 3.53145 73.3627 3.12499C73.0285 2.71853 72.6163 2.38314 72.1503 2.13864C71.6844 1.89413 71.1742 1.74546 70.6498 1.7014C70.1255 1.65733 69.5976 1.71877 69.0974 1.88209L7.53156 21.9854H5.11545C4.07126 21.9866 3.07019 22.4019 2.33184 23.1403C1.59349 23.8786 1.17815 24.8797 1.17694 25.9239V31.1751C1.1769 31.3475 1.21083 31.5183 1.27679 31.6776C1.34275 31.8369 1.43946 31.9816 1.56138 32.1035C1.6833 32.2255 1.82805 32.3222 1.98736 32.3881C2.14667 32.4541 2.31741 32.488 2.48983 32.488C3.18619 32.488 3.85403 32.7646 4.34642 33.257C4.83882 33.7494 5.11545 34.4172 5.11545 35.1136C5.11545 35.81 4.83882 36.4778 4.34642 36.9702C3.85403 37.4626 3.18619 37.7392 2.48983 37.7392C2.31741 37.7392 2.14667 37.7731 1.98736 37.8391C1.82805 37.905 1.6833 38.0017 1.56138 38.1237C1.43946 38.2456 1.34275 38.3903 1.27679 38.5496C1.21083 38.7089 1.1769 38.8797 1.17694 39.0521V49.5546C1.1769 49.727 1.21083 49.8977 1.27679 50.057C1.34275 50.2164 1.43946 50.3611 1.56138 50.483C1.6833 50.6049 1.82805 50.7017 1.98736 50.7676C2.14667 50.8336 2.31741 50.8675 2.48983 50.8675C3.18619 50.8675 3.85403 51.1441 4.34642 51.6365C4.83882 52.1289 5.11545 52.7967 5.11545 53.4931C5.11545 54.1894 4.83882 54.8573 4.34642 55.3497C3.85403 55.8421 3.18619 56.1187 2.48983 56.1187C2.31737 56.1186 2.14658 56.1526 1.98724 56.2186C1.8279 56.2846 1.68313 56.3813 1.5612 56.5033C1.43927 56.6253 1.34258 56.7701 1.27664 56.9295C1.21071 57.0888 1.17683 57.2596 1.17694 57.4321V62.6833C1.17828 63.7274 1.59368 64.7284 2.33202 65.4666C3.07036 66.2048 4.07135 66.6201 5.11545 66.6213H7.53156L69.0732 86.7168C69.5763 86.881 70.1074 86.9422 70.6347 86.8967C71.162 86.8512 71.6747 86.6999 72.1423 86.4518C72.6098 86.2037 73.0225 85.864 73.3559 85.4529C73.6892 85.0418 73.9363 84.5677 74.0824 84.059L75.4978 79.127C75.5457 78.9601 75.56 78.7855 75.54 78.613C75.5199 78.4406 75.4659 78.2739 75.381 78.1225C75.2961 77.9711 75.1821 77.838 75.0454 77.731C74.9088 77.6239 74.7523 77.545 74.585 77.4988C74.0881 77.3576 73.6438 77.073 73.3077 76.6807C72.9716 76.2884 72.7586 75.8057 72.6953 75.293C72.6319 74.7803 72.7211 74.2603 72.9516 73.798C73.1821 73.3357 73.5438 72.9516 73.9914 72.6937C74.6018 72.3487 75.3238 72.2586 76.0003 72.443C76.3351 72.5357 76.6931 72.4916 76.9955 72.3206C77.2979 72.1496 77.5201 71.8656 77.6132 71.5309L78.986 66.6213H83.8849C84.9291 66.62 85.93 66.2047 86.6683 65.4663C87.4066 64.728 87.8219 63.7269 87.8231 62.6828V57.4321C87.8231 57.2597 87.7892 57.0889 87.7232 56.9296C87.6573 56.7703 87.5606 56.6256 87.4387 56.5036C87.3167 56.3817 87.172 56.285 87.0127 56.219C86.8534 56.1531 86.6826 56.1192 86.5102 56.1192C85.8139 56.1192 85.146 55.8426 84.6536 55.3502C84.1612 54.8578 83.8846 54.1899 83.8846 53.4936C83.8846 52.7972 84.1612 52.1294 84.6536 51.637C85.146 51.1446 85.8139 50.868 86.5102 50.868C86.6827 50.868 86.8535 50.8341 87.0128 50.7681C87.1721 50.7021 87.3169 50.6053 87.4388 50.4833C87.5608 50.3614 87.6575 50.2166 87.7234 50.0572C87.7893 49.8978 87.8232 49.727 87.8231 49.5546V39.0521C87.8231 38.8797 87.7892 38.7089 87.7232 38.5496C87.6573 38.3903 87.5606 38.2456 87.4387 38.1237C87.3167 38.0017 87.172 37.905 87.0127 37.8391C86.8534 37.7731 86.6826 37.7392 86.5102 37.7392C85.8139 37.7392 85.146 37.4626 84.6536 36.9702C84.1612 36.4778 83.8846 35.81 83.8846 35.1136C83.8846 34.4172 84.1612 33.7494 84.6536 33.257C85.146 32.7646 85.8139 32.488 86.5102 32.488V32.4875ZM69.9129 4.37825C70.0796 4.32367 70.2555 4.30309 70.4303 4.31773C70.6051 4.33236 70.7751 4.38191 70.9304 4.46345C71.0857 4.54498 71.2231 4.65684 71.3343 4.7924C71.4456 4.92796 71.5286 5.08447 71.5783 5.25266L72.7629 9.24109C71.9597 9.71071 71.2956 10.3852 70.8384 11.1955C70.4951 11.793 70.2745 12.453 70.1898 13.1368C70.105 13.8207 70.1578 14.5145 70.3449 15.1777C70.5275 15.8425 70.8394 16.4648 71.2628 17.009C71.6862 17.5531 72.2128 18.0084 72.8123 18.3488C73.6279 18.8163 74.5558 19.0522 75.4957 19.0309L76.3154 21.9854H15.9911L69.9129 4.37825ZM75.3923 69.7238C74.4509 69.7108 73.5227 69.9462 72.7015 70.4065C71.896 70.8611 71.225 71.5205 70.7566 72.318C70.2882 73.1155 70.039 74.0227 70.0344 74.9476C70.0297 75.8725 70.2696 76.7822 70.7299 77.5844C71.1902 78.3866 71.8544 79.0528 72.6553 79.5155L71.5592 83.3347C71.5105 83.5044 71.4282 83.6626 71.317 83.7997C71.2059 83.9368 71.0682 84.0501 70.9123 84.1328C70.7563 84.2155 70.5853 84.2659 70.4094 84.281C70.2336 84.2961 70.0564 84.2756 69.8887 84.2206L15.9911 66.6213H76.259L75.3923 69.7238ZM82.7988 38.8252C83.4604 39.4905 84.289 39.9655 85.1975 40.2002V48.4065C84.0712 48.6993 83.074 49.3576 82.3622 50.2781C81.6503 51.1987 81.2642 52.3294 81.2642 53.4931C81.2642 54.6567 81.6503 55.7875 82.3622 56.7081C83.074 57.6286 84.0712 58.2869 85.1975 58.5797V62.6828C85.1971 63.0309 85.0587 63.3646 84.8125 63.6107C84.5664 63.8568 84.2327 63.9952 83.8846 63.9955H73.3821C73.3782 63.6499 73.2382 63.3198 72.9924 63.0768C72.7466 62.8338 72.4149 62.6976 72.0693 62.6976C71.7237 62.6976 71.392 62.8338 71.1462 63.0768C70.9005 63.3198 70.7604 63.6499 70.7565 63.9955H18.2442C18.2403 63.6499 18.1002 63.3198 17.8545 63.0768C17.6087 62.8338 17.277 62.6976 16.9314 62.6976C16.5858 62.6976 16.2541 62.8338 16.0083 63.0768C15.7626 63.3198 15.6225 63.6499 15.6186 63.9955H5.11545C4.76737 63.9952 4.43364 63.8568 4.1875 63.6107C3.94136 63.3646 3.80292 63.0309 3.80256 62.6828V58.5797C4.71105 58.3449 5.5396 57.87 6.20123 57.2047C6.68934 56.7176 7.07659 56.1391 7.34081 55.5022C7.60504 54.8653 7.74104 54.1826 7.74104 53.4931C7.74104 52.8036 7.60504 52.1208 7.34081 51.4839C7.07659 50.847 6.68934 50.2685 6.20123 49.7815C5.53969 49.116 4.7111 48.6411 3.80256 48.4065V40.2002C4.71105 39.9655 5.5396 39.4905 6.20123 38.8252C6.68934 38.3382 7.07659 37.7596 7.34081 37.1228C7.60504 36.4859 7.74104 35.8031 7.74104 35.1136C7.74104 34.4241 7.60504 33.7413 7.34081 33.1045C7.07659 32.4676 6.68934 31.889 6.20123 31.402C5.53969 30.7366 4.7111 30.2616 3.80256 30.027V25.9239C3.80287 25.5758 3.94129 25.242 4.18744 24.9959C4.43359 24.7497 4.76734 24.6113 5.11545 24.611H15.6179C15.6159 24.7846 15.6484 24.9569 15.7135 25.118C15.7786 25.279 15.875 25.4254 15.9971 25.5489C16.1192 25.6724 16.2646 25.7705 16.4249 25.8374C16.5851 25.9043 16.7571 25.9388 16.9307 25.9388C17.1044 25.9388 17.2763 25.9043 17.4366 25.8374C17.5968 25.7705 17.7422 25.6724 17.8643 25.5489C17.9864 25.4254 18.0828 25.279 18.1479 25.118C18.213 24.9569 18.2455 24.7846 18.2435 24.611H70.7558C70.7539 24.7846 70.7864 24.9569 70.8515 25.118C70.9165 25.279 71.0129 25.4254 71.135 25.5489C71.2571 25.6724 71.4025 25.7705 71.5628 25.8374C71.723 25.9043 71.895 25.9388 72.0686 25.9388C72.2423 25.9388 72.4142 25.9043 72.5745 25.8374C72.7348 25.7705 72.8801 25.6724 73.0023 25.5489C73.1244 25.4254 73.2207 25.279 73.2858 25.118C73.3509 24.9569 73.3834 24.7846 73.3814 24.611H83.8839C84.232 24.6113 84.5658 24.7497 84.8119 24.9959C85.0581 25.242 85.1965 25.5758 85.1968 25.9239V30.027C84.3002 30.2583 83.4807 30.7227 82.8214 31.373C82.1622 32.0232 81.6867 32.8363 81.4431 33.7297C81.1995 34.6231 81.1966 35.565 81.4346 36.4599C81.6725 37.3548 82.143 38.1708 82.7981 38.8252H82.7988Z" fill="url(#paint0_linear_118_803)"/>
<path d="M24.8076 36.4264C24.8076 36.7746 24.946 37.1085 25.1922 37.3547C25.4384 37.6009 25.7723 37.7393 26.1205 37.7393C26.4687 37.7393 26.8027 37.6009 27.0489 37.3547C27.2951 37.1085 27.4334 36.7746 27.4334 36.4264V31.1751H28.7461C28.9198 31.1771 29.0921 31.1446 29.2531 31.0795C29.4141 31.0144 29.5606 30.918 29.6841 30.7959C29.8076 30.6738 29.9057 30.5285 29.9726 30.3682C30.0395 30.2079 30.0739 30.036 30.0739 29.8623C30.0739 29.6887 30.0395 29.5167 29.9726 29.3565C29.9057 29.1962 29.8076 29.0508 29.6841 28.9287C29.5606 28.8066 29.4141 28.7102 29.2531 28.6451C29.0921 28.5801 28.9198 28.5476 28.7461 28.5495H23.4949C23.3213 28.5476 23.1489 28.5801 22.9879 28.6451C22.8269 28.7102 22.6804 28.8066 22.5569 28.9287C22.4334 29.0508 22.3354 29.1962 22.2685 29.3565C22.2016 29.5167 22.1671 29.6887 22.1671 29.8623C22.1671 30.036 22.2016 30.2079 22.2685 30.3682C22.3354 30.5285 22.4334 30.6738 22.5569 30.7959C22.6804 30.918 22.8269 31.0144 22.9879 31.0795C23.1489 31.1446 23.3213 31.1771 23.4949 31.1751H24.8076V36.4264Z" fill="url(#paint1_linear_118_803)"/>
<path d="M65.5051 28.5495H60.2538C60.0802 28.5476 59.9078 28.5801 59.7468 28.6451C59.5858 28.7102 59.4393 28.8066 59.3158 28.9287C59.1924 29.0508 59.0943 29.1962 59.0274 29.3565C58.9605 29.5167 58.926 29.6887 58.926 29.8623C58.926 30.036 58.9605 30.2079 59.0274 30.3682C59.0943 30.5285 59.1924 30.6738 59.3158 30.7959C59.4393 30.918 59.5858 31.0144 59.7468 31.0795C59.9078 31.1446 60.0802 31.1771 60.2538 31.1751H61.5665V36.4264C61.5665 36.7746 61.7049 37.1085 61.9511 37.3547C62.1973 37.6009 62.5312 37.7393 62.8794 37.7393C63.2276 37.7393 63.5616 37.6009 63.8078 37.3547C64.054 37.1085 64.1923 36.7746 64.1923 36.4264V31.1751H65.5051C65.6787 31.1771 65.851 31.1446 66.012 31.0795C66.173 31.0144 66.3195 30.918 66.443 30.7959C66.5665 30.6738 66.6646 30.5285 66.7315 30.3682C66.7984 30.2079 66.8328 30.036 66.8328 29.8623C66.8328 29.6887 66.7984 29.5167 66.7315 29.3565C66.6646 29.1962 66.5665 29.0508 66.443 28.9287C66.3195 28.8066 66.173 28.7102 66.012 28.6451C65.851 28.5801 65.6787 28.5476 65.5051 28.5495Z" fill="url(#paint2_linear_118_803)"/>
<path d="M32.6847 37.7393C32.8571 37.7393 33.0278 37.7054 33.1871 37.6394C33.3464 37.5734 33.4912 37.4767 33.6131 37.3548C33.735 37.2329 33.8317 37.0881 33.8976 36.9288C33.9636 36.7695 33.9975 36.5988 33.9974 36.4264V29.8624C33.9994 29.6888 33.9669 29.5164 33.9018 29.3554C33.8367 29.1944 33.7403 29.0479 33.6182 28.9244C33.4961 28.8009 33.3507 28.7029 33.1905 28.636C33.0302 28.5691 32.8583 28.5346 32.6846 28.5346C32.5109 28.5346 32.339 28.5691 32.1787 28.636C32.0185 28.7029 31.8731 28.8009 31.751 28.9244C31.6289 29.0479 31.5325 29.1944 31.4674 29.3554C31.4023 29.5164 31.3698 29.6888 31.3718 29.8624V36.4264C31.3717 36.5988 31.4057 36.7695 31.4716 36.9288C31.5376 37.0881 31.6343 37.2329 31.7562 37.3548C31.8781 37.4767 32.0229 37.5734 32.1822 37.6394C32.3415 37.7054 32.5123 37.7393 32.6847 37.7393Z" fill="url(#paint3_linear_118_803)"/>
<path d="M39.2488 37.7392H40.5615C40.7352 37.7412 40.9075 37.7087 41.0685 37.6436C41.2295 37.5785 41.376 37.4821 41.4995 37.36C41.623 37.2379 41.721 37.0925 41.7879 36.9323C41.8549 36.772 41.8893 36.6001 41.8893 36.4264C41.8893 36.2527 41.8549 36.0808 41.7879 35.9205C41.721 35.7603 41.623 35.6149 41.4995 35.4928C41.376 35.3707 41.2295 35.2743 41.0685 35.2092C40.9075 35.1441 40.7352 35.1116 40.5615 35.1136H39.2488C38.9007 35.1133 38.5669 34.9749 38.3208 34.7287C38.0746 34.4826 37.9362 34.1488 37.9359 33.8007V32.4875C37.9362 32.1394 38.0746 31.8056 38.3208 31.5595C38.5669 31.3133 38.9007 31.1749 39.2488 31.1746H40.5615C40.7352 31.1766 40.9075 31.1441 41.0685 31.079C41.2295 31.0139 41.376 30.9175 41.4995 30.7954C41.623 30.6733 41.721 30.5279 41.7879 30.3676C41.8549 30.2074 41.8893 30.0354 41.8893 29.8618C41.8893 29.6881 41.8549 29.5162 41.7879 29.3559C41.721 29.1957 41.623 29.0503 41.4995 28.9282C41.376 28.8061 41.2295 28.7097 41.0685 28.6446C40.9075 28.5795 40.7352 28.547 40.5615 28.549H39.2488C38.2047 28.5503 37.2038 28.9657 36.4655 29.7041C35.7273 30.4424 35.312 31.4434 35.3108 32.4875V33.8002C35.3119 34.8444 35.7271 35.8455 36.4653 36.584C37.2036 37.3224 38.2046 37.7379 39.2488 37.7392Z" fill="url(#paint4_linear_118_803)"/>
<path d="M44.4961 37.7393H44.5C44.8476 37.7392 45.181 37.6013 45.4272 37.3558C45.6733 37.1103 45.812 36.7772 45.8129 36.4296L45.8141 35.942L47.5961 37.4335C47.8637 37.652 48.2066 37.7562 48.5506 37.7235C48.8945 37.6908 49.2117 37.5239 49.4334 37.2589C49.6551 36.9939 49.7634 36.6522 49.7348 36.3079C49.7062 35.9636 49.5431 35.6444 49.2808 35.4196L46.5526 33.1369L49.2264 30.8626C49.3591 30.7514 49.4685 30.615 49.5482 30.4613C49.628 30.3077 49.6765 30.1397 49.6911 29.9672C49.7057 29.7947 49.686 29.621 49.6332 29.4562C49.5804 29.2913 49.4954 29.1385 49.3833 29.0066C49.2712 28.8747 49.1341 28.7663 48.9799 28.6876C48.8257 28.6089 48.6574 28.5615 48.4848 28.5481C48.3122 28.5347 48.1387 28.5555 47.9742 28.6095C47.8097 28.6634 47.6575 28.7494 47.5263 28.8624L45.8278 30.3066L45.829 29.8656C45.8298 29.5176 45.6923 29.1834 45.4469 28.9367C45.2014 28.6899 44.868 28.5507 44.52 28.5497H44.5169C44.1693 28.5497 43.8359 28.6876 43.5898 28.9332C43.3437 29.1787 43.205 29.5118 43.2042 29.8594L43.1873 36.4233C43.1865 36.7713 43.324 37.1054 43.5694 37.3521C43.8148 37.5989 44.1481 37.7381 44.4961 37.7393Z" fill="url(#paint5_linear_118_803)"/>
<path d="M52.3768 37.7393H56.3153C56.489 37.7412 56.6613 37.7087 56.8223 37.6436C56.9833 37.5786 57.1298 37.4822 57.2533 37.3601C57.3768 37.238 57.4748 37.0926 57.5417 36.9323C57.6087 36.7721 57.6431 36.6001 57.6431 36.4265C57.6431 36.2528 57.6087 36.0808 57.5417 35.9206C57.4748 35.7603 57.3768 35.6149 57.2533 35.4928C57.1298 35.3707 56.9833 35.2744 56.8223 35.2093C56.6613 35.1442 56.489 35.1117 56.3153 35.1136H53.6892V34.4572H54.3456C54.6912 34.4533 55.0213 34.3132 55.2643 34.0675C55.5073 33.8217 55.6436 33.49 55.6436 33.1444C55.6436 32.7988 55.5073 32.4671 55.2643 32.2213C55.0213 31.9756 54.6912 31.8355 54.3456 31.8316H53.6892V31.1751H56.3148C56.4885 31.1771 56.6608 31.1446 56.8218 31.0795C56.9828 31.0144 57.1293 30.918 57.2528 30.7959C57.3763 30.6738 57.4743 30.5285 57.5412 30.3682C57.6082 30.2079 57.6426 30.036 57.6426 29.8623C57.6426 29.6887 57.6082 29.5167 57.5412 29.3565C57.4743 29.1962 57.3763 29.0508 57.2528 28.9287C57.1293 28.8066 56.9828 28.7102 56.8218 28.6451C56.6608 28.5801 56.4885 28.5476 56.3148 28.5495H52.3768C52.2044 28.5495 52.0337 28.5834 51.8744 28.6494C51.7151 28.7153 51.5703 28.812 51.4484 28.934C51.3265 29.0559 51.2298 29.2006 51.1639 29.36C51.0979 29.5193 51.064 29.69 51.0641 29.8624V36.4264C51.064 36.5988 51.098 36.7695 51.1639 36.9288C51.2299 37.0881 51.3266 37.2328 51.4485 37.3548C51.5704 37.4767 51.7151 37.5734 51.8744 37.6394C52.0337 37.7053 52.2044 37.7393 52.3768 37.7393Z" fill="url(#paint6_linear_118_803)"/>
<path d="M64.1924 40.3649H26.1205C25.9481 40.3648 25.7773 40.3988 25.618 40.4647C25.4587 40.5307 25.314 40.6274 25.1921 40.7493C25.0701 40.8712 24.9734 41.016 24.9075 41.1753C24.8415 41.3346 24.8076 41.5053 24.8076 41.6778V48.2419C24.8076 48.4143 24.8415 48.585 24.9075 48.7443C24.9734 48.9036 25.0701 49.0484 25.1921 49.1703C25.314 49.2922 25.4587 49.3889 25.618 49.4548C25.7774 49.5208 25.9481 49.5547 26.1205 49.5546H64.1924C64.3648 49.5547 64.5355 49.5207 64.6948 49.4548C64.854 49.3888 64.9988 49.2921 65.1207 49.1702C65.2426 49.0483 65.3393 48.9036 65.4052 48.7443C65.4712 48.585 65.5051 48.4143 65.5051 48.2419V41.6778C65.5051 41.5053 65.4712 41.3346 65.4053 41.1753C65.3393 41.016 65.2427 40.8712 65.1208 40.7493C64.9988 40.6274 64.8541 40.5307 64.6948 40.4647C64.5355 40.3988 64.3648 40.3648 64.1924 40.3649ZM62.8795 46.929H27.4334V42.9905H62.8795V46.929Z" fill="url(#paint7_linear_118_803)"/>
<path d="M56.3153 52.1802H32.6846C32.511 52.1782 32.3386 52.2107 32.1776 52.2758C32.0166 52.3409 31.8701 52.4373 31.7466 52.5594C31.6231 52.6815 31.5251 52.8269 31.4582 52.9871C31.3913 53.1474 31.3568 53.3193 31.3568 53.493C31.3568 53.6667 31.3913 53.8386 31.4582 53.9989C31.5251 54.1591 31.6231 54.3045 31.7466 54.4266C31.8701 54.5487 32.0166 54.6451 32.1776 54.7102C32.3386 54.7753 32.511 54.8078 32.6846 54.8058H56.3153C56.489 54.8078 56.6613 54.7753 56.8223 54.7102C56.9833 54.6451 57.1298 54.5487 57.2533 54.4266C57.3768 54.3045 57.4748 54.1591 57.5417 53.9989C57.6087 53.8386 57.6431 53.6667 57.6431 53.493C57.6431 53.3193 57.6087 53.1474 57.5417 52.9871C57.4748 52.8269 57.3768 52.6815 57.2533 52.5594C57.1298 52.4373 56.9833 52.3409 56.8223 52.2758C56.6613 52.2107 56.489 52.1782 56.3153 52.1802Z" fill="url(#paint8_linear_118_803)"/>
<path d="M53.536 57.4321H35.4642C35.2905 57.4301 35.1182 57.4626 34.9572 57.5277C34.7962 57.5928 34.6497 57.6892 34.5262 57.8113C34.4027 57.9334 34.3046 58.0788 34.2377 58.239C34.1708 58.3993 34.1364 58.5712 34.1364 58.7449C34.1364 58.9186 34.1708 59.0905 34.2377 59.2508C34.3046 59.411 34.4027 59.5564 34.5262 59.6785C34.6497 59.8006 34.7962 59.897 34.9572 59.9621C35.1182 60.0272 35.2905 60.0597 35.4642 60.0577H53.536C53.7096 60.0597 53.8819 60.0272 54.0429 59.9621C54.204 59.897 54.3504 59.8006 54.4739 59.6785C54.5974 59.5564 54.6955 59.411 54.7624 59.2508C54.8293 59.0905 54.8638 58.9186 54.8638 58.7449C54.8638 58.5712 54.8293 58.3993 54.7624 58.239C54.6955 58.0788 54.5974 57.9334 54.4739 57.8113C54.3504 57.6892 54.204 57.5928 54.0429 57.5277C53.8819 57.4626 53.7096 57.4301 53.536 57.4321Z" fill="url(#paint9_linear_118_803)"/>
<path d="M16.9308 28.5456C16.7584 28.5455 16.5876 28.5795 16.4283 28.6454C16.269 28.7114 16.1242 28.8081 16.0023 28.93C15.8804 29.052 15.7837 29.1967 15.7177 29.356C15.6518 29.5153 15.6178 29.6861 15.6179 29.8585V32.7469C15.6159 32.9206 15.6484 33.0929 15.7135 33.2539C15.7786 33.4149 15.875 33.5614 15.9971 33.6849C16.1192 33.8084 16.2646 33.9064 16.4248 33.9733C16.5851 34.0403 16.757 34.0747 16.9307 34.0747C17.1044 34.0747 17.2763 34.0403 17.4366 33.9733C17.5968 33.9064 17.7422 33.8084 17.8643 33.6849C17.9864 33.5614 18.0828 33.4149 18.1479 33.2539C18.213 33.0929 18.2455 32.9206 18.2435 32.7469V29.8585C18.2436 29.6861 18.2097 29.5153 18.1437 29.356C18.0778 29.1967 17.9811 29.052 17.8592 28.93C17.7373 28.8081 17.5925 28.7114 17.4332 28.6454C17.2739 28.5795 17.1032 28.5455 16.9308 28.5456Z" fill="url(#paint10_linear_118_803)"/>
<path d="M16.9308 37.2104C16.7584 37.2103 16.5876 37.2443 16.4283 37.3102C16.269 37.3762 16.1242 37.4729 16.0023 37.5948C15.8804 37.7167 15.7837 37.8615 15.7177 38.0208C15.6518 38.1801 15.6178 38.3509 15.6179 38.5233V41.411C15.6159 41.5847 15.6484 41.757 15.7135 41.918C15.7786 42.079 15.875 42.2255 15.9971 42.349C16.1192 42.4725 16.2646 42.5705 16.4248 42.6375C16.5851 42.7044 16.757 42.7388 16.9307 42.7388C17.1044 42.7388 17.2763 42.7044 17.4366 42.6375C17.5968 42.5705 17.7422 42.4725 17.8643 42.349C17.9864 42.2255 18.0828 42.079 18.1479 41.918C18.213 41.757 18.2455 41.5847 18.2435 41.411V38.5233C18.2436 38.3509 18.2097 38.1801 18.1437 38.0208C18.0778 37.8615 17.9811 37.7168 17.8592 37.5948C17.7373 37.4729 17.5925 37.3762 17.4332 37.3102C17.2739 37.2443 17.1032 37.2103 16.9308 37.2104Z" fill="url(#paint11_linear_118_803)"/>
<path d="M16.9308 45.8752C16.7584 45.8751 16.5877 45.909 16.4284 45.975C16.269 46.0409 16.1243 46.1376 16.0024 46.2595C15.8804 46.3814 15.7837 46.5262 15.7178 46.6855C15.6518 46.8448 15.6179 47.0155 15.6179 47.1879V50.0758C15.6218 50.4214 15.7619 50.7515 16.0077 50.9945C16.2534 51.2375 16.5851 51.3738 16.9307 51.3738C17.2763 51.3738 17.608 51.2375 17.8538 50.9945C18.0996 50.7515 18.2396 50.4214 18.2435 50.0758V47.1879C18.2436 47.0155 18.2097 46.8448 18.1437 46.6855C18.0777 46.5262 17.9811 46.3815 17.8591 46.2596C17.7372 46.1377 17.5925 46.041 17.4332 45.975C17.2739 45.9091 17.1032 45.8751 16.9308 45.8752Z" fill="url(#paint12_linear_118_803)"/>
<path d="M16.9308 54.5393C16.7584 54.5392 16.5876 54.5731 16.4283 54.6391C16.269 54.705 16.1243 54.8017 16.0023 54.9236C15.8804 55.0455 15.7837 55.1903 15.7177 55.3496C15.6518 55.5089 15.6178 55.6796 15.6179 55.852V58.7405C15.6159 58.9141 15.6484 59.0864 15.7135 59.2474C15.7786 59.4084 15.875 59.5549 15.9971 59.6784C16.1192 59.8019 16.2646 59.9 16.4248 59.9669C16.5851 60.0338 16.757 60.0683 16.9307 60.0683C17.1044 60.0683 17.2763 60.0338 17.4366 59.9669C17.5968 59.9 17.7422 59.8019 17.8643 59.6784C17.9864 59.5549 18.0828 59.4084 18.1479 59.2474C18.213 59.0864 18.2455 58.9141 18.2435 58.7405V55.852C18.2435 55.6796 18.2096 55.5089 18.1437 55.3496C18.0777 55.1903 17.981 55.0456 17.8591 54.9237C17.7372 54.8018 17.5925 54.7051 17.4332 54.6391C17.2739 54.5732 17.1032 54.5393 16.9308 54.5393Z" fill="url(#paint13_linear_118_803)"/>
<path d="M72.0693 28.5456C71.8969 28.5455 71.7261 28.5795 71.5668 28.6454C71.4075 28.7114 71.2628 28.8081 71.1409 28.93C71.019 29.052 70.9223 29.1967 70.8563 29.356C70.7904 29.5153 70.7565 29.6861 70.7566 29.8585V32.7469C70.7546 32.9206 70.7871 33.0929 70.8522 33.2539C70.9173 33.4149 71.0136 33.5614 71.1357 33.6849C71.2578 33.8084 71.4032 33.9064 71.5635 33.9733C71.7238 34.0403 71.8957 34.0747 72.0694 34.0747C72.243 34.0747 72.415 34.0403 72.5752 33.9733C72.7355 33.9064 72.8809 33.8084 73.003 33.6849C73.1251 33.5614 73.2215 33.4149 73.2866 33.2539C73.3516 33.0929 73.3841 32.9206 73.3822 32.7469V29.8585C73.3822 29.6861 73.3483 29.5153 73.2823 29.356C73.2164 29.1967 73.1197 29.052 72.9977 28.93C72.8758 28.8081 72.7311 28.7114 72.5718 28.6454C72.4124 28.5795 72.2417 28.5455 72.0693 28.5456Z" fill="url(#paint14_linear_118_803)"/>
<path d="M72.0693 37.2104C71.8969 37.2103 71.7261 37.2443 71.5668 37.3102C71.4075 37.3762 71.2628 37.4729 71.1409 37.5948C71.019 37.7168 70.9223 37.8615 70.8563 38.0208C70.7904 38.1801 70.7565 38.3509 70.7566 38.5233V41.411C70.7546 41.5847 70.7871 41.757 70.8522 41.918C70.9173 42.079 71.0136 42.2255 71.1357 42.349C71.2578 42.4725 71.4032 42.5705 71.5635 42.6375C71.7238 42.7044 71.8957 42.7388 72.0694 42.7388C72.243 42.7388 72.415 42.7044 72.5752 42.6375C72.7355 42.5705 72.8809 42.4725 73.003 42.349C73.1251 42.2255 73.2215 42.079 73.2866 41.918C73.3516 41.757 73.3841 41.5847 73.3822 41.411V38.5233C73.3822 38.3509 73.3483 38.1801 73.2823 38.0208C73.2164 37.8615 73.1197 37.7167 72.9977 37.5948C72.8758 37.4729 72.7311 37.3762 72.5718 37.3102C72.4124 37.2443 72.2417 37.2103 72.0693 37.2104Z" fill="url(#paint15_linear_118_803)"/>
<path d="M72.0692 45.8752C71.8968 45.8751 71.7261 45.9091 71.5668 45.975C71.4075 46.041 71.2628 46.1377 71.1409 46.2596C71.019 46.3815 70.9223 46.5262 70.8563 46.6855C70.7904 46.8448 70.7564 47.0155 70.7565 47.1879V50.0758C70.7604 50.4214 70.9004 50.7515 71.1462 50.9945C71.392 51.2375 71.7237 51.3738 72.0693 51.3738C72.4149 51.3738 72.7466 51.2375 72.9923 50.9945C73.2381 50.7515 73.3782 50.4214 73.3821 50.0758V47.1879C73.3821 47.0155 73.3482 46.8448 73.2822 46.6855C73.2163 46.5262 73.1196 46.3814 72.9976 46.2595C72.8757 46.1376 72.731 46.0409 72.5717 45.975C72.4123 45.909 72.2416 45.8751 72.0692 45.8752Z" fill="url(#paint16_linear_118_803)"/>
<path d="M72.0693 54.5393C71.8969 54.5393 71.7262 54.5732 71.5669 54.6391C71.4076 54.7051 71.2629 54.8018 71.1409 54.9237C71.019 55.0456 70.9223 55.1903 70.8564 55.3496C70.7904 55.5089 70.7565 55.6796 70.7566 55.852V58.7405C70.7546 58.9141 70.7871 59.0864 70.8522 59.2474C70.9173 59.4084 71.0136 59.5549 71.1357 59.6784C71.2578 59.8019 71.4032 59.9 71.5635 59.9669C71.7238 60.0338 71.8957 60.0683 72.0694 60.0683C72.243 60.0683 72.415 60.0338 72.5752 59.9669C72.7355 59.9 72.8809 59.8019 73.003 59.6784C73.1251 59.5549 73.2215 59.4084 73.2866 59.2474C73.3516 59.0864 73.3841 58.9141 73.3822 58.7405V55.852C73.3822 55.6796 73.3483 55.5089 73.2823 55.3496C73.2164 55.1903 73.1196 55.0455 72.9977 54.9236C72.8758 54.8017 72.731 54.705 72.5717 54.6391C72.4124 54.5731 72.2417 54.5392 72.0693 54.5393Z" fill="url(#paint17_linear_118_803)"/>
<defs>
<linearGradient id="paint0_linear_118_803" x1="2.39862" y1="89.7584" x2="86.8999" y2="5.25723" gradientUnits="userSpaceOnUse">
<stop stop-color="#4158D0"/>
<stop offset="1" stop-color="#C850C0"/>
</linearGradient>
<linearGradient id="paint1_linear_118_803" x1="-14.7039" y1="72.656" x2="69.7975" y2="-11.8453" gradientUnits="userSpaceOnUse">
<stop stop-color="#4158D0"/>
<stop offset="1" stop-color="#C850C0"/>
</linearGradient>
<linearGradient id="paint2_linear_118_803" x1="3.67561" y1="91.0355" x2="88.1769" y2="6.53417" gradientUnits="userSpaceOnUse">
<stop stop-color="#4158D0"/>
<stop offset="1" stop-color="#C850C0"/>
</linearGradient>
<linearGradient id="paint3_linear_118_803" x1="-10.7653" y1="76.5945" x2="73.7358" y2="-7.90685" gradientUnits="userSpaceOnUse">
<stop stop-color="#4158D0"/>
<stop offset="1" stop-color="#C850C0"/>
</linearGradient>
<linearGradient id="paint4_linear_118_803" x1="-7.42641" y1="79.9334" x2="77.0749" y2="-4.56778" gradientUnits="userSpaceOnUse">
<stop stop-color="#4158D0"/>
<stop offset="1" stop-color="#C850C0"/>
</linearGradient>
<linearGradient id="paint5_linear_118_803" x1="-3.86904" y1="83.4908" x2="80.6323" y2="-1.01034" gradientUnits="userSpaceOnUse">
<stop stop-color="#4158D0"/>
<stop offset="1" stop-color="#C850C0"/>
</linearGradient>
<linearGradient id="paint6_linear_118_803" x1="0.0653558" y1="87.4253" x2="84.5665" y2="2.92389" gradientUnits="userSpaceOnUse">
<stop stop-color="#4158D0"/>
<stop offset="1" stop-color="#C850C0"/>
</linearGradient>
<linearGradient id="paint7_linear_118_803" x1="1.37813" y1="88.738" x2="85.8794" y2="4.2368" gradientUnits="userSpaceOnUse">
<stop stop-color="#4158D0"/>
<stop offset="1" stop-color="#C850C0"/>
</linearGradient>
<linearGradient id="paint8_linear_118_803" x1="5.3166" y1="92.6764" x2="89.8178" y2="8.17507" gradientUnits="userSpaceOnUse">
<stop stop-color="#4158D0"/>
<stop offset="1" stop-color="#C850C0"/>
</linearGradient>
<linearGradient id="paint9_linear_118_803" x1="7.94232" y1="95.302" x2="92.4436" y2="10.8007" gradientUnits="userSpaceOnUse">
<stop stop-color="#4158D0"/>
<stop offset="1" stop-color="#C850C0"/>
</linearGradient>
<linearGradient id="paint10_linear_118_803" x1="-19.5632" y1="67.7966" x2="64.9381" y2="-16.7047" gradientUnits="userSpaceOnUse">
<stop stop-color="#4158D0"/>
<stop offset="1" stop-color="#C850C0"/>
</linearGradient>
<linearGradient id="paint11_linear_118_803" x1="-15.231" y1="72.1288" x2="69.2703" y2="-12.3724" gradientUnits="userSpaceOnUse">
<stop stop-color="#4158D0"/>
<stop offset="1" stop-color="#C850C0"/>
</linearGradient>
<linearGradient id="paint12_linear_118_803" x1="-10.8985" y1="76.4613" x2="73.6027" y2="-8.04002" gradientUnits="userSpaceOnUse">
<stop stop-color="#4158D0"/>
<stop offset="1" stop-color="#C850C0"/>
</linearGradient>
<linearGradient id="paint13_linear_118_803" x1="-6.56641" y1="80.7934" x2="77.9348" y2="-3.70775" gradientUnits="userSpaceOnUse">
<stop stop-color="#4158D0"/>
<stop offset="1" stop-color="#C850C0"/>
</linearGradient>
<linearGradient id="paint14_linear_118_803" x1="8.00619" y1="95.3658" x2="92.5075" y2="10.8646" gradientUnits="userSpaceOnUse">
<stop stop-color="#4158D0"/>
<stop offset="1" stop-color="#C850C0"/>
</linearGradient>
<linearGradient id="paint15_linear_118_803" x1="12.3383" y1="99.698" x2="96.8396" y2="15.1969" gradientUnits="userSpaceOnUse">
<stop stop-color="#4158D0"/>
<stop offset="1" stop-color="#C850C0"/>
</linearGradient>
<linearGradient id="paint16_linear_118_803" x1="16.6707" y1="104.031" x2="101.172" y2="19.5293" gradientUnits="userSpaceOnUse">
<stop stop-color="#4158D0"/>
<stop offset="1" stop-color="#C850C0"/>
</linearGradient>
<linearGradient id="paint17_linear_118_803" x1="21.0029" y1="108.363" x2="105.504" y2="23.8615" gradientUnits="userSpaceOnUse">
<stop stop-color="#4158D0"/>
<stop offset="1" stop-color="#C850C0"/>
</linearGradient>
</defs>
</svg>
