<svg width="37" height="38" viewBox="0 0 37 38" fill="none" xmlns="http://www.w3.org/2000/svg">
<path d="M18.6067 37.3387C28.6502 37.3387 36.7921 29.1968 36.7921 19.1533C36.7921 9.10984 28.6502 0.967983 18.6067 0.967983C8.56324 0.967983 0.421387 9.10984 0.421387 19.1533C0.421387 29.1968 8.56324 37.3387 18.6067 37.3387Z" fill="#26A17B"/>
<path d="M20.9379 20.8298V20.8274C20.8045 20.8371 20.1171 20.8783 18.5835 20.8783C17.359 20.8783 16.497 20.842 16.194 20.8274V20.831C11.4803 20.6237 7.96206 19.803 7.96206 18.821C7.96206 17.8402 11.4803 17.0194 16.194 16.8084V20.0139C16.5019 20.0357 17.3845 20.0879 18.6041 20.0879C20.0674 20.0879 20.8009 20.0273 20.9379 20.0151V16.8109C25.6418 17.0206 29.1516 17.8414 29.1516 18.821C29.1516 19.803 25.6418 20.6213 20.9379 20.8298ZM20.9379 16.4775V13.609H27.5016V9.23486H9.63026V13.609H16.194V16.4763C10.8596 16.7212 6.8479 17.7783 6.8479 19.044C6.8479 20.3097 10.8596 21.3657 16.194 21.6118V30.8039H20.9379V21.6094C26.2638 21.3645 30.2658 20.3085 30.2658 19.044C30.2658 17.7795 26.2638 16.7236 20.9379 16.4775Z" fill="white"/>
</svg>
