<svg width="14" height="15" viewBox="0 0 14 15" fill="none" xmlns="http://www.w3.org/2000/svg">
<path d="M6.99812 5.2298C5.71403 5.2298 4.66612 6.26321 4.66612 7.52952C4.66612 8.79584 5.71403 9.82924 6.99812 9.82924C8.28221 9.82924 9.33012 8.79584 9.33012 7.52952C9.33012 6.26321 8.28221 5.2298 6.99812 5.2298ZM13.9924 7.52952C13.9924 6.5772 14.0011 5.6335 13.9469 4.68291C13.8927 3.57877 13.6372 2.59884 12.8185 1.79144C11.998 0.982308 11.0061 0.732152 9.88645 0.67867C8.92076 0.625188 7.96381 0.633814 6.99987 0.633814C6.03418 0.633814 5.07723 0.625188 4.11329 0.67867C2.99365 0.732152 1.99997 0.984034 1.18123 1.79144C0.360743 2.60057 0.107074 3.57877 0.0528417 4.68291C-0.00139093 5.63523 0.0073563 6.57893 0.0073563 7.52952C0.0073563 8.48012 -0.00139093 9.42554 0.0528417 10.3761C0.107074 11.4803 0.362493 12.4602 1.18123 13.2676C2.00172 14.0767 2.99365 14.3269 4.11329 14.3804C5.07898 14.4339 6.03593 14.4252 6.99987 14.4252C7.96556 14.4252 8.9225 14.4339 9.88645 14.3804C11.0061 14.3269 11.9998 14.075 12.8185 13.2676C13.639 12.4585 13.8927 11.4803 13.9469 10.3761C14.0029 9.42554 13.9924 8.48185 13.9924 7.52952ZM6.99812 11.068C5.01251 11.068 3.41002 9.48765 3.41002 7.52952C3.41002 5.5714 5.01251 3.99109 6.99812 3.99109C8.98374 3.99109 10.5862 5.5714 10.5862 7.52952C10.5862 9.48765 8.98374 11.068 6.99812 11.068ZM10.7332 4.67256C10.2696 4.67256 9.89519 4.30336 9.89519 3.84618C9.89519 3.38899 10.2696 3.01979 10.7332 3.01979C11.1968 3.01979 11.5712 3.38899 11.5712 3.84618C11.5713 3.95474 11.5497 4.06226 11.5077 4.16258C11.4656 4.2629 11.4039 4.35406 11.326 4.43082C11.2482 4.50758 11.1558 4.56845 11.054 4.60993C10.9523 4.65141 10.8433 4.67269 10.7332 4.67256Z" fill="url(#paint0_linear_41_7)"/>
<defs>
<linearGradient id="paint0_linear_41_7" x1="7" y1="0.633301" x2="7" y2="14.4257" gradientUnits="userSpaceOnUse">
<stop stop-color="#7D7AD8"/>
<stop offset="1" stop-color="#7D7AD8" stop-opacity="0"/>
</linearGradient>
</defs>
</svg>
