<svg width="8" height="10" viewBox="0 0 8 10" fill="none" xmlns="http://www.w3.org/2000/svg">
<path d="M2.97015 2.16332C2.86273 2.4514 2.70844 2.71898 2.51117 2.95922C2.37389 3.12617 2.21829 3.27718 2.0473 3.40941C1.63549 3.72598 1.30064 4.13161 1.06781 4.59594L1.21537 4.66911C1.43339 4.23018 1.75605 3.84036 2.14714 3.54014L2.14755 3.53982L2.14789 3.53957C2.1479 3.53956 2.14791 3.53955 2.14793 3.53954C2.32866 3.40134 2.49258 3.24245 2.63634 3.06612L2.63717 3.0651C2.63754 3.06465 2.63791 3.0642 2.63829 3.06374C2.63831 3.06371 2.63833 3.06368 2.63836 3.06365C2.8474 2.80831 3.01047 2.5249 3.12354 2.22156C3.12365 2.22128 3.12375 2.221 3.12386 2.22072L2.97015 2.16332ZM2.97015 2.16332C3.05804 1.92797 3.09515 1.64476 3.08051 1.32445L3.07974 1.30778L3.21633 1.86479C3.19745 1.9862 3.16648 2.1054 3.12388 2.22064L2.97015 2.16332ZM1.21504 4.66976C1.21494 4.66997 1.21484 4.67018 1.21473 4.67038C0.992009 5.11824 0.878504 5.60128 0.878357 6.10277L1.21504 4.66976ZM3.17621 0.784412C3.12347 0.753162 3.05609 0.794178 3.05902 0.855701L3.0644 0.973087L3.06446 0.974341L3.07805 1.27081C3.1607 1.28293 3.24234 1.26906 3.31424 1.23531L3.17621 0.784412Z" stroke="white"/>
</svg>
