<svg width="14" height="15" viewBox="0 0 14 15" fill="none" xmlns="http://www.w3.org/2000/svg">
<path d="M0.0115984 15L0.957998 11.274C0.334395 10.1286 0.00676562 8.82599 0.00879847 7.5C0.00879847 3.35775 3.1427 0 7.00879 0C10.8749 0 14.0088 3.35775 14.0088 7.5C14.0088 11.6422 10.8749 15 7.00879 15C5.77174 15.0021 4.55645 14.6514 3.4878 13.9837L0.0115984 15ZM4.4825 3.981C4.3921 3.98701 4.30377 4.01252 4.2228 4.056C4.14686 4.10207 4.07754 4.15967 4.017 4.227C3.933 4.31175 3.8854 4.38525 3.8343 4.4565C3.57558 4.81724 3.43642 5.26006 3.4388 5.715C3.4402 6.0825 3.5298 6.44025 3.6698 6.77475C3.9561 7.45125 4.4272 8.16749 5.0495 8.83124C5.1993 8.99099 5.34559 9.15149 5.50309 9.30074C6.27547 10.0293 7.19587 10.5548 8.19109 10.8352L8.58939 10.9005C8.71889 10.908 8.84839 10.8975 8.97859 10.8907C9.18246 10.8795 9.38152 10.8203 9.56169 10.7175C9.65336 10.6669 9.74282 10.6118 9.82979 10.5525C9.82979 10.5525 9.85989 10.5315 9.91729 10.485C10.0118 10.41 10.0699 10.3567 10.1483 10.269C10.2064 10.2045 10.2568 10.1287 10.2953 10.0425C10.3499 9.92024 10.4045 9.68699 10.4269 9.49274C10.4437 9.34424 10.4388 9.26324 10.4367 9.21299C10.4339 9.13274 10.3716 9.04949 10.3037 9.01424L9.89629 8.81849C9.89629 8.81849 9.28729 8.53424 8.91559 8.35275C8.8764 8.33444 8.8344 8.32402 8.79169 8.32199C8.7438 8.31672 8.69541 8.3225 8.64977 8.33893C8.60413 8.35536 8.5623 8.38206 8.52709 8.41724V8.41574C8.52359 8.41574 8.47669 8.4585 7.97059 9.11549C7.94154 9.15732 7.90153 9.18892 7.85565 9.20629C7.80978 9.22365 7.76011 9.22599 7.71299 9.21299C7.66738 9.19993 7.6227 9.18338 7.57929 9.16349C7.49249 9.12449 7.46239 9.10949 7.40289 9.08174L7.39939 9.08024C6.99893 8.89291 6.62815 8.63988 6.30039 8.33025C6.21219 8.24774 6.13029 8.15774 6.04629 8.07074C5.7709 7.78817 5.53089 7.4685 5.33229 7.11975L5.29099 7.0485C5.26133 7.00062 5.23735 6.94897 5.21959 6.89475C5.193 6.7845 5.26229 6.696 5.26229 6.696C5.26229 6.696 5.43239 6.4965 5.51149 6.3885C5.57736 6.29874 5.63881 6.20536 5.69559 6.10875C5.77819 5.96625 5.80409 5.82 5.76069 5.70675C5.56469 5.19375 5.36169 4.683 5.15309 4.176C5.11179 4.0755 4.9893 4.0035 4.878 3.98925C4.8402 3.98475 4.80239 3.98025 4.7646 3.97725C4.67059 3.97224 4.57639 3.97325 4.4825 3.98025V3.981Z" fill="url(#paint0_linear_40_3)"/>
<defs>
<linearGradient id="paint0_linear_40_3" x1="7.00879" y1="0" x2="7.00879" y2="15" gradientUnits="userSpaceOnUse">
<stop stop-color="#7D7AD8"/>
<stop offset="1" stop-color="#7D7AD8" stop-opacity="0"/>
</linearGradient>
</defs>
</svg>
