<svg width="18" height="13" viewBox="0 0 18 13" fill="none" xmlns="http://www.w3.org/2000/svg">
<path d="M17.1372 2.52072C17.0406 2.16564 16.851 1.84183 16.5876 1.58169C16.3241 1.32155 15.996 1.13422 15.636 1.03843C14.3111 0.687012 9 0.687012 9 0.687012C9 0.687012 3.6889 0.687012 2.36396 1.03656C2.00386 1.13204 1.67558 1.31927 1.41207 1.57946C1.14857 1.83964 0.959118 2.16362 0.862753 2.51885C0.508301 3.82731 0.508301 6.55639 0.508301 6.55639C0.508301 6.55639 0.508301 9.28546 0.862753 10.592C1.05799 11.3136 1.63421 11.8818 2.36396 12.0743C3.6889 12.4258 9 12.4258 9 12.4258C9 12.4258 14.3111 12.4258 15.636 12.0743C16.3677 11.8818 16.942 11.3136 17.1372 10.592C17.4917 9.28546 17.4917 6.55639 17.4917 6.55639C17.4917 6.55639 17.4917 3.82731 17.1372 2.52072ZM7.31303 9.06115V4.05162L11.7105 6.53769L7.31303 9.06115Z" fill="url(#paint0_linear_41_9)"/>
<defs>
<linearGradient id="paint0_linear_41_9" x1="9" y1="0.687012" x2="9" y2="12.4258" gradientUnits="userSpaceOnUse">
<stop stop-color="#7D7AD8"/>
<stop offset="1" stop-color="#7D7AD8" stop-opacity="0"/>
</linearGradient>
</defs>
</svg>
