<svg width="19" height="18" viewBox="0 0 19 18" fill="none" xmlns="http://www.w3.org/2000/svg">
<path d="M11.715 13.6456H3.71497C2.98562 13.6456 2.28615 13.3559 1.77042 12.8402C1.2547 12.3244 0.964966 11.625 0.964966 10.8956V2.89563C0.964966 2.16628 1.2547 1.46681 1.77042 0.951086C2.28615 0.435361 2.98562 0.14563 3.71497 0.14563H11.715C12.4443 0.14563 13.1438 0.435361 13.6595 0.951086C14.1752 1.46681 14.465 2.16628 14.465 2.89563V10.8956C14.465 11.625 14.1752 12.3244 13.6595 12.8402C13.1438 13.3559 12.4443 13.6456 11.715 13.6456ZM3.71497 1.64563C3.38345 1.64563 3.0655 1.77733 2.83108 2.01175C2.59666 2.24617 2.46497 2.56411 2.46497 2.89563V10.8956C2.46497 11.2272 2.59666 11.5451 2.83108 11.7795C3.0655 12.0139 3.38345 12.1456 3.71497 12.1456H11.715C12.0465 12.1456 12.3644 12.0139 12.5988 11.7795C12.8333 11.5451 12.965 11.2272 12.965 10.8956V2.89563C12.965 2.56411 12.8333 2.24617 12.5988 2.01175C12.3644 1.77733 12.0465 1.64563 11.715 1.64563H3.71497Z" fill="white"/>
<path d="M15.715 17.6456H7.71497C6.98562 17.6456 6.28615 17.3559 5.77042 16.8402C5.2547 16.3244 4.96497 15.625 4.96497 14.8956V12.8956H6.46497V14.8956C6.46497 15.2272 6.59666 15.5451 6.83108 15.7795C7.0655 16.0139 7.38345 16.1456 7.71497 16.1456H15.715C16.0465 16.1456 16.3644 16.0139 16.5989 15.7795C16.8333 15.5451 16.965 15.2272 16.965 14.8956V6.89563C16.965 6.56411 16.8333 6.24617 16.5989 6.01175C16.3644 5.77733 16.0465 5.64563 15.715 5.64563H13.715V4.14563H15.715C16.4443 4.14563 17.1438 4.43536 17.6595 4.95109C18.1752 5.46681 18.465 6.16628 18.465 6.89563V14.8956C18.465 15.625 18.1752 16.3244 17.6595 16.8402C17.1438 17.3559 16.4443 17.6456 15.715 17.6456Z" fill="white"/>
</svg>
