<svg width="19" height="18" viewBox="0 0 19 18" fill="none" xmlns="http://www.w3.org/2000/svg">
<path d="M11.6643 13.5251H3.66431C2.93496 13.5251 2.23549 13.2354 1.71976 12.7197C1.20404 12.204 0.914307 11.5045 0.914307 10.7751V2.77515C0.914307 2.0458 1.20404 1.34633 1.71976 0.830603C2.23549 0.314878 2.93496 0.0251465 3.66431 0.0251465H11.6643C12.3937 0.0251465 13.0931 0.314878 13.6089 0.830603C14.1246 1.34633 14.4143 2.0458 14.4143 2.77515V10.7751C14.4143 11.5045 14.1246 12.204 13.6089 12.7197C13.0931 13.2354 12.3937 13.5251 11.6643 13.5251ZM3.66431 1.52515C3.33279 1.52515 3.01484 1.65684 2.78042 1.89126C2.546 2.12568 2.41431 2.44363 2.41431 2.77515V10.7751C2.41431 11.1067 2.546 11.4246 2.78042 11.659C3.01484 11.8935 3.33279 12.0251 3.66431 12.0251H11.6643C11.9958 12.0251 12.3138 11.8935 12.5482 11.659C12.7826 11.4246 12.9143 11.1067 12.9143 10.7751V2.77515C12.9143 2.44363 12.7826 2.12568 12.5482 1.89126C12.3138 1.65684 11.9958 1.52515 11.6643 1.52515H3.66431Z" fill="white"/>
<path d="M15.6643 17.5251H7.66431C6.93496 17.5251 6.23549 17.2354 5.71976 16.7197C5.20404 16.204 4.91431 15.5045 4.91431 14.7751V12.7751H6.41431V14.7751C6.41431 15.1067 6.546 15.4246 6.78042 15.659C7.01484 15.8935 7.33279 16.0251 7.66431 16.0251H15.6643C15.9958 16.0251 16.3138 15.8935 16.5482 15.659C16.7826 15.4246 16.9143 15.1067 16.9143 14.7751V6.77515C16.9143 6.44363 16.7826 6.12568 16.5482 5.89126C16.3138 5.65684 15.9958 5.52515 15.6643 5.52515H13.6643V4.02515H15.6643C16.3937 4.02515 17.0931 4.31488 17.6089 4.8306C18.1246 5.34633 18.4143 6.0458 18.4143 6.77515V14.7751C18.4143 15.5045 18.1246 16.204 17.6089 16.7197C17.0931 17.2354 16.3937 17.5251 15.6643 17.5251Z" fill="white"/>
</svg>
