<svg width="19" height="19" viewBox="0 0 19 19" fill="none" xmlns="http://www.w3.org/2000/svg">
<path d="M11.363 14.2751H3.36304C2.63369 14.2751 1.93422 13.9854 1.41849 13.4697C0.902768 12.954 0.613037 12.2545 0.613037 11.5251V3.52515C0.613037 2.7958 0.902768 2.09633 1.41849 1.5806C1.93422 1.06488 2.63369 0.775146 3.36304 0.775146H11.363C12.0924 0.775146 12.7919 1.06488 13.3076 1.5806C13.8233 2.09633 14.113 2.7958 14.113 3.52515V11.5251C14.113 12.2545 13.8233 12.954 13.3076 13.4697C12.7919 13.9854 12.0924 14.2751 11.363 14.2751ZM3.36304 2.27515C3.03152 2.27515 2.71357 2.40684 2.47915 2.64126C2.24473 2.87568 2.11304 3.19363 2.11304 3.52515V11.5251C2.11304 11.8567 2.24473 12.1746 2.47915 12.409C2.71357 12.6435 3.03152 12.7751 3.36304 12.7751H11.363C11.6946 12.7751 12.0125 12.6435 12.2469 12.409C12.4813 12.1746 12.613 11.8567 12.613 11.5251V3.52515C12.613 3.19363 12.4813 2.87568 12.2469 2.64126C12.0125 2.40684 11.6946 2.27515 11.363 2.27515H3.36304Z" fill="white"/>
<path d="M15.363 18.2751H7.36304C6.63369 18.2751 5.93422 17.9854 5.41849 17.4697C4.90277 16.954 4.61304 16.2545 4.61304 15.5251V13.5251H6.11304V15.5251C6.11304 15.8567 6.24473 16.1746 6.47915 16.409C6.71357 16.6435 7.03152 16.7751 7.36304 16.7751H15.363C15.6946 16.7751 16.0125 16.6435 16.2469 16.409C16.4813 16.1746 16.613 15.8567 16.613 15.5251V7.52515C16.613 7.19363 16.4813 6.87568 16.2469 6.64126C16.0125 6.40684 15.6946 6.27515 15.363 6.27515H13.363V4.77515H15.363C16.0924 4.77515 16.7919 5.06488 17.3076 5.5806C17.8233 6.09633 18.113 6.7958 18.113 7.52515V15.5251C18.113 16.2545 17.8233 16.954 17.3076 17.4697C16.7919 17.9854 16.0924 18.2751 15.363 18.2751Z" fill="white"/>
</svg>
