<svg width="21" height="21" viewBox="0 0 21 21" fill="none" xmlns="http://www.w3.org/2000/svg">
<path d="M10.717 5.44287C10.4409 5.44287 10.217 5.66675 10.217 5.94287V10.6343L7.51099 11.9966C7.34253 12.0815 7.23621 12.254 7.23602 12.4426C7.23584 12.7188 7.45953 12.9427 7.7356 12.9429C7.81366 12.9432 7.89069 12.9248 7.96014 12.8892L10.9416 11.3892C11.1104 11.3044 11.2169 11.1317 11.217 10.9429V5.94287C11.217 5.66675 10.9932 5.44287 10.717 5.44287ZM10.717 0.942871C5.19421 0.942871 0.717041 5.42004 0.717041 10.9429C0.717041 16.4657 5.19421 20.9429 10.717 20.9429C16.2372 20.9364 20.7106 16.463 20.717 10.9429C20.717 5.42004 16.2399 0.942871 10.717 0.942871ZM10.717 19.9429C5.74646 19.9429 1.71704 15.9135 1.71704 10.9429C1.71704 5.97229 5.74646 1.94287 10.717 1.94287C15.6854 1.9483 19.7116 5.97455 19.717 10.9429C19.717 15.9135 15.6876 19.9429 10.717 19.9429Z" fill="white"/>
</svg>
