<svg width="85" height="85" viewBox="0 0 85 85" fill="none" xmlns="http://www.w3.org/2000/svg">
<path d="M73.2419 34.2486C73.2394 32.0539 72.3666 29.9499 70.8148 28.398C69.263 26.8461 67.159 25.973 64.9644 25.9704H63.0646C62.6851 23.8297 61.7005 21.8424 60.2271 20.2436C58.7538 18.6448 56.8534 17.5013 54.7507 16.9485C54.7537 16.8478 54.772 16.7356 54.772 16.6375C54.7732 15.1364 54.4693 13.6508 53.8788 12.2708C53.2884 10.8908 52.4237 9.64515 51.3372 8.60948C50.2506 7.57382 48.965 6.76974 47.5583 6.24604C46.1516 5.72235 44.6531 5.48996 43.1539 5.56299C41.6546 5.63601 40.1859 6.01293 38.8367 6.67086C37.4875 7.32879 36.2862 8.25401 35.3054 9.39036C34.3247 10.5267 33.5852 11.8505 33.1316 13.2814C32.6781 14.7122 32.52 16.2203 32.667 17.7142C30.6858 18.2266 28.8794 19.264 27.4383 20.7171C25.9973 22.1701 24.9748 23.985 24.4788 25.9704H18.1784C16.4761 25.977 14.8454 26.6562 13.6418 27.8601C12.4382 29.064 11.7593 30.6948 11.7531 32.3971L11.7531 73.6384C11.7547 75.0731 12.3254 76.4485 13.3399 77.463C14.3544 78.4775 15.7298 79.0482 17.1646 79.0498H67.8355C69.2702 79.0481 70.6457 78.4775 71.6602 77.463C72.6746 76.4485 73.2453 75.0731 73.2469 73.6384C73.2431 65.1264 73.2419 34.2486 73.2419 34.2486ZM60.6212 27.9334C60.6178 29.3482 60.2667 30.7404 59.5988 31.9876H46.3539C46.8376 30.4107 46.97 28.747 46.7418 27.1135C46.5136 25.48 45.9304 23.9163 45.0331 22.5323C49.9944 16.0391 60.7075 19.7553 60.6212 27.9334ZM35.2332 16.6375C35.2317 14.3989 36.1179 12.251 37.6976 10.6648C39.2774 9.07868 41.4216 8.1837 43.6602 8.17614C45.8988 8.16858 48.049 9.04906 49.6394 10.6245C51.2298 12.2 52.1306 14.3418 52.1441 16.5804C52.0556 16.5783 51.9694 16.567 51.8804 16.567C50.2557 16.5653 48.6497 16.9144 47.1723 17.5904C45.6949 18.2664 44.3808 19.2533 43.3198 20.4838C41.214 18.4632 38.4067 17.338 35.4883 17.345C35.1028 17.4533 35.2896 16.8885 35.2332 16.6375ZM35.4883 19.97C36.9151 19.9815 38.3177 20.3404 39.5747 21.0157C40.8317 21.691 41.9053 22.6624 42.7025 23.8458C43.4998 25.0292 43.9967 26.3891 44.1503 27.8077C44.304 29.2263 44.1097 30.661 43.5843 31.9877L27.403 31.9876C26.8755 30.6618 26.6793 29.2275 26.8314 27.8088C26.9835 26.3901 27.4792 25.0299 28.2757 23.8461C29.0722 22.6623 30.1453 21.6905 31.4021 21.0151C32.6589 20.3397 34.0615 19.981 35.4883 19.97ZM15.4842 29.7086C15.8374 29.3542 16.2573 29.0733 16.7198 28.8822C17.1823 28.6911 17.678 28.5936 18.1784 28.5954H24.1387C24.1278 29.7449 24.2947 30.8891 24.6336 31.9876H22.4043C22.0596 31.9927 21.7307 32.1332 21.4888 32.3788C21.2468 32.6244 21.1112 32.9553 21.1112 33.3001C21.1112 33.6449 21.2469 33.9758 21.4888 34.2214C21.7308 34.4669 22.0597 34.6075 22.4044 34.6126H63.3552C63.6999 34.6075 64.0288 34.4669 64.2708 34.2213C64.5127 33.9757 64.6483 33.6448 64.6483 33.3C64.6483 32.9553 64.5127 32.6244 64.2707 32.3788C64.0287 32.1332 63.6999 31.9927 63.3551 31.9876H62.4718C62.8882 30.9013 63.1337 29.757 63.1997 28.5954H64.9644C66.4631 28.5973 67.8999 29.1934 68.9595 30.2532C70.0192 31.313 70.6152 32.7499 70.6169 34.2486V37.1211C69.6956 36.5199 68.6196 36.199 67.5196 36.1974H18.1784C17.4324 36.1848 16.7062 35.9546 16.0892 35.5351C15.4721 35.1156 14.991 34.5251 14.7049 33.8359C14.4188 33.1468 14.3401 32.3892 14.4785 31.656C14.617 30.9228 14.9665 30.246 15.4842 29.7086ZM67.8355 76.4248H17.1646C16.4258 76.424 15.7175 76.1301 15.1951 75.6077C14.6728 75.0854 14.3789 74.3771 14.3781 73.6384V37.5753C15.4788 38.3869 16.8108 38.824 18.1784 38.8224H67.5196C68.3454 38.8256 69.1361 39.1567 69.7179 39.7427C70.2996 40.3288 70.6249 41.1219 70.622 41.9477V47.9176H59.7856C58.0457 47.9197 56.3777 48.6118 55.1474 49.842C53.9172 51.0723 53.2251 52.7403 53.2231 54.4801V61.3156C53.2251 63.0555 53.9172 64.7235 55.1474 65.9538C56.3777 67.184 58.0457 67.8761 59.7856 67.8781H70.622V73.6384C70.6212 74.3771 70.3273 75.0854 69.8049 75.6077C69.2825 76.1301 68.5743 76.424 67.8355 76.4248ZM70.6219 65.2532H59.7856C58.7416 65.252 57.7408 64.8368 57.0026 64.0986C56.2644 63.3605 55.8492 62.3596 55.8481 61.3157V54.4802C55.8492 53.4362 56.2644 52.4354 57.0026 51.6972C57.7408 50.959 58.7416 50.5438 59.7856 50.5427H70.622L70.6219 65.2532ZM58.2038 57.8979C58.2161 59.2561 58.7643 60.5546 59.7291 61.5107C60.6939 62.4668 61.9972 63.0032 63.3555 63.0032C64.7138 63.0032 66.0171 62.4667 66.9819 61.5106C67.9467 60.5545 68.4948 59.256 68.5071 57.8978C68.4939 56.5402 67.9453 55.2426 66.9806 54.2873C66.0159 53.3319 64.7131 52.796 63.3554 52.796C61.9977 52.796 60.6949 53.332 59.7303 54.2874C58.7656 55.2427 58.217 56.5403 58.2038 57.8979ZM63.3551 55.371C64.0189 55.3807 64.6523 55.6512 65.1182 56.124C65.5842 56.5969 65.8454 57.2341 65.8454 57.898C65.8454 58.5618 65.5842 59.199 65.1182 59.6719C64.6522 60.1447 64.0188 60.4152 63.355 60.4249C62.6914 60.4149 62.0583 60.1443 61.5925 59.6715C61.1267 59.1986 60.8656 58.5616 60.8657 57.8978C60.8657 57.2341 61.1268 56.597 61.5926 56.1242C62.0584 55.6514 62.6915 55.3808 63.3551 55.371Z" fill="url(#paint0_linear_118_782)"/>
<defs>
<linearGradient id="paint0_linear_118_782" x1="11.7521" y1="42.2998" x2="73.2467" y2="42.2998" gradientUnits="userSpaceOnUse">
<stop stop-color="#FF81FF"/>
<stop offset="1" stop-color="#A93AFF"/>
</linearGradient>
</defs>
</svg>
