<svg width="84" height="84" viewBox="0 0 84 84" fill="none" xmlns="http://www.w3.org/2000/svg">
<path d="M72.7419 33.9487C72.7394 31.7541 71.8666 29.6501 70.3148 28.0982C68.763 26.5463 66.659 25.6732 64.4644 25.6706H62.5646C62.1851 23.5299 61.2005 21.5426 59.7271 19.9438C58.2538 18.345 56.3534 17.2015 54.2507 16.6487C54.2537 16.548 54.272 16.4358 54.272 16.3377C54.2732 14.8366 53.9693 13.351 53.3788 11.971C52.7884 10.591 51.9237 9.34534 50.8372 8.30968C49.7506 7.27402 48.465 6.46993 47.0583 5.94624C45.6516 5.42254 44.1531 5.19015 42.6539 5.26318C41.1546 5.33621 39.6859 5.71312 38.3367 6.37105C36.9875 7.02898 35.7862 7.9542 34.8054 9.09056C33.8247 10.2269 33.0852 11.5507 32.6316 12.9816C32.1781 14.4124 32.02 15.9205 32.167 17.4144C30.1858 17.9268 28.3794 18.9642 26.9383 20.4173C25.4973 21.8703 24.4748 23.6852 23.9788 25.6706H17.6784C15.9761 25.6772 14.3454 26.3564 13.1418 27.5603C11.9382 28.7642 11.2593 30.395 11.2531 32.0973L11.2531 73.3385C11.2547 74.7733 11.8254 76.1487 12.8399 77.1632C13.8544 78.1777 15.2298 78.7484 16.6646 78.75H67.3355C68.7702 78.7483 70.1457 78.1777 71.1602 77.1632C72.1746 76.1487 72.7453 74.7732 72.7469 73.3385C72.7431 64.8266 72.7419 33.9487 72.7419 33.9487ZM60.1212 27.6336C60.1178 29.0484 59.7667 30.4406 59.0988 31.6878H45.8539C46.3376 30.1109 46.47 28.4472 46.2418 26.8137C46.0136 25.1802 45.4304 23.6165 44.5331 22.2325C49.4944 15.7393 60.2075 19.4555 60.1212 27.6336ZM34.7332 16.3377C34.7317 14.099 35.6179 11.9512 37.1976 10.365C38.7774 8.77887 40.9216 7.88389 43.1602 7.87633C45.3988 7.86878 47.549 8.74925 49.1394 10.3247C50.7298 11.9001 51.6306 14.042 51.6441 16.2806C51.5556 16.2785 51.4694 16.2672 51.3804 16.2672C49.7557 16.2655 48.1497 16.6146 46.6723 17.2906C45.1949 17.9666 43.8808 18.9535 42.8198 20.184C40.714 18.1634 37.9067 17.0382 34.9883 17.0452C34.6028 17.1535 34.7896 16.5887 34.7332 16.3377ZM34.9883 19.6702C36.4151 19.6817 37.8177 20.0406 39.0747 20.7159C40.3317 21.3912 41.4053 22.3626 42.2025 23.546C42.9998 24.7294 43.4967 26.0893 43.6503 27.5079C43.804 28.9265 43.6097 30.3612 43.0843 31.6879L26.903 31.6878C26.3755 30.362 26.1793 28.9277 26.3314 27.509C26.4835 26.0903 26.9792 24.7301 27.7757 23.5463C28.5722 22.3625 29.6453 21.3907 30.9021 20.7153C32.1589 20.0399 33.5615 19.6811 34.9883 19.6702ZM14.9842 29.4088C15.3374 29.0544 15.7573 28.7735 16.2198 28.5824C16.6823 28.3913 17.178 28.2938 17.6784 28.2956H23.6387C23.6278 29.4451 23.7947 30.5893 24.1336 31.6878H21.9043C21.5596 31.6929 21.2307 31.8334 20.9888 32.079C20.7468 32.3246 20.6112 32.6555 20.6112 33.0003C20.6112 33.3451 20.7469 33.676 20.9888 33.9216C21.2308 34.1671 21.5597 34.3077 21.9044 34.3128H62.8552C63.1999 34.3076 63.5288 34.1671 63.7708 33.9215C64.0127 33.6759 64.1483 33.345 64.1483 33.0002C64.1483 32.6555 64.0127 32.3246 63.7707 32.079C63.5287 31.8334 63.1999 31.6929 62.8551 31.6878H61.9718C62.3882 30.6014 62.6337 29.4572 62.6997 28.2956H64.4644C65.9631 28.2974 67.3999 28.8936 68.4595 29.9534C69.5192 31.0132 70.1152 32.4501 70.1169 33.9487V36.8213C69.1956 36.2201 68.1196 35.8992 67.0196 35.8976H17.6784C16.9324 35.885 16.2062 35.6548 15.5892 35.2353C14.9721 34.8158 14.491 34.2253 14.2049 33.5361C13.9188 32.847 13.8401 32.0894 13.9785 31.3562C14.117 30.623 14.4665 29.9462 14.9842 29.4088ZM67.3355 76.125H16.6646C15.9258 76.1242 15.2175 75.8303 14.6951 75.3079C14.1728 74.7856 13.8789 74.0773 13.8781 73.3385V37.2755C14.9788 38.0871 16.3108 38.5242 17.6784 38.5226H67.0196C67.8454 38.5258 68.6361 38.8568 69.2179 39.4429C69.7996 40.029 70.1249 40.8221 70.122 41.6479V47.6178H59.2856C57.5457 47.6199 55.8777 48.3119 54.6474 49.5422C53.4172 50.7725 52.7251 52.4405 52.7231 54.1803V61.0158C52.7251 62.7557 53.4172 64.4237 54.6474 65.654C55.8777 66.8842 57.5457 67.5763 59.2856 67.5783H70.122V73.3385C70.1212 74.0773 69.8273 74.7856 69.3049 75.3079C68.7825 75.8303 68.0743 76.1242 67.3355 76.125ZM70.1219 64.9534H59.2856C58.2416 64.9522 57.2408 64.537 56.5026 63.7988C55.7644 63.0606 55.3492 62.0598 55.3481 61.0159V54.1804C55.3492 53.1364 55.7644 52.1356 56.5026 51.3974C57.2408 50.6592 58.2416 50.244 59.2856 50.2429H70.122L70.1219 64.9534ZM57.7038 57.5981C57.7161 58.9563 58.2643 60.2548 59.2291 61.2109C60.1939 62.167 61.4972 62.7034 62.8555 62.7034C64.2138 62.7034 65.5171 62.1669 66.4819 61.2108C67.4467 60.2547 67.9948 58.9562 68.0071 57.598C67.9939 56.2404 67.4453 54.9428 66.4806 53.9875C65.5159 53.0321 64.2131 52.4962 62.8554 52.4962C61.4977 52.4962 60.1949 53.0322 59.2303 53.9876C58.2656 54.9429 57.717 56.2405 57.7038 57.5981ZM62.8551 55.0711C63.5189 55.0808 64.1523 55.3514 64.6182 55.8242C65.0842 56.2971 65.3454 56.9343 65.3454 57.5981C65.3454 58.262 65.0842 58.8992 64.6182 59.3721C64.1522 59.8449 63.5188 60.1154 62.855 60.125C62.1914 60.1151 61.5583 59.8445 61.0925 59.3717C60.6267 58.8988 60.3656 58.2617 60.3657 57.598C60.3657 56.9343 60.6268 56.2972 61.0926 55.8244C61.5584 55.3516 62.1915 55.081 62.8551 55.0711Z" fill="url(#paint0_linear_118_782)"/>
<defs>
<linearGradient id="paint0_linear_118_782" x1="11.2521" y1="42" x2="72.7467" y2="42" gradientUnits="userSpaceOnUse">
<stop stop-color="#FF81FF"/>
<stop offset="1" stop-color="#A93AFF"/>
</linearGradient>
</defs>
</svg>
