<svg width="16" height="12" viewBox="0 0 16 12" fill="none" xmlns="http://www.w3.org/2000/svg">
<path fill-rule="evenodd" clip-rule="evenodd" d="M8.08033 3.1721C10.2962 3.1722 12.4274 4.02364 14.0333 5.55044C14.1543 5.66831 14.3476 5.66682 14.4667 5.5471L15.6227 4.38044C15.683 4.31971 15.7166 4.23746 15.7161 4.15188C15.7156 4.0663 15.681 3.98445 15.62 3.92444C11.4049 -0.115111 4.7551 -0.115111 0.539998 3.92444C0.478939 3.9844 0.444296 4.06623 0.443733 4.15181C0.44317 4.23739 0.476734 4.31967 0.536998 4.38044L1.69333 5.5471C1.81236 5.667 2.00581 5.66849 2.12666 5.55044C3.73282 4.02354 5.86422 3.1721 8.08033 3.1721ZM8.08033 6.96777C9.29782 6.96769 10.4719 7.42023 11.3743 8.23744C11.4964 8.35342 11.6887 8.3509 11.8077 8.23177L12.9623 7.0651C13.0231 7.00391 13.0569 6.92089 13.056 6.83463C13.0551 6.74836 13.0197 6.66605 12.9577 6.6061C10.2095 4.04972 5.95353 4.04972 3.20533 6.6061C3.14325 6.66605 3.10784 6.7484 3.10702 6.83469C3.10621 6.92099 3.14006 7.004 3.201 7.0651L4.35533 8.23177C4.47432 8.3509 4.6666 8.35342 4.78866 8.23744C5.69054 7.42077 6.86365 6.96827 8.08033 6.96777ZM10.3933 9.52159C10.3951 9.6081 10.3611 9.6915 10.2993 9.7521L8.302 11.7678C8.24345 11.827 8.16362 11.8603 8.08033 11.8603C7.99704 11.8603 7.91722 11.827 7.85866 11.7678L5.861 9.7521C5.79929 9.69145 5.76534 9.60802 5.76717 9.52152C5.769 9.43501 5.80644 9.35309 5.87067 9.2951C7.14624 8.21622 9.01443 8.21622 10.29 9.2951C10.3542 9.35314 10.3916 9.43508 10.3933 9.52159Z" fill="white"/>
</svg>
