<svg width="16" height="12" viewBox="0 0 16 12" fill="none" xmlns="http://www.w3.org/2000/svg">
<path fill-rule="evenodd" clip-rule="evenodd" d="M7.7253 2.61517C9.94412 2.61526 12.0781 3.46937 13.6862 5.00097C13.8073 5.11921 14.0008 5.11772 14.1201 4.99762L15.2776 3.82729C15.338 3.76638 15.3717 3.68387 15.3712 3.59802C15.3706 3.51217 15.336 3.43006 15.2749 3.36986C11.0543 -0.682369 4.39568 -0.682369 0.175013 3.36986C0.113874 3.43002 0.079184 3.5121 0.0786203 3.59795C0.0780565 3.6838 0.111665 3.76634 0.172009 3.82729L1.32987 4.99762C1.44905 5.1179 1.64276 5.11939 1.76377 5.00097C3.37205 3.46927 5.50627 2.61516 7.7253 2.61517ZM7.72529 6.42275C8.94438 6.42267 10.12 6.87663 11.0236 7.6964C11.1458 7.81275 11.3384 7.81023 11.4575 7.69072L12.6137 6.52039C12.6746 6.459 12.7084 6.37572 12.7075 6.28919C12.7066 6.20265 12.6712 6.12008 12.609 6.05995C9.85722 3.49554 5.59569 3.49554 2.84388 6.05995C2.78172 6.12008 2.74625 6.20269 2.74544 6.28926C2.74462 6.37582 2.77852 6.45909 2.83954 6.52039L3.99539 7.69072C4.11453 7.81023 4.30707 7.81275 4.42929 7.6964C5.33235 6.87717 6.507 6.42326 7.72529 6.42275ZM10.0413 8.98459C10.0431 9.07136 10.009 9.15503 9.9472 9.21583L7.94723 11.2378C7.88861 11.2972 7.80868 11.3307 7.72528 11.3307C7.64188 11.3307 7.56194 11.2972 7.50332 11.2378L5.50302 9.21583C5.44123 9.15498 5.40723 9.07129 5.40907 8.98451C5.4109 8.89773 5.44839 8.81556 5.5127 8.75739C6.78995 7.67512 8.6606 7.67512 9.93785 8.75739C10.0021 8.81561 10.0395 8.89781 10.0413 8.98459Z" fill="#1C233D"/>
</svg>
