<svg width="16" height="12" viewBox="0 0 16 12" fill="none" xmlns="http://www.w3.org/2000/svg">
<path fill-rule="evenodd" clip-rule="evenodd" d="M7.69813 3.0941C9.91402 3.0942 12.0452 3.94563 13.6511 5.47243C13.7721 5.59031 13.9654 5.58882 14.0845 5.4691L15.2405 4.30243C15.3008 4.24171 15.3344 4.15946 15.3339 4.07388C15.3334 3.9883 15.2988 3.90645 15.2378 3.84643C11.0227 -0.193114 4.37289 -0.193114 0.157796 3.84643C0.0967373 3.9064 0.0620934 3.98823 0.0615304 4.07381C0.0609674 4.15939 0.0945316 4.24167 0.154796 4.30243L1.31113 5.4691C1.43016 5.589 1.6236 5.59049 1.74446 5.47243C3.35061 3.94553 5.48202 3.09409 7.69813 3.0941ZM7.69813 6.88977C8.91562 6.88969 10.0897 7.34222 10.9921 8.15943C11.1142 8.27541 11.3065 8.2729 11.4255 8.15377L12.5801 6.9871C12.6409 6.9259 12.6747 6.84289 12.6738 6.75662C12.6729 6.67036 12.6375 6.58805 12.5755 6.5281C9.82726 3.97172 5.57133 3.97172 2.82313 6.5281C2.76105 6.58805 2.72563 6.6704 2.72482 6.75669C2.724 6.84298 2.75786 6.92599 2.8188 6.9871L3.97313 8.15377C4.09212 8.2729 4.2844 8.27541 4.40646 8.15943C5.30833 7.34276 6.48144 6.89027 7.69813 6.88977ZM10.0111 9.44358C10.0129 9.53009 9.97888 9.61349 9.91713 9.6741L7.9198 11.6898C7.86125 11.749 7.78142 11.7823 7.69813 11.7823C7.61484 11.7823 7.53501 11.749 7.47646 11.6898L5.4788 9.6741C5.41708 9.61345 5.38314 9.53002 5.38497 9.44351C5.3868 9.35701 5.42424 9.27509 5.48846 9.2171C6.76403 8.13822 8.63222 8.13822 9.9078 9.2171C9.97197 9.27513 10.0094 9.35708 10.0111 9.44358Z" fill="white"/>
</svg>
