<svg width="16" height="12" viewBox="0 0 16 12" fill="none" xmlns="http://www.w3.org/2000/svg">
<path fill-rule="evenodd" clip-rule="evenodd" d="M8.2494 2.60802C10.4653 2.60811 12.5965 3.45955 14.2024 4.98635C14.3233 5.10422 14.5166 5.10274 14.6357 4.98302L15.7917 3.81635C15.852 3.75563 15.8857 3.67338 15.8852 3.58779C15.8847 3.50221 15.8501 3.42036 15.7891 3.36035C11.574 -0.679198 4.92416 -0.679198 0.709065 3.36035C0.648007 3.42032 0.613363 3.50215 0.6128 3.58773C0.612237 3.67331 0.645801 3.75558 0.706065 3.81635L1.8624 4.98302C1.98143 5.10292 2.17487 5.10441 2.29573 4.98635C3.90188 3.45945 6.03329 2.60801 8.2494 2.60802ZM8.2494 6.40368C9.46689 6.40361 10.6409 6.85614 11.5434 7.67335C11.6655 7.78933 11.8577 7.78682 11.9767 7.66768L13.1314 6.50102C13.1922 6.43982 13.2259 6.3568 13.2251 6.27054C13.2242 6.18427 13.1888 6.10196 13.1267 6.04202C10.3785 3.48563 6.1226 3.48563 3.3744 6.04202C3.31232 6.10196 3.2769 6.18432 3.27609 6.27061C3.27527 6.3569 3.30913 6.43991 3.37007 6.50102L4.5244 7.66768C4.64339 7.78682 4.83567 7.78933 4.95773 7.67335C5.8596 6.85668 7.03271 6.40419 8.2494 6.40368ZM10.5624 8.9575C10.5642 9.04401 10.5302 9.12741 10.4684 9.18802L8.47107 11.2037C8.41252 11.2629 8.33269 11.2963 8.2494 11.2963C8.16611 11.2963 8.08628 11.2629 8.02773 11.2037L6.03007 9.18802C5.96835 9.12737 5.93441 9.04394 5.93624 8.95743C5.93807 8.87092 5.97551 8.789 6.03973 8.73102C7.3153 7.65213 9.18349 7.65213 10.4591 8.73102C10.5232 8.78905 10.5606 8.87099 10.5624 8.9575Z" fill="white"/>
</svg>
