<svg width="16" height="12" viewBox="0 0 16 12" fill="none" xmlns="http://www.w3.org/2000/svg">
<path fill-rule="evenodd" clip-rule="evenodd" d="M7.77674 2.53001C9.99264 2.53011 12.1238 3.38155 13.7297 4.90835C13.8507 5.02622 14.044 5.02473 14.1631 4.90501L15.3191 3.73835C15.3794 3.67762 15.413 3.59537 15.4125 3.50979C15.412 3.42421 15.3774 3.34236 15.3164 3.28235C11.1013 -0.757201 4.45151 -0.757201 0.236409 3.28235C0.175351 3.34231 0.140707 3.42414 0.140144 3.50972C0.139581 3.5953 0.173145 3.67758 0.233409 3.73835L1.38974 4.90501C1.50877 5.02491 1.70222 5.0264 1.82308 4.90835C3.42923 3.38145 5.56063 2.53001 7.77674 2.53001ZM7.77674 6.32568C8.99423 6.3256 10.1683 6.77814 11.0707 7.59535C11.1928 7.71133 11.3851 7.70881 11.5041 7.58968L12.6587 6.42301C12.7196 6.36182 12.7533 6.2788 12.7524 6.19254C12.7515 6.10627 12.7161 6.02396 12.6541 5.96401C9.90588 3.40763 5.64994 3.40763 2.90174 5.96401C2.83966 6.02396 2.80425 6.10631 2.80343 6.19261C2.80262 6.2789 2.83647 6.36191 2.89741 6.42301L4.05174 7.58968C4.17073 7.70881 4.36301 7.71133 4.48508 7.59535C5.38695 6.77868 6.56006 6.32618 7.77674 6.32568ZM10.0897 8.8795C10.0915 8.96601 10.0575 9.04941 9.99574 9.11001L7.99841 11.1257C7.93986 11.1849 7.86003 11.2183 7.77674 11.2183C7.69345 11.2183 7.61363 11.1849 7.55508 11.1257L5.55741 9.11001C5.4957 9.04936 5.46175 8.96593 5.46358 8.87943C5.46541 8.79292 5.50286 8.711 5.56708 8.65301C6.84265 7.57413 8.71084 7.57413 9.98641 8.65301C10.0506 8.71105 10.088 8.79299 10.0897 8.8795Z" fill="white"/>
</svg>
