<svg width="16" height="12" viewBox="0 0 16 12" fill="none" xmlns="http://www.w3.org/2000/svg">
<path fill-rule="evenodd" clip-rule="evenodd" d="M7.90577 2.9962C10.1217 2.9963 12.2528 3.84773 13.8588 5.37453C13.9797 5.49241 14.173 5.49092 14.2921 5.3712L15.4481 4.20453C15.5084 4.14381 15.542 4.06156 15.5415 3.97598C15.541 3.8904 15.5065 3.80855 15.4454 3.74853C11.2303 -0.291015 4.58054 -0.291015 0.365438 3.74853C0.304379 3.8085 0.269735 3.89033 0.269172 3.97591C0.268609 4.06149 0.302173 4.14377 0.362438 4.20453L1.51877 5.3712C1.6378 5.4911 1.83125 5.49259 1.9521 5.37453C3.55826 3.84763 5.68966 2.99619 7.90577 2.9962ZM7.90577 6.79187C9.12326 6.79179 10.2973 7.24432 11.1998 8.06153C11.3218 8.17751 11.5141 8.175 11.6331 8.05587L12.7878 6.8892C12.8486 6.828 12.8823 6.74499 12.8814 6.65872C12.8806 6.57246 12.8451 6.49015 12.7831 6.4302C10.0349 3.87382 5.77897 3.87382 3.03077 6.4302C2.96869 6.49014 2.93327 6.5725 2.93246 6.65879C2.93165 6.74508 2.9655 6.82809 3.02644 6.8892L4.18077 8.05587C4.29976 8.175 4.49204 8.17751 4.6141 8.06153C5.51598 7.24486 6.68909 6.79237 7.90577 6.79187ZM10.2188 9.34568C10.2205 9.43219 10.1865 9.51559 10.1248 9.5762L8.12744 11.5919C8.06889 11.6511 7.98906 11.6844 7.90577 11.6844C7.82248 11.6844 7.74265 11.6511 7.6841 11.5919L5.68644 9.5762C5.62473 9.51555 5.59078 9.43212 5.59261 9.34561C5.59444 9.25911 5.63188 9.17719 5.6961 9.1192C6.97168 8.04032 8.83987 8.04032 10.1154 9.1192C10.1796 9.17723 10.217 9.25918 10.2188 9.34568Z" fill="white"/>
</svg>
