<svg width="16" height="12" viewBox="0 0 16 12" fill="none" xmlns="http://www.w3.org/2000/svg">
<path fill-rule="evenodd" clip-rule="evenodd" d="M7.83033 3.1721C10.0462 3.1722 12.1774 4.02364 13.7833 5.55044C13.9043 5.66831 14.0976 5.66682 14.2167 5.5471L15.3727 4.38044C15.433 4.31971 15.4666 4.23746 15.4661 4.15188C15.4656 4.0663 15.431 3.98445 15.37 3.92444C11.1549 -0.115111 4.5051 -0.115111 0.289998 3.92444C0.228939 3.9844 0.194296 4.06623 0.193733 4.15181C0.19317 4.23739 0.226734 4.31967 0.286998 4.38044L1.44333 5.5471C1.56236 5.667 1.75581 5.66849 1.87666 5.55044C3.48282 4.02354 5.61422 3.1721 7.83033 3.1721ZM7.83033 6.96777C9.04782 6.96769 10.2219 7.42023 11.1243 8.23744C11.2464 8.35342 11.4387 8.3509 11.5577 8.23177L12.7123 7.0651C12.7731 7.00391 12.8069 6.92089 12.806 6.83463C12.8051 6.74836 12.7697 6.66605 12.7077 6.6061C9.95947 4.04972 5.70353 4.04972 2.95533 6.6061C2.89325 6.66605 2.85784 6.7484 2.85702 6.83469C2.85621 6.92099 2.89006 7.004 2.951 7.0651L4.10533 8.23177C4.22432 8.3509 4.4166 8.35342 4.53866 8.23744C5.44054 7.42077 6.61365 6.96827 7.83033 6.96777ZM10.1433 9.52159C10.1451 9.6081 10.1111 9.6915 10.0493 9.7521L8.052 11.7678C7.99345 11.827 7.91362 11.8603 7.83033 11.8603C7.74704 11.8603 7.66722 11.827 7.60866 11.7678L5.611 9.7521C5.54929 9.69145 5.51534 9.60802 5.51717 9.52152C5.519 9.43501 5.55644 9.35309 5.62067 9.2951C6.89624 8.21622 8.76443 8.21622 10.04 9.2951C10.1042 9.35314 10.1416 9.43508 10.1433 9.52159Z" fill="white"/>
</svg>
