<svg width="16" height="12" viewBox="0 0 16 12" fill="none" xmlns="http://www.w3.org/2000/svg">
<path fill-rule="evenodd" clip-rule="evenodd" d="M7.83033 2.60802C10.0462 2.60811 12.1774 3.45955 13.7833 4.98635C13.9043 5.10422 14.0976 5.10274 14.2167 4.98302L15.3727 3.81635C15.433 3.75563 15.4666 3.67338 15.4661 3.58779C15.4656 3.50221 15.431 3.42036 15.37 3.36035C11.1549 -0.679198 4.5051 -0.679198 0.289998 3.36035C0.228939 3.42032 0.194296 3.50215 0.193733 3.58773C0.19317 3.67331 0.226734 3.75558 0.286998 3.81635L1.44333 4.98302C1.56236 5.10292 1.75581 5.10441 1.87666 4.98635C3.48282 3.45945 5.61422 2.60801 7.83033 2.60802ZM7.83033 6.40368C9.04782 6.40361 10.2219 6.85614 11.1243 7.67335C11.2464 7.78933 11.4387 7.78682 11.5577 7.66768L12.7123 6.50102C12.7731 6.43982 12.8069 6.3568 12.806 6.27054C12.8051 6.18427 12.7697 6.10196 12.7077 6.04202C9.95947 3.48563 5.70353 3.48563 2.95533 6.04202C2.89325 6.10196 2.85784 6.18432 2.85702 6.27061C2.85621 6.3569 2.89006 6.43991 2.951 6.50102L4.10533 7.66768C4.22432 7.78682 4.4166 7.78933 4.53866 7.67335C5.44054 6.85668 6.61365 6.40419 7.83033 6.40368ZM10.1433 8.9575C10.1451 9.04401 10.1111 9.12741 10.0493 9.18802L8.052 11.2037C7.99345 11.2629 7.91362 11.2963 7.83033 11.2963C7.74704 11.2963 7.66722 11.2629 7.60866 11.2037L5.611 9.18802C5.54929 9.12737 5.51534 9.04394 5.51717 8.95743C5.519 8.87092 5.55644 8.789 5.62067 8.73102C6.89624 7.65213 8.76443 7.65213 10.04 8.73102C10.1042 8.78905 10.1416 8.87099 10.1433 8.9575Z" fill="white"/>
</svg>
