<svg width="16" height="12" viewBox="0 0 16 12" fill="none" xmlns="http://www.w3.org/2000/svg">
<path fill-rule="evenodd" clip-rule="evenodd" d="M8.29933 2.53001C10.5152 2.53011 12.6464 3.38155 14.2523 4.90835C14.3733 5.02622 14.5666 5.02473 14.6857 4.90501L15.8417 3.73835C15.902 3.67762 15.9356 3.59537 15.9351 3.50979C15.9346 3.42421 15.9 3.34236 15.839 3.28235C11.6239 -0.757201 4.97409 -0.757201 0.758992 3.28235C0.697934 3.34231 0.66329 3.42414 0.662727 3.50972C0.662164 3.5953 0.695728 3.67758 0.755992 3.73835L1.91233 4.90501C2.03135 5.02491 2.2248 5.0264 2.34566 4.90835C3.95181 3.38145 6.08322 2.53001 8.29933 2.53001ZM8.29933 6.32568C9.51682 6.3256 10.6909 6.77814 11.5933 7.59535C11.7154 7.71133 11.9077 7.70881 12.0267 7.58968L13.1813 6.42301C13.2421 6.36182 13.2759 6.2788 13.275 6.19254C13.2741 6.10627 13.2387 6.02396 13.1767 5.96401C10.4285 3.40763 6.17252 3.40763 3.42433 5.96401C3.36225 6.02396 3.32683 6.10631 3.32601 6.19261C3.3252 6.2789 3.35906 6.36191 3.41999 6.42301L4.57433 7.58968C4.69331 7.70881 4.8856 7.71133 5.00766 7.59535C5.90953 6.77868 7.08264 6.32618 8.29933 6.32568ZM10.6123 8.8795C10.6141 8.96601 10.5801 9.04941 10.5183 9.11001L8.52099 11.1257C8.46244 11.1849 8.38262 11.2183 8.29933 11.2183C8.21603 11.2183 8.13621 11.1849 8.07766 11.1257L6.07999 9.11001C6.01828 9.04936 5.98433 8.96593 5.98616 8.87943C5.98799 8.79292 6.02544 8.711 6.08966 8.65301C7.36523 7.57413 9.23342 7.57413 10.509 8.65301C10.5732 8.71105 10.6106 8.79299 10.6123 8.8795Z" fill="white"/>
</svg>
