<svg width="16" height="12" viewBox="0 0 16 12" fill="none" xmlns="http://www.w3.org/2000/svg">
<path fill-rule="evenodd" clip-rule="evenodd" d="M7.66847 2.56023C9.88436 2.56032 12.0155 3.41176 13.6215 4.93856C13.7424 5.05643 13.9357 5.05495 14.0548 4.93523L15.2108 3.76856C15.2711 3.70784 15.3047 3.62558 15.3042 3.54C15.3037 3.45442 15.2691 3.37257 15.2081 3.31256C10.993 -0.726989 4.34323 -0.726989 0.128133 3.31256C0.0670743 3.37253 0.0324304 3.45435 0.0318673 3.53994C0.0313043 3.62552 0.0648686 3.70779 0.125133 3.76856L1.28147 4.93523C1.40049 5.05513 1.59394 5.05661 1.7148 4.93856C3.32095 3.41166 5.45236 2.56022 7.66847 2.56023ZM7.66847 6.35589C8.88596 6.35582 10.06 6.80835 10.9625 7.62556C11.0845 7.74154 11.2768 7.73902 11.3958 7.61989L12.5505 6.45323C12.6113 6.39203 12.645 6.30901 12.6441 6.22275C12.6433 6.13648 12.6078 6.05417 12.5458 5.99423C9.7976 3.43784 5.54167 3.43784 2.79347 5.99423C2.73139 6.05417 2.69597 6.13652 2.69516 6.22282C2.69434 6.30911 2.7282 6.39212 2.78913 6.45323L3.94347 7.61989C4.06245 7.73902 4.25474 7.74154 4.3768 7.62556C5.27867 6.80889 6.45178 6.3564 7.66847 6.35589ZM9.98146 8.90971C9.98323 8.99622 9.94922 9.07962 9.88747 9.14023L7.89013 11.1559C7.83158 11.2151 7.75176 11.2485 7.66847 11.2485C7.58518 11.2485 7.50535 11.2151 7.4468 11.1559L5.44913 9.14023C5.38742 9.07957 5.35347 8.99615 5.3553 8.90964C5.35713 8.82313 5.39458 8.74121 5.4588 8.68323C6.73437 7.60434 8.60256 7.60434 9.87813 8.68323C9.94231 8.74126 9.97969 8.8232 9.98146 8.90971Z" fill="white"/>
</svg>
