<svg width="17" height="12" viewBox="0 0 17 12" fill="none" xmlns="http://www.w3.org/2000/svg">
<path fill-rule="evenodd" clip-rule="evenodd" d="M8.55624 3.17925C10.7751 3.17935 12.909 4.03346 14.5171 5.56505C14.6382 5.6833 14.8317 5.68181 14.951 5.56171L16.1085 4.39138C16.1689 4.33047 16.2026 4.24796 16.2021 4.16211C16.2016 4.07626 16.167 3.99415 16.1059 3.93395C11.8852 -0.118282 5.22661 -0.118282 1.00595 3.93395C0.944806 3.9941 0.910117 4.07619 0.909553 4.16204C0.908989 4.24789 0.942598 4.33042 1.00294 4.39138L2.1608 5.56171C2.27999 5.68199 2.47369 5.68348 2.59471 5.56505C4.20298 4.03336 6.3372 3.17925 8.55624 3.17925ZM8.55622 6.98684C9.77531 6.98676 10.9509 7.44071 11.8546 8.26049C11.9768 8.37683 12.1693 8.37431 12.2885 8.25481L13.4446 7.08448C13.5055 7.02309 13.5393 6.93981 13.5384 6.85328C13.5376 6.76674 13.5021 6.68417 13.44 6.62403C10.6882 4.05963 6.42662 4.05963 3.67481 6.62403C3.61265 6.68417 3.57719 6.76678 3.57637 6.85334C3.57555 6.93991 3.60946 7.02318 3.67047 7.08448L4.82632 8.25481C4.94547 8.37431 5.138 8.37683 5.26023 8.26049C6.16328 7.44126 7.33794 6.98734 8.55622 6.98684ZM10.8722 9.54867C10.874 9.63545 10.84 9.71912 10.7781 9.77991L8.77817 11.8019C8.71954 11.8613 8.63961 11.8948 8.55621 11.8948C8.47281 11.8948 8.39288 11.8613 8.33425 11.8019L6.33395 9.77991C6.27216 9.71907 6.23817 9.63538 6.24 9.5486C6.24183 9.46182 6.27933 9.37965 6.34363 9.32148C7.62088 8.23921 9.49153 8.23921 10.7688 9.32148C10.833 9.37969 10.8705 9.46189 10.8722 9.54867Z" fill="#1C233D"/>
</svg>
