<svg width="16" height="12" viewBox="0 0 16 12" fill="none" xmlns="http://www.w3.org/2000/svg">
<path fill-rule="evenodd" clip-rule="evenodd" d="M8.33033 3.1721C10.5462 3.1722 12.6774 4.02364 14.2833 5.55044C14.4043 5.66831 14.5976 5.66682 14.7167 5.5471L15.8727 4.38044C15.933 4.31971 15.9666 4.23746 15.9661 4.15188C15.9656 4.0663 15.931 3.98445 15.87 3.92444C11.6549 -0.115111 5.0051 -0.115111 0.789998 3.92444C0.728939 3.9844 0.694296 4.06623 0.693733 4.15181C0.69317 4.23739 0.726734 4.31967 0.786998 4.38044L1.94333 5.5471C2.06236 5.667 2.25581 5.66849 2.37666 5.55044C3.98282 4.02354 6.11422 3.1721 8.33033 3.1721ZM8.33033 6.96777C9.54782 6.96769 10.7219 7.42023 11.6243 8.23744C11.7464 8.35342 11.9387 8.3509 12.0577 8.23177L13.2123 7.0651C13.2731 7.00391 13.3069 6.92089 13.306 6.83463C13.3051 6.74836 13.2697 6.66605 13.2077 6.6061C10.4595 4.04972 6.20353 4.04972 3.45533 6.6061C3.39325 6.66605 3.35784 6.7484 3.35702 6.83469C3.35621 6.92099 3.39006 7.004 3.451 7.0651L4.60533 8.23177C4.72432 8.3509 4.9166 8.35342 5.03866 8.23744C5.94054 7.42077 7.11365 6.96827 8.33033 6.96777ZM10.6433 9.52159C10.6451 9.6081 10.6111 9.6915 10.5493 9.7521L8.552 11.7678C8.49345 11.827 8.41362 11.8603 8.33033 11.8603C8.24704 11.8603 8.16722 11.827 8.10866 11.7678L6.111 9.7521C6.04929 9.69145 6.01534 9.60802 6.01717 9.52152C6.019 9.43501 6.05644 9.35309 6.12067 9.2951C7.39624 8.21622 9.26443 8.21622 10.54 9.2951C10.6042 9.35314 10.6416 9.43508 10.6433 9.52159Z" fill="white"/>
</svg>
