<svg width="37" height="37" viewBox="0 0 37 37" fill="none" xmlns="http://www.w3.org/2000/svg">
<path fill-rule="evenodd" clip-rule="evenodd" d="M18.6067 36.9565C28.6502 36.9565 36.7921 28.8146 36.7921 18.7711C36.7921 8.72765 28.6502 0.585793 18.6067 0.585793C8.56324 0.585793 0.421387 8.72765 0.421387 18.7711C0.421387 28.8146 8.56324 36.9565 18.6067 36.9565Z" fill="#060A10"/>
<path d="M26.6425 9.67846L21.4437 14.8192C20.6873 15.5658 19.6673 15.9844 18.6045 15.9844C17.5418 15.9844 16.5217 15.5658 15.7653 14.8192L10.5712 9.67846H7.28075L14.123 16.4491C15.3183 17.6267 16.9289 18.2869 18.6068 18.2869C20.2848 18.2869 21.8954 17.6267 23.0906 16.4491L29.9283 9.67846H26.6436H26.6425ZM10.5314 28.5037L15.7699 23.3175C16.5263 22.5709 17.5463 22.1523 18.6091 22.1523C19.6719 22.1523 20.6919 22.5709 21.4483 23.3175L26.6822 28.5037H29.9726L23.0906 21.6922C21.8954 20.5145 20.2848 19.8544 18.6068 19.8544C16.9289 19.8544 15.3183 20.5145 14.123 21.6922L7.24097 28.5026H10.5314V28.5037Z" fill="white"/>
</svg>
